M48
; DRILL file {KiCad (7.0.0)} date Tue May  2 16:39:23 2023
; FORMAT={-:-/ absolute / inch / decimal}
; #@! TF.CreationDate,2023-05-02T16:39:23+03:00
; #@! TF.GenerationSoftware,Kicad,Pcbnew,(7.0.0)
; #@! TF.FileFunction,MixedPlating,1,2
FMAT,2
INCH
; #@! TA.AperFunction,Plated,PTH,ViaDrill
T1C0.0236
; #@! TA.AperFunction,Plated,PTH,ComponentDrill
T2C0.0315
; #@! TA.AperFunction,Plated,PTH,ComponentDrill
T3C0.0354
; #@! TA.AperFunction,Plated,PTH,ComponentDrill
T4C0.0581
; #@! TA.AperFunction,Plated,PTH,ComponentDrill
T5C0.0984
; #@! TA.AperFunction,NonPlated,NPTH,ComponentDrill
T6C0.0472
%
G90
G05
T1
X4.8425Y-2.0669
X4.8425Y-2.0669
X4.8425Y-2.5787
X4.8425Y-3.0315
X4.8425Y-3.4843
X4.9016Y-2.0669
X4.9016Y-2.5787
X4.9016Y-3.0315
X4.9016Y-3.4843
X5.042Y-1.7697
X5.042Y-1.9665
X5.042Y-3.5413
X5.042Y-3.7382
X5.042Y-3.935
X5.042Y-4.1319
X5.2388Y-1.7697
X5.2388Y-1.9665
X5.2388Y-3.5413
X5.2388Y-3.7382
X5.2388Y-3.935
X5.2388Y-4.1319
X5.2388Y-4.3287
X5.4357Y-1.7697
X5.4357Y-1.9665
X5.4357Y-2.7539
X5.4357Y-3.5413
X5.4357Y-3.7382
X5.4357Y-3.935
X5.4357Y-4.1319
X5.4357Y-4.3287
X5.6325Y-3.5413
X5.6325Y-3.935
X5.6325Y-4.1319
X5.6325Y-4.3287
X5.8294Y-2.1634
X5.8294Y-2.3602
X5.8294Y-2.5571
X5.8294Y-2.7539
X5.8294Y-3.5413
X5.8294Y-3.7382
X5.8294Y-3.935
X5.8294Y-4.1319
X5.8294Y-4.3287
X5.8937Y-3.189
X6.0262Y-1.7697
X6.0262Y-1.9665
X6.0262Y-2.1634
X6.0262Y-2.3602
X6.0262Y-2.5571
X6.0262Y-2.7539
X6.0262Y-3.5413
X6.0262Y-3.7382
X6.0262Y-3.935
X6.0262Y-4.1319
X6.0262Y-4.3287
X6.122Y-3.0315
X6.2205Y-3.1496
X6.2205Y-3.6614
X6.2231Y-2.5571
X6.2231Y-3.935
X6.2231Y-4.1319
X6.2231Y-4.3287
X6.2795Y-3.3858
X6.4199Y-3.935
X6.4199Y-4.1319
X6.4199Y-4.3287
X6.6168Y-3.935
X6.6168Y-4.1319
X6.6168Y-4.3287
X6.6654Y-3.7008
X6.6755Y-2.8959
X6.8136Y-4.1319
X6.8136Y-4.3287
X7.0105Y-3.7382
X7.0105Y-3.935
X7.0105Y-4.1319
X7.2073Y-3.935
X7.2073Y-4.1319
X7.4042Y-3.7382
X7.4042Y-3.935
X7.4042Y-4.1319
X7.4042Y-4.3287
X7.601Y-3.935
X7.601Y-4.1319
X7.601Y-4.3287
X7.7979Y-3.7382
X7.7979Y-4.3287
X7.9947Y-3.7382
X7.9947Y-4.3287
X8.2874Y-2.3031
X8.2874Y-2.5591
X8.2874Y-3.1693
X8.2874Y-3.3268
X8.2874Y-3.3268
X8.2874Y-3.937
X8.2874Y-4.1732
T2
X5.3134Y-3.363
X5.3134Y-3.663
X5.3238Y-2.878
X5.3238Y-3.178
X5.4134Y-3.363
X5.4134Y-3.663
X5.4238Y-2.878
X5.4238Y-3.178
X5.5472Y-2.8315
X5.5472Y-3.2315
X5.5472Y-3.3189
X5.5472Y-3.7189
X5.6732Y-2.7535
X5.6732Y-3.1535
X5.6732Y-3.3819
X5.6732Y-3.7819
T3
X5.0787Y-2.185
X5.0787Y-2.2835
X5.0787Y-2.3819
X5.0787Y-2.4803
X5.0787Y-3.0906
X5.0787Y-3.189
X5.0787Y-3.2874
X5.0787Y-3.3858
T4
X5.5984Y-1.6803
X5.5984Y-1.7803
X5.5984Y-1.8803
X5.5984Y-1.9803
X5.6984Y-1.6803
X5.6984Y-1.7803
X5.6984Y-1.8803
X5.6984Y-1.9803
X5.7984Y-1.6803
X5.7984Y-1.7803
X5.7984Y-1.8803
X5.7984Y-1.9803
X5.8984Y-1.6803
X5.8984Y-1.7803
X5.8984Y-1.8803
X5.8984Y-1.9803
X7.1732Y-1.6803
X7.1732Y-1.7803
X7.1732Y-1.8803
X7.1732Y-1.9803
X7.2732Y-1.6803
X7.2732Y-1.7803
X7.2732Y-1.8803
X7.2732Y-1.9803
X7.3732Y-1.6803
X7.3732Y-1.7803
X7.3732Y-1.8803
X7.3732Y-1.9803
X7.4732Y-1.6803
X7.4732Y-1.7803
X7.4732Y-1.8803
X7.4732Y-1.9803
X7.8031Y-2.3102
X7.8031Y-2.4102
X7.8031Y-2.5102
X7.8031Y-2.6102
X7.8031Y-3.0976
X7.8031Y-3.1976
X7.8031Y-3.2976
X7.8031Y-3.3976
X7.8031Y-3.885
X7.8031Y-3.985
X7.8031Y-4.085
X7.8031Y-4.185
X7.9031Y-2.3102
X7.9031Y-2.4102
X7.9031Y-2.5102
X7.9031Y-2.6102
X7.9031Y-3.0976
X7.9031Y-3.1976
X7.9031Y-3.2976
X7.9031Y-3.3976
X7.9031Y-3.885
X7.9031Y-3.985
X7.9031Y-4.085
X7.9031Y-4.185
X8.0031Y-2.3102
X8.0031Y-2.4102
X8.0031Y-2.5102
X8.0031Y-2.6102
X8.0031Y-3.0976
X8.0031Y-3.1976
X8.0031Y-3.2976
X8.0031Y-3.3976
X8.0031Y-3.885
X8.0031Y-3.985
X8.0031Y-4.085
X8.0031Y-4.185
X8.1031Y-2.3102
X8.1031Y-2.4102
X8.1031Y-2.5102
X8.1031Y-2.6102
X8.1031Y-3.0976
X8.1031Y-3.1976
X8.1031Y-3.2976
X8.1031Y-3.3976
X8.1031Y-3.885
X8.1031Y-3.985
X8.1031Y-4.085
X8.1031Y-4.185
T5
X4.9606Y-1.5354
X4.9606Y-4.3701
X7.1654Y-2.3228
X7.1654Y-4.3701
X8.189Y-1.5354
T6
X5.1417Y-2.5433
X5.1417Y-3.4488
T0
M30
