M48
; DRILL file {KiCad (7.0.0)} date Wed May  3 12:29:02 2023
; FORMAT={-:-/ absolute / inch / decimal}
; #@! TF.CreationDate,2023-05-03T12:29:02+03:00
; #@! TF.GenerationSoftware,Kicad,Pcbnew,(7.0.0)
; #@! TF.FileFunction,Plated,1,2,PTH
FMAT,2
INCH
; #@! TA.AperFunction,Plated,PTH,ViaDrill
T1C0.0236
; #@! TA.AperFunction,Plated,PTH,ComponentDrill
T2C0.0315
; #@! TA.AperFunction,Plated,PTH,ComponentDrill
T3C0.0354
; #@! TA.AperFunction,Plated,PTH,ComponentDrill
T4C0.0581
; #@! TA.AperFunction,Plated,PTH,ComponentDrill
T5C0.0984
%
G90
G05
T1
X4.8346Y-3.0236
X4.8346Y-3.0236
X4.8386Y-2.0669
X4.8386Y-3.4843
X4.8425Y-2.5787
X4.9016Y-2.5787
X4.9134Y-3.0236
X4.9134Y-3.4843
X4.9134Y-3.4843
X4.9173Y-2.0669
X5.1575Y-2.4528
X5.1995Y-1.6516
X5.1995Y-1.9272
X5.1995Y-3.5807
X5.1995Y-3.8563
X5.1995Y-4.1319
X5.4751Y-1.6516
X5.4751Y-1.9272
X5.4751Y-2.7539
X5.4751Y-3.5807
X5.4751Y-3.8563
X5.4751Y-4.1319
X5.7507Y-2.2028
X5.7507Y-2.4783
X5.7507Y-2.7539
X5.7507Y-3.0295
X5.7507Y-3.5807
X5.7507Y-3.8563
X5.7507Y-4.1319
X5.8937Y-3.189
X6.0262Y-1.6516
X6.0262Y-1.9272
X6.0262Y-2.2028
X6.0262Y-2.4783
X6.0262Y-2.7539
X6.0262Y-3.0295
X6.0262Y-3.5807
X6.0262Y-3.8563
X6.0262Y-4.1319
X6.122Y-3.0315
X6.2205Y-3.1496
X6.2205Y-3.6614
X6.2795Y-3.3858
X6.3018Y-4.1319
X6.4199Y-1.9665
X6.4199Y-2.5571
X6.4483Y-3.076
X6.4483Y-3.376
X6.5774Y-3.8563
X6.5774Y-4.1319
X6.6483Y-3.176
X6.6654Y-3.7008
X6.6755Y-2.8959
X6.7483Y-3.376
X6.8136Y-1.7697
X6.8136Y-2.7539
X6.8483Y-3.576
X6.853Y-3.8563
X6.853Y-4.1319
X6.9483Y-3.076
X7.0105Y-2.1634
X7.0483Y-2.876
X7.0483Y-3.276
X7.1286Y-3.8563
X7.1286Y-4.1319
X7.1483Y-3.476
X7.2073Y-2.5571
X7.2483Y-3.076
X7.3483Y-2.876
X7.3483Y-3.276
X7.3483Y-3.576
X7.4042Y-3.8563
X7.4042Y-4.1319
X7.5483Y-3.076
X7.5483Y-3.376
X7.601Y-1.7697
X7.601Y-2.3602
X7.6483Y-2.876
X7.6483Y-3.576
X7.6798Y-3.8563
X7.6798Y-4.1319
X7.7979Y-2.7539
X7.8483Y-2.976
X7.8483Y-3.476
X7.9947Y-1.9665
X8.0483Y-2.876
X8.0483Y-3.576
X8.1916Y-2.3602
X8.2874Y-2.3031
X8.2874Y-2.5591
X8.2874Y-3.126
X8.2874Y-3.3701
X8.2874Y-3.8819
X8.2874Y-4.189
T2
X5.3134Y-3.363
X5.3134Y-3.663
X5.3238Y-2.878
X5.3238Y-3.178
X5.4134Y-3.363
X5.4134Y-3.663
X5.4238Y-2.878
X5.4238Y-3.178
X5.5472Y-2.8315
X5.5472Y-3.2315
X5.5472Y-3.3189
X5.5472Y-3.7189
X5.6732Y-2.7535
X5.6732Y-3.1535
X5.6732Y-3.3819
X5.6732Y-3.7819
T3
X5.0787Y-2.185
X5.0787Y-2.2835
X5.0787Y-2.3819
X5.0787Y-2.4803
X5.0787Y-3.0906
X5.0787Y-3.189
X5.0787Y-3.2874
X5.0787Y-3.3858
T4
X5.5984Y-1.6803
X5.5984Y-1.7803
X5.5984Y-1.8803
X5.5984Y-1.9803
X5.6984Y-1.6803
X5.6984Y-1.7803
X5.6984Y-1.8803
X5.6984Y-1.9803
X5.7984Y-1.6803
X5.7984Y-1.7803
X5.7984Y-1.8803
X5.7984Y-1.9803
X5.8984Y-1.6803
X5.8984Y-1.7803
X5.8984Y-1.8803
X5.8984Y-1.9803
X7.1732Y-1.6803
X7.1732Y-1.7803
X7.1732Y-1.8803
X7.1732Y-1.9803
X7.2732Y-1.6803
X7.2732Y-1.7803
X7.2732Y-1.8803
X7.2732Y-1.9803
X7.3732Y-1.6803
X7.3732Y-1.7803
X7.3732Y-1.8803
X7.3732Y-1.9803
X7.4732Y-1.6803
X7.4732Y-1.7803
X7.4732Y-1.8803
X7.4732Y-1.9803
X7.8031Y-2.3102
X7.8031Y-2.4102
X7.8031Y-2.5102
X7.8031Y-2.6102
X7.8031Y-3.0976
X7.8031Y-3.1976
X7.8031Y-3.2976
X7.8031Y-3.3976
X7.8031Y-3.885
X7.8031Y-3.985
X7.8031Y-4.085
X7.8031Y-4.185
X7.9031Y-2.3102
X7.9031Y-2.4102
X7.9031Y-2.5102
X7.9031Y-2.6102
X7.9031Y-3.0976
X7.9031Y-3.1976
X7.9031Y-3.2976
X7.9031Y-3.3976
X7.9031Y-3.885
X7.9031Y-3.985
X7.9031Y-4.085
X7.9031Y-4.185
X8.0031Y-2.3102
X8.0031Y-2.4102
X8.0031Y-2.5102
X8.0031Y-2.6102
X8.0031Y-3.0976
X8.0031Y-3.1976
X8.0031Y-3.2976
X8.0031Y-3.3976
X8.0031Y-3.885
X8.0031Y-3.985
X8.0031Y-4.085
X8.0031Y-4.185
X8.1031Y-2.3102
X8.1031Y-2.4102
X8.1031Y-2.5102
X8.1031Y-2.6102
X8.1031Y-3.0976
X8.1031Y-3.1976
X8.1031Y-3.2976
X8.1031Y-3.3976
X8.1031Y-3.885
X8.1031Y-3.985
X8.1031Y-4.085
X8.1031Y-4.185
T5
X4.9606Y-1.5354
X4.9606Y-4.3701
X7.1654Y-2.3228
X7.1654Y-4.3701
X8.189Y-1.5354
T0
M30
