%TF.GenerationSoftware,KiCad,Pcbnew,(7.0.0)*%
%TF.CreationDate,2023-05-02T16:40:04+03:00*%
%TF.ProjectId,MotorDriverDualHalfBridge,4d6f746f-7244-4726-9976-65724475616c,rev?*%
%TF.SameCoordinates,Original*%
%TF.FileFunction,Copper,L1,Top*%
%TF.FilePolarity,Positive*%
%FSLAX46Y46*%
G04 Gerber Fmt 4.6, Leading zero omitted, Abs format (unit mm)*
G04 Created by KiCad (PCBNEW (7.0.0)) date 2023-05-02 16:40:04*
%MOMM*%
%LPD*%
G01*
G04 APERTURE LIST*
G04 Aperture macros list*
%AMRoundRect*
0 Rectangle with rounded corners*
0 $1 Rounding radius*
0 $2 $3 $4 $5 $6 $7 $8 $9 X,Y pos of 4 corners*
0 Add a 4 corners polygon primitive as box body*
4,1,4,$2,$3,$4,$5,$6,$7,$8,$9,$2,$3,0*
0 Add four circle primitives for the rounded corners*
1,1,$1+$1,$2,$3*
1,1,$1+$1,$4,$5*
1,1,$1+$1,$6,$7*
1,1,$1+$1,$8,$9*
0 Add four rect primitives between the rounded corners*
20,1,$1+$1,$2,$3,$4,$5,0*
20,1,$1+$1,$4,$5,$6,$7,0*
20,1,$1+$1,$6,$7,$8,$9,0*
20,1,$1+$1,$8,$9,$2,$3,0*%
%AMFreePoly0*
4,1,19,0.500000,-0.750000,0.000000,-0.750000,0.000000,-0.744911,-0.071157,-0.744911,-0.207708,-0.704816,-0.327430,-0.627875,-0.420627,-0.520320,-0.479746,-0.390866,-0.500000,-0.250000,-0.500000,0.250000,-0.479746,0.390866,-0.420627,0.520320,-0.327430,0.627875,-0.207708,0.704816,-0.071157,0.744911,0.000000,0.744911,0.000000,0.750000,0.500000,0.750000,0.500000,-0.750000,0.500000,-0.750000,
$1*%
%AMFreePoly1*
4,1,19,0.000000,0.744911,0.071157,0.744911,0.207708,0.704816,0.327430,0.627875,0.420627,0.520320,0.479746,0.390866,0.500000,0.250000,0.500000,-0.250000,0.479746,-0.390866,0.420627,-0.520320,0.327430,-0.627875,0.207708,-0.704816,0.071157,-0.744911,0.000000,-0.744911,0.000000,-0.750000,-0.500000,-0.750000,-0.500000,0.750000,0.000000,0.750000,0.000000,0.744911,0.000000,0.744911,
$1*%
G04 Aperture macros list end*
%ADD10C,0.300000*%
%TA.AperFunction,NonConductor*%
%ADD11C,0.300000*%
%TD*%
%ADD12C,0.200000*%
%TA.AperFunction,NonConductor*%
%ADD13C,0.200000*%
%TD*%
%ADD14C,0.500000*%
%ADD15C,0.150000*%
%TA.AperFunction,NonConductor*%
%ADD16C,0.150000*%
%TD*%
%TA.AperFunction,ComponentPad*%
%ADD17R,1.400000X1.400000*%
%TD*%
%TA.AperFunction,ComponentPad*%
%ADD18C,1.400000*%
%TD*%
%TA.AperFunction,ComponentPad*%
%ADD19C,5.000000*%
%TD*%
%TA.AperFunction,SMDPad,CuDef*%
%ADD20RoundRect,0.250000X-0.550000X1.500000X-0.550000X-1.500000X0.550000X-1.500000X0.550000X1.500000X0*%
%TD*%
%TA.AperFunction,ComponentPad*%
%ADD21C,1.600000*%
%TD*%
%TA.AperFunction,ComponentPad*%
%ADD22O,1.600000X1.600000*%
%TD*%
%TA.AperFunction,ComponentPad*%
%ADD23R,1.600000X1.600000*%
%TD*%
%TA.AperFunction,ComponentPad*%
%ADD24C,2.200000*%
%TD*%
%TA.AperFunction,SMDPad,CuDef*%
%ADD25C,1.000000*%
%TD*%
%TA.AperFunction,SMDPad,CuDef*%
%ADD26RoundRect,0.250000X-0.450000X0.350000X-0.450000X-0.350000X0.450000X-0.350000X0.450000X0.350000X0*%
%TD*%
%TA.AperFunction,SMDPad,CuDef*%
%ADD27RoundRect,0.237500X-0.237500X0.300000X-0.237500X-0.300000X0.237500X-0.300000X0.237500X0.300000X0*%
%TD*%
%TA.AperFunction,SMDPad,CuDef*%
%ADD28RoundRect,0.237500X0.237500X-0.300000X0.237500X0.300000X-0.237500X0.300000X-0.237500X-0.300000X0*%
%TD*%
%TA.AperFunction,SMDPad,CuDef*%
%ADD29R,4.700000X1.750000*%
%TD*%
%TA.AperFunction,SMDPad,CuDef*%
%ADD30R,0.800000X1.750000*%
%TD*%
%TA.AperFunction,SMDPad,CuDef*%
%ADD31R,7.100000X5.800000*%
%TD*%
%TA.AperFunction,SMDPad,CuDef*%
%ADD32RoundRect,0.150000X-0.825000X-0.150000X0.825000X-0.150000X0.825000X0.150000X-0.825000X0.150000X0*%
%TD*%
%TA.AperFunction,SMDPad,CuDef*%
%ADD33RoundRect,0.237500X-0.237500X0.250000X-0.237500X-0.250000X0.237500X-0.250000X0.237500X0.250000X0*%
%TD*%
%TA.AperFunction,SMDPad,CuDef*%
%ADD34RoundRect,0.250000X0.550000X-1.500000X0.550000X1.500000X-0.550000X1.500000X-0.550000X-1.500000X0*%
%TD*%
%TA.AperFunction,SMDPad,CuDef*%
%ADD35FreePoly0,90.000000*%
%TD*%
%TA.AperFunction,SMDPad,CuDef*%
%ADD36FreePoly1,90.000000*%
%TD*%
%TA.AperFunction,SMDPad,CuDef*%
%ADD37RoundRect,0.250000X-0.475000X0.337500X-0.475000X-0.337500X0.475000X-0.337500X0.475000X0.337500X0*%
%TD*%
%TA.AperFunction,ViaPad*%
%ADD38C,1.000000*%
%TD*%
%TA.AperFunction,ViaPad*%
%ADD39C,0.800000*%
%TD*%
%TA.AperFunction,Conductor*%
%ADD40C,0.400000*%
%TD*%
%TA.AperFunction,Conductor*%
%ADD41C,1.000000*%
%TD*%
%TA.AperFunction,Conductor*%
%ADD42C,0.500000*%
%TD*%
%TA.AperFunction,Conductor*%
%ADD43C,0.250000*%
%TD*%
G04 APERTURE END LIST*
D10*
D11*
X211051071Y-83000000D02*
X209551071Y-83000000D01*
X209551071Y-83000000D02*
X210622500Y-82500000D01*
X210622500Y-82500000D02*
X209551071Y-82000000D01*
X209551071Y-82000000D02*
X211051071Y-82000000D01*
D12*
D13*
X122844762Y-81573904D02*
X122844762Y-80773904D01*
X122844762Y-81154857D02*
X123301905Y-81154857D01*
X123301905Y-81573904D02*
X123301905Y-80773904D01*
X123625714Y-81753333D02*
X123625714Y-81193333D01*
X123892381Y-81753333D02*
X123892381Y-81193333D01*
X123892381Y-81193333D02*
X124212381Y-81753333D01*
X124212381Y-81753333D02*
X124212381Y-81193333D01*
D10*
D11*
X123122500Y-57892856D02*
X123051071Y-58035714D01*
X123051071Y-58035714D02*
X123051071Y-58249999D01*
X123051071Y-58249999D02*
X123122500Y-58464285D01*
X123122500Y-58464285D02*
X123265357Y-58607142D01*
X123265357Y-58607142D02*
X123408214Y-58678571D01*
X123408214Y-58678571D02*
X123693928Y-58749999D01*
X123693928Y-58749999D02*
X123908214Y-58749999D01*
X123908214Y-58749999D02*
X124193928Y-58678571D01*
X124193928Y-58678571D02*
X124336785Y-58607142D01*
X124336785Y-58607142D02*
X124479642Y-58464285D01*
X124479642Y-58464285D02*
X124551071Y-58249999D01*
X124551071Y-58249999D02*
X124551071Y-58107142D01*
X124551071Y-58107142D02*
X124479642Y-57892856D01*
X124479642Y-57892856D02*
X124408214Y-57821428D01*
X124408214Y-57821428D02*
X123908214Y-57821428D01*
X123908214Y-57821428D02*
X123908214Y-58107142D01*
X124551071Y-57178571D02*
X123051071Y-57178571D01*
X123051071Y-57178571D02*
X124551071Y-56321428D01*
X124551071Y-56321428D02*
X123051071Y-56321428D01*
X124551071Y-55607142D02*
X123051071Y-55607142D01*
X123051071Y-55607142D02*
X123051071Y-55249999D01*
X123051071Y-55249999D02*
X123122500Y-55035713D01*
X123122500Y-55035713D02*
X123265357Y-54892856D01*
X123265357Y-54892856D02*
X123408214Y-54821427D01*
X123408214Y-54821427D02*
X123693928Y-54749999D01*
X123693928Y-54749999D02*
X123908214Y-54749999D01*
X123908214Y-54749999D02*
X124193928Y-54821427D01*
X124193928Y-54821427D02*
X124336785Y-54892856D01*
X124336785Y-54892856D02*
X124479642Y-55035713D01*
X124479642Y-55035713D02*
X124551071Y-55249999D01*
X124551071Y-55249999D02*
X124551071Y-55607142D01*
D10*
D11*
X211251071Y-63728571D02*
X209751071Y-63728571D01*
X209751071Y-63728571D02*
X210822500Y-63228571D01*
X210822500Y-63228571D02*
X209751071Y-62728571D01*
X209751071Y-62728571D02*
X211251071Y-62728571D01*
X210679642Y-62014285D02*
X210679642Y-60871428D01*
X211251071Y-61442856D02*
X210108214Y-61442856D01*
D14*
G36*
X168790476Y-45535714D02*
G01*
X159964286Y-45535714D01*
X159964286Y-42473683D01*
X161121904Y-42473683D01*
X161130952Y-42495499D01*
X161130952Y-42622733D01*
X161124517Y-42682336D01*
X161147365Y-42728033D01*
X161161760Y-42777056D01*
X161179610Y-42792523D01*
X161238565Y-42910434D01*
X161247507Y-42951536D01*
X161296215Y-43000244D01*
X161343136Y-43050686D01*
X161347866Y-43051895D01*
X161372486Y-43076515D01*
X161393967Y-43112682D01*
X161455587Y-43143492D01*
X161516043Y-43176504D01*
X161520913Y-43176155D01*
X161610273Y-43220835D01*
X161630055Y-43241874D01*
X161674644Y-43253021D01*
X161682250Y-43256824D01*
X161709393Y-43261708D01*
X162055599Y-43348259D01*
X162185243Y-43413082D01*
X162223107Y-43450946D01*
X162273809Y-43552350D01*
X162273809Y-43624792D01*
X162223107Y-43726195D01*
X162185244Y-43764058D01*
X162083840Y-43814761D01*
X161707234Y-43814761D01*
X161425909Y-43720986D01*
X161316629Y-43717033D01*
X161190334Y-43791891D01*
X161124559Y-43923145D01*
X161140186Y-44069124D01*
X161232255Y-44183480D01*
X161557871Y-44292018D01*
X161593259Y-44314761D01*
X161662153Y-44314761D01*
X161730989Y-44317251D01*
X161735190Y-44314761D01*
X162129400Y-44314761D01*
X162189003Y-44321196D01*
X162234700Y-44298347D01*
X162283723Y-44283953D01*
X162299190Y-44266102D01*
X162417101Y-44207147D01*
X162458203Y-44198206D01*
X162506911Y-44149497D01*
X162557353Y-44102577D01*
X162558562Y-44097846D01*
X162583182Y-44073226D01*
X162619349Y-44051746D01*
X162650159Y-43990125D01*
X162683171Y-43929670D01*
X162682822Y-43924799D01*
X162741398Y-43807647D01*
X162773809Y-43757216D01*
X162773809Y-43706126D01*
X162782858Y-43655840D01*
X162773809Y-43634022D01*
X162773809Y-43506796D01*
X162780245Y-43447187D01*
X162757394Y-43401485D01*
X162743001Y-43352467D01*
X162725151Y-43337000D01*
X162666195Y-43219088D01*
X162657254Y-43177987D01*
X162608545Y-43129278D01*
X162561625Y-43078837D01*
X162556894Y-43077627D01*
X162532273Y-43053006D01*
X162510794Y-43016842D01*
X162449180Y-42986034D01*
X162388718Y-42953020D01*
X162383848Y-42953368D01*
X162294489Y-42908688D01*
X162274706Y-42887648D01*
X162230114Y-42876500D01*
X162222512Y-42872699D01*
X162195375Y-42867815D01*
X161849161Y-42781262D01*
X161719517Y-42716440D01*
X161681654Y-42678577D01*
X161630952Y-42577173D01*
X161630952Y-42504731D01*
X161681654Y-42403326D01*
X161719517Y-42365463D01*
X161820922Y-42314761D01*
X162197525Y-42314761D01*
X162478850Y-42408537D01*
X162588131Y-42412490D01*
X162714426Y-42337633D01*
X162780202Y-42206378D01*
X162772780Y-42137049D01*
X162844912Y-42137049D01*
X163511904Y-43185180D01*
X163511904Y-44100705D01*
X163542712Y-44205627D01*
X163653666Y-44301769D01*
X163798985Y-44322663D01*
X163932531Y-44261675D01*
X164011904Y-44138168D01*
X164011904Y-43185181D01*
X164658784Y-42168655D01*
X164677466Y-42103962D01*
X164837649Y-42103962D01*
X164845238Y-42120224D01*
X164845238Y-44100705D01*
X164876046Y-44205627D01*
X164987000Y-44301769D01*
X165132319Y-44322663D01*
X165265865Y-44261675D01*
X165345238Y-44138168D01*
X165345238Y-43191652D01*
X165534498Y-43597209D01*
X165563594Y-43662333D01*
X165596694Y-43683992D01*
X165622847Y-43713677D01*
X165656855Y-43723359D01*
X165686444Y-43742721D01*
X165726004Y-43743046D01*
X165764049Y-43753878D01*
X165797891Y-43743638D01*
X165833252Y-43743929D01*
X165866706Y-43722815D01*
X165904570Y-43711359D01*
X165927506Y-43684444D01*
X165957408Y-43665574D01*
X165974135Y-43629730D01*
X165999797Y-43599618D01*
X166004541Y-43564573D01*
X166178571Y-43191653D01*
X166178571Y-44100705D01*
X166209379Y-44205627D01*
X166320333Y-44301769D01*
X166465652Y-44322663D01*
X166599198Y-44261675D01*
X166678571Y-44138168D01*
X166678571Y-42083674D01*
X166686769Y-42029804D01*
X166663698Y-41978166D01*
X166647763Y-41923895D01*
X166634201Y-41912143D01*
X166626882Y-41895761D01*
X166579554Y-41864792D01*
X166536809Y-41827753D01*
X166519047Y-41825199D01*
X166504032Y-41815374D01*
X166447472Y-41814908D01*
X166391490Y-41806859D01*
X166375168Y-41814312D01*
X166357224Y-41814165D01*
X166309393Y-41844351D01*
X166257944Y-41867847D01*
X166248241Y-41882943D01*
X166233068Y-41892520D01*
X166209151Y-41943769D01*
X166178571Y-41991354D01*
X166178571Y-42009299D01*
X165761905Y-42902155D01*
X165329781Y-41976176D01*
X165314430Y-41923895D01*
X165271687Y-41886858D01*
X165234296Y-41844417D01*
X165217036Y-41839503D01*
X165203476Y-41827753D01*
X165147493Y-41819703D01*
X165093094Y-41804216D01*
X165075919Y-41809412D01*
X165058157Y-41806859D01*
X165006704Y-41830356D01*
X164952573Y-41846736D01*
X164940935Y-41860391D01*
X164924611Y-41867847D01*
X164894029Y-41915432D01*
X164857347Y-41958477D01*
X164854939Y-41976258D01*
X164845238Y-41991354D01*
X164845238Y-42047911D01*
X164837649Y-42103962D01*
X164677466Y-42103962D01*
X164689122Y-42063597D01*
X164647131Y-41922917D01*
X164535749Y-41827271D01*
X164390338Y-41807027D01*
X164257066Y-41868611D01*
X163761904Y-42646722D01*
X163286856Y-41900218D01*
X163204534Y-41828239D01*
X163059311Y-41806696D01*
X162925493Y-41867087D01*
X162845568Y-41990238D01*
X162844912Y-42137049D01*
X162772780Y-42137049D01*
X162764575Y-42060399D01*
X162672506Y-41946043D01*
X162346889Y-41837502D01*
X162311502Y-41814761D01*
X162242609Y-41814761D01*
X162173773Y-41812271D01*
X162169572Y-41814761D01*
X161775360Y-41814761D01*
X161715757Y-41808326D01*
X161670059Y-41831175D01*
X161621038Y-41845569D01*
X161605570Y-41863419D01*
X161487657Y-41922376D01*
X161446558Y-41931317D01*
X161397857Y-41980017D01*
X161347407Y-42026947D01*
X161346197Y-42031677D01*
X161321578Y-42056296D01*
X161285412Y-42077777D01*
X161254600Y-42139400D01*
X161221591Y-42199853D01*
X161221939Y-42204722D01*
X161163366Y-42321869D01*
X161130952Y-42372307D01*
X161130952Y-42423403D01*
X161121904Y-42473683D01*
X159964286Y-42473683D01*
X159964286Y-40214286D01*
X168790476Y-40214286D01*
X168790476Y-45535714D01*
G37*
D10*
D11*
X211051071Y-103928571D02*
X209551071Y-103928571D01*
X209551071Y-103928571D02*
X210622500Y-103428571D01*
X210622500Y-103428571D02*
X209551071Y-102928571D01*
X209551071Y-102928571D02*
X211051071Y-102928571D01*
X210479642Y-102214285D02*
X210479642Y-101071428D01*
D10*
D11*
X124551071Y-62678570D02*
X124551071Y-63535713D01*
X124551071Y-63107142D02*
X123051071Y-63107142D01*
X123051071Y-63107142D02*
X123265357Y-63249999D01*
X123265357Y-63249999D02*
X123408214Y-63392856D01*
X123408214Y-63392856D02*
X123479642Y-63535713D01*
X123193928Y-62107142D02*
X123122500Y-62035714D01*
X123122500Y-62035714D02*
X123051071Y-61892857D01*
X123051071Y-61892857D02*
X123051071Y-61535714D01*
X123051071Y-61535714D02*
X123122500Y-61392857D01*
X123122500Y-61392857D02*
X123193928Y-61321428D01*
X123193928Y-61321428D02*
X123336785Y-61249999D01*
X123336785Y-61249999D02*
X123479642Y-61249999D01*
X123479642Y-61249999D02*
X123693928Y-61321428D01*
X123693928Y-61321428D02*
X124551071Y-62178571D01*
X124551071Y-62178571D02*
X124551071Y-61249999D01*
X123051071Y-60821428D02*
X124551071Y-60321428D01*
X124551071Y-60321428D02*
X123051071Y-59821428D01*
D12*
D13*
X123320952Y-84113904D02*
X122940000Y-84113904D01*
X122940000Y-84113904D02*
X122940000Y-83313904D01*
X123530476Y-84293333D02*
X123530476Y-83733333D01*
X123797143Y-84293333D02*
X123797143Y-83733333D01*
X123797143Y-83733333D02*
X124117143Y-84293333D01*
X124117143Y-84293333D02*
X124117143Y-83733333D01*
D15*
D16*
X123042857Y-78389000D02*
X122985715Y-78360428D01*
X122985715Y-78360428D02*
X122900000Y-78360428D01*
X122900000Y-78360428D02*
X122814286Y-78389000D01*
X122814286Y-78389000D02*
X122757143Y-78446142D01*
X122757143Y-78446142D02*
X122728572Y-78503285D01*
X122728572Y-78503285D02*
X122700000Y-78617571D01*
X122700000Y-78617571D02*
X122700000Y-78703285D01*
X122700000Y-78703285D02*
X122728572Y-78817571D01*
X122728572Y-78817571D02*
X122757143Y-78874714D01*
X122757143Y-78874714D02*
X122814286Y-78931857D01*
X122814286Y-78931857D02*
X122900000Y-78960428D01*
X122900000Y-78960428D02*
X122957143Y-78960428D01*
X122957143Y-78960428D02*
X123042857Y-78931857D01*
X123042857Y-78931857D02*
X123071429Y-78903285D01*
X123071429Y-78903285D02*
X123071429Y-78703285D01*
X123071429Y-78703285D02*
X122957143Y-78703285D01*
X123328572Y-78960428D02*
X123328572Y-78360428D01*
X123328572Y-78360428D02*
X123671429Y-78960428D01*
X123671429Y-78960428D02*
X123671429Y-78360428D01*
X123957143Y-78960428D02*
X123957143Y-78360428D01*
X123957143Y-78360428D02*
X124100000Y-78360428D01*
X124100000Y-78360428D02*
X124185714Y-78389000D01*
X124185714Y-78389000D02*
X124242857Y-78446142D01*
X124242857Y-78446142D02*
X124271428Y-78503285D01*
X124271428Y-78503285D02*
X124300000Y-78617571D01*
X124300000Y-78617571D02*
X124300000Y-78703285D01*
X124300000Y-78703285D02*
X124271428Y-78817571D01*
X124271428Y-78817571D02*
X124242857Y-78874714D01*
X124242857Y-78874714D02*
X124185714Y-78931857D01*
X124185714Y-78931857D02*
X124100000Y-78960428D01*
X124100000Y-78960428D02*
X123957143Y-78960428D01*
D12*
D13*
X122623810Y-85853904D02*
X122890477Y-86653904D01*
X122890477Y-86653904D02*
X123157143Y-85853904D01*
X123423810Y-86653904D02*
X123423810Y-85853904D01*
X123804762Y-86653904D02*
X123804762Y-85853904D01*
X123804762Y-85853904D02*
X124261905Y-86653904D01*
X124261905Y-86653904D02*
X124261905Y-85853904D01*
D17*
%TO.P,J6,1,Pin_1*%
%TO.N,+12V*%
X128999999Y-62999999D03*
D18*
%TO.P,J6,2,Pin_2*%
X129000000Y-60500000D03*
%TO.P,J6,3,Pin_3*%
%TO.N,GND*%
X129000000Y-58000000D03*
%TO.P,J6,4,Pin_4*%
X129000000Y-55500000D03*
%TD*%
D17*
%TO.P,J7,1,Pin_1*%
%TO.N,+12V*%
X128999999Y-85999999D03*
D18*
%TO.P,J7,2,Pin_2*%
%TO.N,L_{IN}*%
X129000000Y-83500000D03*
%TO.P,J7,3,Pin_3*%
%TO.N,H_{IN}*%
X129000000Y-81000000D03*
%TO.P,J7,4,Pin_4*%
%TO.N,GND*%
X129000000Y-78500000D03*
%TD*%
D19*
%TO.P,H4,1,1*%
%TO.N,Earth_Clean*%
X182000000Y-111000000D03*
%TD*%
D20*
%TO.P,C16,1*%
%TO.N,+BATT*%
X192050000Y-69600000D03*
%TO.P,C16,2*%
%TO.N,/LOAD*%
X192050000Y-75000000D03*
%TD*%
%TO.P,C7,1*%
%TO.N,/LOAD*%
X183900000Y-89500000D03*
%TO.P,C7,2*%
%TO.N,GNDPWR*%
X183900000Y-94900000D03*
%TD*%
D21*
%TO.P,R8,1*%
%TO.N,Net-(R8-Pad1)*%
X140900000Y-94460000D03*
D22*
%TO.P,R8,2*%
%TO.N,GND*%
X140899999Y-84299999D03*
%TD*%
D23*
%TO.P,U3,1*%
%TO.N,L_{IN}*%
X134959999Y-93039999D03*
D22*
%TO.P,U3,2*%
%TO.N,Net-(R8-Pad1)*%
X137499999Y-93039999D03*
%TO.P,U3,3*%
%TO.N,L_{IN}_{_ISO}*%
X137499999Y-85419999D03*
%TO.P,U3,4*%
%TO.N,+BATT*%
X134959999Y-85419999D03*
%TD*%
D24*
%TO.P,J1,1,Pin_1*%
%TO.N,/LOAD*%
X198200000Y-86300000D03*
%TO.P,J1,2*%
X200740000Y-86300000D03*
%TO.P,J1,3*%
X203280000Y-86300000D03*
%TO.P,J1,4*%
X205820000Y-86300000D03*
%TO.P,J1,5*%
X198200000Y-83760000D03*
%TO.P,J1,6,e*%
X200740000Y-83760000D03*
%TO.P,J1,7*%
X203280000Y-83760000D03*
%TO.P,J1,8*%
X205820000Y-83760000D03*
%TO.P,J1,9*%
X198200000Y-81220000D03*
%TO.P,J1,10,e*%
X200740000Y-81220000D03*
%TO.P,J1,11,11*%
X203280000Y-81220000D03*
%TO.P,J1,12*%
X205820000Y-81220000D03*
%TO.P,J1,13*%
X198200000Y-78680000D03*
%TO.P,J1,14,e*%
X200740000Y-78680000D03*
%TO.P,J1,15,Pin_1*%
X203280000Y-78680000D03*
%TO.P,J1,16,Pin_1*%
X205820000Y-78680000D03*
%TD*%
D25*
%TO.P,TP2,1,1*%
%TO.N,/V_{GL}*%
X171500000Y-97500000D03*
%TD*%
D21*
%TO.P,R6,1*%
%TO.N,H_{IN}_{_ISO}*%
X144100000Y-80100000D03*
D22*
%TO.P,R6,2*%
%TO.N,GNDPWR*%
X144099999Y-69939999D03*
%TD*%
D25*
%TO.P,TP3,1,1*%
%TO.N,/LOAD*%
X165500000Y-82000000D03*
%TD*%
D26*
%TO.P,R4,1*%
%TO.N,+BATT*%
X159500000Y-70000000D03*
%TO.P,R4,2*%
%TO.N,Net-(C4-Pad1)*%
X159500000Y-72000000D03*
%TD*%
%TO.P,R3,1*%
%TO.N,Net-(U1-LO)*%
X171100000Y-93000000D03*
%TO.P,R3,2*%
%TO.N,/V_{GL}*%
X171100000Y-95000000D03*
%TD*%
%TO.P,R2,1*%
%TO.N,Net-(U1-HO)*%
X171100000Y-73000000D03*
%TO.P,R2,2*%
%TO.N,/V_{GH}*%
X171100000Y-75000000D03*
%TD*%
D27*
%TO.P,C2,1*%
%TO.N,Net-(JP1-B)*%
X148500000Y-82137500D03*
%TO.P,C2,2*%
%TO.N,GND*%
X148500000Y-83862500D03*
%TD*%
D24*
%TO.P,J4,1,Pin_1*%
%TO.N,+BATT*%
X182200000Y-50300000D03*
%TO.P,J4,2*%
X184740000Y-50300000D03*
%TO.P,J4,3*%
X187280000Y-50300000D03*
%TO.P,J4,4*%
X189820000Y-50300000D03*
%TO.P,J4,5*%
X182200000Y-47760000D03*
%TO.P,J4,6,e*%
X184740000Y-47760000D03*
%TO.P,J4,7*%
X187280000Y-47760000D03*
%TO.P,J4,8*%
X189820000Y-47760000D03*
%TO.P,J4,9*%
X182200000Y-45220000D03*
%TO.P,J4,10,e*%
X184740000Y-45220000D03*
%TO.P,J4,11,11*%
X187280000Y-45220000D03*
%TO.P,J4,12*%
X189820000Y-45220000D03*
%TO.P,J4,13*%
X182200000Y-42680000D03*
%TO.P,J4,14,e*%
X184740000Y-42680000D03*
%TO.P,J4,15,Pin_1*%
X187280000Y-42680000D03*
%TO.P,J4,16,Pin_1*%
X189820000Y-42680000D03*
%TD*%
D25*
%TO.P,TP1,1,1*%
%TO.N,/V_{GH}*%
X171500000Y-77500000D03*
%TD*%
D28*
%TO.P,C1,1*%
%TO.N,+12V*%
X141900000Y-60112500D03*
%TO.P,C1,2*%
%TO.N,GND*%
X141900000Y-58387500D03*
%TD*%
D29*
%TO.P,Q2,1,S*%
%TO.N,GNDPWR*%
X164699999Y-95499999D03*
D30*
%TO.P,Q2,5,G*%
%TO.N,/V_{GL}*%
X168249999Y-95499999D03*
D31*
%TO.P,Q2,6,D*%
%TO.N,/LOAD*%
X165499999Y-90173999D03*
%TD*%
D24*
%TO.P,J5,1,Pin_1*%
%TO.N,GNDPWR*%
X142200000Y-50300000D03*
%TO.P,J5,2*%
X144740000Y-50300000D03*
%TO.P,J5,3*%
X147280000Y-50300000D03*
%TO.P,J5,4*%
X149820000Y-50300000D03*
%TO.P,J5,5*%
X142200000Y-47760000D03*
%TO.P,J5,6,e*%
X144740000Y-47760000D03*
%TO.P,J5,7*%
X147280000Y-47760000D03*
%TO.P,J5,8*%
X149820000Y-47760000D03*
%TO.P,J5,9*%
X142200000Y-45220000D03*
%TO.P,J5,10,e*%
X144740000Y-45220000D03*
%TO.P,J5,11,11*%
X147280000Y-45220000D03*
%TO.P,J5,12*%
X149820000Y-45220000D03*
%TO.P,J5,13*%
X142200000Y-42680000D03*
%TO.P,J5,14,e*%
X144740000Y-42680000D03*
%TO.P,J5,15,Pin_1*%
X147280000Y-42680000D03*
%TO.P,J5,16,Pin_1*%
X149820000Y-42680000D03*
%TD*%
%TO.P,J3,1,Pin_1*%
%TO.N,+BATT*%
X198200000Y-66300000D03*
%TO.P,J3,2*%
X200740000Y-66300000D03*
%TO.P,J3,3*%
X203280000Y-66300000D03*
%TO.P,J3,4*%
X205820000Y-66300000D03*
%TO.P,J3,5*%
X198200000Y-63760000D03*
%TO.P,J3,6,e*%
X200740000Y-63760000D03*
%TO.P,J3,7*%
X203280000Y-63760000D03*
%TO.P,J3,8*%
X205820000Y-63760000D03*
%TO.P,J3,9*%
X198200000Y-61220000D03*
%TO.P,J3,10,e*%
X200740000Y-61220000D03*
%TO.P,J3,11,11*%
X203280000Y-61220000D03*
%TO.P,J3,12*%
X205820000Y-61220000D03*
%TO.P,J3,13*%
X198200000Y-58680000D03*
%TO.P,J3,14,e*%
X200740000Y-58680000D03*
%TO.P,J3,15,Pin_1*%
X203280000Y-58680000D03*
%TO.P,J3,16,Pin_1*%
X205820000Y-58680000D03*
%TD*%
D20*
%TO.P,C18,1*%
%TO.N,+BATT*%
X175750000Y-69600000D03*
%TO.P,C18,2*%
%TO.N,/LOAD*%
X175750000Y-75000000D03*
%TD*%
D29*
%TO.P,Q1,1,S*%
%TO.N,/LOAD*%
X164699999Y-75499999D03*
D30*
%TO.P,Q1,5,G*%
%TO.N,/V_{GH}*%
X168249999Y-75499999D03*
D31*
%TO.P,Q1,6,D*%
%TO.N,+BATT*%
X165499999Y-70173999D03*
%TD*%
D32*
%TO.P,U1,1,HIN*%
%TO.N,H_{IN}_{_ISO}*%
X151525000Y-78690000D03*
%TO.P,U1,2,LIN*%
%TO.N,L_{IN}_{_ISO}*%
X151525000Y-79960000D03*
%TO.P,U1,3*%
%TO.N,N/C*%
X151525000Y-81230000D03*
%TO.P,U1,4,DT*%
%TO.N,Net-(JP1-B)*%
X151525000Y-82500000D03*
%TO.P,U1,5,COM*%
%TO.N,GND*%
X151525000Y-83770000D03*
%TO.P,U1,6,LO*%
%TO.N,Net-(U1-LO)*%
X151525000Y-85040000D03*
%TO.P,U1,7,VCC*%
%TO.N,+12V*%
X151525000Y-86310000D03*
%TO.P,U1,8*%
%TO.N,N/C*%
X156475000Y-86310000D03*
%TO.P,U1,9,N.C.*%
%TO.N,unconnected-(U1-N.C.-Pad9)*%
X156475000Y-85040000D03*
%TO.P,U1,10,N.C.*%
%TO.N,unconnected-(U1-N.C.-Pad10)*%
X156475000Y-83770000D03*
%TO.P,U1,11,V_{S}*%
%TO.N,/LOAD*%
X156475000Y-82500000D03*
%TO.P,U1,12,HO*%
%TO.N,Net-(U1-HO)*%
X156475000Y-81230000D03*
%TO.P,U1,13,V_{B}*%
%TO.N,Net-(U1-V_{B})*%
X156475000Y-79960000D03*
%TO.P,U1,14,N.C.*%
%TO.N,unconnected-(U1-N.C.-Pad14)*%
X156475000Y-78690000D03*
%TD*%
D19*
%TO.P,H3,1,1*%
%TO.N,Earth_Clean*%
X126000000Y-111000000D03*
%TD*%
%TO.P,H1,1,1*%
%TO.N,Earth_Clean*%
X126000000Y-39000000D03*
%TD*%
D33*
%TO.P,R1,1*%
%TO.N,Net-(JP1-B)*%
X146500000Y-82087500D03*
%TO.P,R1,2*%
%TO.N,GND*%
X146500000Y-83912500D03*
%TD*%
D21*
%TO.P,R7,1*%
%TO.N,Net-(R7-Pad1)*%
X140900000Y-82080000D03*
D22*
%TO.P,R7,2*%
%TO.N,GND*%
X140899999Y-71919999D03*
%TD*%
D21*
%TO.P,R9,1*%
%TO.N,L_{IN}_{_ISO}*%
X144100000Y-85900000D03*
D22*
%TO.P,R9,2*%
%TO.N,GNDPWR*%
X144099999Y-96059999D03*
%TD*%
D24*
%TO.P,J2,1,Pin_1*%
%TO.N,GNDPWR*%
X198200000Y-106300000D03*
%TO.P,J2,2*%
X200740000Y-106300000D03*
%TO.P,J2,3*%
X203280000Y-106300000D03*
%TO.P,J2,4*%
X205820000Y-106300000D03*
%TO.P,J2,5*%
X198200000Y-103760000D03*
%TO.P,J2,6,e*%
X200740000Y-103760000D03*
%TO.P,J2,7*%
X203280000Y-103760000D03*
%TO.P,J2,8*%
X205820000Y-103760000D03*
%TO.P,J2,9*%
X198200000Y-101220000D03*
%TO.P,J2,10,e*%
X200740000Y-101220000D03*
%TO.P,J2,11,11*%
X203280000Y-101220000D03*
%TO.P,J2,12*%
X205820000Y-101220000D03*
%TO.P,J2,13*%
X198200000Y-98680000D03*
%TO.P,J2,14,e*%
X200740000Y-98680000D03*
%TO.P,J2,15,Pin_1*%
X203280000Y-98680000D03*
%TO.P,J2,16,Pin_1*%
X205820000Y-98680000D03*
%TD*%
D20*
%TO.P,C17,1*%
%TO.N,+BATT*%
X183900000Y-69600000D03*
%TO.P,C17,2*%
%TO.N,/LOAD*%
X183900000Y-75000000D03*
%TD*%
D34*
%TO.P,C20,1*%
%TO.N,+12V*%
X137400000Y-61950000D03*
%TO.P,C20,2*%
%TO.N,GND*%
X137400000Y-56550000D03*
%TD*%
D20*
%TO.P,C8,1*%
%TO.N,/LOAD*%
X175750000Y-89500000D03*
%TO.P,C8,2*%
%TO.N,GNDPWR*%
X175750000Y-94900000D03*
%TD*%
D19*
%TO.P,H2,1,1*%
%TO.N,Earth_Clean*%
X208000000Y-39000000D03*
%TD*%
%TO.P,H5,1,1*%
%TO.N,Earth_Clean*%
X182000000Y-59000000D03*
%TD*%
D35*
%TO.P,JP1,1,A*%
%TO.N,GND*%
X144000000Y-83650000D03*
D36*
%TO.P,JP1,2,B*%
%TO.N,Net-(JP1-B)*%
X144000000Y-82350000D03*
%TD*%
D20*
%TO.P,Ce1,1*%
%TO.N,/LOAD*%
X192100000Y-89500000D03*
%TO.P,Ce1,2*%
%TO.N,GNDPWR*%
X192100000Y-94900000D03*
%TD*%
D27*
%TO.P,C3,1*%
%TO.N,Net-(U1-V_{B})*%
X159500000Y-87137500D03*
%TO.P,C3,2*%
%TO.N,/LOAD*%
X159500000Y-88862500D03*
%TD*%
D23*
%TO.P,U2,1*%
%TO.N,H_{IN}*%
X135224999Y-80719999D03*
D22*
%TO.P,U2,2*%
%TO.N,Net-(R7-Pad1)*%
X137764999Y-80719999D03*
%TO.P,U2,3*%
%TO.N,H_{IN}_{_ISO}*%
X137764999Y-73099999D03*
%TO.P,U2,4*%
%TO.N,+BATT*%
X135224999Y-73099999D03*
%TD*%
D37*
%TO.P,C4,1*%
%TO.N,Net-(C4-Pad1)*%
X159500000Y-73862500D03*
%TO.P,C4,2*%
%TO.N,/LOAD*%
X159500000Y-75937500D03*
%TD*%
%TO.P,C5,1*%
%TO.N,Net-(C5-Pad1)*%
X159500000Y-96100000D03*
%TO.P,C5,2*%
%TO.N,GNDPWR*%
X159500000Y-98175000D03*
%TD*%
D26*
%TO.P,R5,1*%
%TO.N,/LOAD*%
X159500000Y-90912500D03*
%TO.P,R5,2*%
%TO.N,Net-(C5-Pad1)*%
X159500000Y-92912500D03*
%TD*%
D38*
%TO.N,GNDPWR*%
X203066526Y-94950000D03*
X128066526Y-49950000D03*
X148066526Y-104950000D03*
X133066526Y-49950000D03*
X138066526Y-69950000D03*
X133066526Y-109950000D03*
X138066526Y-99950000D03*
X153066526Y-94950000D03*
X163066526Y-109950000D03*
X143066526Y-104950000D03*
X153066526Y-69950000D03*
X163066526Y-104950000D03*
X138066526Y-94950000D03*
X198066526Y-109950000D03*
X163066526Y-99950000D03*
X183066526Y-99950000D03*
X128066526Y-89950000D03*
X153066526Y-59950000D03*
X143066526Y-109950000D03*
X178066526Y-104950000D03*
X153066526Y-104950000D03*
X138066526Y-44950000D03*
X148066526Y-64950000D03*
X153066526Y-54950000D03*
X153066526Y-99950000D03*
X188066526Y-104950000D03*
X143066526Y-99950000D03*
X148066526Y-89950000D03*
X158066526Y-109950000D03*
X153066526Y-44950000D03*
X158066526Y-99950000D03*
X148066526Y-109950000D03*
X198066526Y-94950000D03*
X153066526Y-89950000D03*
X148066526Y-99950000D03*
X128066526Y-99950000D03*
X133066526Y-89950000D03*
X158066526Y-104950000D03*
X168066526Y-99950000D03*
X153066526Y-64950000D03*
X138066526Y-49950000D03*
X183066526Y-104950000D03*
X143066526Y-89950000D03*
X178066526Y-94950000D03*
X188066526Y-99950000D03*
X193066526Y-109950000D03*
X133066526Y-99950000D03*
X133066526Y-44950000D03*
X128066526Y-94950000D03*
X128066526Y-104950000D03*
X148066526Y-94950000D03*
X168066526Y-109950000D03*
X133066526Y-94950000D03*
X138066526Y-89950000D03*
X188066526Y-94950000D03*
X138066526Y-104950000D03*
X193066526Y-104950000D03*
X133066526Y-104950000D03*
X173066526Y-109950000D03*
X188066526Y-109950000D03*
X153066526Y-49950000D03*
X148066526Y-59950000D03*
X158066526Y-64950000D03*
X148066526Y-54950000D03*
X138066526Y-109950000D03*
X168066526Y-104950000D03*
X193066526Y-99950000D03*
X153066526Y-109950000D03*
X128066526Y-44950000D03*
X178066526Y-99950000D03*
X203066526Y-109950000D03*
X148066526Y-69950000D03*
X173066526Y-104950000D03*
%TO.N,Net-(U1-V_{B})*%
X158000000Y-80000000D03*
X159500000Y-86000000D03*
%TO.N,Net-(U1-HO)*%
X155500000Y-77000000D03*
X169557983Y-73554891D03*
%TO.N,Net-(U1-LO)*%
X158000000Y-93000000D03*
X169300000Y-94000000D03*
%TO.N,L_{IN}_{_ISO}*%
X149700000Y-81000000D03*
D39*
%TO.N,Earth_Clean*%
X123000000Y-88500000D03*
X123000000Y-77000000D03*
X123000000Y-65500000D03*
X210500000Y-106000000D03*
X210500000Y-100000000D03*
X124500000Y-65500000D03*
X210500000Y-65000000D03*
X210500000Y-58500000D03*
X124500000Y-52500000D03*
X123000000Y-52500000D03*
X124500000Y-88500000D03*
X210500000Y-84500000D03*
X210500000Y-84500000D03*
X210500000Y-80500000D03*
X124500000Y-77000000D03*
X123000000Y-52500000D03*
%TD*%
D40*
%TO.N,GND*%
X148592500Y-83770000D02*
X148500000Y-83862500D01*
X144262500Y-83912500D02*
X146500000Y-83912500D01*
X144000000Y-83650000D02*
X141550000Y-83650000D01*
X151525000Y-83770000D02*
X148592500Y-83770000D01*
X144000000Y-83650000D02*
X144262500Y-83912500D01*
X141550000Y-83650000D02*
X140900000Y-84300000D01*
X148500000Y-83862500D02*
X146550000Y-83862500D01*
X146550000Y-83862500D02*
X146500000Y-83912500D01*
%TO.N,/LOAD*%
X164000000Y-82500000D02*
X164500000Y-82000000D01*
X156475000Y-82500000D02*
X164000000Y-82500000D01*
X164500000Y-82000000D02*
X165500000Y-82000000D01*
D41*
%TO.N,+BATT*%
X153600000Y-75400000D02*
X159000000Y-70000000D01*
X165326000Y-70000000D02*
X165500000Y-70174000D01*
X133000000Y-75325000D02*
X135225000Y-73100000D01*
X135225000Y-73100000D02*
X137525000Y-75400000D01*
X159000000Y-70000000D02*
X165326000Y-70000000D01*
X134960000Y-85420000D02*
X133000000Y-83460000D01*
X133000000Y-83460000D02*
X133000000Y-75325000D01*
X137525000Y-75400000D02*
X153600000Y-75400000D01*
D42*
%TO.N,Net-(JP1-B)*%
X146550000Y-82137500D02*
X146500000Y-82087500D01*
X146500000Y-82087500D02*
X144262500Y-82087500D01*
X148500000Y-82137500D02*
X146550000Y-82137500D01*
X144262500Y-82087500D02*
X144000000Y-82350000D01*
X148862500Y-82500000D02*
X148500000Y-82137500D01*
X151525000Y-82500000D02*
X148862500Y-82500000D01*
D41*
%TO.N,+12V*%
X129000000Y-60500000D02*
X129000000Y-64200000D01*
X129000000Y-64200000D02*
X127000000Y-66200000D01*
D42*
X131500000Y-86000000D02*
X129000000Y-86000000D01*
D41*
X140012500Y-62000000D02*
X130500000Y-62000000D01*
D42*
X134000000Y-88500000D02*
X131500000Y-86000000D01*
D41*
X127000000Y-66200000D02*
X127000000Y-84000000D01*
X127000000Y-84000000D02*
X129000000Y-86000000D01*
D42*
X139600000Y-88100000D02*
X139200000Y-88500000D01*
X139200000Y-88500000D02*
X134000000Y-88500000D01*
D41*
X130500000Y-62000000D02*
X129000000Y-60500000D01*
X141900000Y-60112500D02*
X140012500Y-62000000D01*
D42*
X148000000Y-88100000D02*
X139600000Y-88100000D01*
X151525000Y-86310000D02*
X149790000Y-86310000D01*
X149790000Y-86310000D02*
X148000000Y-88100000D01*
%TO.N,Net-(U1-V_{B})*%
X156475000Y-79960000D02*
X157960000Y-79960000D01*
X157960000Y-79960000D02*
X158000000Y-80000000D01*
X159500000Y-86000000D02*
X159500000Y-87137500D01*
%TO.N,Net-(C4-Pad1)*%
X159500000Y-72000000D02*
X159500000Y-73862500D01*
D43*
%TO.N,Net-(C5-Pad1)*%
X159500000Y-92825000D02*
X159500000Y-96275000D01*
D42*
%TO.N,Net-(U1-HO)*%
X170025374Y-73087500D02*
X171000000Y-73087500D01*
X155000000Y-81000000D02*
X154500000Y-80500000D01*
X154500000Y-78000000D02*
X155500000Y-77000000D01*
X156475000Y-81230000D02*
X155230000Y-81230000D01*
X169557983Y-73554891D02*
X170025374Y-73087500D01*
X154500000Y-79000000D02*
X154500000Y-78000000D01*
X154500000Y-80500000D02*
X154500000Y-79000000D01*
X155230000Y-81230000D02*
X155000000Y-81000000D01*
%TO.N,Net-(U1-LO)*%
X158000000Y-90000000D02*
X158000000Y-93000000D01*
X151525000Y-85040000D02*
X153040000Y-85040000D01*
X154000000Y-86000000D02*
X154000000Y-87000000D01*
X154000000Y-87000000D02*
X154500000Y-87500000D01*
X154500000Y-87500000D02*
X155500000Y-87500000D01*
X155500000Y-87500000D02*
X158000000Y-90000000D01*
X169300000Y-94000000D02*
X170100000Y-94000000D01*
X153040000Y-85040000D02*
X154000000Y-86000000D01*
X170100000Y-94000000D02*
X171100000Y-93000000D01*
D40*
%TO.N,H_{IN}_{_ISO}*%
X148200000Y-80100000D02*
X144100000Y-80100000D01*
X149610000Y-78690000D02*
X148200000Y-80100000D01*
X151525000Y-78690000D02*
X149610000Y-78690000D01*
%TO.N,L_{IN}_{_ISO}*%
X151485000Y-80000000D02*
X151525000Y-79960000D01*
X149700000Y-80300000D02*
X150000000Y-80000000D01*
X149700000Y-81000000D02*
X149700000Y-80300000D01*
X150000000Y-80000000D02*
X151485000Y-80000000D01*
D41*
%TO.N,Net-(R8-Pad1)*%
X137500000Y-93040000D02*
X139480000Y-93040000D01*
X139480000Y-93040000D02*
X140900000Y-94460000D01*
%TD*%
%TA.AperFunction,Conductor*%
%TO.N,/V_{GH}*%
G36*
X168641797Y-74017641D02*
G01*
X168687406Y-74065545D01*
X168715388Y-74117895D01*
X168841415Y-74271459D01*
X168994979Y-74397486D01*
X169170179Y-74491132D01*
X169360282Y-74548799D01*
X169557983Y-74568271D01*
X169755684Y-74548799D01*
X169761516Y-74547029D01*
X169761520Y-74547029D01*
X169874169Y-74512857D01*
X169927421Y-74496702D01*
X169989512Y-74494756D01*
X170000000Y-74500000D01*
X170756821Y-74121589D01*
X170812269Y-74108499D01*
X171600544Y-74108499D01*
X171704426Y-74097887D01*
X171872738Y-74042115D01*
X171878889Y-74038320D01*
X171878893Y-74038319D01*
X171911087Y-74018462D01*
X171976184Y-74000000D01*
X172876000Y-74000000D01*
X172938000Y-74016613D01*
X172983387Y-74062000D01*
X173000000Y-74124000D01*
X173000000Y-78862500D01*
X172983387Y-78924500D01*
X172938000Y-78969887D01*
X172876000Y-78986500D01*
X170537862Y-78986500D01*
X170490409Y-78977061D01*
X170450181Y-78950181D01*
X170008683Y-78508682D01*
X169993190Y-78489784D01*
X169500841Y-77751261D01*
X169000000Y-77000000D01*
X168984690Y-77000000D01*
X168561139Y-77000000D01*
X168546798Y-76999168D01*
X168441571Y-76986915D01*
X168441557Y-76986914D01*
X168438000Y-76986500D01*
X168434403Y-76986500D01*
X168137500Y-76986500D01*
X168075500Y-76969887D01*
X168030113Y-76924500D01*
X168013500Y-76862500D01*
X168013500Y-76799741D01*
X168013500Y-76797247D01*
X168006887Y-76715102D01*
X168000541Y-76675943D01*
X167980876Y-76595926D01*
X167948666Y-76520084D01*
X167930279Y-76484932D01*
X167886344Y-76415206D01*
X167879734Y-76406376D01*
X167861346Y-76371224D01*
X167855000Y-76332064D01*
X167855000Y-74667936D01*
X167861346Y-74628776D01*
X167879734Y-74593624D01*
X167880620Y-74592439D01*
X167886344Y-74584794D01*
X167930279Y-74515068D01*
X167948666Y-74479916D01*
X167980876Y-74404074D01*
X168000541Y-74324057D01*
X168006887Y-74284898D01*
X168013500Y-74202753D01*
X168013500Y-74124000D01*
X168013500Y-74123999D01*
X168030113Y-74062000D01*
X168075500Y-74016613D01*
X168137500Y-74000000D01*
X168578049Y-74000000D01*
X168641797Y-74017641D01*
G37*
%TD.AperFunction*%
%TD*%
%TA.AperFunction,Conductor*%
%TO.N,+12V*%
G36*
X128855479Y-59200472D02*
G01*
X129000000Y-59213116D01*
X129144520Y-59200472D01*
X129155328Y-59200000D01*
X141068634Y-59200000D01*
X141116087Y-59209439D01*
X141156315Y-59236319D01*
X141196654Y-59276658D01*
X141345080Y-59368209D01*
X141510619Y-59423062D01*
X141612787Y-59433500D01*
X142187212Y-59433499D01*
X142289381Y-59423062D01*
X142454920Y-59368209D01*
X142603346Y-59276658D01*
X142643685Y-59236318D01*
X142683913Y-59209439D01*
X142731366Y-59200000D01*
X142876000Y-59200000D01*
X142938000Y-59216613D01*
X142983387Y-59262000D01*
X143000000Y-59324000D01*
X143000000Y-63876000D01*
X142983387Y-63938000D01*
X142938000Y-63983387D01*
X142876000Y-64000000D01*
X133000000Y-64000000D01*
X132991364Y-64008635D01*
X132991361Y-64008638D01*
X130536319Y-66463681D01*
X130496091Y-66490561D01*
X130448638Y-66500000D01*
X127051362Y-66500000D01*
X127003909Y-66490561D01*
X126963681Y-66463681D01*
X126736319Y-66236319D01*
X126709439Y-66196091D01*
X126700000Y-66148638D01*
X126700000Y-64553683D01*
X129745740Y-64553683D01*
X129755755Y-64738407D01*
X129757552Y-64744882D01*
X129757553Y-64744883D01*
X129803446Y-64910179D01*
X129803448Y-64910186D01*
X129805246Y-64916659D01*
X129808392Y-64922594D01*
X129808395Y-64922600D01*
X129888750Y-65074164D01*
X129888753Y-65074169D01*
X129891900Y-65080104D01*
X129896248Y-65085224D01*
X129896251Y-65085227D01*
X129958465Y-65158471D01*
X130011663Y-65221100D01*
X130158936Y-65333054D01*
X130326833Y-65410732D01*
X130507503Y-65450500D01*
X130642754Y-65450500D01*
X130646113Y-65450500D01*
X130783910Y-65435514D01*
X130959221Y-65376444D01*
X131117736Y-65281070D01*
X131252041Y-65153849D01*
X131355858Y-65000730D01*
X131424331Y-64828875D01*
X131454260Y-64646317D01*
X131444245Y-64461593D01*
X131394754Y-64283341D01*
X131391604Y-64277399D01*
X131311249Y-64125835D01*
X131311247Y-64125832D01*
X131308100Y-64119896D01*
X131245460Y-64046151D01*
X131192691Y-63984026D01*
X131188337Y-63978900D01*
X131104886Y-63915462D01*
X131046417Y-63871015D01*
X131046415Y-63871014D01*
X131041064Y-63866946D01*
X130873167Y-63789268D01*
X130692497Y-63749500D01*
X130553887Y-63749500D01*
X130550552Y-63749862D01*
X130550546Y-63749863D01*
X130422772Y-63763759D01*
X130422769Y-63763759D01*
X130416090Y-63764486D01*
X130409729Y-63766629D01*
X130409721Y-63766631D01*
X130247152Y-63821408D01*
X130247146Y-63821410D01*
X130240779Y-63823556D01*
X130235026Y-63827017D01*
X130235016Y-63827022D01*
X130088027Y-63915462D01*
X130088023Y-63915464D01*
X130082264Y-63918930D01*
X130077386Y-63923550D01*
X130077379Y-63923556D01*
X129952839Y-64041528D01*
X129947959Y-64046151D01*
X129944191Y-64051707D01*
X129944187Y-64051713D01*
X129847914Y-64193706D01*
X129844142Y-64199270D01*
X129841654Y-64205513D01*
X129841653Y-64205516D01*
X129778159Y-64364874D01*
X129778157Y-64364879D01*
X129775669Y-64371125D01*
X129745740Y-64553683D01*
X126700000Y-64553683D01*
X126700000Y-59324000D01*
X126716613Y-59262000D01*
X126762000Y-59216613D01*
X126824000Y-59200000D01*
X128844672Y-59200000D01*
X128855479Y-59200472D01*
G37*
%TD.AperFunction*%
%TD*%
%TA.AperFunction,Conductor*%
%TO.N,GND*%
G36*
X142876678Y-53099326D02*
G01*
X142938391Y-53116163D01*
X142983500Y-53161520D01*
X143000000Y-53223324D01*
X143000000Y-58562500D01*
X142983387Y-58624500D01*
X142938000Y-58669887D01*
X142876000Y-58686500D01*
X142731366Y-58686500D01*
X142728348Y-58686797D01*
X142728332Y-58686798D01*
X142634212Y-58696068D01*
X142634190Y-58696071D01*
X142631187Y-58696367D01*
X142628203Y-58696960D01*
X142628200Y-58696961D01*
X142586728Y-58705210D01*
X142586719Y-58705212D01*
X142583734Y-58705806D01*
X142580828Y-58706687D01*
X142580818Y-58706690D01*
X142493234Y-58733258D01*
X142493230Y-58733259D01*
X142487407Y-58735026D01*
X142482042Y-58737893D01*
X142482036Y-58737896D01*
X142401322Y-58781038D01*
X142401311Y-58781044D01*
X142398631Y-58782477D01*
X142396110Y-58784161D01*
X142396094Y-58784171D01*
X142360923Y-58807671D01*
X142360906Y-58807683D01*
X142358403Y-58809356D01*
X142356065Y-58811274D01*
X142356047Y-58811288D01*
X142290984Y-58864683D01*
X142277419Y-58874367D01*
X142248767Y-58892040D01*
X142222672Y-58904208D01*
X142194135Y-58913664D01*
X142167807Y-58919308D01*
X142167408Y-58919349D01*
X142154733Y-58919999D01*
X141645267Y-58919999D01*
X141632382Y-58919328D01*
X141631980Y-58919286D01*
X141605863Y-58913664D01*
X141593645Y-58909615D01*
X141577326Y-58904208D01*
X141551234Y-58892041D01*
X141551200Y-58892020D01*
X141522569Y-58874360D01*
X141509007Y-58864679D01*
X141443957Y-58811293D01*
X141443956Y-58811292D01*
X141441604Y-58809362D01*
X141401376Y-58782482D01*
X141312597Y-58735028D01*
X141306765Y-58733258D01*
X141306763Y-58733258D01*
X141219191Y-58706693D01*
X141219185Y-58706691D01*
X141216266Y-58705806D01*
X141213275Y-58705211D01*
X141213267Y-58705209D01*
X141171799Y-58696961D01*
X141168813Y-58696367D01*
X141165806Y-58696070D01*
X141165787Y-58696068D01*
X141071667Y-58686798D01*
X141071652Y-58686797D01*
X141068634Y-58686500D01*
X129155328Y-58686500D01*
X129154717Y-58686513D01*
X129154653Y-58686514D01*
X129133594Y-58686974D01*
X129133559Y-58686975D01*
X129132924Y-58686989D01*
X129132297Y-58687016D01*
X129132278Y-58687017D01*
X129122787Y-58687431D01*
X129122724Y-58687434D01*
X129122116Y-58687461D01*
X129121487Y-58687502D01*
X129121418Y-58687506D01*
X129100493Y-58688878D01*
X129100465Y-58688880D01*
X129099765Y-58688926D01*
X129099130Y-58688981D01*
X129099045Y-58688988D01*
X129010805Y-58696708D01*
X128989193Y-58696708D01*
X128900972Y-58688990D01*
X128900922Y-58688986D01*
X128900234Y-58688926D01*
X128899504Y-58688878D01*
X128899489Y-58688877D01*
X128878576Y-58687506D01*
X128878547Y-58687504D01*
X128877885Y-58687461D01*
X128877293Y-58687435D01*
X128877218Y-58687431D01*
X128867718Y-58687016D01*
X128867635Y-58687013D01*
X128867078Y-58686989D01*
X128866453Y-58686975D01*
X128866411Y-58686974D01*
X128845346Y-58686514D01*
X128845283Y-58686513D01*
X128844672Y-58686500D01*
X126824000Y-58686500D01*
X126762000Y-58669887D01*
X126716613Y-58624500D01*
X126700000Y-58562500D01*
X126700000Y-53135608D01*
X126716726Y-53073412D01*
X126762392Y-53027996D01*
X126824676Y-53011610D01*
X142876678Y-53099326D01*
G37*
%TD.AperFunction*%
%TD*%
%TA.AperFunction,Conductor*%
%TO.N,/V_{GL}*%
G36*
X172938000Y-94016613D02*
G01*
X172983387Y-94062000D01*
X173000000Y-94124000D01*
X173000000Y-98876000D01*
X172983387Y-98938000D01*
X172938000Y-98983387D01*
X172876000Y-99000000D01*
X170551362Y-99000000D01*
X170503909Y-98990561D01*
X170463681Y-98963681D01*
X170008683Y-98508683D01*
X169993190Y-98489785D01*
X169000000Y-97000000D01*
X168984690Y-97000000D01*
X167624000Y-97000000D01*
X167562000Y-96983387D01*
X167516613Y-96938000D01*
X167500000Y-96876000D01*
X167500000Y-96645961D01*
X167507818Y-96602627D01*
X167549280Y-96491463D01*
X167551989Y-96484201D01*
X167558500Y-96423638D01*
X167558500Y-94576362D01*
X167551989Y-94515799D01*
X167507818Y-94397373D01*
X167500000Y-94354039D01*
X167500000Y-94137500D01*
X167516613Y-94075500D01*
X167562000Y-94030113D01*
X167624000Y-94013500D01*
X168175563Y-94013500D01*
X168234016Y-94028142D01*
X168278665Y-94068610D01*
X168298966Y-94125346D01*
X168305494Y-94191636D01*
X168305495Y-94191642D01*
X168306092Y-94197701D01*
X168307859Y-94203526D01*
X168307860Y-94203531D01*
X168361026Y-94378796D01*
X168363759Y-94387804D01*
X168366628Y-94393172D01*
X168366630Y-94393176D01*
X168428291Y-94508536D01*
X168457405Y-94563004D01*
X168461271Y-94567715D01*
X168461272Y-94567716D01*
X168558816Y-94686574D01*
X168583432Y-94716568D01*
X168736996Y-94842595D01*
X168912196Y-94936241D01*
X169102299Y-94993908D01*
X169300000Y-95013380D01*
X169497701Y-94993908D01*
X169687804Y-94936241D01*
X169863004Y-94842595D01*
X169931176Y-94786647D01*
X169968068Y-94765749D01*
X170009842Y-94758500D01*
X170035705Y-94758500D01*
X170053677Y-94759809D01*
X170077789Y-94763341D01*
X170127727Y-94758971D01*
X170138533Y-94758500D01*
X170140571Y-94758500D01*
X170144180Y-94758500D01*
X170175370Y-94754853D01*
X170178851Y-94754498D01*
X170254426Y-94747887D01*
X170261290Y-94745612D01*
X170264924Y-94744862D01*
X170265119Y-94744830D01*
X170265308Y-94744777D01*
X170268930Y-94743918D01*
X170276113Y-94743079D01*
X170347393Y-94717134D01*
X170350709Y-94715981D01*
X170422738Y-94692114D01*
X170428886Y-94688320D01*
X170432251Y-94686752D01*
X170432438Y-94686674D01*
X170432618Y-94686574D01*
X170435934Y-94684908D01*
X170442732Y-94682435D01*
X170506103Y-94640753D01*
X170509110Y-94638837D01*
X170573651Y-94599030D01*
X170578763Y-94593916D01*
X170581672Y-94591617D01*
X170581843Y-94591493D01*
X170581990Y-94591359D01*
X170584832Y-94588974D01*
X170590874Y-94585001D01*
X170642963Y-94529788D01*
X170645408Y-94527271D01*
X171027861Y-94144818D01*
X171068090Y-94117938D01*
X171115543Y-94108499D01*
X171597395Y-94108499D01*
X171600544Y-94108499D01*
X171704426Y-94097887D01*
X171872738Y-94042115D01*
X171878889Y-94038320D01*
X171878893Y-94038319D01*
X171911087Y-94018462D01*
X171976184Y-94000000D01*
X172876000Y-94000000D01*
X172938000Y-94016613D01*
G37*
%TD.AperFunction*%
%TD*%
%TA.AperFunction,Conductor*%
%TO.N,/LOAD*%
G36*
X208424500Y-72516613D02*
G01*
X208469887Y-72562000D01*
X208486500Y-72624000D01*
X208486500Y-80571071D01*
X208503997Y-80703976D01*
X208505043Y-80707881D01*
X208505046Y-80707894D01*
X208519558Y-80762051D01*
X208520610Y-80765976D01*
X208571909Y-80889822D01*
X208576855Y-80896268D01*
X208576857Y-80896271D01*
X208626589Y-80961081D01*
X208645633Y-80996709D01*
X208652214Y-81036568D01*
X208652214Y-83963432D01*
X208645633Y-84003291D01*
X208626589Y-84038919D01*
X208576857Y-84103728D01*
X208576852Y-84103735D01*
X208571909Y-84110178D01*
X208568800Y-84117683D01*
X208568798Y-84117687D01*
X208522165Y-84230268D01*
X208522161Y-84230278D01*
X208520610Y-84234024D01*
X208519560Y-84237940D01*
X208519558Y-84237948D01*
X208505046Y-84292105D01*
X208505042Y-84292120D01*
X208503997Y-84296024D01*
X208486500Y-84428929D01*
X208486500Y-84432982D01*
X208486500Y-91876000D01*
X208469887Y-91938000D01*
X208424500Y-91983387D01*
X208362500Y-92000000D01*
X171976184Y-92000000D01*
X171911087Y-91981538D01*
X171878893Y-91961680D01*
X171878883Y-91961675D01*
X171872738Y-91957885D01*
X171865880Y-91955612D01*
X171865877Y-91955611D01*
X171710850Y-91904241D01*
X171710844Y-91904239D01*
X171704426Y-91902113D01*
X171697696Y-91901425D01*
X171697694Y-91901425D01*
X171603674Y-91891819D01*
X171603660Y-91891818D01*
X171600545Y-91891500D01*
X171597397Y-91891500D01*
X170602604Y-91891500D01*
X170602584Y-91891500D01*
X170599456Y-91891501D01*
X170596343Y-91891818D01*
X170596323Y-91891820D01*
X170502313Y-91901424D01*
X170502307Y-91901425D01*
X170495574Y-91902113D01*
X170489144Y-91904243D01*
X170489142Y-91904244D01*
X170334122Y-91955611D01*
X170334115Y-91955613D01*
X170327262Y-91957885D01*
X170321121Y-91961672D01*
X170321112Y-91961677D01*
X170182497Y-92047177D01*
X170176348Y-92050970D01*
X170171240Y-92056077D01*
X170171236Y-92056081D01*
X170056081Y-92171236D01*
X170056077Y-92171240D01*
X170050970Y-92176348D01*
X170047178Y-92182495D01*
X170047177Y-92182497D01*
X169961677Y-92321112D01*
X169961672Y-92321121D01*
X169957885Y-92327262D01*
X169955613Y-92334115D01*
X169955611Y-92334122D01*
X169904241Y-92489149D01*
X169904239Y-92489157D01*
X169902113Y-92495574D01*
X169901425Y-92502302D01*
X169901425Y-92502305D01*
X169891819Y-92596325D01*
X169891818Y-92596340D01*
X169891500Y-92599455D01*
X169891500Y-92602602D01*
X169891500Y-92965756D01*
X169875391Y-93026876D01*
X169831248Y-93072115D01*
X169770542Y-93089719D01*
X169709046Y-93075113D01*
X169687804Y-93063759D01*
X169681976Y-93061991D01*
X169503531Y-93007860D01*
X169503526Y-93007859D01*
X169497701Y-93006092D01*
X169491642Y-93005495D01*
X169491636Y-93005494D01*
X169306061Y-92987217D01*
X169300000Y-92986620D01*
X169293939Y-92987217D01*
X169108363Y-93005494D01*
X169108355Y-93005495D01*
X169102299Y-93006092D01*
X169096475Y-93007858D01*
X169096468Y-93007860D01*
X168918023Y-93061991D01*
X168918019Y-93061992D01*
X168912196Y-93063759D01*
X168906830Y-93066626D01*
X168906823Y-93066630D01*
X168742372Y-93154531D01*
X168742368Y-93154533D01*
X168736996Y-93157405D01*
X168732288Y-93161268D01*
X168732283Y-93161272D01*
X168588138Y-93279569D01*
X168588133Y-93279573D01*
X168583432Y-93283432D01*
X168579573Y-93288133D01*
X168579569Y-93288138D01*
X168473876Y-93416926D01*
X168457405Y-93436996D01*
X168454533Y-93442368D01*
X168452848Y-93444891D01*
X168408199Y-93485358D01*
X168349746Y-93500000D01*
X161124000Y-93500000D01*
X161062000Y-93483387D01*
X161016613Y-93438000D01*
X161000000Y-93376000D01*
X161000000Y-92016326D01*
X161000000Y-92000000D01*
X160983674Y-92000000D01*
X160511544Y-92000000D01*
X160464091Y-91990561D01*
X160435620Y-91971537D01*
X160434421Y-91973055D01*
X160428763Y-91968581D01*
X160423652Y-91963470D01*
X160327632Y-91904244D01*
X160278887Y-91874177D01*
X160278881Y-91874174D01*
X160272738Y-91870385D01*
X160265880Y-91868112D01*
X160265877Y-91868111D01*
X160110850Y-91816741D01*
X160110844Y-91816739D01*
X160104426Y-91814613D01*
X160097696Y-91813925D01*
X160097694Y-91813925D01*
X160003674Y-91804319D01*
X160003660Y-91804318D01*
X160000545Y-91804000D01*
X159997397Y-91804000D01*
X159002604Y-91804000D01*
X159002584Y-91804000D01*
X158999456Y-91804001D01*
X158996343Y-91804318D01*
X158996323Y-91804320D01*
X158895574Y-91814613D01*
X158895353Y-91812455D01*
X158853676Y-91811959D01*
X158804530Y-91787775D01*
X158770598Y-91744778D01*
X158758500Y-91691356D01*
X158758500Y-90064296D01*
X158759809Y-90046325D01*
X158760308Y-90042913D01*
X158763341Y-90022211D01*
X158758971Y-89972272D01*
X158758500Y-89961467D01*
X158758500Y-89959429D01*
X158758500Y-89955820D01*
X158754862Y-89924700D01*
X158754495Y-89921109D01*
X158754164Y-89917327D01*
X158747887Y-89845574D01*
X158745614Y-89838714D01*
X158744860Y-89835062D01*
X158744830Y-89834875D01*
X158744778Y-89834692D01*
X158743917Y-89831062D01*
X158743079Y-89823887D01*
X158717127Y-89752587D01*
X158715952Y-89749203D01*
X158694386Y-89684119D01*
X158692114Y-89677262D01*
X158688322Y-89671115D01*
X158686750Y-89667743D01*
X158686673Y-89667558D01*
X158686580Y-89667391D01*
X158684905Y-89664056D01*
X158682435Y-89657268D01*
X158640754Y-89593896D01*
X158638815Y-89590852D01*
X158602822Y-89532497D01*
X158599030Y-89526349D01*
X158593919Y-89521238D01*
X158591615Y-89518324D01*
X158591496Y-89518159D01*
X158591374Y-89518026D01*
X158588970Y-89515162D01*
X158585001Y-89509126D01*
X158543526Y-89469996D01*
X158514843Y-89429106D01*
X158504621Y-89380220D01*
X158501999Y-88597128D01*
X158500417Y-88124415D01*
X158516891Y-88062240D01*
X158562296Y-88016682D01*
X158624416Y-88000000D01*
X158721191Y-88000000D01*
X158761901Y-88006873D01*
X158795060Y-88025064D01*
X158796654Y-88026658D01*
X158945080Y-88118209D01*
X159110619Y-88173062D01*
X159212787Y-88183500D01*
X159787212Y-88183499D01*
X159889381Y-88173062D01*
X160054920Y-88118209D01*
X160203346Y-88026658D01*
X160204939Y-88025064D01*
X160238099Y-88006873D01*
X160278809Y-88000000D01*
X160983674Y-88000000D01*
X161000000Y-88000000D01*
X161000000Y-76600000D01*
X160983674Y-76600000D01*
X158524000Y-76600000D01*
X158462000Y-76583387D01*
X158416613Y-76538000D01*
X158400000Y-76476000D01*
X158400000Y-74927852D01*
X158417067Y-74865073D01*
X158463568Y-74819575D01*
X158526705Y-74803882D01*
X158589094Y-74822312D01*
X158702262Y-74892115D01*
X158870574Y-74947887D01*
X158974455Y-74958500D01*
X160025544Y-74958499D01*
X160129426Y-74947887D01*
X160297738Y-74892115D01*
X160417150Y-74818460D01*
X160482245Y-74800000D01*
X160983674Y-74800000D01*
X161000000Y-74800000D01*
X161000000Y-74124000D01*
X161016613Y-74062000D01*
X161062000Y-74016613D01*
X161124000Y-74000000D01*
X167376000Y-74000000D01*
X167438000Y-74016613D01*
X167483387Y-74062000D01*
X167500000Y-74124000D01*
X167500000Y-74202753D01*
X167493654Y-74241912D01*
X167475267Y-74277064D01*
X167404426Y-74371695D01*
X167404423Y-74371698D01*
X167399111Y-74378796D01*
X167396013Y-74387099D01*
X167396011Y-74387105D01*
X167350719Y-74508536D01*
X167350717Y-74508543D01*
X167348011Y-74515799D01*
X167347182Y-74523500D01*
X167347182Y-74523505D01*
X167341853Y-74573075D01*
X167341500Y-74576362D01*
X167341500Y-76423638D01*
X167348011Y-76484201D01*
X167350717Y-76491458D01*
X167350719Y-76491463D01*
X167391202Y-76600000D01*
X167399111Y-76621204D01*
X167404425Y-76628303D01*
X167404426Y-76628304D01*
X167475267Y-76722936D01*
X167493654Y-76758088D01*
X167500000Y-76797247D01*
X167500000Y-77500000D01*
X168438000Y-77500000D01*
X168493454Y-77513091D01*
X168537200Y-77549600D01*
X170000000Y-79500000D01*
X170014439Y-79500000D01*
X173983674Y-79500000D01*
X174000000Y-79500000D01*
X174000000Y-72624000D01*
X174016613Y-72562000D01*
X174062000Y-72516613D01*
X174124000Y-72500000D01*
X208362500Y-72500000D01*
X208424500Y-72516613D01*
G37*
%TD.AperFunction*%
%TD*%
%TA.AperFunction,Conductor*%
%TO.N,GNDPWR*%
G36*
X126675818Y-85121165D02*
G01*
X126725181Y-85151415D01*
X127755181Y-86181415D01*
X127782061Y-86221643D01*
X127791500Y-86269096D01*
X127791500Y-86748638D01*
X127791852Y-86751918D01*
X127791853Y-86751924D01*
X127795708Y-86787787D01*
X127798011Y-86809201D01*
X127800717Y-86816458D01*
X127800719Y-86816463D01*
X127821555Y-86872325D01*
X127849111Y-86946204D01*
X127936739Y-87063261D01*
X128053796Y-87150889D01*
X128190799Y-87201989D01*
X128251362Y-87208500D01*
X128254672Y-87208500D01*
X129658457Y-87208500D01*
X129713551Y-87221412D01*
X129757172Y-87257458D01*
X129780235Y-87309132D01*
X129777948Y-87365402D01*
X129775669Y-87371125D01*
X129774580Y-87377763D01*
X129774580Y-87377766D01*
X129747091Y-87545441D01*
X129745740Y-87553683D01*
X129746578Y-87569140D01*
X129753953Y-87705181D01*
X129755755Y-87738407D01*
X129757552Y-87744882D01*
X129757553Y-87744883D01*
X129803446Y-87910179D01*
X129803448Y-87910186D01*
X129805246Y-87916659D01*
X129808392Y-87922594D01*
X129808395Y-87922600D01*
X129888750Y-88074164D01*
X129888753Y-88074169D01*
X129891900Y-88080104D01*
X129896248Y-88085224D01*
X129896251Y-88085227D01*
X130007308Y-88215973D01*
X130011663Y-88221100D01*
X130158936Y-88333054D01*
X130326833Y-88410732D01*
X130507503Y-88450500D01*
X130642754Y-88450500D01*
X130646113Y-88450500D01*
X130783910Y-88435514D01*
X130959221Y-88376444D01*
X131117736Y-88281070D01*
X131252041Y-88153849D01*
X131355858Y-88000730D01*
X131424331Y-87828875D01*
X131454260Y-87646317D01*
X131444245Y-87461593D01*
X131399407Y-87300103D01*
X131398885Y-87235703D01*
X131430733Y-87179726D01*
X131486362Y-87147273D01*
X131550765Y-87147098D01*
X131606569Y-87179250D01*
X133418195Y-88990876D01*
X133429973Y-89004503D01*
X133444531Y-89024058D01*
X133450067Y-89028703D01*
X133482932Y-89056280D01*
X133490907Y-89063588D01*
X133494900Y-89067581D01*
X133497731Y-89069819D01*
X133497735Y-89069823D01*
X133519469Y-89087008D01*
X133522267Y-89089287D01*
X133574822Y-89133386D01*
X133574827Y-89133389D01*
X133580360Y-89138032D01*
X133586818Y-89141275D01*
X133589935Y-89143325D01*
X133590087Y-89143435D01*
X133590261Y-89143532D01*
X133593424Y-89145483D01*
X133599095Y-89149967D01*
X133605644Y-89153021D01*
X133605646Y-89153022D01*
X133667830Y-89182019D01*
X133671071Y-89183588D01*
X133677216Y-89186674D01*
X133732348Y-89214363D01*
X133732350Y-89214363D01*
X133738812Y-89217609D01*
X133745850Y-89219276D01*
X133749322Y-89220540D01*
X133749522Y-89220623D01*
X133749702Y-89220674D01*
X133753240Y-89221846D01*
X133759794Y-89224903D01*
X133834100Y-89240245D01*
X133837572Y-89241015D01*
X133911344Y-89258500D01*
X133918576Y-89258500D01*
X133922255Y-89258930D01*
X133922468Y-89258964D01*
X133922638Y-89258972D01*
X133926369Y-89259298D01*
X133933442Y-89260759D01*
X134009292Y-89258552D01*
X134012899Y-89258500D01*
X139135705Y-89258500D01*
X139153677Y-89259809D01*
X139177789Y-89263341D01*
X139227727Y-89258971D01*
X139238533Y-89258500D01*
X139240571Y-89258500D01*
X139244180Y-89258500D01*
X139275370Y-89254853D01*
X139278851Y-89254498D01*
X139354426Y-89247887D01*
X139361290Y-89245612D01*
X139364924Y-89244862D01*
X139365119Y-89244830D01*
X139365308Y-89244777D01*
X139368930Y-89243918D01*
X139376113Y-89243079D01*
X139447393Y-89217134D01*
X139450709Y-89215981D01*
X139522738Y-89192114D01*
X139528886Y-89188320D01*
X139532251Y-89186752D01*
X139532438Y-89186674D01*
X139532618Y-89186574D01*
X139535934Y-89184908D01*
X139542732Y-89182435D01*
X139606103Y-89140753D01*
X139609110Y-89138837D01*
X139673651Y-89099030D01*
X139678763Y-89093916D01*
X139681672Y-89091617D01*
X139681843Y-89091493D01*
X139681990Y-89091359D01*
X139684832Y-89088974D01*
X139690874Y-89085001D01*
X139742963Y-89029788D01*
X139745374Y-89027305D01*
X139877864Y-88894816D01*
X139918091Y-88867939D01*
X139965543Y-88858500D01*
X147935705Y-88858500D01*
X147953677Y-88859809D01*
X147977789Y-88863341D01*
X148027727Y-88858971D01*
X148038533Y-88858500D01*
X148040571Y-88858500D01*
X148044180Y-88858500D01*
X148075370Y-88854853D01*
X148078851Y-88854498D01*
X148154426Y-88847887D01*
X148161290Y-88845612D01*
X148164924Y-88844862D01*
X148165119Y-88844830D01*
X148165308Y-88844777D01*
X148168930Y-88843918D01*
X148176113Y-88843079D01*
X148247393Y-88817134D01*
X148250709Y-88815981D01*
X148322738Y-88792114D01*
X148328886Y-88788320D01*
X148332251Y-88786752D01*
X148332438Y-88786674D01*
X148332618Y-88786574D01*
X148335934Y-88784908D01*
X148342732Y-88782435D01*
X148406103Y-88740753D01*
X148409110Y-88738837D01*
X148473651Y-88699030D01*
X148478763Y-88693916D01*
X148481672Y-88691617D01*
X148481843Y-88691493D01*
X148481990Y-88691359D01*
X148484832Y-88688974D01*
X148490874Y-88685001D01*
X148542963Y-88629788D01*
X148545407Y-88627272D01*
X150067861Y-87104819D01*
X150108090Y-87077939D01*
X150155543Y-87068500D01*
X150416529Y-87068500D01*
X150451124Y-87073423D01*
X150596169Y-87115562D01*
X150633498Y-87118500D01*
X152414057Y-87118500D01*
X152416502Y-87118500D01*
X152453831Y-87115562D01*
X152613601Y-87069145D01*
X152756807Y-86984453D01*
X152874453Y-86866807D01*
X152959145Y-86723601D01*
X152998422Y-86588404D01*
X153027553Y-86537643D01*
X153076720Y-86505896D01*
X153134972Y-86500236D01*
X153189331Y-86521923D01*
X153227689Y-86566126D01*
X153241500Y-86622999D01*
X153241500Y-86935705D01*
X153240190Y-86953677D01*
X153236659Y-86977789D01*
X153237288Y-86984980D01*
X153237288Y-86984986D01*
X153241028Y-87027725D01*
X153241500Y-87038533D01*
X153241500Y-87044180D01*
X153241916Y-87047739D01*
X153241917Y-87047756D01*
X153245139Y-87075321D01*
X153245505Y-87078905D01*
X153249038Y-87119286D01*
X153252113Y-87154426D01*
X153254381Y-87161273D01*
X153255143Y-87164962D01*
X153255168Y-87165121D01*
X153255220Y-87165302D01*
X153256081Y-87168937D01*
X153256921Y-87176113D01*
X153259391Y-87182900D01*
X153259392Y-87182903D01*
X153282854Y-87247367D01*
X153284038Y-87250771D01*
X153300386Y-87300104D01*
X153307886Y-87322738D01*
X153311675Y-87328881D01*
X153313255Y-87332269D01*
X153313328Y-87332446D01*
X153313417Y-87332605D01*
X153315095Y-87335946D01*
X153317565Y-87342732D01*
X153343947Y-87382844D01*
X153359245Y-87406103D01*
X153361178Y-87409138D01*
X153400970Y-87473651D01*
X153406080Y-87478761D01*
X153408385Y-87481676D01*
X153408502Y-87481838D01*
X153408621Y-87481968D01*
X153411027Y-87484836D01*
X153414999Y-87490874D01*
X153420254Y-87495831D01*
X153420255Y-87495833D01*
X153470173Y-87542928D01*
X153472760Y-87545441D01*
X153918195Y-87990876D01*
X153929973Y-88004503D01*
X153944531Y-88024058D01*
X153950067Y-88028703D01*
X153982932Y-88056280D01*
X153990908Y-88063589D01*
X153994900Y-88067581D01*
X153997731Y-88069819D01*
X153997735Y-88069823D01*
X154019469Y-88087008D01*
X154022267Y-88089287D01*
X154074822Y-88133386D01*
X154074827Y-88133389D01*
X154080360Y-88138032D01*
X154086818Y-88141275D01*
X154089935Y-88143325D01*
X154090087Y-88143435D01*
X154090261Y-88143532D01*
X154093424Y-88145483D01*
X154099095Y-88149967D01*
X154105644Y-88153021D01*
X154105646Y-88153022D01*
X154167830Y-88182019D01*
X154171077Y-88183591D01*
X154232348Y-88214363D01*
X154232350Y-88214363D01*
X154238812Y-88217609D01*
X154245850Y-88219276D01*
X154249322Y-88220540D01*
X154249522Y-88220623D01*
X154249702Y-88220674D01*
X154253240Y-88221846D01*
X154259794Y-88224903D01*
X154334100Y-88240245D01*
X154337572Y-88241015D01*
X154411344Y-88258500D01*
X154418576Y-88258500D01*
X154422255Y-88258930D01*
X154422468Y-88258964D01*
X154422638Y-88258972D01*
X154426369Y-88259298D01*
X154433442Y-88260759D01*
X154509292Y-88258552D01*
X154512899Y-88258500D01*
X155134457Y-88258500D01*
X155181910Y-88267939D01*
X155222138Y-88294819D01*
X157205181Y-90277862D01*
X157232061Y-90318090D01*
X157241500Y-90365543D01*
X157241500Y-92290158D01*
X157234251Y-92331932D01*
X157213353Y-92368823D01*
X157161272Y-92432283D01*
X157161268Y-92432288D01*
X157157405Y-92436996D01*
X157154533Y-92442368D01*
X157154531Y-92442372D01*
X157066630Y-92606823D01*
X157066626Y-92606830D01*
X157063759Y-92612196D01*
X157061992Y-92618019D01*
X157061991Y-92618023D01*
X157007860Y-92796468D01*
X157007858Y-92796475D01*
X157006092Y-92802299D01*
X157005495Y-92808355D01*
X157005494Y-92808363D01*
X156988127Y-92984695D01*
X156986620Y-93000000D01*
X156987217Y-93006061D01*
X157005494Y-93191636D01*
X157005495Y-93191642D01*
X157006092Y-93197701D01*
X157007859Y-93203526D01*
X157007860Y-93203531D01*
X157043247Y-93320185D01*
X157063759Y-93387804D01*
X157066628Y-93393172D01*
X157066630Y-93393176D01*
X157101083Y-93457633D01*
X157157405Y-93563004D01*
X157161271Y-93567715D01*
X157161272Y-93567716D01*
X157229649Y-93651034D01*
X157283432Y-93716568D01*
X157436996Y-93842595D01*
X157612196Y-93936241D01*
X157802299Y-93993908D01*
X158000000Y-94013380D01*
X158197701Y-93993908D01*
X158387804Y-93936241D01*
X158490836Y-93881168D01*
X158553116Y-93866587D01*
X158614382Y-93884990D01*
X158721106Y-93950819D01*
X158721113Y-93950822D01*
X158727262Y-93954615D01*
X158781504Y-93972588D01*
X158825828Y-93998466D01*
X158855877Y-94040078D01*
X158866500Y-94090294D01*
X158866500Y-94926422D01*
X158855877Y-94976638D01*
X158825829Y-95018250D01*
X158781504Y-95044127D01*
X158760921Y-95050947D01*
X158709122Y-95068111D01*
X158709115Y-95068113D01*
X158702262Y-95070385D01*
X158696121Y-95074172D01*
X158696112Y-95074177D01*
X158557497Y-95159677D01*
X158551348Y-95163470D01*
X158546240Y-95168577D01*
X158546236Y-95168581D01*
X158431081Y-95283736D01*
X158431077Y-95283740D01*
X158425970Y-95288848D01*
X158422178Y-95294995D01*
X158422177Y-95294997D01*
X158336677Y-95433612D01*
X158336672Y-95433621D01*
X158332885Y-95439762D01*
X158330613Y-95446615D01*
X158330611Y-95446622D01*
X158279241Y-95601649D01*
X158279239Y-95601657D01*
X158277113Y-95608074D01*
X158276425Y-95614802D01*
X158276425Y-95614805D01*
X158266819Y-95708825D01*
X158266818Y-95708840D01*
X158266500Y-95711955D01*
X158266500Y-95715101D01*
X158266500Y-95715102D01*
X158266500Y-96484895D01*
X158266500Y-96484914D01*
X158266501Y-96488044D01*
X158266819Y-96491157D01*
X158266820Y-96491176D01*
X158273319Y-96554791D01*
X158277113Y-96591926D01*
X158279244Y-96598357D01*
X158330611Y-96753377D01*
X158330612Y-96753380D01*
X158332885Y-96760238D01*
X158336674Y-96766381D01*
X158336677Y-96766387D01*
X158393992Y-96859309D01*
X158425970Y-96911152D01*
X158551348Y-97036530D01*
X158650419Y-97097637D01*
X158696112Y-97125822D01*
X158696114Y-97125823D01*
X158702262Y-97129615D01*
X158870574Y-97185387D01*
X158974455Y-97196000D01*
X160025544Y-97195999D01*
X160129426Y-97185387D01*
X160297738Y-97129615D01*
X160448652Y-97036530D01*
X160574030Y-96911152D01*
X160667115Y-96760238D01*
X160722887Y-96591926D01*
X160733500Y-96488045D01*
X160733499Y-95711956D01*
X160722887Y-95608074D01*
X160667115Y-95439762D01*
X160574030Y-95288848D01*
X160448652Y-95163470D01*
X160372906Y-95116749D01*
X160303887Y-95074177D01*
X160303881Y-95074174D01*
X160297738Y-95070385D01*
X160290880Y-95068112D01*
X160290877Y-95068111D01*
X160246834Y-95053517D01*
X160218495Y-95044127D01*
X160174171Y-95018250D01*
X160144123Y-94976638D01*
X160133500Y-94926422D01*
X160133500Y-94090294D01*
X160144123Y-94040078D01*
X160174172Y-93998466D01*
X160218495Y-93972588D01*
X160272738Y-93954615D01*
X160423652Y-93861530D01*
X160481118Y-93804063D01*
X160536704Y-93771970D01*
X160600891Y-93771970D01*
X160656479Y-93804064D01*
X160698901Y-93846486D01*
X160805249Y-93928091D01*
X160929095Y-93979390D01*
X160991095Y-93996003D01*
X161124000Y-94013500D01*
X166862500Y-94013500D01*
X166924500Y-94030113D01*
X166969887Y-94075500D01*
X166986500Y-94137499D01*
X166986500Y-94137500D01*
X166986500Y-94354039D01*
X166994658Y-94445209D01*
X166995145Y-94447913D01*
X166995148Y-94447929D01*
X167001279Y-94481910D01*
X167002476Y-94488543D01*
X167003201Y-94491189D01*
X167003206Y-94491207D01*
X167019783Y-94551630D01*
X167026695Y-94576824D01*
X167027656Y-94579401D01*
X167027662Y-94579419D01*
X167037181Y-94604939D01*
X167045000Y-94648274D01*
X167045000Y-96351726D01*
X167037181Y-96395061D01*
X167027662Y-96420580D01*
X167027653Y-96420605D01*
X167026695Y-96423176D01*
X167025968Y-96425824D01*
X167025965Y-96425835D01*
X167003206Y-96508792D01*
X167003200Y-96508815D01*
X167002476Y-96511457D01*
X167001985Y-96514175D01*
X167001985Y-96514178D01*
X166995148Y-96552070D01*
X166995145Y-96552089D01*
X166994658Y-96554791D01*
X166994412Y-96557536D01*
X166994412Y-96557539D01*
X166990760Y-96598357D01*
X166986500Y-96645961D01*
X166986500Y-96876000D01*
X166987028Y-96880016D01*
X166987029Y-96880020D01*
X167001906Y-96993025D01*
X167003997Y-97008905D01*
X167005043Y-97012810D01*
X167005046Y-97012823D01*
X167010029Y-97031418D01*
X167020610Y-97070905D01*
X167022163Y-97074654D01*
X167022165Y-97074660D01*
X167045870Y-97131888D01*
X167071909Y-97194751D01*
X167076855Y-97201196D01*
X167076857Y-97201200D01*
X167146108Y-97291448D01*
X167153514Y-97301099D01*
X167198901Y-97346486D01*
X167305249Y-97428091D01*
X167429095Y-97479390D01*
X167491095Y-97496003D01*
X167624000Y-97513500D01*
X168658820Y-97513500D01*
X168717330Y-97528172D01*
X168761994Y-97568717D01*
X169565932Y-98774624D01*
X169566829Y-98775836D01*
X169566847Y-98775861D01*
X169589672Y-98806686D01*
X169596082Y-98815343D01*
X169611575Y-98834241D01*
X169645584Y-98871782D01*
X170100582Y-99326780D01*
X170178392Y-99390638D01*
X170218620Y-99417518D01*
X170307399Y-99464972D01*
X170403730Y-99494194D01*
X170451183Y-99503633D01*
X170454206Y-99503930D01*
X170454208Y-99503931D01*
X170477694Y-99506244D01*
X170551362Y-99513500D01*
X172871947Y-99513500D01*
X172876000Y-99513500D01*
X173008905Y-99496003D01*
X173070905Y-99479390D01*
X173194751Y-99428091D01*
X173301099Y-99346486D01*
X173346486Y-99301099D01*
X173428091Y-99194751D01*
X173479390Y-99070905D01*
X173496003Y-99008905D01*
X173513500Y-98876000D01*
X173513500Y-94124000D01*
X173496003Y-93991095D01*
X173479390Y-93929095D01*
X173428091Y-93805249D01*
X173346486Y-93698901D01*
X173301099Y-93653514D01*
X173246826Y-93611868D01*
X173201200Y-93576857D01*
X173201196Y-93576855D01*
X173194751Y-93571909D01*
X173187242Y-93568798D01*
X173187241Y-93568798D01*
X173074660Y-93522165D01*
X173074654Y-93522163D01*
X173070905Y-93520610D01*
X173066984Y-93519559D01*
X173066980Y-93519558D01*
X173012823Y-93505046D01*
X173012810Y-93505043D01*
X173008905Y-93503997D01*
X172993025Y-93501906D01*
X172880020Y-93487029D01*
X172880016Y-93487028D01*
X172876000Y-93486500D01*
X172871947Y-93486500D01*
X172432500Y-93486500D01*
X172370500Y-93469887D01*
X172325113Y-93424500D01*
X172308500Y-93362500D01*
X172308499Y-92637500D01*
X172325112Y-92575500D01*
X172370499Y-92530113D01*
X172432499Y-92513500D01*
X208362500Y-92513500D01*
X208424500Y-92530113D01*
X208469887Y-92575500D01*
X208486500Y-92637500D01*
X208486500Y-99642499D01*
X208503997Y-99775404D01*
X208505043Y-99779309D01*
X208505046Y-99779322D01*
X208519558Y-99833479D01*
X208520610Y-99837404D01*
X208571909Y-99961250D01*
X208576855Y-99967696D01*
X208576857Y-99967699D01*
X208626589Y-100032509D01*
X208645633Y-100068137D01*
X208652214Y-100107996D01*
X208652214Y-104892003D01*
X208645633Y-104931862D01*
X208626589Y-104967490D01*
X208576857Y-105032299D01*
X208576852Y-105032306D01*
X208571909Y-105038749D01*
X208568800Y-105046254D01*
X208568798Y-105046258D01*
X208522165Y-105158839D01*
X208522161Y-105158849D01*
X208520610Y-105162595D01*
X208519560Y-105166511D01*
X208519558Y-105166519D01*
X208505046Y-105220676D01*
X208505042Y-105220691D01*
X208503997Y-105224595D01*
X208486500Y-105357500D01*
X208486500Y-105361553D01*
X208486500Y-110362500D01*
X208469887Y-110424500D01*
X208424500Y-110469887D01*
X208362500Y-110486500D01*
X187637500Y-110486500D01*
X187575500Y-110469887D01*
X187530113Y-110424500D01*
X187513500Y-110362500D01*
X187513500Y-107128053D01*
X187513500Y-107124000D01*
X187496003Y-106991095D01*
X187479390Y-106929095D01*
X187428091Y-106805249D01*
X187346486Y-106698901D01*
X187301099Y-106653514D01*
X187291448Y-106646108D01*
X187201200Y-106576857D01*
X187201196Y-106576855D01*
X187194751Y-106571909D01*
X187187242Y-106568798D01*
X187187241Y-106568798D01*
X187074660Y-106522165D01*
X187074654Y-106522163D01*
X187070905Y-106520610D01*
X187066984Y-106519559D01*
X187066980Y-106519558D01*
X187012823Y-106505046D01*
X187012810Y-106505043D01*
X187008905Y-106503997D01*
X186993025Y-106501906D01*
X186880020Y-106487029D01*
X186880016Y-106487028D01*
X186876000Y-106486500D01*
X177124000Y-106486500D01*
X177119984Y-106487028D01*
X177119979Y-106487029D01*
X176995120Y-106503467D01*
X176995118Y-106503467D01*
X176991095Y-106503997D01*
X176987191Y-106505042D01*
X176987176Y-106505046D01*
X176933019Y-106519558D01*
X176933011Y-106519560D01*
X176929095Y-106520610D01*
X176925349Y-106522161D01*
X176925339Y-106522165D01*
X176812758Y-106568798D01*
X176812754Y-106568800D01*
X176805249Y-106571909D01*
X176798806Y-106576852D01*
X176798799Y-106576857D01*
X176702132Y-106651034D01*
X176702125Y-106651039D01*
X176698901Y-106653514D01*
X176696028Y-106656386D01*
X176696020Y-106656394D01*
X176656394Y-106696020D01*
X176656386Y-106696028D01*
X176653514Y-106698901D01*
X176651039Y-106702125D01*
X176651034Y-106702132D01*
X176576857Y-106798799D01*
X176576852Y-106798806D01*
X176571909Y-106805249D01*
X176568800Y-106812754D01*
X176568798Y-106812758D01*
X176522165Y-106925339D01*
X176522161Y-106925349D01*
X176520610Y-106929095D01*
X176519560Y-106933011D01*
X176519558Y-106933019D01*
X176505046Y-106987176D01*
X176505042Y-106987191D01*
X176503997Y-106991095D01*
X176486500Y-107124000D01*
X176486500Y-107128053D01*
X176486500Y-110362500D01*
X176469887Y-110424500D01*
X176424500Y-110469887D01*
X176362500Y-110486500D01*
X130264060Y-110486500D01*
X130216607Y-110477061D01*
X130176379Y-110450181D01*
X126549819Y-106823621D01*
X126522939Y-106783393D01*
X126513500Y-106735940D01*
X126513500Y-93888638D01*
X133651500Y-93888638D01*
X133651852Y-93891918D01*
X133651853Y-93891924D01*
X133656807Y-93938008D01*
X133658011Y-93949201D01*
X133660717Y-93956458D01*
X133660719Y-93956463D01*
X133706011Y-94077894D01*
X133709111Y-94086204D01*
X133796739Y-94203261D01*
X133913796Y-94290889D01*
X134050799Y-94341989D01*
X134111362Y-94348500D01*
X135805328Y-94348500D01*
X135808638Y-94348500D01*
X135869201Y-94341989D01*
X136006204Y-94290889D01*
X136123261Y-94203261D01*
X136210889Y-94086204D01*
X136261989Y-93949201D01*
X136263568Y-93934505D01*
X136283948Y-93878581D01*
X136328038Y-93838596D01*
X136385681Y-93823763D01*
X136443595Y-93837498D01*
X136488437Y-93876638D01*
X136489797Y-93878581D01*
X136493802Y-93884300D01*
X136655700Y-94046198D01*
X136660132Y-94049301D01*
X136660134Y-94049303D01*
X136672468Y-94057939D01*
X136843251Y-94177523D01*
X137050757Y-94274284D01*
X137055977Y-94275682D01*
X137055978Y-94275683D01*
X137266680Y-94332141D01*
X137266682Y-94332141D01*
X137271913Y-94333543D01*
X137500000Y-94353498D01*
X137728087Y-94333543D01*
X137949243Y-94274284D01*
X138156749Y-94177523D01*
X138308985Y-94070925D01*
X138342822Y-94054239D01*
X138380110Y-94048500D01*
X139010904Y-94048500D01*
X139058357Y-94057939D01*
X139098585Y-94084819D01*
X139565396Y-94551630D01*
X139590097Y-94586905D01*
X139601243Y-94628501D01*
X139605985Y-94682699D01*
X139605986Y-94682705D01*
X139606457Y-94688087D01*
X139607855Y-94693306D01*
X139607856Y-94693309D01*
X139664316Y-94904021D01*
X139664318Y-94904028D01*
X139665716Y-94909243D01*
X139668000Y-94914143D01*
X139668002Y-94914146D01*
X139715480Y-95015963D01*
X139762477Y-95116749D01*
X139765584Y-95121186D01*
X139890696Y-95299865D01*
X139890699Y-95299869D01*
X139893802Y-95304300D01*
X140055700Y-95466198D01*
X140243251Y-95597523D01*
X140450757Y-95694284D01*
X140455977Y-95695682D01*
X140455978Y-95695683D01*
X140666680Y-95752141D01*
X140666682Y-95752141D01*
X140671913Y-95753543D01*
X140900000Y-95773498D01*
X141128087Y-95753543D01*
X141349243Y-95694284D01*
X141556749Y-95597523D01*
X141744300Y-95466198D01*
X141906198Y-95304300D01*
X142037523Y-95116749D01*
X142134284Y-94909243D01*
X142193543Y-94688087D01*
X142213498Y-94460000D01*
X142193543Y-94231913D01*
X142152273Y-94077894D01*
X142135683Y-94015978D01*
X142135682Y-94015977D01*
X142134284Y-94010757D01*
X142037523Y-93803251D01*
X141906198Y-93615700D01*
X141744300Y-93453802D01*
X141739869Y-93450699D01*
X141739865Y-93450696D01*
X141561186Y-93325584D01*
X141561187Y-93325584D01*
X141556749Y-93322477D01*
X141551834Y-93320185D01*
X141354146Y-93228002D01*
X141354143Y-93228000D01*
X141349243Y-93225716D01*
X141344028Y-93224318D01*
X141344021Y-93224316D01*
X141133309Y-93167856D01*
X141133306Y-93167855D01*
X141128087Y-93166457D01*
X141122705Y-93165986D01*
X141122699Y-93165985D01*
X141068501Y-93161243D01*
X141026905Y-93150097D01*
X140991630Y-93125396D01*
X140232464Y-92366230D01*
X140224291Y-92357213D01*
X140196568Y-92323432D01*
X140043004Y-92197405D01*
X139867804Y-92103759D01*
X139867803Y-92103758D01*
X139853171Y-92099319D01*
X139853169Y-92099318D01*
X139683531Y-92047859D01*
X139683526Y-92047858D01*
X139677701Y-92046091D01*
X139671642Y-92045494D01*
X139671636Y-92045493D01*
X139486062Y-92027217D01*
X139480000Y-92026620D01*
X139473938Y-92027217D01*
X139436512Y-92030903D01*
X139424358Y-92031500D01*
X138380110Y-92031500D01*
X138342822Y-92025761D01*
X138308986Y-92009075D01*
X138161186Y-91905584D01*
X138161187Y-91905584D01*
X138156749Y-91902477D01*
X138116771Y-91883835D01*
X137954146Y-91808002D01*
X137954143Y-91808000D01*
X137949243Y-91805716D01*
X137944028Y-91804318D01*
X137944021Y-91804316D01*
X137733319Y-91747858D01*
X137733308Y-91747856D01*
X137728087Y-91746457D01*
X137722695Y-91745985D01*
X137722688Y-91745984D01*
X137505395Y-91726974D01*
X137500000Y-91726502D01*
X137494605Y-91726974D01*
X137277311Y-91745984D01*
X137277302Y-91745985D01*
X137271913Y-91746457D01*
X137266692Y-91747855D01*
X137266680Y-91747858D01*
X137055978Y-91804316D01*
X137055967Y-91804319D01*
X137050757Y-91805716D01*
X137045860Y-91807999D01*
X137045853Y-91808002D01*
X136848165Y-91900185D01*
X136848159Y-91900188D01*
X136843251Y-91902477D01*
X136838817Y-91905581D01*
X136838813Y-91905584D01*
X136660134Y-92030696D01*
X136660124Y-92030703D01*
X136655700Y-92033802D01*
X136651874Y-92037627D01*
X136651868Y-92037633D01*
X136497633Y-92191868D01*
X136497627Y-92191874D01*
X136493802Y-92195700D01*
X136490701Y-92200128D01*
X136490694Y-92200137D01*
X136488433Y-92203367D01*
X136443590Y-92242504D01*
X136385677Y-92256236D01*
X136328036Y-92241402D01*
X136283947Y-92201417D01*
X136263569Y-92145495D01*
X136263492Y-92144780D01*
X136261989Y-92130799D01*
X136210889Y-91993796D01*
X136123261Y-91876739D01*
X136006204Y-91789111D01*
X135997896Y-91786012D01*
X135997894Y-91786011D01*
X135876463Y-91740719D01*
X135876458Y-91740717D01*
X135869201Y-91738011D01*
X135861497Y-91737182D01*
X135861494Y-91737182D01*
X135811924Y-91731853D01*
X135811918Y-91731852D01*
X135808638Y-91731500D01*
X134111362Y-91731500D01*
X134108082Y-91731852D01*
X134108075Y-91731853D01*
X134058505Y-91737182D01*
X134058500Y-91737182D01*
X134050799Y-91738011D01*
X134043543Y-91740717D01*
X134043536Y-91740719D01*
X133922105Y-91786011D01*
X133922099Y-91786013D01*
X133913796Y-91789111D01*
X133906698Y-91794423D01*
X133906695Y-91794426D01*
X133803835Y-91871426D01*
X133803831Y-91871429D01*
X133796739Y-91876739D01*
X133791429Y-91883831D01*
X133791426Y-91883835D01*
X133714426Y-91986695D01*
X133714423Y-91986698D01*
X133709111Y-91993796D01*
X133706013Y-92002099D01*
X133706011Y-92002105D01*
X133660719Y-92123536D01*
X133660717Y-92123543D01*
X133658011Y-92130799D01*
X133657182Y-92138500D01*
X133657182Y-92138505D01*
X133657182Y-92138506D01*
X133651500Y-92191362D01*
X133651500Y-93888638D01*
X126513500Y-93888638D01*
X126513500Y-85239096D01*
X126527015Y-85182801D01*
X126564615Y-85138778D01*
X126618102Y-85116623D01*
X126675818Y-85121165D01*
G37*
%TD.AperFunction*%
%TA.AperFunction,Conductor*%
G36*
X159438000Y-39530113D02*
G01*
X159483387Y-39575500D01*
X159500000Y-39637500D01*
X159500000Y-45908386D01*
X159490561Y-45955839D01*
X159463681Y-45996067D01*
X159423453Y-46022947D01*
X159312758Y-46068798D01*
X159312754Y-46068800D01*
X159305249Y-46071909D01*
X159298806Y-46076852D01*
X159298799Y-46076857D01*
X159202132Y-46151034D01*
X159202125Y-46151039D01*
X159198901Y-46153514D01*
X159196028Y-46156386D01*
X159196020Y-46156394D01*
X159156394Y-46196020D01*
X159156386Y-46196028D01*
X159153514Y-46198901D01*
X159151039Y-46202125D01*
X159151034Y-46202132D01*
X159076857Y-46298799D01*
X159076852Y-46298806D01*
X159071909Y-46305249D01*
X159068800Y-46312754D01*
X159068798Y-46312758D01*
X159022165Y-46425339D01*
X159022161Y-46425349D01*
X159020610Y-46429095D01*
X159019560Y-46433011D01*
X159019558Y-46433019D01*
X159005046Y-46487176D01*
X159005042Y-46487191D01*
X159003997Y-46491095D01*
X158986500Y-46624000D01*
X158986500Y-46628053D01*
X158986500Y-68783138D01*
X158973976Y-68837444D01*
X158938934Y-68880779D01*
X158895272Y-68901201D01*
X158895574Y-68902113D01*
X158734122Y-68955611D01*
X158734115Y-68955613D01*
X158727262Y-68957885D01*
X158721121Y-68961672D01*
X158721112Y-68961677D01*
X158582493Y-69047179D01*
X158582488Y-69047182D01*
X158576348Y-69050970D01*
X158571245Y-69056072D01*
X158571241Y-69056076D01*
X158520714Y-69106602D01*
X158491489Y-69128276D01*
X158442368Y-69154532D01*
X158442356Y-69154539D01*
X158436996Y-69157405D01*
X158432295Y-69161262D01*
X158432289Y-69161267D01*
X158288138Y-69279569D01*
X158288133Y-69279573D01*
X158283432Y-69283432D01*
X158279573Y-69288133D01*
X158279571Y-69288136D01*
X158255706Y-69317215D01*
X158247536Y-69326228D01*
X153218585Y-74355181D01*
X153178357Y-74382061D01*
X153130904Y-74391500D01*
X138595125Y-74391500D01*
X138535009Y-74375953D01*
X138489967Y-74333210D01*
X138471295Y-74273990D01*
X138483675Y-74213142D01*
X138524002Y-74165925D01*
X138604860Y-74109307D01*
X138604860Y-74109306D01*
X138609300Y-74106198D01*
X138771198Y-73944300D01*
X138902523Y-73756749D01*
X138999284Y-73549243D01*
X139058543Y-73328087D01*
X139078498Y-73100000D01*
X139058543Y-72871913D01*
X139049273Y-72837319D01*
X139000683Y-72655978D01*
X139000682Y-72655977D01*
X138999284Y-72650757D01*
X138902523Y-72443251D01*
X138771198Y-72255700D01*
X138609300Y-72093802D01*
X138604869Y-72090699D01*
X138604865Y-72090696D01*
X138426186Y-71965584D01*
X138426187Y-71965584D01*
X138421749Y-71962477D01*
X138342226Y-71925395D01*
X138330656Y-71920000D01*
X139586502Y-71920000D01*
X139586974Y-71925395D01*
X139605984Y-72142688D01*
X139605985Y-72142695D01*
X139606457Y-72148087D01*
X139607856Y-72153308D01*
X139607858Y-72153319D01*
X139664316Y-72364021D01*
X139664318Y-72364028D01*
X139665716Y-72369243D01*
X139668000Y-72374143D01*
X139668002Y-72374146D01*
X139728752Y-72504426D01*
X139762477Y-72576749D01*
X139765584Y-72581186D01*
X139890696Y-72759865D01*
X139890699Y-72759869D01*
X139893802Y-72764300D01*
X140055700Y-72926198D01*
X140060132Y-72929301D01*
X140060134Y-72929303D01*
X140099824Y-72957094D01*
X140243251Y-73057523D01*
X140450757Y-73154284D01*
X140455977Y-73155682D01*
X140455978Y-73155683D01*
X140666680Y-73212141D01*
X140666682Y-73212141D01*
X140671913Y-73213543D01*
X140900000Y-73233498D01*
X141128087Y-73213543D01*
X141349243Y-73154284D01*
X141556749Y-73057523D01*
X141744300Y-72926198D01*
X141906198Y-72764300D01*
X142037523Y-72576749D01*
X142134284Y-72369243D01*
X142193543Y-72148087D01*
X142213498Y-71920000D01*
X142193543Y-71691913D01*
X142134284Y-71470757D01*
X142037523Y-71263251D01*
X141906198Y-71075700D01*
X141744300Y-70913802D01*
X141739869Y-70910699D01*
X141739865Y-70910696D01*
X141561186Y-70785584D01*
X141561187Y-70785584D01*
X141556749Y-70782477D01*
X141551834Y-70780185D01*
X141354146Y-70688002D01*
X141354143Y-70688000D01*
X141349243Y-70685716D01*
X141344028Y-70684318D01*
X141344021Y-70684316D01*
X141133319Y-70627858D01*
X141133308Y-70627856D01*
X141128087Y-70626457D01*
X141122695Y-70625985D01*
X141122688Y-70625984D01*
X140905395Y-70606974D01*
X140900000Y-70606502D01*
X140894605Y-70606974D01*
X140677311Y-70625984D01*
X140677302Y-70625985D01*
X140671913Y-70626457D01*
X140666692Y-70627855D01*
X140666680Y-70627858D01*
X140455978Y-70684316D01*
X140455967Y-70684319D01*
X140450757Y-70685716D01*
X140445860Y-70687999D01*
X140445853Y-70688002D01*
X140248165Y-70780185D01*
X140248159Y-70780188D01*
X140243251Y-70782477D01*
X140238817Y-70785581D01*
X140238813Y-70785584D01*
X140060134Y-70910696D01*
X140060124Y-70910703D01*
X140055700Y-70913802D01*
X140051874Y-70917627D01*
X140051868Y-70917633D01*
X139897633Y-71071868D01*
X139897627Y-71071874D01*
X139893802Y-71075700D01*
X139890703Y-71080124D01*
X139890696Y-71080134D01*
X139765584Y-71258813D01*
X139765581Y-71258817D01*
X139762477Y-71263251D01*
X139760188Y-71268159D01*
X139760185Y-71268165D01*
X139668002Y-71465853D01*
X139667999Y-71465860D01*
X139665716Y-71470757D01*
X139664319Y-71475967D01*
X139664316Y-71475978D01*
X139607858Y-71686680D01*
X139607855Y-71686692D01*
X139606457Y-71691913D01*
X139605985Y-71697302D01*
X139605984Y-71697311D01*
X139596313Y-71807858D01*
X139586502Y-71920000D01*
X138330656Y-71920000D01*
X138219146Y-71868002D01*
X138219143Y-71868000D01*
X138214243Y-71865716D01*
X138209028Y-71864318D01*
X138209021Y-71864316D01*
X137998319Y-71807858D01*
X137998308Y-71807856D01*
X137993087Y-71806457D01*
X137987695Y-71805985D01*
X137987688Y-71805984D01*
X137770395Y-71786974D01*
X137765000Y-71786502D01*
X137759605Y-71786974D01*
X137542311Y-71805984D01*
X137542302Y-71805985D01*
X137536913Y-71806457D01*
X137531692Y-71807855D01*
X137531680Y-71807858D01*
X137320978Y-71864316D01*
X137320967Y-71864319D01*
X137315757Y-71865716D01*
X137310860Y-71867999D01*
X137310853Y-71868002D01*
X137113165Y-71960185D01*
X137113159Y-71960188D01*
X137108251Y-71962477D01*
X137103817Y-71965581D01*
X137103813Y-71965584D01*
X136925134Y-72090696D01*
X136925124Y-72090703D01*
X136920700Y-72093802D01*
X136916874Y-72097627D01*
X136916868Y-72097633D01*
X136762633Y-72251868D01*
X136762627Y-72251874D01*
X136758802Y-72255700D01*
X136755703Y-72260124D01*
X136755696Y-72260134D01*
X136630584Y-72438813D01*
X136630581Y-72438817D01*
X136627477Y-72443251D01*
X136625189Y-72448156D01*
X136625187Y-72448161D01*
X136607382Y-72486346D01*
X136561625Y-72538521D01*
X136495000Y-72557941D01*
X136428375Y-72538521D01*
X136382618Y-72486346D01*
X136364814Y-72448165D01*
X136362523Y-72443251D01*
X136231198Y-72255700D01*
X136069300Y-72093802D01*
X136064869Y-72090699D01*
X136064865Y-72090696D01*
X135886186Y-71965584D01*
X135886187Y-71965584D01*
X135881749Y-71962477D01*
X135802226Y-71925395D01*
X135679146Y-71868002D01*
X135679143Y-71868000D01*
X135674243Y-71865716D01*
X135669028Y-71864318D01*
X135669021Y-71864316D01*
X135458319Y-71807858D01*
X135458308Y-71807856D01*
X135453087Y-71806457D01*
X135447695Y-71805985D01*
X135447688Y-71805984D01*
X135230395Y-71786974D01*
X135225000Y-71786502D01*
X135219605Y-71786974D01*
X135002311Y-71805984D01*
X135002302Y-71805985D01*
X134996913Y-71806457D01*
X134991692Y-71807855D01*
X134991680Y-71807858D01*
X134780978Y-71864316D01*
X134780967Y-71864319D01*
X134775757Y-71865716D01*
X134770860Y-71867999D01*
X134770853Y-71868002D01*
X134573165Y-71960185D01*
X134573159Y-71960188D01*
X134568251Y-71962477D01*
X134563817Y-71965581D01*
X134563813Y-71965584D01*
X134385134Y-72090696D01*
X134385124Y-72090703D01*
X134380700Y-72093802D01*
X134376874Y-72097627D01*
X134376868Y-72097633D01*
X134222633Y-72251868D01*
X134222627Y-72251874D01*
X134218802Y-72255700D01*
X134215703Y-72260124D01*
X134215696Y-72260134D01*
X134090584Y-72438813D01*
X134090581Y-72438817D01*
X134087477Y-72443251D01*
X134085188Y-72448159D01*
X134085185Y-72448165D01*
X133993002Y-72645853D01*
X133992999Y-72645860D01*
X133990716Y-72650757D01*
X133989319Y-72655967D01*
X133989316Y-72655978D01*
X133932856Y-72866690D01*
X133932855Y-72866695D01*
X133931457Y-72871913D01*
X133930986Y-72877292D01*
X133930985Y-72877300D01*
X133926243Y-72931497D01*
X133915097Y-72973093D01*
X133890396Y-73008368D01*
X132326228Y-74572536D01*
X132317215Y-74580706D01*
X132288136Y-74604571D01*
X132288133Y-74604573D01*
X132283432Y-74608432D01*
X132279573Y-74613133D01*
X132279569Y-74613138D01*
X132161272Y-74757283D01*
X132161268Y-74757288D01*
X132157405Y-74761996D01*
X132154533Y-74767368D01*
X132154531Y-74767372D01*
X132114909Y-74841501D01*
X132066632Y-74931820D01*
X132066630Y-74931824D01*
X132063759Y-74937196D01*
X132061992Y-74943020D01*
X132061989Y-74943028D01*
X132007860Y-75121464D01*
X132007857Y-75121474D01*
X132006091Y-75127299D01*
X132005494Y-75133355D01*
X132005493Y-75133363D01*
X131987217Y-75318938D01*
X131986620Y-75325000D01*
X131987217Y-75331062D01*
X131990903Y-75368488D01*
X131991500Y-75380642D01*
X131991500Y-83404358D01*
X131990903Y-83416511D01*
X131986620Y-83460000D01*
X131987217Y-83466062D01*
X132005493Y-83651636D01*
X132005494Y-83651642D01*
X132006091Y-83657701D01*
X132007858Y-83663527D01*
X132007860Y-83663535D01*
X132053229Y-83813092D01*
X132061989Y-83841971D01*
X132061991Y-83841975D01*
X132063759Y-83847804D01*
X132157405Y-84023004D01*
X132161271Y-84027715D01*
X132161272Y-84027716D01*
X132241919Y-84125985D01*
X132283432Y-84176568D01*
X132317213Y-84204291D01*
X132326230Y-84212464D01*
X133625396Y-85511631D01*
X133650097Y-85546906D01*
X133661243Y-85588502D01*
X133665985Y-85642699D01*
X133665986Y-85642705D01*
X133666457Y-85648087D01*
X133667855Y-85653306D01*
X133667856Y-85653309D01*
X133724316Y-85864021D01*
X133724318Y-85864028D01*
X133725716Y-85869243D01*
X133728000Y-85874143D01*
X133728002Y-85874146D01*
X133810044Y-86050086D01*
X133822477Y-86076749D01*
X133825584Y-86081186D01*
X133950696Y-86259865D01*
X133950699Y-86259869D01*
X133953802Y-86264300D01*
X134115700Y-86426198D01*
X134120132Y-86429301D01*
X134120134Y-86429303D01*
X134184441Y-86474331D01*
X134303251Y-86557523D01*
X134510757Y-86654284D01*
X134515977Y-86655682D01*
X134515978Y-86655683D01*
X134726680Y-86712141D01*
X134726682Y-86712141D01*
X134731913Y-86713543D01*
X134960000Y-86733498D01*
X135188087Y-86713543D01*
X135409243Y-86654284D01*
X135616749Y-86557523D01*
X135804300Y-86426198D01*
X135966198Y-86264300D01*
X136097523Y-86076749D01*
X136117619Y-86033650D01*
X136163374Y-85981478D01*
X136230000Y-85962058D01*
X136296626Y-85981478D01*
X136342380Y-86033650D01*
X136362477Y-86076749D01*
X136365584Y-86081186D01*
X136490696Y-86259865D01*
X136490699Y-86259869D01*
X136493802Y-86264300D01*
X136655700Y-86426198D01*
X136660132Y-86429301D01*
X136660134Y-86429303D01*
X136724441Y-86474331D01*
X136843251Y-86557523D01*
X137050757Y-86654284D01*
X137055977Y-86655682D01*
X137055978Y-86655683D01*
X137266680Y-86712141D01*
X137266682Y-86712141D01*
X137271913Y-86713543D01*
X137500000Y-86733498D01*
X137728087Y-86713543D01*
X137949243Y-86654284D01*
X138156749Y-86557523D01*
X138344300Y-86426198D01*
X138506198Y-86264300D01*
X138637523Y-86076749D01*
X138734284Y-85869243D01*
X138793543Y-85648087D01*
X138813498Y-85420000D01*
X138793543Y-85191913D01*
X138791101Y-85182801D01*
X138735683Y-84975978D01*
X138735682Y-84975977D01*
X138734284Y-84970757D01*
X138637523Y-84763251D01*
X138538756Y-84622197D01*
X138509303Y-84580134D01*
X138509301Y-84580132D01*
X138506198Y-84575700D01*
X138344300Y-84413802D01*
X138339869Y-84410699D01*
X138339865Y-84410696D01*
X138176096Y-84296024D01*
X138156749Y-84282477D01*
X138150957Y-84279776D01*
X137954146Y-84188002D01*
X137954143Y-84188000D01*
X137949243Y-84185716D01*
X137944028Y-84184318D01*
X137944021Y-84184316D01*
X137733319Y-84127858D01*
X137733308Y-84127856D01*
X137728087Y-84126457D01*
X137722695Y-84125985D01*
X137722688Y-84125984D01*
X137505395Y-84106974D01*
X137500000Y-84106502D01*
X137494605Y-84106974D01*
X137277311Y-84125984D01*
X137277302Y-84125985D01*
X137271913Y-84126457D01*
X137266692Y-84127855D01*
X137266680Y-84127858D01*
X137055978Y-84184316D01*
X137055967Y-84184319D01*
X137050757Y-84185716D01*
X137045860Y-84187999D01*
X137045853Y-84188002D01*
X136848165Y-84280185D01*
X136848159Y-84280188D01*
X136843251Y-84282477D01*
X136838817Y-84285581D01*
X136838813Y-84285584D01*
X136660134Y-84410696D01*
X136660124Y-84410703D01*
X136655700Y-84413802D01*
X136651874Y-84417627D01*
X136651868Y-84417633D01*
X136497633Y-84571868D01*
X136497627Y-84571874D01*
X136493802Y-84575700D01*
X136490703Y-84580124D01*
X136490696Y-84580134D01*
X136365584Y-84758813D01*
X136365581Y-84758817D01*
X136362477Y-84763251D01*
X136360189Y-84768156D01*
X136360187Y-84768161D01*
X136357563Y-84773789D01*
X136345006Y-84800719D01*
X136342382Y-84806346D01*
X136296625Y-84858521D01*
X136230000Y-84877941D01*
X136163375Y-84858521D01*
X136117618Y-84806346D01*
X136116152Y-84803202D01*
X136097523Y-84763251D01*
X135998756Y-84622197D01*
X135969303Y-84580134D01*
X135969301Y-84580132D01*
X135966198Y-84575700D01*
X135804300Y-84413802D01*
X135799869Y-84410699D01*
X135799865Y-84410696D01*
X135636096Y-84296024D01*
X135616749Y-84282477D01*
X135610957Y-84279776D01*
X135414146Y-84188002D01*
X135414143Y-84188000D01*
X135409243Y-84185716D01*
X135404028Y-84184318D01*
X135404021Y-84184316D01*
X135193309Y-84127856D01*
X135193306Y-84127855D01*
X135188087Y-84126457D01*
X135182705Y-84125986D01*
X135182699Y-84125985D01*
X135128502Y-84121243D01*
X135086906Y-84110097D01*
X135051631Y-84085396D01*
X134044819Y-83078585D01*
X134017939Y-83038357D01*
X134008500Y-82990904D01*
X134008500Y-82085454D01*
X134024744Y-82024097D01*
X134069221Y-81978815D01*
X134130278Y-81961474D01*
X134177940Y-81973182D01*
X134178796Y-81970889D01*
X134315799Y-82021989D01*
X134376362Y-82028500D01*
X136070328Y-82028500D01*
X136073638Y-82028500D01*
X136134201Y-82021989D01*
X136271204Y-81970889D01*
X136388261Y-81883261D01*
X136475889Y-81766204D01*
X136526989Y-81629201D01*
X136528568Y-81614505D01*
X136548948Y-81558581D01*
X136593038Y-81518596D01*
X136650681Y-81503763D01*
X136708595Y-81517498D01*
X136753437Y-81556638D01*
X136754797Y-81558581D01*
X136758802Y-81564300D01*
X136920700Y-81726198D01*
X136925132Y-81729301D01*
X136925134Y-81729303D01*
X136952213Y-81748264D01*
X137108251Y-81857523D01*
X137315757Y-81954284D01*
X137320977Y-81955682D01*
X137320978Y-81955683D01*
X137531680Y-82012141D01*
X137531682Y-82012141D01*
X137536913Y-82013543D01*
X137765000Y-82033498D01*
X137993087Y-82013543D01*
X138214243Y-81954284D01*
X138421749Y-81857523D01*
X138609300Y-81726198D01*
X138771198Y-81564300D01*
X138902523Y-81376749D01*
X138999284Y-81169243D01*
X139058543Y-80948087D01*
X139078498Y-80720000D01*
X139058543Y-80491913D01*
X139054758Y-80477789D01*
X139000683Y-80275978D01*
X139000682Y-80275977D01*
X138999284Y-80270757D01*
X138902523Y-80063251D01*
X138771198Y-79875700D01*
X138609300Y-79713802D01*
X138604869Y-79710699D01*
X138604865Y-79710696D01*
X138426186Y-79585584D01*
X138426187Y-79585584D01*
X138421749Y-79582477D01*
X138381771Y-79563835D01*
X138219146Y-79488002D01*
X138219143Y-79488000D01*
X138214243Y-79485716D01*
X138209028Y-79484318D01*
X138209021Y-79484316D01*
X137998319Y-79427858D01*
X137998308Y-79427856D01*
X137993087Y-79426457D01*
X137987695Y-79425985D01*
X137987688Y-79425984D01*
X137770395Y-79406974D01*
X137765000Y-79406502D01*
X137759605Y-79406974D01*
X137542311Y-79425984D01*
X137542302Y-79425985D01*
X137536913Y-79426457D01*
X137531692Y-79427855D01*
X137531680Y-79427858D01*
X137320978Y-79484316D01*
X137320967Y-79484319D01*
X137315757Y-79485716D01*
X137310860Y-79487999D01*
X137310853Y-79488002D01*
X137113165Y-79580185D01*
X137113159Y-79580188D01*
X137108251Y-79582477D01*
X137103817Y-79585581D01*
X137103813Y-79585584D01*
X136925134Y-79710696D01*
X136925124Y-79710703D01*
X136920700Y-79713802D01*
X136916874Y-79717627D01*
X136916868Y-79717633D01*
X136762633Y-79871868D01*
X136762627Y-79871874D01*
X136758802Y-79875700D01*
X136755701Y-79880128D01*
X136755694Y-79880137D01*
X136753433Y-79883367D01*
X136708590Y-79922504D01*
X136650677Y-79936236D01*
X136593036Y-79921402D01*
X136548947Y-79881417D01*
X136528569Y-79825495D01*
X136528492Y-79824780D01*
X136526989Y-79810799D01*
X136475889Y-79673796D01*
X136388261Y-79556739D01*
X136375892Y-79547480D01*
X136278304Y-79474426D01*
X136278303Y-79474425D01*
X136271204Y-79469111D01*
X136262896Y-79466012D01*
X136262894Y-79466011D01*
X136141463Y-79420719D01*
X136141458Y-79420717D01*
X136134201Y-79418011D01*
X136126497Y-79417182D01*
X136126494Y-79417182D01*
X136076924Y-79411853D01*
X136076918Y-79411852D01*
X136073638Y-79411500D01*
X134376362Y-79411500D01*
X134373082Y-79411852D01*
X134373075Y-79411853D01*
X134323505Y-79417182D01*
X134323500Y-79417182D01*
X134315799Y-79418011D01*
X134308543Y-79420717D01*
X134308536Y-79420719D01*
X134178796Y-79469111D01*
X134177940Y-79466817D01*
X134130278Y-79478526D01*
X134069221Y-79461185D01*
X134024744Y-79415903D01*
X134008500Y-79354546D01*
X134008500Y-75794096D01*
X134017939Y-75746643D01*
X134044819Y-75706415D01*
X135137319Y-74613915D01*
X135192906Y-74581821D01*
X135257094Y-74581821D01*
X135312681Y-74613915D01*
X136772534Y-76073768D01*
X136780706Y-76082784D01*
X136808432Y-76116568D01*
X136893503Y-76186384D01*
X136961996Y-76242595D01*
X137137196Y-76336241D01*
X137327299Y-76393908D01*
X137525000Y-76413380D01*
X137531061Y-76412783D01*
X137568486Y-76409097D01*
X137580640Y-76408500D01*
X153544358Y-76408500D01*
X153556511Y-76409096D01*
X153600000Y-76413380D01*
X153797701Y-76393909D01*
X153987804Y-76336241D01*
X154020230Y-76318909D01*
X154163004Y-76242595D01*
X154316568Y-76116568D01*
X154344307Y-76082765D01*
X154352451Y-76073781D01*
X158082346Y-72343886D01*
X158142747Y-72310607D01*
X158211588Y-72314742D01*
X158267572Y-72355015D01*
X158293382Y-72418966D01*
X158302113Y-72504426D01*
X158304244Y-72510857D01*
X158355611Y-72665877D01*
X158355612Y-72665880D01*
X158357885Y-72672738D01*
X158361674Y-72678881D01*
X158361677Y-72678887D01*
X158411626Y-72759865D01*
X158450970Y-72823652D01*
X158456081Y-72828763D01*
X158464637Y-72837319D01*
X158496731Y-72892906D01*
X158496731Y-72957094D01*
X158464637Y-73012681D01*
X158431081Y-73046236D01*
X158431077Y-73046240D01*
X158425970Y-73051348D01*
X158422178Y-73057495D01*
X158422177Y-73057497D01*
X158336677Y-73196112D01*
X158336672Y-73196121D01*
X158332885Y-73202262D01*
X158330613Y-73209115D01*
X158330611Y-73209122D01*
X158279241Y-73364149D01*
X158279239Y-73364157D01*
X158277113Y-73370574D01*
X158276425Y-73377302D01*
X158276425Y-73377305D01*
X158266819Y-73471325D01*
X158266818Y-73471340D01*
X158266500Y-73474455D01*
X158266500Y-73477601D01*
X158266500Y-73477602D01*
X158266500Y-74247393D01*
X158266500Y-74247412D01*
X158266501Y-74250544D01*
X158266820Y-74253676D01*
X158266821Y-74253677D01*
X158267124Y-74256642D01*
X158262728Y-74304229D01*
X158240662Y-74346620D01*
X158212677Y-74370335D01*
X158213312Y-74371185D01*
X158107742Y-74450077D01*
X158107731Y-74450085D01*
X158104449Y-74452539D01*
X158101521Y-74455402D01*
X158101509Y-74455414D01*
X158060890Y-74495157D01*
X158060879Y-74495168D01*
X158057948Y-74498037D01*
X158055415Y-74501276D01*
X158055412Y-74501280D01*
X157979317Y-74598604D01*
X157979314Y-74598608D01*
X157974242Y-74605096D01*
X157971049Y-74612686D01*
X157971046Y-74612692D01*
X157923152Y-74726558D01*
X157921552Y-74730363D01*
X157920471Y-74734338D01*
X157920470Y-74734342D01*
X157905563Y-74789173D01*
X157905560Y-74789187D01*
X157904485Y-74793142D01*
X157903941Y-74797211D01*
X157903940Y-74797220D01*
X157887045Y-74923765D01*
X157887044Y-74923774D01*
X157886500Y-74927852D01*
X157886500Y-76476000D01*
X157903997Y-76608905D01*
X157905043Y-76612810D01*
X157905046Y-76612823D01*
X157919558Y-76666980D01*
X157920610Y-76670905D01*
X157971909Y-76794751D01*
X157976855Y-76801196D01*
X157976857Y-76801200D01*
X158045049Y-76890068D01*
X158053514Y-76901099D01*
X158098901Y-76946486D01*
X158145313Y-76982100D01*
X158168640Y-77000000D01*
X158205249Y-77028091D01*
X158329095Y-77079390D01*
X158391095Y-77096003D01*
X158524000Y-77113500D01*
X160362500Y-77113500D01*
X160424500Y-77130113D01*
X160469887Y-77175500D01*
X160486500Y-77237500D01*
X160486500Y-81667500D01*
X160469887Y-81729500D01*
X160424500Y-81774887D01*
X160362500Y-81791500D01*
X158031329Y-81791500D01*
X157975904Y-81778424D01*
X157932168Y-81741952D01*
X157909347Y-81689778D01*
X157912253Y-81632905D01*
X157953793Y-81489922D01*
X157953795Y-81489913D01*
X157955562Y-81483831D01*
X157958500Y-81446502D01*
X157958500Y-81129854D01*
X157973142Y-81071401D01*
X158013609Y-81026752D01*
X158070344Y-81006451D01*
X158197701Y-80993908D01*
X158387804Y-80936241D01*
X158563004Y-80842595D01*
X158716568Y-80716568D01*
X158842595Y-80563004D01*
X158936241Y-80387804D01*
X158993908Y-80197701D01*
X159013380Y-80000000D01*
X158993908Y-79802299D01*
X158936241Y-79612196D01*
X158842595Y-79436996D01*
X158716568Y-79283432D01*
X158563004Y-79157405D01*
X158536781Y-79143388D01*
X158393176Y-79066630D01*
X158393172Y-79066628D01*
X158387804Y-79063759D01*
X158381976Y-79061991D01*
X158203531Y-79007860D01*
X158203526Y-79007859D01*
X158197701Y-79006092D01*
X158191642Y-79005495D01*
X158191636Y-79005494D01*
X158121471Y-78998584D01*
X158070344Y-78993548D01*
X158013609Y-78973248D01*
X157973142Y-78928599D01*
X157958500Y-78870146D01*
X157958500Y-78475943D01*
X157958500Y-78473498D01*
X157955562Y-78436169D01*
X157909145Y-78276399D01*
X157824453Y-78133193D01*
X157706807Y-78015547D01*
X157675505Y-77997035D01*
X157570318Y-77934827D01*
X157570315Y-77934825D01*
X157563601Y-77930855D01*
X157534849Y-77922502D01*
X157434823Y-77893442D01*
X157403831Y-77884438D01*
X157397521Y-77883941D01*
X157397514Y-77883940D01*
X157368936Y-77881691D01*
X157368921Y-77881690D01*
X157366502Y-77881500D01*
X157364057Y-77881500D01*
X156343388Y-77881500D01*
X156277048Y-77862262D01*
X156231293Y-77810517D01*
X156220321Y-77742321D01*
X156247535Y-77678835D01*
X156307691Y-77605534D01*
X156342595Y-77563004D01*
X156436241Y-77387804D01*
X156493908Y-77197701D01*
X156513380Y-77000000D01*
X156493908Y-76802299D01*
X156436241Y-76612196D01*
X156342595Y-76436996D01*
X156216568Y-76283432D01*
X156063004Y-76157405D01*
X155993840Y-76120436D01*
X155893176Y-76066630D01*
X155893172Y-76066628D01*
X155887804Y-76063759D01*
X155881976Y-76061991D01*
X155703531Y-76007860D01*
X155703526Y-76007859D01*
X155697701Y-76006092D01*
X155691642Y-76005495D01*
X155691636Y-76005494D01*
X155506061Y-75987217D01*
X155500000Y-75986620D01*
X155493939Y-75987217D01*
X155308363Y-76005494D01*
X155308355Y-76005495D01*
X155302299Y-76006092D01*
X155296475Y-76007858D01*
X155296468Y-76007860D01*
X155118023Y-76061991D01*
X155118019Y-76061992D01*
X155112196Y-76063759D01*
X155106830Y-76066626D01*
X155106823Y-76066630D01*
X154942372Y-76154531D01*
X154942368Y-76154533D01*
X154936996Y-76157405D01*
X154932288Y-76161268D01*
X154932283Y-76161272D01*
X154788138Y-76279569D01*
X154788133Y-76279573D01*
X154783432Y-76283432D01*
X154779573Y-76288133D01*
X154779569Y-76288138D01*
X154661272Y-76432283D01*
X154661268Y-76432288D01*
X154657405Y-76436996D01*
X154654533Y-76442368D01*
X154654531Y-76442372D01*
X154566630Y-76606823D01*
X154566626Y-76606830D01*
X154563759Y-76612196D01*
X154561992Y-76618019D01*
X154561991Y-76618023D01*
X154507858Y-76796476D01*
X154506092Y-76802299D01*
X154505496Y-76808348D01*
X154505495Y-76808354D01*
X154497446Y-76890068D01*
X154486137Y-76930930D01*
X154461724Y-76965593D01*
X154009123Y-77418194D01*
X153995495Y-77429972D01*
X153981735Y-77440216D01*
X153981724Y-77440225D01*
X153975942Y-77444531D01*
X153971307Y-77450053D01*
X153971298Y-77450063D01*
X153943715Y-77482935D01*
X153936419Y-77490898D01*
X153934975Y-77492341D01*
X153934953Y-77492365D01*
X153932420Y-77494899D01*
X153930194Y-77497713D01*
X153930186Y-77497723D01*
X153912982Y-77519480D01*
X153910710Y-77522268D01*
X153866608Y-77574828D01*
X153866601Y-77574837D01*
X153861968Y-77580360D01*
X153858732Y-77586801D01*
X153856664Y-77589946D01*
X153856568Y-77590078D01*
X153856481Y-77590235D01*
X153854508Y-77593432D01*
X153850033Y-77599094D01*
X153846982Y-77605635D01*
X153846981Y-77605638D01*
X153817982Y-77667825D01*
X153816427Y-77671037D01*
X153782391Y-77738812D01*
X153780727Y-77745828D01*
X153779446Y-77749350D01*
X153779376Y-77749518D01*
X153779328Y-77749689D01*
X153778147Y-77753252D01*
X153775097Y-77759794D01*
X153773638Y-77766857D01*
X153773636Y-77766865D01*
X153759759Y-77834072D01*
X153758979Y-77837592D01*
X153741500Y-77911344D01*
X153741500Y-77918557D01*
X153741067Y-77922261D01*
X153741036Y-77922453D01*
X153741028Y-77922638D01*
X153740701Y-77926370D01*
X153739241Y-77933442D01*
X153739450Y-77940649D01*
X153739450Y-77940658D01*
X153741448Y-78009293D01*
X153741500Y-78012899D01*
X153741500Y-80435705D01*
X153740190Y-80453677D01*
X153736659Y-80477789D01*
X153737288Y-80484980D01*
X153737288Y-80484986D01*
X153741028Y-80527725D01*
X153741500Y-80538533D01*
X153741500Y-80544180D01*
X153741916Y-80547739D01*
X153741917Y-80547756D01*
X153745139Y-80575321D01*
X153745505Y-80578905D01*
X153748418Y-80612196D01*
X153752113Y-80654426D01*
X153754381Y-80661273D01*
X153755143Y-80664962D01*
X153755168Y-80665121D01*
X153755220Y-80665302D01*
X153756081Y-80668937D01*
X153756921Y-80676113D01*
X153759391Y-80682900D01*
X153759392Y-80682903D01*
X153782854Y-80747367D01*
X153784038Y-80750771D01*
X153804311Y-80811949D01*
X153807886Y-80822738D01*
X153811675Y-80828881D01*
X153813255Y-80832269D01*
X153813328Y-80832446D01*
X153813417Y-80832605D01*
X153815095Y-80835946D01*
X153817565Y-80842732D01*
X153821532Y-80848763D01*
X153859245Y-80906103D01*
X153861178Y-80909138D01*
X153900970Y-80973651D01*
X153906080Y-80978761D01*
X153908385Y-80981676D01*
X153908502Y-80981838D01*
X153908621Y-80981968D01*
X153911027Y-80984836D01*
X153914999Y-80990874D01*
X153920254Y-80995831D01*
X153920255Y-80995833D01*
X153970173Y-81042928D01*
X153972760Y-81045441D01*
X154648195Y-81720876D01*
X154659973Y-81734503D01*
X154674531Y-81754058D01*
X154705181Y-81779776D01*
X154712932Y-81786280D01*
X154720908Y-81793588D01*
X154724899Y-81797580D01*
X154749505Y-81817036D01*
X154752274Y-81819293D01*
X154810360Y-81868032D01*
X154816818Y-81871275D01*
X154819927Y-81873320D01*
X154820089Y-81873437D01*
X154820252Y-81873528D01*
X154823429Y-81875487D01*
X154829094Y-81879967D01*
X154897868Y-81912036D01*
X154901031Y-81913569D01*
X154968812Y-81947610D01*
X154968285Y-81948657D01*
X155012415Y-81978832D01*
X155040259Y-82033711D01*
X155038292Y-82095217D01*
X154996205Y-82240083D01*
X154996203Y-82240093D01*
X154994438Y-82246169D01*
X154993941Y-82252476D01*
X154993940Y-82252485D01*
X154991691Y-82281063D01*
X154991690Y-82281079D01*
X154991500Y-82283498D01*
X154991500Y-82716502D01*
X154991690Y-82718921D01*
X154991691Y-82718936D01*
X154993940Y-82747514D01*
X154993941Y-82747521D01*
X154994438Y-82753831D01*
X154996205Y-82759913D01*
X155023957Y-82855439D01*
X155040855Y-82913601D01*
X155044825Y-82920315D01*
X155044827Y-82920318D01*
X155081876Y-82982964D01*
X155125547Y-83056807D01*
X155129147Y-83060407D01*
X155151520Y-83107950D01*
X155151520Y-83162050D01*
X155129147Y-83209592D01*
X155125547Y-83213193D01*
X155121579Y-83219902D01*
X155121577Y-83219905D01*
X155044827Y-83349681D01*
X155044824Y-83349687D01*
X155040855Y-83356399D01*
X155038679Y-83363888D01*
X155038678Y-83363891D01*
X155008995Y-83466062D01*
X154994438Y-83516169D01*
X154993941Y-83522476D01*
X154993940Y-83522485D01*
X154991691Y-83551063D01*
X154991690Y-83551079D01*
X154991500Y-83553498D01*
X154991500Y-83986502D01*
X154991690Y-83988921D01*
X154991691Y-83988936D01*
X154993940Y-84017514D01*
X154993941Y-84017521D01*
X154994438Y-84023831D01*
X154996205Y-84029913D01*
X155022738Y-84121243D01*
X155040855Y-84183601D01*
X155044825Y-84190315D01*
X155044827Y-84190318D01*
X155070675Y-84234024D01*
X155125547Y-84326807D01*
X155129147Y-84330407D01*
X155151520Y-84377950D01*
X155151520Y-84432050D01*
X155129147Y-84479592D01*
X155125547Y-84483193D01*
X155121579Y-84489902D01*
X155121577Y-84489905D01*
X155044827Y-84619681D01*
X155044824Y-84619687D01*
X155040855Y-84626399D01*
X155038679Y-84633888D01*
X155038678Y-84633891D01*
X154996208Y-84780077D01*
X154994438Y-84786169D01*
X154993941Y-84792476D01*
X154993940Y-84792485D01*
X154991691Y-84821063D01*
X154991690Y-84821079D01*
X154991500Y-84823498D01*
X154991500Y-85256502D01*
X154991690Y-85258921D01*
X154991691Y-85258936D01*
X154993940Y-85287514D01*
X154993941Y-85287521D01*
X154994438Y-85293831D01*
X154996205Y-85299913D01*
X155036849Y-85439814D01*
X155040855Y-85453601D01*
X155044825Y-85460315D01*
X155044827Y-85460318D01*
X155107106Y-85565625D01*
X155125547Y-85596807D01*
X155129147Y-85600407D01*
X155151519Y-85647945D01*
X155151521Y-85702045D01*
X155129149Y-85749590D01*
X155125547Y-85753193D01*
X155121577Y-85759905D01*
X155121576Y-85759907D01*
X155044827Y-85889681D01*
X155044824Y-85889687D01*
X155040855Y-85896399D01*
X155038679Y-85903888D01*
X155038675Y-85903898D01*
X155003965Y-86023371D01*
X154967925Y-86080868D01*
X154907017Y-86110786D01*
X154839482Y-86104163D01*
X154785546Y-86062985D01*
X154761361Y-85999582D01*
X154758972Y-85972273D01*
X154758500Y-85961467D01*
X154758500Y-85959429D01*
X154758500Y-85955820D01*
X154754862Y-85924700D01*
X154754495Y-85921109D01*
X154752176Y-85894605D01*
X154747887Y-85845574D01*
X154745614Y-85838714D01*
X154744860Y-85835062D01*
X154744830Y-85834875D01*
X154744778Y-85834692D01*
X154743917Y-85831062D01*
X154743079Y-85823887D01*
X154717127Y-85752587D01*
X154715952Y-85749203D01*
X154705778Y-85718500D01*
X154692114Y-85677262D01*
X154688322Y-85671115D01*
X154686750Y-85667743D01*
X154686671Y-85667553D01*
X154686582Y-85667393D01*
X154684903Y-85664049D01*
X154682435Y-85657268D01*
X154678468Y-85651237D01*
X154678467Y-85651234D01*
X154640757Y-85593900D01*
X154638818Y-85590856D01*
X154602822Y-85532496D01*
X154602819Y-85532493D01*
X154599030Y-85526349D01*
X154593923Y-85521242D01*
X154591615Y-85518323D01*
X154591499Y-85518162D01*
X154591374Y-85518026D01*
X154588970Y-85515162D01*
X154585001Y-85509126D01*
X154529825Y-85457070D01*
X154527238Y-85454557D01*
X153621804Y-84549123D01*
X153610021Y-84535489D01*
X153595469Y-84515942D01*
X153589936Y-84511300D01*
X153589935Y-84511298D01*
X153557060Y-84483712D01*
X153549085Y-84476404D01*
X153547653Y-84474972D01*
X153545101Y-84472420D01*
X153542278Y-84470187D01*
X153542267Y-84470178D01*
X153520512Y-84452976D01*
X153517719Y-84450701D01*
X153465172Y-84406610D01*
X153459640Y-84401968D01*
X153453186Y-84398726D01*
X153450061Y-84396671D01*
X153449914Y-84396564D01*
X153449744Y-84396470D01*
X153446573Y-84394514D01*
X153440906Y-84390033D01*
X153434361Y-84386980D01*
X153434353Y-84386976D01*
X153372160Y-84357974D01*
X153368917Y-84356404D01*
X153307645Y-84325633D01*
X153307639Y-84325631D01*
X153301188Y-84322391D01*
X153294161Y-84320725D01*
X153290662Y-84319452D01*
X153290476Y-84319375D01*
X153290307Y-84319327D01*
X153286748Y-84318147D01*
X153280206Y-84315097D01*
X153205921Y-84299758D01*
X153202406Y-84298979D01*
X153135676Y-84283163D01*
X153135669Y-84283162D01*
X153128656Y-84281500D01*
X153121444Y-84281500D01*
X153117739Y-84281067D01*
X153117546Y-84281036D01*
X153117362Y-84281028D01*
X153113630Y-84280701D01*
X153106558Y-84279241D01*
X153099341Y-84279450D01*
X153092142Y-84278821D01*
X153092231Y-84277796D01*
X153043443Y-84267585D01*
X152998371Y-84231365D01*
X152974623Y-84178644D01*
X152977365Y-84120886D01*
X152980476Y-84110178D01*
X153005562Y-84023831D01*
X153008500Y-83986502D01*
X153008500Y-83553498D01*
X153005562Y-83516169D01*
X152959145Y-83356399D01*
X152874453Y-83213193D01*
X152870852Y-83209592D01*
X152848480Y-83162051D01*
X152848480Y-83107949D01*
X152870852Y-83060407D01*
X152874453Y-83056807D01*
X152959145Y-82913601D01*
X153005562Y-82753831D01*
X153008500Y-82716502D01*
X153008500Y-82283498D01*
X153005562Y-82246169D01*
X152959145Y-82086399D01*
X152874453Y-81943193D01*
X152870852Y-81939592D01*
X152848480Y-81892051D01*
X152848480Y-81837949D01*
X152870852Y-81790407D01*
X152874453Y-81786807D01*
X152959145Y-81643601D01*
X153005562Y-81483831D01*
X153008500Y-81446502D01*
X153008500Y-81013498D01*
X153005562Y-80976169D01*
X152959145Y-80816399D01*
X152874453Y-80673193D01*
X152870851Y-80669591D01*
X152848479Y-80622046D01*
X152848481Y-80567944D01*
X152870852Y-80520407D01*
X152874453Y-80516807D01*
X152959145Y-80373601D01*
X153005562Y-80213831D01*
X153008500Y-80176502D01*
X153008500Y-79743498D01*
X153005562Y-79706169D01*
X152959145Y-79546399D01*
X152874453Y-79403193D01*
X152870852Y-79399592D01*
X152848480Y-79352051D01*
X152848480Y-79297949D01*
X152870852Y-79250407D01*
X152874453Y-79246807D01*
X152959145Y-79103601D01*
X153005562Y-78943831D01*
X153008500Y-78906502D01*
X153008500Y-78473498D01*
X153005562Y-78436169D01*
X152959145Y-78276399D01*
X152874453Y-78133193D01*
X152756807Y-78015547D01*
X152725505Y-77997035D01*
X152620318Y-77934827D01*
X152620315Y-77934825D01*
X152613601Y-77930855D01*
X152584849Y-77922502D01*
X152484823Y-77893442D01*
X152453831Y-77884438D01*
X152447521Y-77883941D01*
X152447514Y-77883940D01*
X152418936Y-77881691D01*
X152418921Y-77881690D01*
X152416502Y-77881500D01*
X150633498Y-77881500D01*
X150631079Y-77881690D01*
X150631063Y-77881691D01*
X150602485Y-77883940D01*
X150602476Y-77883941D01*
X150596169Y-77884438D01*
X150590088Y-77886204D01*
X150590086Y-77886205D01*
X150443891Y-77928678D01*
X150443888Y-77928679D01*
X150436399Y-77930855D01*
X150429687Y-77934824D01*
X150429681Y-77934827D01*
X150379962Y-77964232D01*
X150316841Y-77981500D01*
X149635163Y-77981500D01*
X149627676Y-77981274D01*
X149574394Y-77978050D01*
X149574386Y-77978050D01*
X149566907Y-77977598D01*
X149559530Y-77978949D01*
X149559525Y-77978950D01*
X149507032Y-77988569D01*
X149499632Y-77989696D01*
X149446642Y-77996131D01*
X149446640Y-77996131D01*
X149439199Y-77997035D01*
X149432188Y-77999693D01*
X149432182Y-77999695D01*
X149429493Y-78000715D01*
X149407890Y-78006737D01*
X149405048Y-78007257D01*
X149405033Y-78007261D01*
X149397671Y-78008611D01*
X149390844Y-78011683D01*
X149390839Y-78011685D01*
X149342161Y-78033593D01*
X149335246Y-78036457D01*
X149285334Y-78055387D01*
X149285328Y-78055389D01*
X149278325Y-78058046D01*
X149272158Y-78062302D01*
X149272153Y-78062305D01*
X149269771Y-78063949D01*
X149250243Y-78074963D01*
X149247613Y-78076146D01*
X149247608Y-78076148D01*
X149240774Y-78079225D01*
X149234872Y-78083848D01*
X149234865Y-78083853D01*
X149192855Y-78116765D01*
X149186827Y-78121201D01*
X149142901Y-78151522D01*
X149142894Y-78151527D01*
X149136727Y-78155785D01*
X149131754Y-78161397D01*
X149131754Y-78161398D01*
X149096356Y-78201353D01*
X149091224Y-78206804D01*
X147942849Y-79355181D01*
X147902621Y-79382061D01*
X147855168Y-79391500D01*
X145265836Y-79391500D01*
X145208579Y-79377489D01*
X145164261Y-79338623D01*
X145109303Y-79260135D01*
X145106198Y-79255700D01*
X144944300Y-79093802D01*
X144939869Y-79090699D01*
X144939865Y-79090696D01*
X144791229Y-78986620D01*
X144756749Y-78962477D01*
X144751834Y-78960185D01*
X144554146Y-78868002D01*
X144554143Y-78868000D01*
X144549243Y-78865716D01*
X144544028Y-78864318D01*
X144544021Y-78864316D01*
X144333319Y-78807858D01*
X144333308Y-78807856D01*
X144328087Y-78806457D01*
X144322695Y-78805985D01*
X144322688Y-78805984D01*
X144105395Y-78786974D01*
X144100000Y-78786502D01*
X144094605Y-78786974D01*
X143877311Y-78805984D01*
X143877302Y-78805985D01*
X143871913Y-78806457D01*
X143866692Y-78807855D01*
X143866680Y-78807858D01*
X143655978Y-78864316D01*
X143655967Y-78864319D01*
X143650757Y-78865716D01*
X143645860Y-78867999D01*
X143645853Y-78868002D01*
X143448165Y-78960185D01*
X143448159Y-78960188D01*
X143443251Y-78962477D01*
X143438817Y-78965581D01*
X143438813Y-78965584D01*
X143260134Y-79090696D01*
X143260124Y-79090703D01*
X143255700Y-79093802D01*
X143251874Y-79097627D01*
X143251868Y-79097633D01*
X143097633Y-79251868D01*
X143097627Y-79251874D01*
X143093802Y-79255700D01*
X143090703Y-79260124D01*
X143090696Y-79260134D01*
X142965584Y-79438813D01*
X142965581Y-79438817D01*
X142962477Y-79443251D01*
X142960188Y-79448159D01*
X142960185Y-79448165D01*
X142868002Y-79645853D01*
X142867999Y-79645860D01*
X142865716Y-79650757D01*
X142864319Y-79655967D01*
X142864316Y-79655978D01*
X142807858Y-79866680D01*
X142807855Y-79866692D01*
X142806457Y-79871913D01*
X142805985Y-79877302D01*
X142805984Y-79877311D01*
X142788565Y-80076419D01*
X142786502Y-80100000D01*
X142786974Y-80105395D01*
X142805984Y-80322688D01*
X142805985Y-80322695D01*
X142806457Y-80328087D01*
X142807856Y-80333308D01*
X142807858Y-80333319D01*
X142864316Y-80544021D01*
X142864318Y-80544028D01*
X142865716Y-80549243D01*
X142868000Y-80554143D01*
X142868002Y-80554146D01*
X142956665Y-80744286D01*
X142962477Y-80756749D01*
X142981039Y-80783258D01*
X143090696Y-80939865D01*
X143090699Y-80939869D01*
X143093802Y-80944300D01*
X143255700Y-81106198D01*
X143260133Y-81109302D01*
X143260139Y-81109307D01*
X143385088Y-81196797D01*
X143426451Y-81246190D01*
X143437449Y-81309669D01*
X143415115Y-81370098D01*
X143365478Y-81411166D01*
X143267508Y-81455908D01*
X143263488Y-81457744D01*
X143259773Y-81460131D01*
X143259761Y-81460138D01*
X143144212Y-81534397D01*
X143144203Y-81534403D01*
X143140482Y-81536795D01*
X143137136Y-81539694D01*
X143137131Y-81539698D01*
X143033508Y-81629486D01*
X143033489Y-81629503D01*
X143031821Y-81630949D01*
X143030257Y-81632512D01*
X143030243Y-81632526D01*
X142983126Y-81679642D01*
X142983119Y-81679649D01*
X142979989Y-81682780D01*
X142977335Y-81686324D01*
X142977330Y-81686331D01*
X142937391Y-81739683D01*
X142937375Y-81739705D01*
X142936062Y-81741460D01*
X142934874Y-81743307D01*
X142934866Y-81743320D01*
X142860724Y-81858687D01*
X142860717Y-81858699D01*
X142858330Y-81862414D01*
X142856491Y-81866439D01*
X142856487Y-81866448D01*
X142799429Y-81991387D01*
X142799423Y-81991401D01*
X142797587Y-81995423D01*
X142796339Y-81999673D01*
X142796338Y-81999676D01*
X142758328Y-82129125D01*
X142758325Y-82129135D01*
X142757080Y-82133378D01*
X142756450Y-82137755D01*
X142756449Y-82137763D01*
X142736900Y-82273730D01*
X142736899Y-82273742D01*
X142736271Y-82278111D01*
X142736271Y-82282537D01*
X142736271Y-82817500D01*
X142719658Y-82879500D01*
X142674271Y-82924887D01*
X142612271Y-82941500D01*
X142132357Y-82941500D01*
X142068029Y-82923509D01*
X142022367Y-82874756D01*
X142008623Y-82809389D01*
X142030783Y-82746376D01*
X142034411Y-82741194D01*
X142034416Y-82741186D01*
X142037523Y-82736749D01*
X142134284Y-82529243D01*
X142193543Y-82308087D01*
X142213498Y-82080000D01*
X142193543Y-81851913D01*
X142189801Y-81837949D01*
X142135683Y-81635978D01*
X142135682Y-81635977D01*
X142134284Y-81630757D01*
X142037523Y-81423251D01*
X141906198Y-81235700D01*
X141744300Y-81073802D01*
X141739869Y-81070699D01*
X141739865Y-81070696D01*
X141561186Y-80945584D01*
X141561187Y-80945584D01*
X141556749Y-80942477D01*
X141551148Y-80939865D01*
X141354146Y-80848002D01*
X141354143Y-80848000D01*
X141349243Y-80845716D01*
X141344028Y-80844318D01*
X141344021Y-80844316D01*
X141133319Y-80787858D01*
X141133308Y-80787856D01*
X141128087Y-80786457D01*
X141122695Y-80785985D01*
X141122688Y-80785984D01*
X140905395Y-80766974D01*
X140900000Y-80766502D01*
X140894605Y-80766974D01*
X140677311Y-80785984D01*
X140677302Y-80785985D01*
X140671913Y-80786457D01*
X140666692Y-80787855D01*
X140666680Y-80787858D01*
X140455978Y-80844316D01*
X140455967Y-80844319D01*
X140450757Y-80845716D01*
X140445860Y-80847999D01*
X140445853Y-80848002D01*
X140248165Y-80940185D01*
X140248159Y-80940188D01*
X140243251Y-80942477D01*
X140238817Y-80945581D01*
X140238813Y-80945584D01*
X140060134Y-81070696D01*
X140060124Y-81070703D01*
X140055700Y-81073802D01*
X140051874Y-81077627D01*
X140051868Y-81077633D01*
X139897633Y-81231868D01*
X139897627Y-81231874D01*
X139893802Y-81235700D01*
X139890703Y-81240124D01*
X139890696Y-81240134D01*
X139765584Y-81418813D01*
X139765581Y-81418817D01*
X139762477Y-81423251D01*
X139760188Y-81428159D01*
X139760185Y-81428165D01*
X139668002Y-81625853D01*
X139667999Y-81625860D01*
X139665716Y-81630757D01*
X139664319Y-81635967D01*
X139664316Y-81635978D01*
X139607858Y-81846680D01*
X139607855Y-81846692D01*
X139606457Y-81851913D01*
X139605985Y-81857302D01*
X139605984Y-81857311D01*
X139591008Y-82028500D01*
X139586502Y-82080000D01*
X139586974Y-82085395D01*
X139605984Y-82302688D01*
X139605985Y-82302695D01*
X139606457Y-82308087D01*
X139607856Y-82313308D01*
X139607858Y-82313319D01*
X139664316Y-82524021D01*
X139664318Y-82524028D01*
X139665716Y-82529243D01*
X139668000Y-82534143D01*
X139668002Y-82534146D01*
X139752985Y-82716394D01*
X139762477Y-82736749D01*
X139769218Y-82746376D01*
X139890696Y-82919865D01*
X139890699Y-82919869D01*
X139893802Y-82924300D01*
X140055700Y-83086198D01*
X140060134Y-83089303D01*
X140064285Y-83092786D01*
X140063513Y-83093705D01*
X140097747Y-83132747D01*
X140111756Y-83190000D01*
X140097747Y-83247253D01*
X140063513Y-83286294D01*
X140064285Y-83287214D01*
X140060132Y-83290698D01*
X140055700Y-83293802D01*
X140051874Y-83297627D01*
X140051868Y-83297633D01*
X139897633Y-83451868D01*
X139897627Y-83451874D01*
X139893802Y-83455700D01*
X139890703Y-83460124D01*
X139890696Y-83460134D01*
X139765584Y-83638813D01*
X139765581Y-83638817D01*
X139762477Y-83643251D01*
X139760188Y-83648159D01*
X139760185Y-83648165D01*
X139668002Y-83845853D01*
X139667999Y-83845860D01*
X139665716Y-83850757D01*
X139664319Y-83855967D01*
X139664316Y-83855978D01*
X139607858Y-84066680D01*
X139607855Y-84066692D01*
X139606457Y-84071913D01*
X139605985Y-84077302D01*
X139605984Y-84077311D01*
X139588035Y-84282477D01*
X139586502Y-84300000D01*
X139586974Y-84305395D01*
X139605984Y-84522688D01*
X139605985Y-84522695D01*
X139606457Y-84528087D01*
X139607856Y-84533308D01*
X139607858Y-84533319D01*
X139664316Y-84744021D01*
X139664318Y-84744028D01*
X139665716Y-84749243D01*
X139668000Y-84754143D01*
X139668002Y-84754146D01*
X139739829Y-84908180D01*
X139762477Y-84956749D01*
X139765584Y-84961186D01*
X139890696Y-85139865D01*
X139890699Y-85139869D01*
X139893802Y-85144300D01*
X140055700Y-85306198D01*
X140060132Y-85309301D01*
X140060134Y-85309303D01*
X140071441Y-85317220D01*
X140243251Y-85437523D01*
X140450757Y-85534284D01*
X140455977Y-85535682D01*
X140455978Y-85535683D01*
X140666680Y-85592141D01*
X140666682Y-85592141D01*
X140671913Y-85593543D01*
X140900000Y-85613498D01*
X141128087Y-85593543D01*
X141349243Y-85534284D01*
X141556749Y-85437523D01*
X141744300Y-85306198D01*
X141906198Y-85144300D01*
X142037523Y-84956749D01*
X142134284Y-84749243D01*
X142193543Y-84528087D01*
X142198476Y-84471692D01*
X142218405Y-84414361D01*
X142263155Y-84373355D01*
X142322005Y-84358500D01*
X142973396Y-84358500D01*
X143016729Y-84366318D01*
X143054597Y-84388786D01*
X143140482Y-84463205D01*
X143144213Y-84465602D01*
X143144212Y-84465602D01*
X143249581Y-84533319D01*
X143263488Y-84542256D01*
X143353560Y-84583391D01*
X143365477Y-84588833D01*
X143415115Y-84629900D01*
X143437449Y-84690330D01*
X143426451Y-84753808D01*
X143385089Y-84803202D01*
X143260134Y-84890696D01*
X143260124Y-84890703D01*
X143255700Y-84893802D01*
X143251874Y-84897627D01*
X143251868Y-84897633D01*
X143097633Y-85051868D01*
X143097627Y-85051874D01*
X143093802Y-85055700D01*
X143090703Y-85060124D01*
X143090696Y-85060134D01*
X142965584Y-85238813D01*
X142965581Y-85238817D01*
X142962477Y-85243251D01*
X142960188Y-85248159D01*
X142960185Y-85248165D01*
X142868002Y-85445853D01*
X142867999Y-85445860D01*
X142865716Y-85450757D01*
X142864319Y-85455967D01*
X142864316Y-85455978D01*
X142807858Y-85666680D01*
X142807855Y-85666692D01*
X142806457Y-85671913D01*
X142805985Y-85677302D01*
X142805984Y-85677311D01*
X142790634Y-85852770D01*
X142786502Y-85900000D01*
X142786974Y-85905395D01*
X142805984Y-86122688D01*
X142805985Y-86122695D01*
X142806457Y-86128087D01*
X142807856Y-86133308D01*
X142807858Y-86133319D01*
X142864316Y-86344021D01*
X142864318Y-86344028D01*
X142865716Y-86349243D01*
X142868000Y-86354143D01*
X142868002Y-86354146D01*
X142947461Y-86524547D01*
X142962477Y-86556749D01*
X142965584Y-86561186D01*
X143090696Y-86739865D01*
X143090699Y-86739869D01*
X143093802Y-86744300D01*
X143255700Y-86906198D01*
X143443251Y-87037523D01*
X143524310Y-87075321D01*
X143588210Y-87105118D01*
X143638607Y-87148160D01*
X143659636Y-87211010D01*
X143645292Y-87275714D01*
X143599671Y-87323789D01*
X143535806Y-87341500D01*
X139664295Y-87341500D01*
X139646323Y-87340191D01*
X139642935Y-87339694D01*
X139622211Y-87336659D01*
X139615019Y-87337288D01*
X139615013Y-87337288D01*
X139577121Y-87340603D01*
X139572272Y-87341028D01*
X139561467Y-87341500D01*
X139555820Y-87341500D01*
X139552261Y-87341915D01*
X139552243Y-87341917D01*
X139524678Y-87345139D01*
X139521094Y-87345505D01*
X139452762Y-87351483D01*
X139452753Y-87351484D01*
X139445573Y-87352113D01*
X139438728Y-87354380D01*
X139435043Y-87355142D01*
X139434870Y-87355170D01*
X139434686Y-87355222D01*
X139431050Y-87356083D01*
X139423887Y-87356921D01*
X139417109Y-87359387D01*
X139417108Y-87359388D01*
X139352661Y-87382844D01*
X139349259Y-87384026D01*
X139284117Y-87405613D01*
X139284109Y-87405616D01*
X139277261Y-87407886D01*
X139271121Y-87411672D01*
X139267726Y-87413256D01*
X139267557Y-87413325D01*
X139267396Y-87413416D01*
X139264050Y-87415096D01*
X139257268Y-87417565D01*
X139251237Y-87421531D01*
X139251236Y-87421532D01*
X139193907Y-87459237D01*
X139190869Y-87461172D01*
X139132490Y-87497181D01*
X139132481Y-87497187D01*
X139126348Y-87500971D01*
X139121250Y-87506067D01*
X139118306Y-87508396D01*
X139118160Y-87508501D01*
X139118035Y-87508616D01*
X139115152Y-87511034D01*
X139109126Y-87514999D01*
X139104176Y-87520245D01*
X139104173Y-87520248D01*
X139057053Y-87570191D01*
X139054541Y-87572776D01*
X138922135Y-87705183D01*
X138881910Y-87732061D01*
X138834457Y-87741500D01*
X134365543Y-87741500D01*
X134318090Y-87732061D01*
X134277862Y-87705181D01*
X132081804Y-85509123D01*
X132070021Y-85495489D01*
X132059779Y-85481732D01*
X132055469Y-85475942D01*
X132049936Y-85471300D01*
X132049935Y-85471298D01*
X132017060Y-85443712D01*
X132009085Y-85436404D01*
X132007653Y-85434972D01*
X132005101Y-85432420D01*
X132002278Y-85430187D01*
X132002267Y-85430178D01*
X131980512Y-85412976D01*
X131977719Y-85410701D01*
X131925172Y-85366610D01*
X131919640Y-85361968D01*
X131913186Y-85358726D01*
X131910061Y-85356671D01*
X131909914Y-85356564D01*
X131909744Y-85356470D01*
X131906573Y-85354514D01*
X131900906Y-85350033D01*
X131894361Y-85346980D01*
X131894353Y-85346976D01*
X131832160Y-85317974D01*
X131828917Y-85316404D01*
X131767645Y-85285633D01*
X131767639Y-85285631D01*
X131761188Y-85282391D01*
X131754161Y-85280725D01*
X131750662Y-85279452D01*
X131750476Y-85279375D01*
X131750307Y-85279327D01*
X131746748Y-85278147D01*
X131740206Y-85275097D01*
X131665921Y-85259758D01*
X131662406Y-85258979D01*
X131595676Y-85243163D01*
X131595669Y-85243162D01*
X131588656Y-85241500D01*
X131581444Y-85241500D01*
X131577739Y-85241067D01*
X131577546Y-85241036D01*
X131577362Y-85241028D01*
X131573629Y-85240701D01*
X131566558Y-85239241D01*
X131559349Y-85239450D01*
X131559341Y-85239450D01*
X131490707Y-85241448D01*
X131487101Y-85241500D01*
X130306995Y-85241500D01*
X130258183Y-85231488D01*
X130217252Y-85203070D01*
X130190814Y-85160834D01*
X130153991Y-85062111D01*
X130153989Y-85062107D01*
X130150889Y-85053796D01*
X130063261Y-84936739D01*
X130025109Y-84908179D01*
X129953304Y-84854426D01*
X129953303Y-84854425D01*
X129946204Y-84849111D01*
X129937896Y-84846012D01*
X129937894Y-84846011D01*
X129816463Y-84800719D01*
X129816458Y-84800717D01*
X129809201Y-84798011D01*
X129801497Y-84797182D01*
X129801494Y-84797182D01*
X129751924Y-84791853D01*
X129751918Y-84791852D01*
X129748638Y-84791500D01*
X129745328Y-84791500D01*
X129649251Y-84791500D01*
X129585387Y-84773789D01*
X129539766Y-84725715D01*
X129525421Y-84661012D01*
X129546449Y-84598162D01*
X129596844Y-84555119D01*
X129597929Y-84554612D01*
X129606558Y-84550589D01*
X129779776Y-84429301D01*
X129929301Y-84279776D01*
X130050589Y-84106558D01*
X130139956Y-83914910D01*
X130194686Y-83710655D01*
X130213116Y-83500000D01*
X130194686Y-83289345D01*
X130139956Y-83085090D01*
X130050589Y-82893442D01*
X129929301Y-82720224D01*
X129779776Y-82570699D01*
X129686706Y-82505531D01*
X129610997Y-82452519D01*
X129610995Y-82452518D01*
X129606558Y-82449411D01*
X129419922Y-82362381D01*
X129367748Y-82316625D01*
X129348328Y-82250000D01*
X129367748Y-82183375D01*
X129419922Y-82137618D01*
X129606558Y-82050589D01*
X129779776Y-81929301D01*
X129929301Y-81779776D01*
X130050589Y-81606558D01*
X130139956Y-81414910D01*
X130194686Y-81210655D01*
X130213116Y-81000000D01*
X130194686Y-80789345D01*
X130139956Y-80585090D01*
X130050589Y-80393442D01*
X129929301Y-80220224D01*
X129779776Y-80070699D01*
X129670151Y-79993939D01*
X129610997Y-79952519D01*
X129610995Y-79952518D01*
X129606558Y-79949411D01*
X129419922Y-79862381D01*
X129367748Y-79816625D01*
X129348328Y-79750000D01*
X129367748Y-79683375D01*
X129419922Y-79637618D01*
X129606558Y-79550589D01*
X129779776Y-79429301D01*
X129929301Y-79279776D01*
X130050589Y-79106558D01*
X130139956Y-78914910D01*
X130194686Y-78710655D01*
X130213116Y-78500000D01*
X130194686Y-78289345D01*
X130139956Y-78085090D01*
X130133078Y-78070341D01*
X130110101Y-78021065D01*
X130050589Y-77893442D01*
X129929301Y-77720224D01*
X129779776Y-77570699D01*
X129660352Y-77487078D01*
X129610997Y-77452519D01*
X129610995Y-77452518D01*
X129606558Y-77449411D01*
X129539613Y-77418194D01*
X129419816Y-77362331D01*
X129419809Y-77362328D01*
X129414910Y-77360044D01*
X129409683Y-77358643D01*
X129409682Y-77358643D01*
X129215887Y-77306716D01*
X129210655Y-77305314D01*
X129205263Y-77304842D01*
X129205256Y-77304841D01*
X129005395Y-77287356D01*
X129000000Y-77286884D01*
X128994605Y-77287356D01*
X128794743Y-77304841D01*
X128794734Y-77304842D01*
X128789345Y-77305314D01*
X128784113Y-77306715D01*
X128784112Y-77306716D01*
X128590317Y-77358643D01*
X128590312Y-77358644D01*
X128585090Y-77360044D01*
X128580194Y-77362326D01*
X128580183Y-77362331D01*
X128398352Y-77447121D01*
X128398348Y-77447123D01*
X128393442Y-77449411D01*
X128389009Y-77452514D01*
X128389002Y-77452519D01*
X128224659Y-77567593D01*
X128224654Y-77567596D01*
X128220224Y-77570699D01*
X128216396Y-77574526D01*
X128212249Y-77578007D01*
X128210916Y-77576419D01*
X128170818Y-77600992D01*
X128113102Y-77605534D01*
X128059615Y-77583379D01*
X128022015Y-77539356D01*
X128008500Y-77483061D01*
X128008500Y-67137500D01*
X128025113Y-67075500D01*
X128070500Y-67030113D01*
X128132500Y-67013500D01*
X130445588Y-67013500D01*
X130448638Y-67013500D01*
X130548817Y-67003633D01*
X130596270Y-66994194D01*
X130692601Y-66964972D01*
X130781380Y-66917518D01*
X130821608Y-66890638D01*
X130899418Y-66826780D01*
X133176378Y-64549819D01*
X133216607Y-64522939D01*
X133264060Y-64513500D01*
X142871947Y-64513500D01*
X142876000Y-64513500D01*
X143008905Y-64496003D01*
X143070905Y-64479390D01*
X143194751Y-64428091D01*
X143301099Y-64346486D01*
X143346486Y-64301099D01*
X143428091Y-64194751D01*
X143479390Y-64070905D01*
X143496003Y-64008905D01*
X143513500Y-63876000D01*
X143513500Y-59324000D01*
X143496003Y-59191095D01*
X143479390Y-59129095D01*
X143428091Y-59005249D01*
X143426210Y-59002798D01*
X143410253Y-58943250D01*
X143426210Y-58883701D01*
X143428091Y-58881251D01*
X143479390Y-58757405D01*
X143496003Y-58695405D01*
X143513500Y-58562500D01*
X143513500Y-53223324D01*
X143496124Y-53090872D01*
X143479624Y-53029068D01*
X143428672Y-52905583D01*
X143347593Y-52799417D01*
X143302484Y-52754060D01*
X143299282Y-52751587D01*
X143299279Y-52751584D01*
X143203171Y-52677349D01*
X143196760Y-52672397D01*
X143189288Y-52669266D01*
X143077275Y-52622330D01*
X143077265Y-52622326D01*
X143073548Y-52620769D01*
X143069652Y-52619706D01*
X143015737Y-52604996D01*
X143015728Y-52604994D01*
X143011835Y-52603932D01*
X143007837Y-52603385D01*
X143007826Y-52603383D01*
X142883494Y-52586382D01*
X142883488Y-52586381D01*
X142879484Y-52585834D01*
X142875446Y-52585811D01*
X142875433Y-52585811D01*
X126831548Y-52498140D01*
X126831544Y-52498140D01*
X126827482Y-52498118D01*
X126823453Y-52498627D01*
X126823451Y-52498628D01*
X126698073Y-52514495D01*
X126698059Y-52514497D01*
X126694027Y-52515008D01*
X126690091Y-52516043D01*
X126690083Y-52516045D01*
X126669047Y-52521580D01*
X126612893Y-52523194D01*
X126561790Y-52499864D01*
X126526225Y-52456377D01*
X126513500Y-52401660D01*
X126513500Y-43264060D01*
X126522939Y-43216607D01*
X126549819Y-43176379D01*
X130176379Y-39549819D01*
X130216607Y-39522939D01*
X130264060Y-39513500D01*
X159376000Y-39513500D01*
X159438000Y-39530113D01*
G37*
%TD.AperFunction*%
%TD*%
%TA.AperFunction,Conductor*%
%TO.N,Earth_Clean*%
G36*
X125951486Y-64787278D02*
G01*
X125987212Y-64830810D01*
X126000000Y-64885654D01*
X126000000Y-66058053D01*
X125999403Y-66070205D01*
X125986620Y-66200000D01*
X125987217Y-66206062D01*
X125990903Y-66243488D01*
X125991500Y-66255642D01*
X125991500Y-83944358D01*
X125990903Y-83956511D01*
X125986620Y-84000000D01*
X125987217Y-84006062D01*
X125999403Y-84129793D01*
X126000000Y-84141947D01*
X126000000Y-107000000D01*
X130000000Y-111000000D01*
X130012211Y-111000000D01*
X176983674Y-111000000D01*
X177000000Y-111000000D01*
X177000000Y-107124000D01*
X177016613Y-107062000D01*
X177062000Y-107016613D01*
X177124000Y-107000000D01*
X186876000Y-107000000D01*
X186938000Y-107016613D01*
X186983387Y-107062000D01*
X187000000Y-107124000D01*
X187000000Y-111000000D01*
X187016326Y-111000000D01*
X208983674Y-111000000D01*
X209000000Y-111000000D01*
X209000000Y-105357500D01*
X209016613Y-105295500D01*
X209062000Y-105250113D01*
X209124000Y-105233500D01*
X211875500Y-105233500D01*
X211937500Y-105250113D01*
X211982887Y-105295500D01*
X211999500Y-105357500D01*
X211999500Y-114875500D01*
X211982887Y-114937500D01*
X211937500Y-114982887D01*
X211875500Y-114999500D01*
X122124500Y-114999500D01*
X122062500Y-114982887D01*
X122017113Y-114937500D01*
X122000500Y-114875500D01*
X122000500Y-87756786D01*
X122017113Y-87694786D01*
X122062500Y-87649399D01*
X122124500Y-87632786D01*
X125228841Y-87632786D01*
X125245167Y-87632786D01*
X125245167Y-85087214D01*
X125228841Y-85087214D01*
X125191263Y-85087214D01*
X125129263Y-85070601D01*
X125083876Y-85025214D01*
X125067263Y-84963214D01*
X125067263Y-82669079D01*
X125078881Y-82616674D01*
X125111558Y-82574089D01*
X125152479Y-82552786D01*
X125162501Y-82552786D01*
X125162501Y-80007214D01*
X125156526Y-80007214D01*
X125138206Y-79988894D01*
X125106112Y-79933305D01*
X125106113Y-79869117D01*
X125130017Y-79827715D01*
X125131625Y-79821714D01*
X125136000Y-79821714D01*
X125136000Y-77658286D01*
X125119674Y-77658286D01*
X122124500Y-77658286D01*
X122062500Y-77641673D01*
X122017113Y-77596286D01*
X122000500Y-77534286D01*
X122000500Y-64885788D01*
X122013288Y-64830944D01*
X122049014Y-64787412D01*
X122100309Y-64764171D01*
X122152214Y-64765870D01*
X122152214Y-64769214D01*
X125831460Y-64769214D01*
X125847786Y-64769214D01*
X125847786Y-64765752D01*
X125900191Y-64764037D01*
X125951486Y-64787278D01*
G37*
%TD.AperFunction*%
%TA.AperFunction,Conductor*%
G36*
X211937500Y-84321542D02*
G01*
X211982887Y-84366929D01*
X211999500Y-84428929D01*
X211999500Y-99642499D01*
X211982887Y-99704499D01*
X211937500Y-99749886D01*
X211875500Y-99766499D01*
X209124000Y-99766499D01*
X209062000Y-99749886D01*
X209016613Y-99704499D01*
X209000000Y-99642499D01*
X209000000Y-84428929D01*
X209016613Y-84366929D01*
X209062000Y-84321542D01*
X209124000Y-84304929D01*
X211875500Y-84304929D01*
X211937500Y-84321542D01*
G37*
%TD.AperFunction*%
%TA.AperFunction,Conductor*%
G36*
X211937500Y-65050113D02*
G01*
X211982887Y-65095500D01*
X211999500Y-65157500D01*
X211999500Y-80571071D01*
X211982887Y-80633071D01*
X211937500Y-80678458D01*
X211875500Y-80695071D01*
X209124000Y-80695071D01*
X209062000Y-80678458D01*
X209016613Y-80633071D01*
X209000000Y-80571071D01*
X209000000Y-65157500D01*
X209016613Y-65095500D01*
X209062000Y-65050113D01*
X209124000Y-65033500D01*
X211875500Y-65033500D01*
X211937500Y-65050113D01*
G37*
%TD.AperFunction*%
%TA.AperFunction,Conductor*%
G36*
X211937500Y-35017113D02*
G01*
X211982887Y-35062500D01*
X211999500Y-35124500D01*
X211999500Y-43000000D01*
X211999500Y-59442499D01*
X211982887Y-59504499D01*
X211937500Y-59549886D01*
X211875500Y-59566499D01*
X209124000Y-59566499D01*
X209062000Y-59549886D01*
X209016613Y-59504499D01*
X209000000Y-59442499D01*
X209000000Y-44011997D01*
X209000000Y-43999784D01*
X208000000Y-43000000D01*
X204000000Y-39000000D01*
X203987789Y-39000000D01*
X130012211Y-39000000D01*
X130000000Y-39000000D01*
X129991364Y-39008635D01*
X129991361Y-39008638D01*
X126008638Y-42991361D01*
X126008635Y-42991364D01*
X126000000Y-43000000D01*
X126000000Y-43012211D01*
X126000000Y-53400059D01*
X125987212Y-53454903D01*
X125951486Y-53498435D01*
X125900191Y-53521676D01*
X125847786Y-53519961D01*
X125847786Y-53516499D01*
X122152214Y-53516499D01*
X122152214Y-53519843D01*
X122100309Y-53521542D01*
X122049014Y-53498301D01*
X122013288Y-53454769D01*
X122000500Y-53399925D01*
X122000500Y-35124500D01*
X122017113Y-35062500D01*
X122062500Y-35017113D01*
X122124500Y-35000500D01*
X211875500Y-35000500D01*
X211937500Y-35017113D01*
G37*
%TD.AperFunction*%
%TD*%
%TA.AperFunction,Conductor*%
%TO.N,+BATT*%
G36*
X203783393Y-39522939D02*
G01*
X203823621Y-39549819D01*
X207636800Y-43362998D01*
X207636940Y-43363139D01*
X208450172Y-44176195D01*
X208477058Y-44216427D01*
X208486500Y-44263886D01*
X208486500Y-59442499D01*
X208503997Y-59575404D01*
X208505043Y-59579309D01*
X208505046Y-59579322D01*
X208519558Y-59633479D01*
X208520610Y-59637404D01*
X208522163Y-59641153D01*
X208522165Y-59641159D01*
X208545889Y-59698433D01*
X208571909Y-59761250D01*
X208576855Y-59767695D01*
X208576857Y-59767699D01*
X208646108Y-59857947D01*
X208653514Y-59867598D01*
X208698901Y-59912985D01*
X208702132Y-59915464D01*
X208803701Y-59993402D01*
X208839426Y-60036934D01*
X208852214Y-60091777D01*
X208852214Y-64508222D01*
X208839426Y-64563065D01*
X208803701Y-64606597D01*
X208702132Y-64684534D01*
X208702125Y-64684539D01*
X208698901Y-64687014D01*
X208696028Y-64689886D01*
X208696020Y-64689894D01*
X208656394Y-64729520D01*
X208656386Y-64729528D01*
X208653514Y-64732401D01*
X208651039Y-64735625D01*
X208651034Y-64735632D01*
X208576857Y-64832299D01*
X208576852Y-64832306D01*
X208571909Y-64838749D01*
X208568800Y-64846254D01*
X208568798Y-64846258D01*
X208522165Y-64958839D01*
X208522161Y-64958849D01*
X208520610Y-64962595D01*
X208519560Y-64966511D01*
X208519558Y-64966519D01*
X208505046Y-65020676D01*
X208505042Y-65020691D01*
X208503997Y-65024595D01*
X208486500Y-65157500D01*
X208486500Y-65161553D01*
X208486500Y-71862500D01*
X208469887Y-71924500D01*
X208424500Y-71969887D01*
X208362500Y-71986500D01*
X174124000Y-71986500D01*
X174119984Y-71987028D01*
X174119979Y-71987029D01*
X174029515Y-71998939D01*
X174013330Y-72000000D01*
X171976184Y-72000000D01*
X171911087Y-71981538D01*
X171878893Y-71961680D01*
X171878883Y-71961675D01*
X171872738Y-71957885D01*
X171865880Y-71955612D01*
X171865877Y-71955611D01*
X171710850Y-71904241D01*
X171710844Y-71904239D01*
X171704426Y-71902113D01*
X171697696Y-71901425D01*
X171697694Y-71901425D01*
X171603674Y-71891819D01*
X171603660Y-71891818D01*
X171600545Y-71891500D01*
X171597397Y-71891500D01*
X170602604Y-71891500D01*
X170602584Y-71891500D01*
X170599456Y-71891501D01*
X170596343Y-71891818D01*
X170596323Y-71891820D01*
X170502313Y-71901424D01*
X170502307Y-71901425D01*
X170495574Y-71902113D01*
X170489144Y-71904243D01*
X170489142Y-71904244D01*
X170334122Y-71955611D01*
X170334115Y-71955613D01*
X170327262Y-71957885D01*
X170321121Y-71961672D01*
X170321112Y-71961677D01*
X170182497Y-72047177D01*
X170176348Y-72050970D01*
X170171240Y-72056077D01*
X170171236Y-72056081D01*
X170056081Y-72171236D01*
X170056077Y-72171240D01*
X170050970Y-72176348D01*
X170047179Y-72182494D01*
X170047172Y-72182503D01*
X169987483Y-72279274D01*
X169947043Y-72319715D01*
X169892754Y-72337705D01*
X169878141Y-72338983D01*
X169878135Y-72338984D01*
X169870948Y-72339613D01*
X169864096Y-72341882D01*
X169860409Y-72342644D01*
X169860240Y-72342671D01*
X169860082Y-72342716D01*
X169856424Y-72343583D01*
X169849261Y-72344421D01*
X169842482Y-72346888D01*
X169842483Y-72346888D01*
X169778025Y-72370348D01*
X169774623Y-72371530D01*
X169709488Y-72393114D01*
X169709477Y-72393118D01*
X169702636Y-72395386D01*
X169696500Y-72399170D01*
X169693095Y-72400758D01*
X169692928Y-72400826D01*
X169692776Y-72400912D01*
X169689418Y-72402598D01*
X169682642Y-72405065D01*
X169676618Y-72409026D01*
X169676608Y-72409032D01*
X169619274Y-72446741D01*
X169616234Y-72448678D01*
X169557869Y-72484678D01*
X169557862Y-72484683D01*
X169551723Y-72488470D01*
X169546622Y-72493570D01*
X169543678Y-72495898D01*
X169543531Y-72496004D01*
X169543409Y-72496116D01*
X169540526Y-72498534D01*
X169534500Y-72502499D01*
X169529550Y-72507745D01*
X169529547Y-72507748D01*
X169523364Y-72514302D01*
X169487813Y-72540516D01*
X169445329Y-72552606D01*
X169366337Y-72560386D01*
X169366330Y-72560387D01*
X169360282Y-72560983D01*
X169354462Y-72562748D01*
X169354459Y-72562749D01*
X169176006Y-72616882D01*
X169176002Y-72616883D01*
X169170179Y-72618650D01*
X169164813Y-72621517D01*
X169164806Y-72621521D01*
X169000355Y-72709422D01*
X169000351Y-72709424D01*
X168994979Y-72712296D01*
X168990271Y-72716159D01*
X168990266Y-72716163D01*
X168846121Y-72834460D01*
X168846116Y-72834464D01*
X168841415Y-72838323D01*
X168837556Y-72843024D01*
X168837552Y-72843029D01*
X168719255Y-72987174D01*
X168719251Y-72987179D01*
X168715388Y-72991887D01*
X168712516Y-72997259D01*
X168712514Y-72997263D01*
X168624613Y-73161714D01*
X168624609Y-73161721D01*
X168621742Y-73167087D01*
X168619975Y-73172910D01*
X168619974Y-73172914D01*
X168565843Y-73351359D01*
X168565841Y-73351366D01*
X168564075Y-73357190D01*
X168563478Y-73363246D01*
X168563477Y-73363254D01*
X168562355Y-73374654D01*
X168542054Y-73431390D01*
X168497405Y-73471858D01*
X168438952Y-73486500D01*
X168137500Y-73486500D01*
X168133484Y-73487028D01*
X168133479Y-73487029D01*
X168043015Y-73498939D01*
X168026830Y-73500000D01*
X167486670Y-73500000D01*
X167470485Y-73498939D01*
X167380020Y-73487029D01*
X167380016Y-73487028D01*
X167376000Y-73486500D01*
X161124000Y-73486500D01*
X161062000Y-73469887D01*
X161016613Y-73424500D01*
X161000000Y-73362500D01*
X161000000Y-71016326D01*
X161000000Y-71000000D01*
X160983674Y-71000000D01*
X160376184Y-71000000D01*
X160311087Y-70981538D01*
X160278893Y-70961680D01*
X160278883Y-70961675D01*
X160272738Y-70957885D01*
X160265880Y-70955612D01*
X160265877Y-70955611D01*
X160110850Y-70904241D01*
X160110844Y-70904239D01*
X160104426Y-70902113D01*
X160097696Y-70901425D01*
X160097694Y-70901425D01*
X160003674Y-70891819D01*
X160003660Y-70891818D01*
X160000545Y-70891500D01*
X159997397Y-70891500D01*
X159995524Y-70891500D01*
X159623997Y-70891500D01*
X159562000Y-70874888D01*
X159516613Y-70829501D01*
X159500000Y-70767501D01*
X159500000Y-59000000D01*
X178986401Y-59000000D01*
X178986611Y-59003606D01*
X179006567Y-59346243D01*
X179006568Y-59346251D01*
X179006778Y-59349857D01*
X179007404Y-59353411D01*
X179007406Y-59353422D01*
X179045838Y-59571378D01*
X179067633Y-59694984D01*
X179068662Y-59698424D01*
X179068665Y-59698433D01*
X179167110Y-60027264D01*
X179167114Y-60027275D01*
X179168143Y-60030712D01*
X179169562Y-60034003D01*
X179169567Y-60034015D01*
X179305521Y-60349189D01*
X179306950Y-60352501D01*
X179308752Y-60355623D01*
X179308754Y-60355626D01*
X179480366Y-60652868D01*
X179480372Y-60652877D01*
X179482175Y-60656000D01*
X179484334Y-60658900D01*
X179689296Y-60934213D01*
X179689302Y-60934220D01*
X179691449Y-60937104D01*
X179931943Y-61192012D01*
X180200403Y-61417278D01*
X180493200Y-61609853D01*
X180806374Y-61767135D01*
X181135690Y-61886996D01*
X181476694Y-61967816D01*
X181824775Y-62008500D01*
X182171626Y-62008500D01*
X182175225Y-62008500D01*
X182523306Y-61967816D01*
X182864310Y-61886996D01*
X183193626Y-61767135D01*
X183506800Y-61609853D01*
X183799597Y-61417278D01*
X184068057Y-61192012D01*
X184308551Y-60937104D01*
X184517825Y-60656000D01*
X184693050Y-60352501D01*
X184831857Y-60030712D01*
X184932367Y-59694984D01*
X184993222Y-59349857D01*
X185013599Y-59000000D01*
X184993222Y-58650143D01*
X184932367Y-58305016D01*
X184831857Y-57969288D01*
X184693050Y-57647499D01*
X184517825Y-57344000D01*
X184308551Y-57062896D01*
X184068057Y-56807988D01*
X183977877Y-56732318D01*
X183802353Y-56585034D01*
X183802346Y-56585029D01*
X183799597Y-56582722D01*
X183506800Y-56390147D01*
X183503571Y-56388525D01*
X183503567Y-56388523D01*
X183196863Y-56234490D01*
X183196853Y-56234485D01*
X183193626Y-56232865D01*
X183190235Y-56231630D01*
X183190224Y-56231626D01*
X182867697Y-56114236D01*
X182867685Y-56114232D01*
X182864310Y-56113004D01*
X182860819Y-56112176D01*
X182860807Y-56112173D01*
X182526801Y-56033012D01*
X182526795Y-56033011D01*
X182523306Y-56032184D01*
X182519748Y-56031768D01*
X182519736Y-56031766D01*
X182178795Y-55991917D01*
X182178790Y-55991916D01*
X182175225Y-55991500D01*
X181824775Y-55991500D01*
X181821210Y-55991916D01*
X181821204Y-55991917D01*
X181480263Y-56031766D01*
X181480248Y-56031768D01*
X181476694Y-56032184D01*
X181473207Y-56033010D01*
X181473198Y-56033012D01*
X181139192Y-56112173D01*
X181139175Y-56112177D01*
X181135690Y-56113004D01*
X181132319Y-56114230D01*
X181132302Y-56114236D01*
X180809775Y-56231626D01*
X180809758Y-56231633D01*
X180806374Y-56232865D01*
X180803152Y-56234482D01*
X180803136Y-56234490D01*
X180496432Y-56388523D01*
X180496420Y-56388529D01*
X180493200Y-56390147D01*
X180490186Y-56392128D01*
X180490183Y-56392131D01*
X180203405Y-56580747D01*
X180203398Y-56580751D01*
X180200403Y-56582722D01*
X180197660Y-56585022D01*
X180197646Y-56585034D01*
X179934706Y-56805669D01*
X179934700Y-56805674D01*
X179931943Y-56807988D01*
X179929470Y-56810608D01*
X179929467Y-56810612D01*
X179693923Y-57060273D01*
X179693917Y-57060279D01*
X179691449Y-57062896D01*
X179689309Y-57065770D01*
X179689296Y-57065786D01*
X179484334Y-57341099D01*
X179484328Y-57341107D01*
X179482175Y-57344000D01*
X179480376Y-57347114D01*
X179480366Y-57347131D01*
X179308754Y-57644373D01*
X179308748Y-57644383D01*
X179306950Y-57647499D01*
X179305526Y-57650799D01*
X179305521Y-57650810D01*
X179169567Y-57965984D01*
X179169560Y-57966002D01*
X179168143Y-57969288D01*
X179167115Y-57972718D01*
X179167110Y-57972735D01*
X179068665Y-58301566D01*
X179068661Y-58301579D01*
X179067633Y-58305016D01*
X179067007Y-58308561D01*
X179067007Y-58308565D01*
X179007406Y-58646577D01*
X179007404Y-58646590D01*
X179006778Y-58650143D01*
X179006568Y-58653746D01*
X179006567Y-58653756D01*
X178986611Y-58996394D01*
X178986401Y-59000000D01*
X159500000Y-59000000D01*
X159500000Y-46624000D01*
X159516613Y-46562000D01*
X159562000Y-46516613D01*
X159624000Y-46500000D01*
X169483674Y-46500000D01*
X169500000Y-46500000D01*
X169500000Y-39637500D01*
X169516613Y-39575500D01*
X169562000Y-39530113D01*
X169624000Y-39513500D01*
X203735940Y-39513500D01*
X203783393Y-39522939D01*
G37*
%TD.AperFunction*%
%TD*%
M02*
