%TF.GenerationSoftware,KiCad,Pcbnew,(7.0.0)*%
%TF.CreationDate,2023-05-02T16:40:04+03:00*%
%TF.ProjectId,MotorDriverDualHalfBridge,4d6f746f-7244-4726-9976-65724475616c,rev?*%
%TF.SameCoordinates,Original*%
%TF.FileFunction,Copper,L2,Bot*%
%TF.FilePolarity,Positive*%
%FSLAX46Y46*%
G04 Gerber Fmt 4.6, Leading zero omitted, Abs format (unit mm)*
G04 Created by KiCad (PCBNEW (7.0.0)) date 2023-05-02 16:40:04*
%MOMM*%
%LPD*%
G01*
G04 APERTURE LIST*
%TA.AperFunction,ComponentPad*%
%ADD10R,1.400000X1.400000*%
%TD*%
%TA.AperFunction,ComponentPad*%
%ADD11C,1.400000*%
%TD*%
%TA.AperFunction,ComponentPad*%
%ADD12C,5.000000*%
%TD*%
%TA.AperFunction,ComponentPad*%
%ADD13C,1.600000*%
%TD*%
%TA.AperFunction,ComponentPad*%
%ADD14O,1.600000X1.600000*%
%TD*%
%TA.AperFunction,ComponentPad*%
%ADD15R,1.600000X1.600000*%
%TD*%
%TA.AperFunction,ComponentPad*%
%ADD16C,2.200000*%
%TD*%
%TA.AperFunction,ViaPad*%
%ADD17C,1.000000*%
%TD*%
%TA.AperFunction,ViaPad*%
%ADD18C,0.800000*%
%TD*%
%TA.AperFunction,Conductor*%
%ADD19C,0.400000*%
%TD*%
%TA.AperFunction,Conductor*%
%ADD20C,0.500000*%
%TD*%
%TA.AperFunction,Conductor*%
%ADD21C,2.000000*%
%TD*%
G04 APERTURE END LIST*
D10*
%TO.P,J6,1,Pin_1*%
%TO.N,+12V*%
X128999999Y-62999999D03*
D11*
%TO.P,J6,2,Pin_2*%
X129000000Y-60500000D03*
%TO.P,J6,3,Pin_3*%
%TO.N,GND*%
X129000000Y-58000000D03*
%TO.P,J6,4,Pin_4*%
X129000000Y-55500000D03*
%TD*%
D10*
%TO.P,J7,1,Pin_1*%
%TO.N,+12V*%
X128999999Y-85999999D03*
D11*
%TO.P,J7,2,Pin_2*%
%TO.N,L_{IN}*%
X129000000Y-83500000D03*
%TO.P,J7,3,Pin_3*%
%TO.N,H_{IN}*%
X129000000Y-81000000D03*
%TO.P,J7,4,Pin_4*%
%TO.N,GND*%
X129000000Y-78500000D03*
%TD*%
D12*
%TO.P,H4,1,1*%
%TO.N,Earth_Clean*%
X182000000Y-111000000D03*
%TD*%
D13*
%TO.P,R8,1*%
%TO.N,Net-(R8-Pad1)*%
X140900000Y-94460000D03*
D14*
%TO.P,R8,2*%
%TO.N,GND*%
X140899999Y-84299999D03*
%TD*%
D15*
%TO.P,U3,1*%
%TO.N,L_{IN}*%
X134959999Y-93039999D03*
D14*
%TO.P,U3,2*%
%TO.N,Net-(R8-Pad1)*%
X137499999Y-93039999D03*
%TO.P,U3,3*%
%TO.N,L_{IN}_{_ISO}*%
X137499999Y-85419999D03*
%TO.P,U3,4*%
%TO.N,+BATT*%
X134959999Y-85419999D03*
%TD*%
D16*
%TO.P,J1,1,Pin_1*%
%TO.N,/LOAD*%
X198200000Y-86300000D03*
%TO.P,J1,2*%
X200740000Y-86300000D03*
%TO.P,J1,3*%
X203280000Y-86300000D03*
%TO.P,J1,4*%
X205820000Y-86300000D03*
%TO.P,J1,5*%
X198200000Y-83760000D03*
%TO.P,J1,6,e*%
X200740000Y-83760000D03*
%TO.P,J1,7*%
X203280000Y-83760000D03*
%TO.P,J1,8*%
X205820000Y-83760000D03*
%TO.P,J1,9*%
X198200000Y-81220000D03*
%TO.P,J1,10,e*%
X200740000Y-81220000D03*
%TO.P,J1,11,11*%
X203280000Y-81220000D03*
%TO.P,J1,12*%
X205820000Y-81220000D03*
%TO.P,J1,13*%
X198200000Y-78680000D03*
%TO.P,J1,14,e*%
X200740000Y-78680000D03*
%TO.P,J1,15,Pin_1*%
X203280000Y-78680000D03*
%TO.P,J1,16,Pin_1*%
X205820000Y-78680000D03*
%TD*%
D13*
%TO.P,R6,1*%
%TO.N,H_{IN}_{_ISO}*%
X144100000Y-80100000D03*
D14*
%TO.P,R6,2*%
%TO.N,GNDPWR*%
X144099999Y-69939999D03*
%TD*%
D16*
%TO.P,J4,1,Pin_1*%
%TO.N,+BATT*%
X182200000Y-50300000D03*
%TO.P,J4,2*%
X184740000Y-50300000D03*
%TO.P,J4,3*%
X187280000Y-50300000D03*
%TO.P,J4,4*%
X189820000Y-50300000D03*
%TO.P,J4,5*%
X182200000Y-47760000D03*
%TO.P,J4,6,e*%
X184740000Y-47760000D03*
%TO.P,J4,7*%
X187280000Y-47760000D03*
%TO.P,J4,8*%
X189820000Y-47760000D03*
%TO.P,J4,9*%
X182200000Y-45220000D03*
%TO.P,J4,10,e*%
X184740000Y-45220000D03*
%TO.P,J4,11,11*%
X187280000Y-45220000D03*
%TO.P,J4,12*%
X189820000Y-45220000D03*
%TO.P,J4,13*%
X182200000Y-42680000D03*
%TO.P,J4,14,e*%
X184740000Y-42680000D03*
%TO.P,J4,15,Pin_1*%
X187280000Y-42680000D03*
%TO.P,J4,16,Pin_1*%
X189820000Y-42680000D03*
%TD*%
%TO.P,J5,1,Pin_1*%
%TO.N,GNDPWR*%
X142200000Y-50300000D03*
%TO.P,J5,2*%
X144740000Y-50300000D03*
%TO.P,J5,3*%
X147280000Y-50300000D03*
%TO.P,J5,4*%
X149820000Y-50300000D03*
%TO.P,J5,5*%
X142200000Y-47760000D03*
%TO.P,J5,6,e*%
X144740000Y-47760000D03*
%TO.P,J5,7*%
X147280000Y-47760000D03*
%TO.P,J5,8*%
X149820000Y-47760000D03*
%TO.P,J5,9*%
X142200000Y-45220000D03*
%TO.P,J5,10,e*%
X144740000Y-45220000D03*
%TO.P,J5,11,11*%
X147280000Y-45220000D03*
%TO.P,J5,12*%
X149820000Y-45220000D03*
%TO.P,J5,13*%
X142200000Y-42680000D03*
%TO.P,J5,14,e*%
X144740000Y-42680000D03*
%TO.P,J5,15,Pin_1*%
X147280000Y-42680000D03*
%TO.P,J5,16,Pin_1*%
X149820000Y-42680000D03*
%TD*%
%TO.P,J3,1,Pin_1*%
%TO.N,+BATT*%
X198200000Y-66300000D03*
%TO.P,J3,2*%
X200740000Y-66300000D03*
%TO.P,J3,3*%
X203280000Y-66300000D03*
%TO.P,J3,4*%
X205820000Y-66300000D03*
%TO.P,J3,5*%
X198200000Y-63760000D03*
%TO.P,J3,6,e*%
X200740000Y-63760000D03*
%TO.P,J3,7*%
X203280000Y-63760000D03*
%TO.P,J3,8*%
X205820000Y-63760000D03*
%TO.P,J3,9*%
X198200000Y-61220000D03*
%TO.P,J3,10,e*%
X200740000Y-61220000D03*
%TO.P,J3,11,11*%
X203280000Y-61220000D03*
%TO.P,J3,12*%
X205820000Y-61220000D03*
%TO.P,J3,13*%
X198200000Y-58680000D03*
%TO.P,J3,14,e*%
X200740000Y-58680000D03*
%TO.P,J3,15,Pin_1*%
X203280000Y-58680000D03*
%TO.P,J3,16,Pin_1*%
X205820000Y-58680000D03*
%TD*%
D12*
%TO.P,H3,1,1*%
%TO.N,Earth_Clean*%
X126000000Y-111000000D03*
%TD*%
%TO.P,H1,1,1*%
%TO.N,Earth_Clean*%
X126000000Y-39000000D03*
%TD*%
D13*
%TO.P,R7,1*%
%TO.N,Net-(R7-Pad1)*%
X140900000Y-82080000D03*
D14*
%TO.P,R7,2*%
%TO.N,GND*%
X140899999Y-71919999D03*
%TD*%
D13*
%TO.P,R9,1*%
%TO.N,L_{IN}_{_ISO}*%
X144100000Y-85900000D03*
D14*
%TO.P,R9,2*%
%TO.N,GNDPWR*%
X144099999Y-96059999D03*
%TD*%
D16*
%TO.P,J2,1,Pin_1*%
%TO.N,GNDPWR*%
X198200000Y-106300000D03*
%TO.P,J2,2*%
X200740000Y-106300000D03*
%TO.P,J2,3*%
X203280000Y-106300000D03*
%TO.P,J2,4*%
X205820000Y-106300000D03*
%TO.P,J2,5*%
X198200000Y-103760000D03*
%TO.P,J2,6,e*%
X200740000Y-103760000D03*
%TO.P,J2,7*%
X203280000Y-103760000D03*
%TO.P,J2,8*%
X205820000Y-103760000D03*
%TO.P,J2,9*%
X198200000Y-101220000D03*
%TO.P,J2,10,e*%
X200740000Y-101220000D03*
%TO.P,J2,11,11*%
X203280000Y-101220000D03*
%TO.P,J2,12*%
X205820000Y-101220000D03*
%TO.P,J2,13*%
X198200000Y-98680000D03*
%TO.P,J2,14,e*%
X200740000Y-98680000D03*
%TO.P,J2,15,Pin_1*%
X203280000Y-98680000D03*
%TO.P,J2,16,Pin_1*%
X205820000Y-98680000D03*
%TD*%
D12*
%TO.P,H2,1,1*%
%TO.N,Earth_Clean*%
X208000000Y-39000000D03*
%TD*%
%TO.P,H5,1,1*%
%TO.N,Earth_Clean*%
X182000000Y-59000000D03*
%TD*%
D15*
%TO.P,U2,1*%
%TO.N,H_{IN}*%
X135224999Y-80719999D03*
D14*
%TO.P,U2,2*%
%TO.N,Net-(R7-Pad1)*%
X137764999Y-80719999D03*
%TO.P,U2,3*%
%TO.N,H_{IN}_{_ISO}*%
X137764999Y-73099999D03*
%TO.P,U2,4*%
%TO.N,+BATT*%
X135224999Y-73099999D03*
%TD*%
D17*
%TO.N,GNDPWR*%
X203066526Y-94950000D03*
X128066526Y-49950000D03*
X148066526Y-104950000D03*
X133066526Y-49950000D03*
X138066526Y-69950000D03*
X133066526Y-109950000D03*
X138066526Y-99950000D03*
X153066526Y-94950000D03*
X163066526Y-109950000D03*
X143066526Y-104950000D03*
X153066526Y-69950000D03*
X163066526Y-104950000D03*
X138066526Y-94950000D03*
X198066526Y-109950000D03*
X163066526Y-99950000D03*
X183066526Y-99950000D03*
X128066526Y-89950000D03*
X153066526Y-59950000D03*
X143066526Y-109950000D03*
X178066526Y-104950000D03*
X153066526Y-104950000D03*
X138066526Y-44950000D03*
X148066526Y-64950000D03*
X153066526Y-54950000D03*
X153066526Y-99950000D03*
X188066526Y-104950000D03*
X143066526Y-99950000D03*
X148066526Y-89950000D03*
X158066526Y-109950000D03*
X153066526Y-44950000D03*
X158066526Y-99950000D03*
X148066526Y-109950000D03*
X198066526Y-94950000D03*
X153066526Y-89950000D03*
X148066526Y-99950000D03*
X128066526Y-99950000D03*
X133066526Y-89950000D03*
X158066526Y-104950000D03*
X168066526Y-99950000D03*
X153066526Y-64950000D03*
X138066526Y-49950000D03*
X183066526Y-104950000D03*
X143066526Y-89950000D03*
X178066526Y-94950000D03*
X188066526Y-99950000D03*
X193066526Y-109950000D03*
X133066526Y-99950000D03*
X133066526Y-44950000D03*
X128066526Y-94950000D03*
X128066526Y-104950000D03*
X148066526Y-94950000D03*
X168066526Y-109950000D03*
X133066526Y-94950000D03*
X138066526Y-89950000D03*
X188066526Y-94950000D03*
X138066526Y-104950000D03*
X193066526Y-104950000D03*
X133066526Y-104950000D03*
X173066526Y-109950000D03*
X188066526Y-109950000D03*
X153066526Y-49950000D03*
X148066526Y-59950000D03*
X158066526Y-64950000D03*
X148066526Y-54950000D03*
X138066526Y-109950000D03*
X168066526Y-104950000D03*
X193066526Y-99950000D03*
X153066526Y-109950000D03*
X128066526Y-44950000D03*
X178066526Y-99950000D03*
X203066526Y-109950000D03*
X148066526Y-69950000D03*
X173066526Y-104950000D03*
%TO.N,Net-(U1-V_{B})*%
X158000000Y-80000000D03*
X159500000Y-86000000D03*
%TO.N,Net-(U1-HO)*%
X155500000Y-77000000D03*
X169557983Y-73554891D03*
%TO.N,Net-(U1-LO)*%
X158000000Y-93000000D03*
X169300000Y-94000000D03*
%TO.N,L_{IN}_{_ISO}*%
X149700000Y-81000000D03*
D18*
%TO.N,Earth_Clean*%
X123000000Y-88500000D03*
X123000000Y-77000000D03*
X123000000Y-65500000D03*
X210500000Y-106000000D03*
X210500000Y-100000000D03*
X124500000Y-65500000D03*
X210500000Y-65000000D03*
X210500000Y-58500000D03*
X124500000Y-52500000D03*
X123000000Y-52500000D03*
X124500000Y-88500000D03*
X210500000Y-84500000D03*
X210500000Y-84500000D03*
X210500000Y-80500000D03*
X124500000Y-77000000D03*
X123000000Y-52500000D03*
%TD*%
D19*
%TO.N,GND*%
X129000000Y-78500000D02*
X129000000Y-76000000D01*
X127900000Y-78500000D02*
X129000000Y-78500000D01*
X129000000Y-76000000D02*
X132100000Y-72900000D01*
X127100000Y-81600000D02*
X127100000Y-79300000D01*
X132100000Y-61100000D02*
X129000000Y-58000000D01*
X140580000Y-71600000D02*
X132200000Y-71600000D01*
X132100000Y-72900000D02*
X132100000Y-71500000D01*
X140900000Y-84300000D02*
X138800000Y-82200000D01*
X127100000Y-79300000D02*
X127900000Y-78500000D01*
X138800000Y-82200000D02*
X127700000Y-82200000D01*
X140900000Y-71920000D02*
X140580000Y-71600000D01*
X140900000Y-71920000D02*
X140480000Y-71500000D01*
X127700000Y-82200000D02*
X127100000Y-81600000D01*
X132200000Y-71600000D02*
X132100000Y-71500000D01*
X132100000Y-71500000D02*
X132100000Y-61100000D01*
D20*
%TO.N,Net-(U1-V_{B})*%
X159500000Y-81500000D02*
X159500000Y-86000000D01*
X158000000Y-80000000D02*
X159500000Y-81500000D01*
%TO.N,H_{IN}*%
X129000000Y-81000000D02*
X134945000Y-81000000D01*
X134945000Y-81000000D02*
X135225000Y-80720000D01*
%TO.N,L_{IN}*%
X133500000Y-86500000D02*
X133500000Y-85000000D01*
X134960000Y-93040000D02*
X134960000Y-87960000D01*
X133500000Y-85000000D02*
X132000000Y-83500000D01*
X132000000Y-83500000D02*
X129000000Y-83500000D01*
X134960000Y-87960000D02*
X133500000Y-86500000D01*
%TO.N,Net-(U1-HO)*%
X161000000Y-76000000D02*
X160000000Y-77000000D01*
X169112874Y-74000000D02*
X161500000Y-74000000D01*
X161000000Y-74500000D02*
X161000000Y-76000000D01*
X161500000Y-74000000D02*
X161000000Y-74500000D01*
X160000000Y-77000000D02*
X155500000Y-77000000D01*
X169557983Y-73554891D02*
X169112874Y-74000000D01*
%TO.N,Net-(U1-LO)*%
X169300000Y-94000000D02*
X159000000Y-94000000D01*
X159000000Y-94000000D02*
X158000000Y-93000000D01*
D19*
%TO.N,Net-(R7-Pad1)*%
X140900000Y-82080000D02*
X139540000Y-80720000D01*
X139540000Y-80720000D02*
X137765000Y-80720000D01*
%TO.N,H_{IN}_{_ISO}*%
X137765000Y-73100000D02*
X138800000Y-74135000D01*
X140600000Y-80100000D02*
X144100000Y-80100000D01*
X138800000Y-78300000D02*
X140600000Y-80100000D01*
X138800000Y-74135000D02*
X138800000Y-78300000D01*
%TO.N,L_{IN}_{_ISO}*%
X144100000Y-85900000D02*
X148900000Y-85900000D01*
X137980000Y-85900000D02*
X144100000Y-85900000D01*
X137500000Y-85420000D02*
X137980000Y-85900000D01*
X148900000Y-85900000D02*
X149700000Y-85100000D01*
X149700000Y-85100000D02*
X149700000Y-81000000D01*
D21*
%TO.N,Earth_Clean*%
X159000000Y-59000000D02*
X159000000Y-37000000D01*
X128000000Y-37000000D02*
X126000000Y-39000000D01*
X182000000Y-59000000D02*
X159000000Y-59000000D01*
X159000000Y-37000000D02*
X128000000Y-37000000D01*
%TD*%
%TA.AperFunction,Conductor*%
%TO.N,GNDPWR*%
G36*
X157429500Y-39530113D02*
G01*
X157474887Y-39575500D01*
X157491500Y-39637500D01*
X157491500Y-58967108D01*
X157491399Y-58972101D01*
X157488020Y-59055936D01*
X157488020Y-59055943D01*
X157487819Y-59060939D01*
X157488421Y-59065904D01*
X157488422Y-59065908D01*
X157498533Y-59149188D01*
X157499035Y-59154153D01*
X157502308Y-59194686D01*
X157506190Y-59242768D01*
X157507385Y-59247616D01*
X157511702Y-59265131D01*
X157514401Y-59279859D01*
X157516575Y-59297768D01*
X157516576Y-59297776D01*
X157517177Y-59302720D01*
X157518560Y-59307498D01*
X157518564Y-59307513D01*
X157541906Y-59388101D01*
X157543197Y-59392921D01*
X157563278Y-59474387D01*
X157563281Y-59474396D01*
X157564477Y-59479248D01*
X157566437Y-59483848D01*
X157573504Y-59500436D01*
X157578529Y-59514536D01*
X157583547Y-59531859D01*
X157583550Y-59531867D01*
X157584939Y-59536662D01*
X157587078Y-59541170D01*
X157587080Y-59541175D01*
X157623045Y-59616971D01*
X157625094Y-59621523D01*
X157657987Y-59698723D01*
X157659944Y-59703316D01*
X157662609Y-59707531D01*
X157662612Y-59707536D01*
X157672254Y-59722784D01*
X157679474Y-59735892D01*
X157687206Y-59752187D01*
X157687209Y-59752192D01*
X157689350Y-59756704D01*
X157692187Y-59760815D01*
X157692190Y-59760819D01*
X157739845Y-59829858D01*
X157742599Y-59834024D01*
X157780172Y-59893442D01*
X157790117Y-59909168D01*
X157805395Y-59926413D01*
X157814620Y-59938189D01*
X157827707Y-59957148D01*
X157831161Y-59960744D01*
X157831166Y-59960750D01*
X157864689Y-59995650D01*
X157889287Y-60021259D01*
X157892661Y-60024917D01*
X157948306Y-60087729D01*
X157948314Y-60087737D01*
X157951625Y-60091474D01*
X157955499Y-60094637D01*
X157969473Y-60106047D01*
X157980471Y-60116192D01*
X157996425Y-60132802D01*
X158000421Y-60135805D01*
X158000427Y-60135810D01*
X158067489Y-60186203D01*
X158071387Y-60189256D01*
X158140286Y-60245510D01*
X158144615Y-60248009D01*
X158144616Y-60248010D01*
X158160230Y-60257025D01*
X158172725Y-60265283D01*
X158187138Y-60276114D01*
X158187142Y-60276116D01*
X158191135Y-60279117D01*
X158195553Y-60281435D01*
X158195555Y-60281437D01*
X158269858Y-60320434D01*
X158274232Y-60322844D01*
X158351213Y-60367289D01*
X158372753Y-60375457D01*
X158386406Y-60381602D01*
X158406795Y-60392304D01*
X158491157Y-60420468D01*
X158495750Y-60422105D01*
X158578943Y-60453656D01*
X158601519Y-60458264D01*
X158615978Y-60462139D01*
X158623633Y-60464695D01*
X158633082Y-60467850D01*
X158633084Y-60467850D01*
X158637818Y-60469431D01*
X158642744Y-60470231D01*
X158642746Y-60470232D01*
X158658289Y-60472757D01*
X158725572Y-60483692D01*
X158730412Y-60484578D01*
X158817579Y-60502374D01*
X158840598Y-60503301D01*
X158855497Y-60504806D01*
X158878221Y-60508500D01*
X158878222Y-60508500D01*
X158878046Y-60509580D01*
X158932480Y-60528815D01*
X158974045Y-60576904D01*
X158984988Y-60632500D01*
X158986500Y-60632500D01*
X158986500Y-70876000D01*
X158987028Y-70880016D01*
X158987029Y-70880020D01*
X158991981Y-70917633D01*
X159003997Y-71008905D01*
X159005043Y-71012810D01*
X159005046Y-71012823D01*
X159019558Y-71066980D01*
X159020610Y-71070905D01*
X159022163Y-71074654D01*
X159022165Y-71074660D01*
X159068798Y-71187241D01*
X159071909Y-71194751D01*
X159076855Y-71201196D01*
X159076857Y-71201200D01*
X159121066Y-71258813D01*
X159153514Y-71301099D01*
X159198901Y-71346486D01*
X159305249Y-71428091D01*
X159429095Y-71479390D01*
X159491095Y-71496003D01*
X159624000Y-71513500D01*
X160362500Y-71513500D01*
X160424500Y-71530113D01*
X160469887Y-71575500D01*
X160486500Y-71637500D01*
X160486500Y-73196828D01*
X160486984Y-73200669D01*
X160486985Y-73200678D01*
X160502091Y-73320465D01*
X160502577Y-73324315D01*
X160503540Y-73328072D01*
X160515124Y-73373273D01*
X160517863Y-73383957D01*
X160519288Y-73387563D01*
X160519289Y-73387566D01*
X160562224Y-73496215D01*
X160562225Y-73496218D01*
X160565086Y-73503456D01*
X160640497Y-73607490D01*
X160645194Y-73612505D01*
X160675135Y-73667796D01*
X160674105Y-73730666D01*
X160642369Y-73784948D01*
X160509123Y-73918194D01*
X160495495Y-73929972D01*
X160481735Y-73940216D01*
X160481724Y-73940225D01*
X160475942Y-73944531D01*
X160471307Y-73950053D01*
X160471298Y-73950063D01*
X160443715Y-73982935D01*
X160436419Y-73990898D01*
X160434975Y-73992341D01*
X160434953Y-73992365D01*
X160432420Y-73994899D01*
X160430194Y-73997713D01*
X160430186Y-73997723D01*
X160412982Y-74019480D01*
X160410710Y-74022268D01*
X160366608Y-74074828D01*
X160366601Y-74074837D01*
X160361968Y-74080360D01*
X160358732Y-74086801D01*
X160356664Y-74089946D01*
X160356568Y-74090078D01*
X160356481Y-74090235D01*
X160354508Y-74093432D01*
X160350033Y-74099094D01*
X160346982Y-74105635D01*
X160346981Y-74105638D01*
X160317982Y-74167825D01*
X160316427Y-74171037D01*
X160282391Y-74238812D01*
X160280727Y-74245828D01*
X160279446Y-74249350D01*
X160279376Y-74249518D01*
X160279328Y-74249689D01*
X160278147Y-74253252D01*
X160275097Y-74259794D01*
X160273638Y-74266857D01*
X160273636Y-74266865D01*
X160259759Y-74334072D01*
X160258979Y-74337592D01*
X160248899Y-74380126D01*
X160241500Y-74411344D01*
X160241500Y-74418557D01*
X160241067Y-74422261D01*
X160241036Y-74422453D01*
X160241028Y-74422638D01*
X160240701Y-74426370D01*
X160239241Y-74433442D01*
X160239450Y-74440649D01*
X160239450Y-74440658D01*
X160241448Y-74509293D01*
X160241500Y-74512899D01*
X160241500Y-75634457D01*
X160232061Y-75681910D01*
X160205181Y-75722138D01*
X159722138Y-76205181D01*
X159681910Y-76232061D01*
X159634457Y-76241500D01*
X156209842Y-76241500D01*
X156168068Y-76234251D01*
X156131177Y-76213353D01*
X156067716Y-76161272D01*
X156067715Y-76161271D01*
X156063004Y-76157405D01*
X156036781Y-76143388D01*
X155893176Y-76066630D01*
X155893172Y-76066628D01*
X155887804Y-76063759D01*
X155873240Y-76059341D01*
X155703531Y-76007860D01*
X155703526Y-76007859D01*
X155697701Y-76006092D01*
X155691642Y-76005495D01*
X155691636Y-76005494D01*
X155506061Y-75987217D01*
X155500000Y-75986620D01*
X155493939Y-75987217D01*
X155308363Y-76005494D01*
X155308355Y-76005495D01*
X155302299Y-76006092D01*
X155296475Y-76007858D01*
X155296468Y-76007860D01*
X155118023Y-76061991D01*
X155118019Y-76061992D01*
X155112196Y-76063759D01*
X155106830Y-76066626D01*
X155106823Y-76066630D01*
X154942372Y-76154531D01*
X154942368Y-76154533D01*
X154936996Y-76157405D01*
X154932288Y-76161268D01*
X154932283Y-76161272D01*
X154788138Y-76279569D01*
X154788133Y-76279573D01*
X154783432Y-76283432D01*
X154779573Y-76288133D01*
X154779569Y-76288138D01*
X154661272Y-76432283D01*
X154661268Y-76432288D01*
X154657405Y-76436996D01*
X154654533Y-76442368D01*
X154654531Y-76442372D01*
X154566630Y-76606823D01*
X154566626Y-76606830D01*
X154563759Y-76612196D01*
X154561992Y-76618019D01*
X154561991Y-76618023D01*
X154507860Y-76796468D01*
X154507858Y-76796475D01*
X154506092Y-76802299D01*
X154505495Y-76808355D01*
X154505494Y-76808363D01*
X154488127Y-76984695D01*
X154486620Y-77000000D01*
X154487217Y-77006061D01*
X154505494Y-77191636D01*
X154505495Y-77191642D01*
X154506092Y-77197701D01*
X154507859Y-77203526D01*
X154507860Y-77203531D01*
X154519080Y-77240518D01*
X154563759Y-77387804D01*
X154657405Y-77563004D01*
X154661271Y-77567715D01*
X154661272Y-77567716D01*
X154761841Y-77690260D01*
X154783432Y-77716568D01*
X154936996Y-77842595D01*
X155112196Y-77936241D01*
X155302299Y-77993908D01*
X155500000Y-78013380D01*
X155697701Y-77993908D01*
X155887804Y-77936241D01*
X156063004Y-77842595D01*
X156131176Y-77786647D01*
X156168068Y-77765749D01*
X156209842Y-77758500D01*
X159935705Y-77758500D01*
X159953677Y-77759809D01*
X159977789Y-77763341D01*
X160027727Y-77758971D01*
X160038533Y-77758500D01*
X160040571Y-77758500D01*
X160044180Y-77758500D01*
X160075370Y-77754853D01*
X160078851Y-77754498D01*
X160154426Y-77747887D01*
X160161290Y-77745612D01*
X160164924Y-77744862D01*
X160165119Y-77744830D01*
X160165308Y-77744777D01*
X160168930Y-77743918D01*
X160176113Y-77743079D01*
X160247393Y-77717134D01*
X160250709Y-77715981D01*
X160322738Y-77692114D01*
X160328886Y-77688320D01*
X160332251Y-77686752D01*
X160332438Y-77686674D01*
X160332618Y-77686574D01*
X160335934Y-77684908D01*
X160342732Y-77682435D01*
X160406103Y-77640753D01*
X160409110Y-77638837D01*
X160473651Y-77599030D01*
X160478763Y-77593916D01*
X160481672Y-77591617D01*
X160481843Y-77591493D01*
X160481990Y-77591359D01*
X160484832Y-77588974D01*
X160490874Y-77585001D01*
X160542963Y-77529788D01*
X160545408Y-77527271D01*
X161490880Y-76581799D01*
X161504506Y-76570023D01*
X161524058Y-76555469D01*
X161556278Y-76517068D01*
X161563594Y-76509087D01*
X161564209Y-76508471D01*
X161567581Y-76505100D01*
X161587047Y-76480479D01*
X161589295Y-76477721D01*
X161623468Y-76436996D01*
X161638032Y-76419640D01*
X161641277Y-76413177D01*
X161643315Y-76410079D01*
X161643435Y-76409912D01*
X161643531Y-76409741D01*
X161645484Y-76406573D01*
X161649967Y-76400905D01*
X161682034Y-76332135D01*
X161683549Y-76329004D01*
X161717609Y-76261188D01*
X161719275Y-76254154D01*
X161720541Y-76250677D01*
X161720622Y-76250480D01*
X161720677Y-76250288D01*
X161721845Y-76246760D01*
X161724903Y-76240206D01*
X161740244Y-76165905D01*
X161741021Y-76162401D01*
X161742205Y-76157405D01*
X161758500Y-76088656D01*
X161758500Y-76081434D01*
X161758932Y-76077740D01*
X161758964Y-76077540D01*
X161758972Y-76077362D01*
X161759298Y-76073631D01*
X161760759Y-76066558D01*
X161758552Y-75990707D01*
X161758500Y-75987101D01*
X161758500Y-74882500D01*
X161775113Y-74820500D01*
X161820500Y-74775113D01*
X161882500Y-74758500D01*
X169048579Y-74758500D01*
X169066551Y-74759809D01*
X169090663Y-74763341D01*
X169140601Y-74758971D01*
X169151407Y-74758500D01*
X169153445Y-74758500D01*
X169157054Y-74758500D01*
X169188244Y-74754853D01*
X169191725Y-74754498D01*
X169267300Y-74747887D01*
X169274164Y-74745612D01*
X169277798Y-74744862D01*
X169277993Y-74744830D01*
X169278182Y-74744777D01*
X169281804Y-74743918D01*
X169288987Y-74743079D01*
X169360267Y-74717134D01*
X169363583Y-74715981D01*
X169435612Y-74692114D01*
X169441760Y-74688320D01*
X169445125Y-74686752D01*
X169445312Y-74686674D01*
X169445492Y-74686574D01*
X169448808Y-74684908D01*
X169455606Y-74682435D01*
X169518977Y-74640753D01*
X169521984Y-74638837D01*
X169586525Y-74599030D01*
X169591637Y-74593916D01*
X169594546Y-74591617D01*
X169594714Y-74591495D01*
X169594860Y-74591362D01*
X169597703Y-74588975D01*
X169603748Y-74585001D01*
X169605077Y-74583591D01*
X169633194Y-74566426D01*
X169669113Y-74557324D01*
X169755684Y-74548799D01*
X169945787Y-74491132D01*
X170120987Y-74397486D01*
X170274551Y-74271459D01*
X170400578Y-74117895D01*
X170494224Y-73942695D01*
X170551891Y-73752592D01*
X170571363Y-73554891D01*
X170551891Y-73357190D01*
X170494224Y-73167087D01*
X170400578Y-72991887D01*
X170396710Y-72987174D01*
X170393328Y-72982112D01*
X170394149Y-72981563D01*
X170371165Y-72932970D01*
X170374121Y-72872782D01*
X170405098Y-72821097D01*
X170676381Y-72549816D01*
X170716607Y-72522939D01*
X170764060Y-72513500D01*
X208362500Y-72513500D01*
X208424500Y-72530113D01*
X208469887Y-72575500D01*
X208486500Y-72637500D01*
X208486500Y-110362500D01*
X208469887Y-110424500D01*
X208424500Y-110469887D01*
X208362500Y-110486500D01*
X187637500Y-110486500D01*
X187575500Y-110469887D01*
X187530113Y-110424500D01*
X187513500Y-110362500D01*
X187513500Y-107128053D01*
X187513500Y-107124000D01*
X187496003Y-106991095D01*
X187479390Y-106929095D01*
X187428091Y-106805249D01*
X187346486Y-106698901D01*
X187301099Y-106653514D01*
X187291448Y-106646108D01*
X187201200Y-106576857D01*
X187201196Y-106576855D01*
X187194751Y-106571909D01*
X187187242Y-106568798D01*
X187187241Y-106568798D01*
X187074660Y-106522165D01*
X187074654Y-106522163D01*
X187070905Y-106520610D01*
X187066984Y-106519559D01*
X187066980Y-106519558D01*
X187012823Y-106505046D01*
X187012810Y-106505043D01*
X187008905Y-106503997D01*
X186993025Y-106501906D01*
X186880020Y-106487029D01*
X186880016Y-106487028D01*
X186876000Y-106486500D01*
X177124000Y-106486500D01*
X177119984Y-106487028D01*
X177119979Y-106487029D01*
X176995120Y-106503467D01*
X176995118Y-106503467D01*
X176991095Y-106503997D01*
X176987191Y-106505042D01*
X176987176Y-106505046D01*
X176933019Y-106519558D01*
X176933011Y-106519560D01*
X176929095Y-106520610D01*
X176925349Y-106522161D01*
X176925339Y-106522165D01*
X176812758Y-106568798D01*
X176812754Y-106568800D01*
X176805249Y-106571909D01*
X176798806Y-106576852D01*
X176798799Y-106576857D01*
X176702132Y-106651034D01*
X176702125Y-106651039D01*
X176698901Y-106653514D01*
X176696028Y-106656386D01*
X176696020Y-106656394D01*
X176656394Y-106696020D01*
X176656386Y-106696028D01*
X176653514Y-106698901D01*
X176651039Y-106702125D01*
X176651034Y-106702132D01*
X176576857Y-106798799D01*
X176576852Y-106798806D01*
X176571909Y-106805249D01*
X176568800Y-106812754D01*
X176568798Y-106812758D01*
X176522165Y-106925339D01*
X176522161Y-106925349D01*
X176520610Y-106929095D01*
X176519560Y-106933011D01*
X176519558Y-106933019D01*
X176505046Y-106987176D01*
X176505042Y-106987191D01*
X176503997Y-106991095D01*
X176486500Y-107124000D01*
X176486500Y-107128053D01*
X176486500Y-110362500D01*
X176469887Y-110424500D01*
X176424500Y-110469887D01*
X176362500Y-110486500D01*
X130264060Y-110486500D01*
X130216607Y-110477061D01*
X130176379Y-110450181D01*
X126549819Y-106823621D01*
X126522939Y-106783393D01*
X126513500Y-106735940D01*
X126513500Y-94460000D01*
X139586502Y-94460000D01*
X139586974Y-94465395D01*
X139605984Y-94682688D01*
X139605985Y-94682695D01*
X139606457Y-94688087D01*
X139607856Y-94693308D01*
X139607858Y-94693319D01*
X139664316Y-94904021D01*
X139664318Y-94904028D01*
X139665716Y-94909243D01*
X139668000Y-94914143D01*
X139668002Y-94914146D01*
X139760185Y-95111834D01*
X139762477Y-95116749D01*
X139765584Y-95121186D01*
X139890696Y-95299865D01*
X139890699Y-95299869D01*
X139893802Y-95304300D01*
X140055700Y-95466198D01*
X140243251Y-95597523D01*
X140450757Y-95694284D01*
X140455977Y-95695682D01*
X140455978Y-95695683D01*
X140666680Y-95752141D01*
X140666682Y-95752141D01*
X140671913Y-95753543D01*
X140900000Y-95773498D01*
X141128087Y-95753543D01*
X141349243Y-95694284D01*
X141556749Y-95597523D01*
X141744300Y-95466198D01*
X141906198Y-95304300D01*
X142037523Y-95116749D01*
X142134284Y-94909243D01*
X142193543Y-94688087D01*
X142213498Y-94460000D01*
X142193543Y-94231913D01*
X142152273Y-94077894D01*
X142135683Y-94015978D01*
X142135682Y-94015977D01*
X142134284Y-94010757D01*
X142037523Y-93803251D01*
X141906198Y-93615700D01*
X141744300Y-93453802D01*
X141739869Y-93450699D01*
X141739865Y-93450696D01*
X141561186Y-93325584D01*
X141561187Y-93325584D01*
X141556749Y-93322477D01*
X141551834Y-93320185D01*
X141354146Y-93228002D01*
X141354143Y-93228000D01*
X141349243Y-93225716D01*
X141344028Y-93224318D01*
X141344021Y-93224316D01*
X141133319Y-93167858D01*
X141133308Y-93167856D01*
X141128087Y-93166457D01*
X141122695Y-93165985D01*
X141122688Y-93165984D01*
X140905395Y-93146974D01*
X140900000Y-93146502D01*
X140894605Y-93146974D01*
X140677311Y-93165984D01*
X140677302Y-93165985D01*
X140671913Y-93166457D01*
X140666692Y-93167855D01*
X140666680Y-93167858D01*
X140455978Y-93224316D01*
X140455967Y-93224319D01*
X140450757Y-93225716D01*
X140445860Y-93227999D01*
X140445853Y-93228002D01*
X140248165Y-93320185D01*
X140248159Y-93320188D01*
X140243251Y-93322477D01*
X140238817Y-93325581D01*
X140238813Y-93325584D01*
X140060134Y-93450696D01*
X140060124Y-93450703D01*
X140055700Y-93453802D01*
X140051874Y-93457627D01*
X140051868Y-93457633D01*
X139897633Y-93611868D01*
X139897627Y-93611874D01*
X139893802Y-93615700D01*
X139890703Y-93620124D01*
X139890696Y-93620134D01*
X139765584Y-93798813D01*
X139765581Y-93798817D01*
X139762477Y-93803251D01*
X139760188Y-93808159D01*
X139760185Y-93808165D01*
X139668002Y-94005853D01*
X139667999Y-94005860D01*
X139665716Y-94010757D01*
X139664319Y-94015967D01*
X139664316Y-94015978D01*
X139607858Y-94226680D01*
X139607855Y-94226692D01*
X139606457Y-94231913D01*
X139605985Y-94237302D01*
X139605984Y-94237311D01*
X139593328Y-94381976D01*
X139586502Y-94460000D01*
X126513500Y-94460000D01*
X126513500Y-82314832D01*
X126527015Y-82258537D01*
X126564615Y-82214514D01*
X126618102Y-82192359D01*
X126675818Y-82196901D01*
X126725181Y-82227151D01*
X127181223Y-82683193D01*
X127186342Y-82688630D01*
X127226727Y-82734215D01*
X127232896Y-82738473D01*
X127232897Y-82738474D01*
X127276822Y-82768793D01*
X127282851Y-82773229D01*
X127330774Y-82810775D01*
X127340239Y-82815035D01*
X127359780Y-82826055D01*
X127368325Y-82831954D01*
X127423870Y-82853019D01*
X127425233Y-82853536D01*
X127432155Y-82856403D01*
X127487671Y-82881389D01*
X127495045Y-82882740D01*
X127497877Y-82883259D01*
X127519504Y-82889288D01*
X127529199Y-82892965D01*
X127589634Y-82900302D01*
X127597025Y-82901427D01*
X127656907Y-82912401D01*
X127717664Y-82908726D01*
X127725152Y-82908500D01*
X127747748Y-82908500D01*
X127807358Y-82923768D01*
X127852289Y-82965813D01*
X127871475Y-83024280D01*
X127862135Y-83074352D01*
X127864183Y-83075098D01*
X127862331Y-83080184D01*
X127860044Y-83085090D01*
X127858644Y-83090312D01*
X127858643Y-83090317D01*
X127850641Y-83120181D01*
X127805314Y-83289345D01*
X127804842Y-83294734D01*
X127804841Y-83294743D01*
X127791095Y-83451868D01*
X127786884Y-83500000D01*
X127787356Y-83505395D01*
X127804841Y-83705256D01*
X127804842Y-83705263D01*
X127805314Y-83710655D01*
X127860044Y-83914910D01*
X127862328Y-83919809D01*
X127862331Y-83919816D01*
X127933177Y-84071744D01*
X127949411Y-84106558D01*
X128070699Y-84279776D01*
X128220224Y-84429301D01*
X128393442Y-84550589D01*
X128401428Y-84554312D01*
X128403156Y-84555119D01*
X128453551Y-84598162D01*
X128474579Y-84661012D01*
X128460234Y-84725715D01*
X128414613Y-84773789D01*
X128350749Y-84791500D01*
X128251362Y-84791500D01*
X128248082Y-84791852D01*
X128248075Y-84791853D01*
X128198505Y-84797182D01*
X128198500Y-84797182D01*
X128190799Y-84798011D01*
X128183543Y-84800717D01*
X128183536Y-84800719D01*
X128062105Y-84846011D01*
X128062099Y-84846013D01*
X128053796Y-84849111D01*
X128046698Y-84854423D01*
X128046695Y-84854426D01*
X127943835Y-84931426D01*
X127943831Y-84931429D01*
X127936739Y-84936739D01*
X127931429Y-84943831D01*
X127931426Y-84943835D01*
X127854426Y-85046695D01*
X127854423Y-85046698D01*
X127849111Y-85053796D01*
X127846013Y-85062099D01*
X127846011Y-85062105D01*
X127800719Y-85183536D01*
X127800717Y-85183543D01*
X127798011Y-85190799D01*
X127797182Y-85198500D01*
X127797182Y-85198505D01*
X127791853Y-85248075D01*
X127791500Y-85251362D01*
X127791500Y-86748638D01*
X127791852Y-86751918D01*
X127791853Y-86751924D01*
X127796171Y-86792092D01*
X127798011Y-86809201D01*
X127800717Y-86816458D01*
X127800719Y-86816463D01*
X127846011Y-86937894D01*
X127849111Y-86946204D01*
X127854425Y-86953303D01*
X127854426Y-86953304D01*
X127916825Y-87036660D01*
X127936739Y-87063261D01*
X128053796Y-87150889D01*
X128190799Y-87201989D01*
X128251362Y-87208500D01*
X128254672Y-87208500D01*
X129658457Y-87208500D01*
X129713551Y-87221412D01*
X129757172Y-87257458D01*
X129780235Y-87309132D01*
X129777948Y-87365402D01*
X129775669Y-87371125D01*
X129774580Y-87377763D01*
X129774580Y-87377766D01*
X129756779Y-87486349D01*
X129745740Y-87553683D01*
X129746103Y-87560396D01*
X129746104Y-87560396D01*
X129754265Y-87710934D01*
X129755755Y-87738407D01*
X129757552Y-87744882D01*
X129757553Y-87744883D01*
X129803446Y-87910179D01*
X129803448Y-87910186D01*
X129805246Y-87916659D01*
X129808392Y-87922594D01*
X129808395Y-87922600D01*
X129888750Y-88074164D01*
X129888753Y-88074169D01*
X129891900Y-88080104D01*
X129896248Y-88085224D01*
X129896251Y-88085227D01*
X129958465Y-88158471D01*
X130011663Y-88221100D01*
X130158936Y-88333054D01*
X130326833Y-88410732D01*
X130507503Y-88450500D01*
X130642754Y-88450500D01*
X130646113Y-88450500D01*
X130783910Y-88435514D01*
X130959221Y-88376444D01*
X131117736Y-88281070D01*
X131252041Y-88153849D01*
X131355858Y-88000730D01*
X131424331Y-87828875D01*
X131454260Y-87646317D01*
X131444245Y-87461593D01*
X131394754Y-87283341D01*
X131381032Y-87257458D01*
X131311249Y-87125835D01*
X131311247Y-87125832D01*
X131308100Y-87119896D01*
X131244857Y-87045441D01*
X131192691Y-86984026D01*
X131188337Y-86978900D01*
X131087658Y-86902366D01*
X131046417Y-86871015D01*
X131046415Y-86871014D01*
X131041064Y-86866946D01*
X130873167Y-86789268D01*
X130851178Y-86784428D01*
X130699062Y-86750945D01*
X130699061Y-86750944D01*
X130692497Y-86749500D01*
X130553887Y-86749500D01*
X130550552Y-86749862D01*
X130550546Y-86749863D01*
X130422772Y-86763759D01*
X130422769Y-86763759D01*
X130416090Y-86764486D01*
X130409726Y-86766630D01*
X130409718Y-86766632D01*
X130372093Y-86779310D01*
X130314098Y-86784428D01*
X130260159Y-86762512D01*
X130222168Y-86718395D01*
X130208500Y-86661801D01*
X130208500Y-85254672D01*
X130208500Y-85251362D01*
X130201989Y-85190799D01*
X130150889Y-85053796D01*
X130063261Y-84936739D01*
X129946204Y-84849111D01*
X129937896Y-84846012D01*
X129937894Y-84846011D01*
X129816463Y-84800719D01*
X129816458Y-84800717D01*
X129809201Y-84798011D01*
X129801497Y-84797182D01*
X129801494Y-84797182D01*
X129751924Y-84791853D01*
X129751918Y-84791852D01*
X129748638Y-84791500D01*
X129649251Y-84791500D01*
X129585387Y-84773789D01*
X129539766Y-84725715D01*
X129525421Y-84661012D01*
X129546449Y-84598162D01*
X129596844Y-84555119D01*
X129597929Y-84554612D01*
X129606558Y-84550589D01*
X129779776Y-84429301D01*
X129914258Y-84294819D01*
X129954486Y-84267939D01*
X130001939Y-84258500D01*
X131634457Y-84258500D01*
X131681910Y-84267939D01*
X131722138Y-84294819D01*
X132705181Y-85277862D01*
X132732061Y-85318090D01*
X132741500Y-85365543D01*
X132741500Y-86435705D01*
X132740191Y-86453677D01*
X132737979Y-86468781D01*
X132736659Y-86477789D01*
X132737288Y-86484980D01*
X132737288Y-86484986D01*
X132741028Y-86527725D01*
X132741500Y-86538533D01*
X132741500Y-86544180D01*
X132741916Y-86547739D01*
X132741917Y-86547756D01*
X132745139Y-86575321D01*
X132745505Y-86578905D01*
X132751484Y-86647238D01*
X132752113Y-86654426D01*
X132754381Y-86661273D01*
X132755143Y-86664962D01*
X132755168Y-86665121D01*
X132755220Y-86665302D01*
X132756081Y-86668937D01*
X132756921Y-86676113D01*
X132759391Y-86682900D01*
X132759392Y-86682903D01*
X132782854Y-86747367D01*
X132784038Y-86750771D01*
X132801615Y-86803813D01*
X132807886Y-86822738D01*
X132811675Y-86828881D01*
X132813255Y-86832269D01*
X132813328Y-86832446D01*
X132813417Y-86832605D01*
X132815095Y-86835946D01*
X132817565Y-86842732D01*
X132821532Y-86848763D01*
X132859245Y-86906103D01*
X132861178Y-86909138D01*
X132900970Y-86973651D01*
X132906080Y-86978761D01*
X132908385Y-86981676D01*
X132908502Y-86981838D01*
X132908621Y-86981968D01*
X132911027Y-86984836D01*
X132914999Y-86990874D01*
X132920254Y-86995831D01*
X132920255Y-86995833D01*
X132970173Y-87042928D01*
X132972760Y-87045441D01*
X134165181Y-88237862D01*
X134192061Y-88278090D01*
X134201500Y-88325543D01*
X134201500Y-91610425D01*
X134187032Y-91668552D01*
X134147003Y-91713115D01*
X134090756Y-91733714D01*
X134058512Y-91737180D01*
X134058498Y-91737183D01*
X134050799Y-91738011D01*
X134043543Y-91740717D01*
X134043536Y-91740719D01*
X133922105Y-91786011D01*
X133922099Y-91786013D01*
X133913796Y-91789111D01*
X133906698Y-91794423D01*
X133906695Y-91794426D01*
X133803835Y-91871426D01*
X133803831Y-91871429D01*
X133796739Y-91876739D01*
X133791429Y-91883831D01*
X133791426Y-91883835D01*
X133714426Y-91986695D01*
X133714423Y-91986698D01*
X133709111Y-91993796D01*
X133706013Y-92002099D01*
X133706011Y-92002105D01*
X133660719Y-92123536D01*
X133660717Y-92123543D01*
X133658011Y-92130799D01*
X133657182Y-92138500D01*
X133657182Y-92138505D01*
X133651853Y-92188075D01*
X133651500Y-92191362D01*
X133651500Y-93888638D01*
X133651852Y-93891918D01*
X133651853Y-93891924D01*
X133656807Y-93938008D01*
X133658011Y-93949201D01*
X133660717Y-93956458D01*
X133660719Y-93956463D01*
X133692760Y-94042366D01*
X133709111Y-94086204D01*
X133714425Y-94093303D01*
X133714426Y-94093304D01*
X133788036Y-94191636D01*
X133796739Y-94203261D01*
X133913796Y-94290889D01*
X134050799Y-94341989D01*
X134111362Y-94348500D01*
X135805328Y-94348500D01*
X135808638Y-94348500D01*
X135869201Y-94341989D01*
X136006204Y-94290889D01*
X136123261Y-94203261D01*
X136210889Y-94086204D01*
X136261989Y-93949201D01*
X136263568Y-93934505D01*
X136283948Y-93878581D01*
X136328038Y-93838596D01*
X136385681Y-93823763D01*
X136443595Y-93837498D01*
X136488437Y-93876638D01*
X136489797Y-93878581D01*
X136493802Y-93884300D01*
X136655700Y-94046198D01*
X136843251Y-94177523D01*
X137050757Y-94274284D01*
X137055977Y-94275682D01*
X137055978Y-94275683D01*
X137266680Y-94332141D01*
X137266682Y-94332141D01*
X137271913Y-94333543D01*
X137500000Y-94353498D01*
X137728087Y-94333543D01*
X137949243Y-94274284D01*
X138156749Y-94177523D01*
X138344300Y-94046198D01*
X138506198Y-93884300D01*
X138637523Y-93696749D01*
X138734284Y-93489243D01*
X138793543Y-93268087D01*
X138813498Y-93040000D01*
X138809998Y-93000000D01*
X156986620Y-93000000D01*
X156987217Y-93006061D01*
X157005494Y-93191636D01*
X157005495Y-93191642D01*
X157006092Y-93197701D01*
X157007859Y-93203526D01*
X157007860Y-93203531D01*
X157043247Y-93320185D01*
X157063759Y-93387804D01*
X157066628Y-93393172D01*
X157066630Y-93393176D01*
X157101083Y-93457633D01*
X157157405Y-93563004D01*
X157283432Y-93716568D01*
X157436996Y-93842595D01*
X157612196Y-93936241D01*
X157802299Y-93993908D01*
X157890067Y-94002552D01*
X157930929Y-94013860D01*
X157965593Y-94038274D01*
X158418195Y-94490876D01*
X158429973Y-94504503D01*
X158444531Y-94524058D01*
X158450067Y-94528703D01*
X158482932Y-94556280D01*
X158490908Y-94563589D01*
X158494900Y-94567581D01*
X158497731Y-94569819D01*
X158497735Y-94569823D01*
X158519469Y-94587008D01*
X158522267Y-94589287D01*
X158574822Y-94633386D01*
X158574827Y-94633389D01*
X158580360Y-94638032D01*
X158586818Y-94641275D01*
X158589935Y-94643325D01*
X158590087Y-94643435D01*
X158590261Y-94643532D01*
X158593424Y-94645483D01*
X158599095Y-94649967D01*
X158605644Y-94653021D01*
X158605646Y-94653022D01*
X158667830Y-94682019D01*
X158671077Y-94683591D01*
X158732348Y-94714363D01*
X158732350Y-94714363D01*
X158738812Y-94717609D01*
X158745850Y-94719276D01*
X158749322Y-94720540D01*
X158749522Y-94720623D01*
X158749702Y-94720674D01*
X158753240Y-94721846D01*
X158759794Y-94724903D01*
X158834100Y-94740245D01*
X158837572Y-94741015D01*
X158911344Y-94758500D01*
X158918576Y-94758500D01*
X158922255Y-94758930D01*
X158922468Y-94758964D01*
X158922638Y-94758972D01*
X158926369Y-94759298D01*
X158933442Y-94760759D01*
X159009292Y-94758552D01*
X159012899Y-94758500D01*
X168590158Y-94758500D01*
X168631932Y-94765749D01*
X168668823Y-94786647D01*
X168736996Y-94842595D01*
X168912196Y-94936241D01*
X169102299Y-94993908D01*
X169300000Y-95013380D01*
X169497701Y-94993908D01*
X169687804Y-94936241D01*
X169863004Y-94842595D01*
X170016568Y-94716568D01*
X170142595Y-94563004D01*
X170236241Y-94387804D01*
X170293908Y-94197701D01*
X170313380Y-94000000D01*
X170293908Y-93802299D01*
X170236241Y-93612196D01*
X170142595Y-93436996D01*
X170016568Y-93283432D01*
X169863004Y-93157405D01*
X169836781Y-93143388D01*
X169693176Y-93066630D01*
X169693172Y-93066628D01*
X169687804Y-93063759D01*
X169681976Y-93061991D01*
X169503531Y-93007860D01*
X169503526Y-93007859D01*
X169497701Y-93006092D01*
X169491642Y-93005495D01*
X169491636Y-93005494D01*
X169306061Y-92987217D01*
X169300000Y-92986620D01*
X169293939Y-92987217D01*
X169108363Y-93005494D01*
X169108355Y-93005495D01*
X169102299Y-93006092D01*
X169096475Y-93007858D01*
X169096468Y-93007860D01*
X168918023Y-93061991D01*
X168918019Y-93061992D01*
X168912196Y-93063759D01*
X168906830Y-93066626D01*
X168906823Y-93066630D01*
X168742372Y-93154531D01*
X168742368Y-93154533D01*
X168736996Y-93157405D01*
X168732288Y-93161268D01*
X168732283Y-93161272D01*
X168668823Y-93213353D01*
X168631932Y-93234251D01*
X168590158Y-93241500D01*
X159365543Y-93241500D01*
X159318090Y-93232061D01*
X159277862Y-93205181D01*
X159038274Y-92965593D01*
X159013860Y-92930929D01*
X159002552Y-92890066D01*
X158993908Y-92802299D01*
X158936241Y-92612196D01*
X158842595Y-92436996D01*
X158716568Y-92283432D01*
X158609666Y-92195700D01*
X158567716Y-92161272D01*
X158567715Y-92161271D01*
X158563004Y-92157405D01*
X158527646Y-92138506D01*
X158393176Y-92066630D01*
X158393172Y-92066628D01*
X158387804Y-92063759D01*
X158381976Y-92061991D01*
X158203531Y-92007860D01*
X158203526Y-92007859D01*
X158197701Y-92006092D01*
X158191642Y-92005495D01*
X158191636Y-92005494D01*
X158006061Y-91987217D01*
X158000000Y-91986620D01*
X157993939Y-91987217D01*
X157808363Y-92005494D01*
X157808355Y-92005495D01*
X157802299Y-92006092D01*
X157796475Y-92007858D01*
X157796468Y-92007860D01*
X157618023Y-92061991D01*
X157618019Y-92061992D01*
X157612196Y-92063759D01*
X157606830Y-92066626D01*
X157606823Y-92066630D01*
X157442372Y-92154531D01*
X157442368Y-92154533D01*
X157436996Y-92157405D01*
X157432288Y-92161268D01*
X157432283Y-92161272D01*
X157288138Y-92279569D01*
X157288133Y-92279573D01*
X157283432Y-92283432D01*
X157279573Y-92288133D01*
X157279569Y-92288138D01*
X157161272Y-92432283D01*
X157161268Y-92432288D01*
X157157405Y-92436996D01*
X157154533Y-92442368D01*
X157154531Y-92442372D01*
X157066630Y-92606823D01*
X157066626Y-92606830D01*
X157063759Y-92612196D01*
X157061992Y-92618019D01*
X157061991Y-92618023D01*
X157007860Y-92796468D01*
X157007858Y-92796475D01*
X157006092Y-92802299D01*
X157005495Y-92808355D01*
X157005494Y-92808363D01*
X156993423Y-92930929D01*
X156986620Y-93000000D01*
X138809998Y-93000000D01*
X138793543Y-92811913D01*
X138789404Y-92796468D01*
X138735683Y-92595978D01*
X138735682Y-92595977D01*
X138734284Y-92590757D01*
X138637523Y-92383251D01*
X138506198Y-92195700D01*
X138344300Y-92033802D01*
X138339869Y-92030699D01*
X138339865Y-92030696D01*
X138161186Y-91905584D01*
X138161187Y-91905584D01*
X138156749Y-91902477D01*
X138116771Y-91883835D01*
X137954146Y-91808002D01*
X137954143Y-91808000D01*
X137949243Y-91805716D01*
X137944028Y-91804318D01*
X137944021Y-91804316D01*
X137733319Y-91747858D01*
X137733308Y-91747856D01*
X137728087Y-91746457D01*
X137722695Y-91745985D01*
X137722688Y-91745984D01*
X137505395Y-91726974D01*
X137500000Y-91726502D01*
X137494605Y-91726974D01*
X137277311Y-91745984D01*
X137277302Y-91745985D01*
X137271913Y-91746457D01*
X137266692Y-91747855D01*
X137266680Y-91747858D01*
X137055978Y-91804316D01*
X137055967Y-91804319D01*
X137050757Y-91805716D01*
X137045860Y-91807999D01*
X137045853Y-91808002D01*
X136848165Y-91900185D01*
X136848159Y-91900188D01*
X136843251Y-91902477D01*
X136838817Y-91905581D01*
X136838813Y-91905584D01*
X136660134Y-92030696D01*
X136660124Y-92030703D01*
X136655700Y-92033802D01*
X136651874Y-92037627D01*
X136651868Y-92037633D01*
X136497633Y-92191868D01*
X136497627Y-92191874D01*
X136493802Y-92195700D01*
X136490701Y-92200128D01*
X136490694Y-92200137D01*
X136488433Y-92203367D01*
X136443590Y-92242504D01*
X136385677Y-92256236D01*
X136328036Y-92241402D01*
X136283947Y-92201417D01*
X136263569Y-92145495D01*
X136263492Y-92144780D01*
X136261989Y-92130799D01*
X136210889Y-91993796D01*
X136123261Y-91876739D01*
X136006204Y-91789111D01*
X135997896Y-91786012D01*
X135997894Y-91786011D01*
X135876463Y-91740719D01*
X135876458Y-91740717D01*
X135869201Y-91738011D01*
X135861500Y-91737183D01*
X135861487Y-91737180D01*
X135829244Y-91733714D01*
X135772997Y-91713115D01*
X135732968Y-91668552D01*
X135718500Y-91610425D01*
X135718500Y-88024296D01*
X135719809Y-88006325D01*
X135721543Y-87994483D01*
X135723341Y-87982211D01*
X135718971Y-87932272D01*
X135718500Y-87921467D01*
X135718500Y-87919429D01*
X135718500Y-87915820D01*
X135714862Y-87884700D01*
X135714495Y-87881109D01*
X135710418Y-87834505D01*
X135707887Y-87805574D01*
X135705614Y-87798714D01*
X135704860Y-87795062D01*
X135704830Y-87794875D01*
X135704778Y-87794692D01*
X135703917Y-87791062D01*
X135703079Y-87783887D01*
X135677127Y-87712587D01*
X135675952Y-87709203D01*
X135654386Y-87644119D01*
X135652114Y-87637262D01*
X135648322Y-87631115D01*
X135646750Y-87627743D01*
X135646673Y-87627558D01*
X135646580Y-87627391D01*
X135644905Y-87624056D01*
X135642435Y-87617268D01*
X135600754Y-87553896D01*
X135598815Y-87550852D01*
X135562822Y-87492497D01*
X135559030Y-87486349D01*
X135553919Y-87481238D01*
X135551615Y-87478324D01*
X135551496Y-87478159D01*
X135551374Y-87478026D01*
X135548970Y-87475162D01*
X135545001Y-87469126D01*
X135489825Y-87417070D01*
X135487238Y-87414557D01*
X135006586Y-86933905D01*
X134973206Y-86873062D01*
X134977745Y-86803813D01*
X135018781Y-86747848D01*
X135083457Y-86722696D01*
X135188087Y-86713543D01*
X135409243Y-86654284D01*
X135616749Y-86557523D01*
X135804300Y-86426198D01*
X135966198Y-86264300D01*
X136097523Y-86076749D01*
X136117619Y-86033650D01*
X136163374Y-85981478D01*
X136230000Y-85962058D01*
X136296626Y-85981478D01*
X136342380Y-86033650D01*
X136362477Y-86076749D01*
X136365584Y-86081186D01*
X136490696Y-86259865D01*
X136490699Y-86259869D01*
X136493802Y-86264300D01*
X136655700Y-86426198D01*
X136843251Y-86557523D01*
X137050757Y-86654284D01*
X137055977Y-86655682D01*
X137055978Y-86655683D01*
X137266680Y-86712141D01*
X137266682Y-86712141D01*
X137271913Y-86713543D01*
X137500000Y-86733498D01*
X137728087Y-86713543D01*
X137949243Y-86654284D01*
X138022512Y-86620118D01*
X138074917Y-86608500D01*
X142934164Y-86608500D01*
X142991421Y-86622511D01*
X143035738Y-86661376D01*
X143093802Y-86744300D01*
X143255700Y-86906198D01*
X143260132Y-86909301D01*
X143260134Y-86909303D01*
X143298606Y-86936241D01*
X143443251Y-87037523D01*
X143650757Y-87134284D01*
X143655977Y-87135682D01*
X143655978Y-87135683D01*
X143866680Y-87192141D01*
X143866682Y-87192141D01*
X143871913Y-87193543D01*
X144100000Y-87213498D01*
X144328087Y-87193543D01*
X144549243Y-87134284D01*
X144756749Y-87037523D01*
X144944300Y-86906198D01*
X145106198Y-86744300D01*
X145164261Y-86661376D01*
X145208579Y-86622511D01*
X145265836Y-86608500D01*
X148874837Y-86608500D01*
X148882324Y-86608726D01*
X148943093Y-86612402D01*
X149002994Y-86601424D01*
X149010369Y-86600302D01*
X149070801Y-86592965D01*
X149079275Y-86589750D01*
X149080494Y-86589289D01*
X149102119Y-86583259D01*
X149112329Y-86581389D01*
X149167845Y-86556402D01*
X149174753Y-86553541D01*
X149190550Y-86547550D01*
X149231675Y-86531954D01*
X149240211Y-86526061D01*
X149259762Y-86515033D01*
X149269226Y-86510775D01*
X149276038Y-86505437D01*
X149317157Y-86473223D01*
X149323165Y-86468801D01*
X149373273Y-86434215D01*
X149413658Y-86388628D01*
X149418760Y-86383208D01*
X150183208Y-85618760D01*
X150188628Y-85613658D01*
X150234215Y-85573273D01*
X150268801Y-85523165D01*
X150273223Y-85517157D01*
X150306147Y-85475133D01*
X150306146Y-85475133D01*
X150310775Y-85469226D01*
X150315033Y-85459762D01*
X150326061Y-85440211D01*
X150331954Y-85431675D01*
X150353541Y-85374753D01*
X150356402Y-85367845D01*
X150381389Y-85312329D01*
X150383259Y-85302119D01*
X150389289Y-85280494D01*
X150390305Y-85277814D01*
X150392965Y-85270801D01*
X150400301Y-85210377D01*
X150401428Y-85202974D01*
X150412402Y-85143092D01*
X150408726Y-85082318D01*
X150408500Y-85074831D01*
X150408500Y-81770767D01*
X150415749Y-81728993D01*
X150436647Y-81692102D01*
X150458245Y-81665785D01*
X150542595Y-81563004D01*
X150636241Y-81387804D01*
X150693908Y-81197701D01*
X150713380Y-81000000D01*
X150693908Y-80802299D01*
X150636241Y-80612196D01*
X150542595Y-80436996D01*
X150416568Y-80283432D01*
X150263004Y-80157405D01*
X150165700Y-80105395D01*
X150093176Y-80066630D01*
X150093172Y-80066628D01*
X150087804Y-80063759D01*
X150081976Y-80061991D01*
X149903531Y-80007860D01*
X149903526Y-80007859D01*
X149897701Y-80006092D01*
X149891642Y-80005495D01*
X149891636Y-80005494D01*
X149835853Y-80000000D01*
X156986620Y-80000000D01*
X156987217Y-80006061D01*
X157005494Y-80191636D01*
X157005495Y-80191642D01*
X157006092Y-80197701D01*
X157007859Y-80203526D01*
X157007860Y-80203531D01*
X157039115Y-80306564D01*
X157063759Y-80387804D01*
X157066628Y-80393172D01*
X157066630Y-80393176D01*
X157092926Y-80442372D01*
X157157405Y-80563004D01*
X157283432Y-80716568D01*
X157436996Y-80842595D01*
X157612196Y-80936241D01*
X157802299Y-80993908D01*
X157890067Y-81002552D01*
X157930929Y-81013860D01*
X157965593Y-81038274D01*
X158705181Y-81777862D01*
X158732061Y-81818090D01*
X158741500Y-81865543D01*
X158741500Y-85290158D01*
X158734251Y-85331932D01*
X158713353Y-85368823D01*
X158661272Y-85432283D01*
X158661268Y-85432288D01*
X158657405Y-85436996D01*
X158654533Y-85442368D01*
X158654531Y-85442372D01*
X158566630Y-85606823D01*
X158566626Y-85606830D01*
X158563759Y-85612196D01*
X158561992Y-85618019D01*
X158561991Y-85618023D01*
X158507860Y-85796468D01*
X158507858Y-85796475D01*
X158506092Y-85802299D01*
X158505495Y-85808355D01*
X158505494Y-85808363D01*
X158490357Y-85962058D01*
X158486620Y-86000000D01*
X158487217Y-86006061D01*
X158505494Y-86191636D01*
X158505495Y-86191642D01*
X158506092Y-86197701D01*
X158507859Y-86203526D01*
X158507860Y-86203531D01*
X158537124Y-86300000D01*
X158563759Y-86387804D01*
X158566628Y-86393172D01*
X158566630Y-86393176D01*
X158607042Y-86468781D01*
X158657405Y-86563004D01*
X158661271Y-86567715D01*
X158661272Y-86567716D01*
X158675695Y-86585291D01*
X158783432Y-86716568D01*
X158936996Y-86842595D01*
X159112196Y-86936241D01*
X159302299Y-86993908D01*
X159500000Y-87013380D01*
X159697701Y-86993908D01*
X159887804Y-86936241D01*
X160063004Y-86842595D01*
X160216568Y-86716568D01*
X160342595Y-86563004D01*
X160436241Y-86387804D01*
X160462876Y-86300000D01*
X196586526Y-86300000D01*
X196606391Y-86552403D01*
X196607526Y-86557132D01*
X196607527Y-86557136D01*
X196664357Y-86793854D01*
X196664359Y-86793862D01*
X196665495Y-86798591D01*
X196762384Y-87032502D01*
X196764931Y-87036659D01*
X196764932Y-87036660D01*
X196892125Y-87244221D01*
X196892130Y-87244228D01*
X196894672Y-87248376D01*
X196897831Y-87252075D01*
X196897835Y-87252080D01*
X197037697Y-87415836D01*
X197059102Y-87440898D01*
X197062802Y-87444058D01*
X197199015Y-87560396D01*
X197251624Y-87605328D01*
X197255774Y-87607871D01*
X197255778Y-87607874D01*
X197303735Y-87637262D01*
X197467498Y-87737616D01*
X197701409Y-87834505D01*
X197947597Y-87893609D01*
X198200000Y-87913474D01*
X198452403Y-87893609D01*
X198698591Y-87834505D01*
X198932502Y-87737616D01*
X199148376Y-87605328D01*
X199340898Y-87440898D01*
X199375710Y-87400137D01*
X199418086Y-87368060D01*
X199470000Y-87356670D01*
X199521914Y-87368060D01*
X199564289Y-87400137D01*
X199599102Y-87440898D01*
X199602802Y-87444058D01*
X199739015Y-87560396D01*
X199791624Y-87605328D01*
X199795774Y-87607871D01*
X199795778Y-87607874D01*
X199843735Y-87637262D01*
X200007498Y-87737616D01*
X200241409Y-87834505D01*
X200487597Y-87893609D01*
X200740000Y-87913474D01*
X200992403Y-87893609D01*
X201238591Y-87834505D01*
X201472502Y-87737616D01*
X201688376Y-87605328D01*
X201880898Y-87440898D01*
X201915710Y-87400137D01*
X201958086Y-87368060D01*
X202010000Y-87356670D01*
X202061914Y-87368060D01*
X202104289Y-87400137D01*
X202139102Y-87440898D01*
X202142802Y-87444058D01*
X202279015Y-87560396D01*
X202331624Y-87605328D01*
X202335774Y-87607871D01*
X202335778Y-87607874D01*
X202383735Y-87637262D01*
X202547498Y-87737616D01*
X202781409Y-87834505D01*
X203027597Y-87893609D01*
X203280000Y-87913474D01*
X203532403Y-87893609D01*
X203778591Y-87834505D01*
X204012502Y-87737616D01*
X204228376Y-87605328D01*
X204420898Y-87440898D01*
X204455710Y-87400137D01*
X204498086Y-87368060D01*
X204550000Y-87356670D01*
X204601914Y-87368060D01*
X204644289Y-87400137D01*
X204679102Y-87440898D01*
X204682802Y-87444058D01*
X204819015Y-87560396D01*
X204871624Y-87605328D01*
X204875774Y-87607871D01*
X204875778Y-87607874D01*
X204923735Y-87637262D01*
X205087498Y-87737616D01*
X205321409Y-87834505D01*
X205567597Y-87893609D01*
X205820000Y-87913474D01*
X206072403Y-87893609D01*
X206318591Y-87834505D01*
X206552502Y-87737616D01*
X206768376Y-87605328D01*
X206960898Y-87440898D01*
X207125328Y-87248376D01*
X207257616Y-87032502D01*
X207354505Y-86798591D01*
X207413609Y-86552403D01*
X207433474Y-86300000D01*
X207413609Y-86047597D01*
X207354505Y-85801409D01*
X207257616Y-85567498D01*
X207174756Y-85432283D01*
X207127874Y-85355778D01*
X207127871Y-85355774D01*
X207125328Y-85351624D01*
X207108509Y-85331932D01*
X206964058Y-85162802D01*
X206960898Y-85159102D01*
X206920137Y-85124289D01*
X206888060Y-85081914D01*
X206876670Y-85030000D01*
X206888060Y-84978086D01*
X206920137Y-84935710D01*
X206960898Y-84900898D01*
X207125328Y-84708376D01*
X207257616Y-84492502D01*
X207354505Y-84258591D01*
X207413609Y-84012403D01*
X207433474Y-83760000D01*
X207413609Y-83507597D01*
X207354505Y-83261409D01*
X207257616Y-83027498D01*
X207139416Y-82834613D01*
X207127874Y-82815778D01*
X207127871Y-82815774D01*
X207125328Y-82811624D01*
X207120650Y-82806147D01*
X206964058Y-82622802D01*
X206960898Y-82619102D01*
X206957196Y-82615940D01*
X206920138Y-82584289D01*
X206888060Y-82541911D01*
X206876670Y-82489997D01*
X206888061Y-82438083D01*
X206920138Y-82395710D01*
X206960898Y-82360898D01*
X207125328Y-82168376D01*
X207257616Y-81952502D01*
X207354505Y-81718591D01*
X207413609Y-81472403D01*
X207433474Y-81220000D01*
X207413609Y-80967597D01*
X207354505Y-80721409D01*
X207257616Y-80487498D01*
X207150595Y-80312856D01*
X207127874Y-80275778D01*
X207127871Y-80275774D01*
X207125328Y-80271624D01*
X206960898Y-80079102D01*
X206920137Y-80044289D01*
X206888060Y-80001914D01*
X206876670Y-79950000D01*
X206888060Y-79898086D01*
X206920137Y-79855710D01*
X206960898Y-79820898D01*
X207125328Y-79628376D01*
X207257616Y-79412502D01*
X207354505Y-79178591D01*
X207413609Y-78932403D01*
X207433474Y-78680000D01*
X207413609Y-78427597D01*
X207354505Y-78181409D01*
X207257616Y-77947498D01*
X207177804Y-77817257D01*
X207127874Y-77735778D01*
X207127871Y-77735774D01*
X207125328Y-77731624D01*
X207119379Y-77724659D01*
X206964058Y-77542802D01*
X206960898Y-77539102D01*
X206863881Y-77456241D01*
X206772080Y-77377835D01*
X206772075Y-77377831D01*
X206768376Y-77374672D01*
X206764228Y-77372130D01*
X206764221Y-77372125D01*
X206556660Y-77244932D01*
X206556659Y-77244931D01*
X206552502Y-77242384D01*
X206318591Y-77145495D01*
X206313862Y-77144359D01*
X206313854Y-77144357D01*
X206077136Y-77087527D01*
X206077132Y-77087526D01*
X206072403Y-77086391D01*
X206067550Y-77086009D01*
X205824854Y-77066908D01*
X205820000Y-77066526D01*
X205815146Y-77066908D01*
X205572449Y-77086009D01*
X205572447Y-77086009D01*
X205567597Y-77086391D01*
X205562869Y-77087525D01*
X205562863Y-77087527D01*
X205326145Y-77144357D01*
X205326133Y-77144360D01*
X205321409Y-77145495D01*
X205316912Y-77147357D01*
X205316908Y-77147359D01*
X205092002Y-77240518D01*
X205091997Y-77240520D01*
X205087498Y-77242384D01*
X205083345Y-77244928D01*
X205083339Y-77244932D01*
X204875778Y-77372125D01*
X204875765Y-77372134D01*
X204871624Y-77374672D01*
X204867929Y-77377827D01*
X204867919Y-77377835D01*
X204682802Y-77535941D01*
X204682795Y-77535947D01*
X204679102Y-77539102D01*
X204675947Y-77542795D01*
X204675940Y-77542803D01*
X204644290Y-77579861D01*
X204601913Y-77611939D01*
X204550000Y-77623329D01*
X204498087Y-77611939D01*
X204455710Y-77579861D01*
X204424059Y-77542803D01*
X204424058Y-77542802D01*
X204420898Y-77539102D01*
X204323881Y-77456241D01*
X204232080Y-77377835D01*
X204232075Y-77377831D01*
X204228376Y-77374672D01*
X204224228Y-77372130D01*
X204224221Y-77372125D01*
X204016660Y-77244932D01*
X204016659Y-77244931D01*
X204012502Y-77242384D01*
X203778591Y-77145495D01*
X203773862Y-77144359D01*
X203773854Y-77144357D01*
X203537136Y-77087527D01*
X203537132Y-77087526D01*
X203532403Y-77086391D01*
X203527550Y-77086009D01*
X203284854Y-77066908D01*
X203280000Y-77066526D01*
X203275146Y-77066908D01*
X203032449Y-77086009D01*
X203032447Y-77086009D01*
X203027597Y-77086391D01*
X203022869Y-77087525D01*
X203022863Y-77087527D01*
X202786145Y-77144357D01*
X202786133Y-77144360D01*
X202781409Y-77145495D01*
X202776912Y-77147357D01*
X202776908Y-77147359D01*
X202552002Y-77240518D01*
X202551997Y-77240520D01*
X202547498Y-77242384D01*
X202543345Y-77244928D01*
X202543339Y-77244932D01*
X202335778Y-77372125D01*
X202335765Y-77372134D01*
X202331624Y-77374672D01*
X202327929Y-77377827D01*
X202327919Y-77377835D01*
X202142802Y-77535941D01*
X202142795Y-77535947D01*
X202139102Y-77539102D01*
X202135947Y-77542795D01*
X202135940Y-77542803D01*
X202104290Y-77579861D01*
X202061913Y-77611939D01*
X202010000Y-77623329D01*
X201958087Y-77611939D01*
X201915710Y-77579861D01*
X201884059Y-77542803D01*
X201884058Y-77542802D01*
X201880898Y-77539102D01*
X201783881Y-77456241D01*
X201692080Y-77377835D01*
X201692075Y-77377831D01*
X201688376Y-77374672D01*
X201684228Y-77372130D01*
X201684221Y-77372125D01*
X201476660Y-77244932D01*
X201476659Y-77244931D01*
X201472502Y-77242384D01*
X201238591Y-77145495D01*
X201233862Y-77144359D01*
X201233854Y-77144357D01*
X200997136Y-77087527D01*
X200997132Y-77087526D01*
X200992403Y-77086391D01*
X200987550Y-77086009D01*
X200744854Y-77066908D01*
X200740000Y-77066526D01*
X200735146Y-77066908D01*
X200492449Y-77086009D01*
X200492447Y-77086009D01*
X200487597Y-77086391D01*
X200482869Y-77087525D01*
X200482863Y-77087527D01*
X200246145Y-77144357D01*
X200246133Y-77144360D01*
X200241409Y-77145495D01*
X200236912Y-77147357D01*
X200236908Y-77147359D01*
X200012002Y-77240518D01*
X200011997Y-77240520D01*
X200007498Y-77242384D01*
X200003345Y-77244928D01*
X200003339Y-77244932D01*
X199795778Y-77372125D01*
X199795765Y-77372134D01*
X199791624Y-77374672D01*
X199787929Y-77377827D01*
X199787919Y-77377835D01*
X199602802Y-77535941D01*
X199602795Y-77535947D01*
X199599102Y-77539102D01*
X199595947Y-77542795D01*
X199595940Y-77542803D01*
X199564290Y-77579861D01*
X199521913Y-77611939D01*
X199470000Y-77623329D01*
X199418087Y-77611939D01*
X199375710Y-77579861D01*
X199344059Y-77542803D01*
X199344058Y-77542802D01*
X199340898Y-77539102D01*
X199243881Y-77456241D01*
X199152080Y-77377835D01*
X199152075Y-77377831D01*
X199148376Y-77374672D01*
X199144228Y-77372130D01*
X199144221Y-77372125D01*
X198936660Y-77244932D01*
X198936659Y-77244931D01*
X198932502Y-77242384D01*
X198698591Y-77145495D01*
X198693862Y-77144359D01*
X198693854Y-77144357D01*
X198457136Y-77087527D01*
X198457132Y-77087526D01*
X198452403Y-77086391D01*
X198447550Y-77086009D01*
X198204854Y-77066908D01*
X198200000Y-77066526D01*
X198195146Y-77066908D01*
X197952449Y-77086009D01*
X197952447Y-77086009D01*
X197947597Y-77086391D01*
X197942869Y-77087525D01*
X197942863Y-77087527D01*
X197706145Y-77144357D01*
X197706133Y-77144360D01*
X197701409Y-77145495D01*
X197696912Y-77147357D01*
X197696908Y-77147359D01*
X197472002Y-77240518D01*
X197471997Y-77240520D01*
X197467498Y-77242384D01*
X197463345Y-77244928D01*
X197463339Y-77244932D01*
X197255778Y-77372125D01*
X197255765Y-77372134D01*
X197251624Y-77374672D01*
X197247929Y-77377827D01*
X197247919Y-77377835D01*
X197062802Y-77535941D01*
X197062795Y-77535947D01*
X197059102Y-77539102D01*
X197055947Y-77542795D01*
X197055941Y-77542802D01*
X196897835Y-77727919D01*
X196897827Y-77727929D01*
X196894672Y-77731624D01*
X196892134Y-77735765D01*
X196892125Y-77735778D01*
X196764932Y-77943339D01*
X196764928Y-77943345D01*
X196762384Y-77947498D01*
X196760520Y-77951997D01*
X196760518Y-77952002D01*
X196703226Y-78090317D01*
X196665495Y-78181409D01*
X196664360Y-78186133D01*
X196664357Y-78186145D01*
X196607527Y-78422863D01*
X196607525Y-78422869D01*
X196606391Y-78427597D01*
X196606009Y-78432447D01*
X196606009Y-78432449D01*
X196600303Y-78504955D01*
X196586526Y-78680000D01*
X196606391Y-78932403D01*
X196607526Y-78937132D01*
X196607527Y-78937136D01*
X196664357Y-79173854D01*
X196664359Y-79173862D01*
X196665495Y-79178591D01*
X196762384Y-79412502D01*
X196764931Y-79416659D01*
X196764932Y-79416660D01*
X196892125Y-79624221D01*
X196892130Y-79624228D01*
X196894672Y-79628376D01*
X196897831Y-79632075D01*
X196897835Y-79632080D01*
X196951306Y-79694686D01*
X197059102Y-79820898D01*
X197062801Y-79824057D01*
X197062803Y-79824059D01*
X197099861Y-79855710D01*
X197131939Y-79898087D01*
X197143329Y-79950000D01*
X197131939Y-80001913D01*
X197099861Y-80044290D01*
X197062803Y-80075940D01*
X197062795Y-80075947D01*
X197059102Y-80079102D01*
X197055947Y-80082795D01*
X197055941Y-80082802D01*
X196897835Y-80267919D01*
X196897827Y-80267929D01*
X196894672Y-80271624D01*
X196892134Y-80275765D01*
X196892125Y-80275778D01*
X196764932Y-80483339D01*
X196764928Y-80483345D01*
X196762384Y-80487498D01*
X196760520Y-80491997D01*
X196760518Y-80492002D01*
X196669450Y-80711861D01*
X196665495Y-80721409D01*
X196664360Y-80726133D01*
X196664357Y-80726145D01*
X196607527Y-80962863D01*
X196607525Y-80962869D01*
X196606391Y-80967597D01*
X196606009Y-80972447D01*
X196606009Y-80972449D01*
X196596452Y-81093883D01*
X196586526Y-81220000D01*
X196586908Y-81224854D01*
X196587660Y-81234415D01*
X196606391Y-81472403D01*
X196607526Y-81477132D01*
X196607527Y-81477136D01*
X196664357Y-81713854D01*
X196664359Y-81713862D01*
X196665495Y-81718591D01*
X196762384Y-81952502D01*
X196764931Y-81956659D01*
X196764932Y-81956660D01*
X196892125Y-82164221D01*
X196892130Y-82164228D01*
X196894672Y-82168376D01*
X196897831Y-82172075D01*
X196897835Y-82172080D01*
X197019758Y-82314832D01*
X197059102Y-82360898D01*
X197062802Y-82364058D01*
X197062803Y-82364059D01*
X197099861Y-82395710D01*
X197131939Y-82438087D01*
X197143329Y-82490000D01*
X197131939Y-82541913D01*
X197099861Y-82584290D01*
X197062803Y-82615940D01*
X197062795Y-82615947D01*
X197059102Y-82619102D01*
X197055947Y-82622795D01*
X197055941Y-82622802D01*
X196897835Y-82807919D01*
X196897827Y-82807929D01*
X196894672Y-82811624D01*
X196892134Y-82815765D01*
X196892125Y-82815778D01*
X196764932Y-83023339D01*
X196764928Y-83023345D01*
X196762384Y-83027498D01*
X196760520Y-83031997D01*
X196760518Y-83032002D01*
X196671355Y-83247261D01*
X196665495Y-83261409D01*
X196664360Y-83266133D01*
X196664357Y-83266145D01*
X196607527Y-83502863D01*
X196607525Y-83502869D01*
X196606391Y-83507597D01*
X196606009Y-83512447D01*
X196606009Y-83512449D01*
X196590410Y-83710655D01*
X196586526Y-83760000D01*
X196606391Y-84012403D01*
X196607526Y-84017132D01*
X196607527Y-84017136D01*
X196664357Y-84253854D01*
X196664359Y-84253862D01*
X196665495Y-84258591D01*
X196762384Y-84492502D01*
X196764931Y-84496659D01*
X196764932Y-84496660D01*
X196892125Y-84704221D01*
X196892130Y-84704228D01*
X196894672Y-84708376D01*
X196897831Y-84712075D01*
X196897835Y-84712080D01*
X197019411Y-84854426D01*
X197059102Y-84900898D01*
X197099861Y-84935710D01*
X197131938Y-84978084D01*
X197143329Y-85029997D01*
X197131940Y-85081911D01*
X197099863Y-85124288D01*
X197063693Y-85155181D01*
X197059102Y-85159102D01*
X197055947Y-85162795D01*
X197055941Y-85162802D01*
X196897835Y-85347919D01*
X196897827Y-85347929D01*
X196894672Y-85351624D01*
X196892134Y-85355765D01*
X196892125Y-85355778D01*
X196764932Y-85563339D01*
X196764928Y-85563345D01*
X196762384Y-85567498D01*
X196760520Y-85571997D01*
X196760518Y-85572002D01*
X196667359Y-85796908D01*
X196665495Y-85801409D01*
X196664360Y-85806133D01*
X196664357Y-85806145D01*
X196607527Y-86042863D01*
X196607525Y-86042869D01*
X196606391Y-86047597D01*
X196586526Y-86300000D01*
X160462876Y-86300000D01*
X160493908Y-86197701D01*
X160513380Y-86000000D01*
X160493908Y-85802299D01*
X160436241Y-85612196D01*
X160342595Y-85436996D01*
X160314905Y-85403256D01*
X160286647Y-85368823D01*
X160265749Y-85331932D01*
X160258500Y-85290158D01*
X160258500Y-81564295D01*
X160259809Y-81546323D01*
X160259983Y-81545133D01*
X160263341Y-81522211D01*
X160258971Y-81472272D01*
X160258500Y-81461467D01*
X160258500Y-81459429D01*
X160258500Y-81455820D01*
X160254854Y-81424635D01*
X160254497Y-81421141D01*
X160247887Y-81345573D01*
X160245613Y-81338712D01*
X160244863Y-81335080D01*
X160244829Y-81334872D01*
X160244775Y-81334680D01*
X160243916Y-81331057D01*
X160243079Y-81323887D01*
X160217147Y-81252640D01*
X160215964Y-81249236D01*
X160212083Y-81237523D01*
X160192114Y-81177261D01*
X160188320Y-81171111D01*
X160186752Y-81167748D01*
X160186674Y-81167561D01*
X160186574Y-81167381D01*
X160184907Y-81164062D01*
X160182435Y-81157268D01*
X160178460Y-81151224D01*
X160140747Y-81093883D01*
X160138851Y-81090908D01*
X160099030Y-81026349D01*
X160093918Y-81021237D01*
X160091614Y-81018323D01*
X160091495Y-81018158D01*
X160091374Y-81018026D01*
X160088970Y-81015162D01*
X160085001Y-81009126D01*
X160029825Y-80957070D01*
X160027238Y-80954557D01*
X159038274Y-79965593D01*
X159013860Y-79930929D01*
X159002552Y-79890066D01*
X159000249Y-79866680D01*
X158993908Y-79802299D01*
X158936241Y-79612196D01*
X158842595Y-79436996D01*
X158716568Y-79283432D01*
X158563004Y-79157405D01*
X158536781Y-79143388D01*
X158393176Y-79066630D01*
X158393172Y-79066628D01*
X158387804Y-79063759D01*
X158381976Y-79061991D01*
X158203531Y-79007860D01*
X158203526Y-79007859D01*
X158197701Y-79006092D01*
X158191642Y-79005495D01*
X158191636Y-79005494D01*
X158006061Y-78987217D01*
X158000000Y-78986620D01*
X157993939Y-78987217D01*
X157808363Y-79005494D01*
X157808355Y-79005495D01*
X157802299Y-79006092D01*
X157796475Y-79007858D01*
X157796468Y-79007860D01*
X157618023Y-79061991D01*
X157618019Y-79061992D01*
X157612196Y-79063759D01*
X157606830Y-79066626D01*
X157606823Y-79066630D01*
X157442372Y-79154531D01*
X157442368Y-79154533D01*
X157436996Y-79157405D01*
X157432288Y-79161268D01*
X157432283Y-79161272D01*
X157288138Y-79279569D01*
X157288133Y-79279573D01*
X157283432Y-79283432D01*
X157279573Y-79288133D01*
X157279569Y-79288138D01*
X157161272Y-79432283D01*
X157161268Y-79432288D01*
X157157405Y-79436996D01*
X157154533Y-79442368D01*
X157154531Y-79442372D01*
X157066630Y-79606823D01*
X157066626Y-79606830D01*
X157063759Y-79612196D01*
X157061992Y-79618019D01*
X157061991Y-79618023D01*
X157007860Y-79796468D01*
X157007858Y-79796475D01*
X157006092Y-79802299D01*
X157005495Y-79808355D01*
X157005494Y-79808363D01*
X156990695Y-79958623D01*
X156986620Y-80000000D01*
X149835853Y-80000000D01*
X149706061Y-79987217D01*
X149700000Y-79986620D01*
X149693939Y-79987217D01*
X149508363Y-80005494D01*
X149508355Y-80005495D01*
X149502299Y-80006092D01*
X149496475Y-80007858D01*
X149496468Y-80007860D01*
X149318023Y-80061991D01*
X149318019Y-80061992D01*
X149312196Y-80063759D01*
X149306830Y-80066626D01*
X149306823Y-80066630D01*
X149142372Y-80154531D01*
X149142368Y-80154533D01*
X149136996Y-80157405D01*
X149132288Y-80161268D01*
X149132283Y-80161272D01*
X148988138Y-80279569D01*
X148988133Y-80279573D01*
X148983432Y-80283432D01*
X148979573Y-80288133D01*
X148979569Y-80288138D01*
X148861272Y-80432283D01*
X148861268Y-80432288D01*
X148857405Y-80436996D01*
X148854533Y-80442368D01*
X148854531Y-80442372D01*
X148766630Y-80606823D01*
X148766626Y-80606830D01*
X148763759Y-80612196D01*
X148761992Y-80618019D01*
X148761991Y-80618023D01*
X148707860Y-80796468D01*
X148707858Y-80796475D01*
X148706092Y-80802299D01*
X148705495Y-80808355D01*
X148705494Y-80808363D01*
X148692106Y-80944300D01*
X148686620Y-81000000D01*
X148687217Y-81006061D01*
X148705494Y-81191636D01*
X148705495Y-81191642D01*
X148706092Y-81197701D01*
X148707859Y-81203526D01*
X148707860Y-81203531D01*
X148761991Y-81381976D01*
X148763759Y-81387804D01*
X148766628Y-81393172D01*
X148766630Y-81393176D01*
X148835601Y-81522211D01*
X148857405Y-81563004D01*
X148861271Y-81567715D01*
X148861272Y-81567716D01*
X148963353Y-81692102D01*
X148984251Y-81728993D01*
X148991500Y-81770767D01*
X148991500Y-84755168D01*
X148982061Y-84802621D01*
X148955181Y-84842849D01*
X148642849Y-85155181D01*
X148602621Y-85182061D01*
X148555168Y-85191500D01*
X145265836Y-85191500D01*
X145208579Y-85177489D01*
X145164261Y-85138623D01*
X145122220Y-85078582D01*
X145106198Y-85055700D01*
X144944300Y-84893802D01*
X144939869Y-84890699D01*
X144939865Y-84890696D01*
X144764872Y-84768165D01*
X144756749Y-84762477D01*
X144751834Y-84760185D01*
X144554146Y-84668002D01*
X144554143Y-84668000D01*
X144549243Y-84665716D01*
X144544028Y-84664318D01*
X144544021Y-84664316D01*
X144333319Y-84607858D01*
X144333308Y-84607856D01*
X144328087Y-84606457D01*
X144322695Y-84605985D01*
X144322688Y-84605984D01*
X144105395Y-84586974D01*
X144100000Y-84586502D01*
X144094605Y-84586974D01*
X143877311Y-84605984D01*
X143877302Y-84605985D01*
X143871913Y-84606457D01*
X143866692Y-84607855D01*
X143866680Y-84607858D01*
X143655978Y-84664316D01*
X143655967Y-84664319D01*
X143650757Y-84665716D01*
X143645860Y-84667999D01*
X143645853Y-84668002D01*
X143448165Y-84760185D01*
X143448159Y-84760188D01*
X143443251Y-84762477D01*
X143438817Y-84765581D01*
X143438813Y-84765584D01*
X143260134Y-84890696D01*
X143260124Y-84890703D01*
X143255700Y-84893802D01*
X143251874Y-84897627D01*
X143251868Y-84897633D01*
X143097631Y-85051870D01*
X143097625Y-85051876D01*
X143093802Y-85055700D01*
X143090699Y-85060130D01*
X143090696Y-85060135D01*
X143035739Y-85138623D01*
X142991421Y-85177489D01*
X142934164Y-85191500D01*
X142111351Y-85191500D01*
X142047023Y-85173509D01*
X142001362Y-85124757D01*
X141987616Y-85059390D01*
X142009776Y-84996377D01*
X142034412Y-84961192D01*
X142034412Y-84961191D01*
X142037523Y-84956749D01*
X142134284Y-84749243D01*
X142193543Y-84528087D01*
X142213498Y-84300000D01*
X142193543Y-84071913D01*
X142178865Y-84017136D01*
X142135683Y-83855978D01*
X142135682Y-83855977D01*
X142134284Y-83850757D01*
X142037523Y-83643251D01*
X141906198Y-83455700D01*
X141744300Y-83293802D01*
X141739864Y-83290696D01*
X141735717Y-83287216D01*
X141736490Y-83286294D01*
X141702255Y-83247261D01*
X141688242Y-83190000D01*
X141702255Y-83132739D01*
X141736490Y-83093705D01*
X141735717Y-83092784D01*
X141739862Y-83089305D01*
X141744300Y-83086198D01*
X141906198Y-82924300D01*
X142037523Y-82736749D01*
X142134284Y-82529243D01*
X142193543Y-82308087D01*
X142213498Y-82080000D01*
X142193543Y-81851913D01*
X142160606Y-81728993D01*
X142135683Y-81635978D01*
X142135682Y-81635977D01*
X142134284Y-81630757D01*
X142037523Y-81423251D01*
X141906198Y-81235700D01*
X141744300Y-81073802D01*
X141739869Y-81070699D01*
X141739865Y-81070696D01*
X141687564Y-81034075D01*
X141647238Y-80986858D01*
X141634858Y-80926010D01*
X141653530Y-80866790D01*
X141698572Y-80824047D01*
X141758688Y-80808500D01*
X142934164Y-80808500D01*
X142991421Y-80822511D01*
X143035738Y-80861376D01*
X143093802Y-80944300D01*
X143255700Y-81106198D01*
X143443251Y-81237523D01*
X143650757Y-81334284D01*
X143655977Y-81335682D01*
X143655978Y-81335683D01*
X143866680Y-81392141D01*
X143866682Y-81392141D01*
X143871913Y-81393543D01*
X144100000Y-81413498D01*
X144328087Y-81393543D01*
X144549243Y-81334284D01*
X144756749Y-81237523D01*
X144944300Y-81106198D01*
X145106198Y-80944300D01*
X145237523Y-80756749D01*
X145334284Y-80549243D01*
X145393543Y-80328087D01*
X145413498Y-80100000D01*
X145393543Y-79871913D01*
X145389201Y-79855710D01*
X145335683Y-79655978D01*
X145335682Y-79655977D01*
X145334284Y-79650757D01*
X145237523Y-79443251D01*
X145141085Y-79305523D01*
X145109303Y-79260134D01*
X145109301Y-79260132D01*
X145106198Y-79255700D01*
X144944300Y-79093802D01*
X144939869Y-79090699D01*
X144939865Y-79090696D01*
X144761186Y-78965584D01*
X144761187Y-78965584D01*
X144756749Y-78962477D01*
X144692255Y-78932403D01*
X144554146Y-78868002D01*
X144554143Y-78868000D01*
X144549243Y-78865716D01*
X144544028Y-78864318D01*
X144544021Y-78864316D01*
X144333319Y-78807858D01*
X144333308Y-78807856D01*
X144328087Y-78806457D01*
X144322695Y-78805985D01*
X144322688Y-78805984D01*
X144105395Y-78786974D01*
X144100000Y-78786502D01*
X144094605Y-78786974D01*
X143877311Y-78805984D01*
X143877302Y-78805985D01*
X143871913Y-78806457D01*
X143866692Y-78807855D01*
X143866680Y-78807858D01*
X143655978Y-78864316D01*
X143655967Y-78864319D01*
X143650757Y-78865716D01*
X143645860Y-78867999D01*
X143645853Y-78868002D01*
X143448165Y-78960185D01*
X143448159Y-78960188D01*
X143443251Y-78962477D01*
X143438817Y-78965581D01*
X143438813Y-78965584D01*
X143260134Y-79090696D01*
X143260124Y-79090703D01*
X143255700Y-79093802D01*
X143251874Y-79097627D01*
X143251868Y-79097633D01*
X143097631Y-79251870D01*
X143097625Y-79251876D01*
X143093802Y-79255700D01*
X143090699Y-79260130D01*
X143090696Y-79260135D01*
X143035739Y-79338623D01*
X142991421Y-79377489D01*
X142934164Y-79391500D01*
X140944833Y-79391500D01*
X140897380Y-79382061D01*
X140857152Y-79355181D01*
X139544819Y-78042849D01*
X139517939Y-78002621D01*
X139508500Y-77955168D01*
X139508500Y-74160163D01*
X139508726Y-74152676D01*
X139511350Y-74109303D01*
X139512402Y-74091907D01*
X139501423Y-74032000D01*
X139500301Y-74024620D01*
X139500015Y-74022268D01*
X139492965Y-73964199D01*
X139489285Y-73954497D01*
X139483260Y-73932880D01*
X139482741Y-73930049D01*
X139481389Y-73922671D01*
X139456403Y-73867155D01*
X139453536Y-73860233D01*
X139434613Y-73810337D01*
X139431954Y-73803325D01*
X139426055Y-73794780D01*
X139415035Y-73775239D01*
X139410775Y-73765774D01*
X139373229Y-73717851D01*
X139368793Y-73711822D01*
X139338474Y-73667897D01*
X139338473Y-73667896D01*
X139334215Y-73661727D01*
X139288630Y-73621342D01*
X139283193Y-73616223D01*
X139094263Y-73427293D01*
X139063673Y-73376868D01*
X139060506Y-73328258D01*
X139058543Y-73328087D01*
X139078026Y-73105395D01*
X139078498Y-73100000D01*
X139058543Y-72871913D01*
X139030734Y-72768131D01*
X139000683Y-72655978D01*
X139000682Y-72655977D01*
X138999284Y-72650757D01*
X138921946Y-72484904D01*
X138910594Y-72424390D01*
X138929748Y-72365875D01*
X138974685Y-72323786D01*
X139034328Y-72308500D01*
X139558395Y-72308500D01*
X139625020Y-72327920D01*
X139670776Y-72380095D01*
X139762477Y-72576749D01*
X139765584Y-72581186D01*
X139890696Y-72759865D01*
X139890699Y-72759869D01*
X139893802Y-72764300D01*
X140055700Y-72926198D01*
X140060132Y-72929301D01*
X140060134Y-72929303D01*
X140079828Y-72943093D01*
X140243251Y-73057523D01*
X140450757Y-73154284D01*
X140455977Y-73155682D01*
X140455978Y-73155683D01*
X140666680Y-73212141D01*
X140666682Y-73212141D01*
X140671913Y-73213543D01*
X140900000Y-73233498D01*
X141128087Y-73213543D01*
X141349243Y-73154284D01*
X141556749Y-73057523D01*
X141744300Y-72926198D01*
X141906198Y-72764300D01*
X142037523Y-72576749D01*
X142134284Y-72369243D01*
X142193543Y-72148087D01*
X142213498Y-71920000D01*
X142193543Y-71691913D01*
X142155643Y-71550471D01*
X142135683Y-71475978D01*
X142135682Y-71475977D01*
X142134284Y-71470757D01*
X142037523Y-71263251D01*
X141906198Y-71075700D01*
X141744300Y-70913802D01*
X141739869Y-70910699D01*
X141739865Y-70910696D01*
X141561186Y-70785584D01*
X141561187Y-70785584D01*
X141556749Y-70782477D01*
X141524631Y-70767500D01*
X141354146Y-70688002D01*
X141354143Y-70688000D01*
X141349243Y-70685716D01*
X141344028Y-70684318D01*
X141344021Y-70684316D01*
X141133319Y-70627858D01*
X141133308Y-70627856D01*
X141128087Y-70626457D01*
X141122695Y-70625985D01*
X141122688Y-70625984D01*
X140905395Y-70606974D01*
X140900000Y-70606502D01*
X140894605Y-70606974D01*
X140677311Y-70625984D01*
X140677302Y-70625985D01*
X140671913Y-70626457D01*
X140666692Y-70627855D01*
X140666680Y-70627858D01*
X140455978Y-70684316D01*
X140455967Y-70684319D01*
X140450757Y-70685716D01*
X140445860Y-70687999D01*
X140445853Y-70688002D01*
X140248158Y-70780188D01*
X140248150Y-70780192D01*
X140243251Y-70782477D01*
X140238827Y-70785574D01*
X140238816Y-70785581D01*
X140119576Y-70869075D01*
X140085740Y-70885761D01*
X140048453Y-70891500D01*
X132932500Y-70891500D01*
X132870500Y-70874887D01*
X132825113Y-70829500D01*
X132808500Y-70767500D01*
X132808500Y-61125163D01*
X132808726Y-61117676D01*
X132811949Y-61064394D01*
X132812402Y-61056907D01*
X132801423Y-60997000D01*
X132800301Y-60989620D01*
X132793869Y-60936642D01*
X132793868Y-60936639D01*
X132792965Y-60929199D01*
X132789285Y-60919497D01*
X132783260Y-60897880D01*
X132782741Y-60895049D01*
X132781389Y-60887671D01*
X132756403Y-60832155D01*
X132753536Y-60825233D01*
X132734613Y-60775337D01*
X132731954Y-60768325D01*
X132726055Y-60759780D01*
X132715035Y-60740239D01*
X132710775Y-60730774D01*
X132673229Y-60682851D01*
X132668793Y-60676822D01*
X132638474Y-60632897D01*
X132638473Y-60632896D01*
X132634215Y-60626727D01*
X132588630Y-60586342D01*
X132583193Y-60581223D01*
X130237015Y-58235045D01*
X130208174Y-58189774D01*
X130201168Y-58136559D01*
X130213116Y-58000000D01*
X130194686Y-57789345D01*
X130139956Y-57585090D01*
X130050589Y-57393442D01*
X129929301Y-57220224D01*
X129779776Y-57070699D01*
X129606558Y-56949411D01*
X129419922Y-56862381D01*
X129367748Y-56816625D01*
X129348328Y-56750000D01*
X129367748Y-56683375D01*
X129419922Y-56637618D01*
X129606558Y-56550589D01*
X129779776Y-56429301D01*
X129929301Y-56279776D01*
X130050589Y-56106558D01*
X130139956Y-55914910D01*
X130194686Y-55710655D01*
X130213116Y-55500000D01*
X130194686Y-55289345D01*
X130139956Y-55085090D01*
X130050589Y-54893442D01*
X129929301Y-54720224D01*
X129779776Y-54570699D01*
X129606558Y-54449411D01*
X129592212Y-54442721D01*
X129419816Y-54362331D01*
X129419809Y-54362328D01*
X129414910Y-54360044D01*
X129409683Y-54358643D01*
X129409682Y-54358643D01*
X129215887Y-54306716D01*
X129210655Y-54305314D01*
X129205263Y-54304842D01*
X129205256Y-54304841D01*
X129005395Y-54287356D01*
X129000000Y-54286884D01*
X128994605Y-54287356D01*
X128794743Y-54304841D01*
X128794734Y-54304842D01*
X128789345Y-54305314D01*
X128784113Y-54306715D01*
X128784112Y-54306716D01*
X128590317Y-54358643D01*
X128590312Y-54358644D01*
X128585090Y-54360044D01*
X128580194Y-54362326D01*
X128580183Y-54362331D01*
X128398352Y-54447121D01*
X128398348Y-54447123D01*
X128393442Y-54449411D01*
X128389009Y-54452514D01*
X128389002Y-54452519D01*
X128224659Y-54567593D01*
X128224654Y-54567596D01*
X128220224Y-54570699D01*
X128216400Y-54574522D01*
X128216394Y-54574528D01*
X128074528Y-54716394D01*
X128074522Y-54716400D01*
X128070699Y-54720224D01*
X128067596Y-54724654D01*
X128067593Y-54724659D01*
X127952519Y-54889002D01*
X127952514Y-54889009D01*
X127949411Y-54893442D01*
X127947123Y-54898348D01*
X127947121Y-54898352D01*
X127862331Y-55080183D01*
X127862326Y-55080194D01*
X127860044Y-55085090D01*
X127805314Y-55289345D01*
X127804842Y-55294734D01*
X127804841Y-55294743D01*
X127787356Y-55494605D01*
X127786884Y-55500000D01*
X127787356Y-55505395D01*
X127804841Y-55705256D01*
X127804842Y-55705263D01*
X127805314Y-55710655D01*
X127860044Y-55914910D01*
X127862328Y-55919809D01*
X127862331Y-55919816D01*
X127942721Y-56092212D01*
X127949411Y-56106558D01*
X128070699Y-56279776D01*
X128220224Y-56429301D01*
X128393442Y-56550589D01*
X128560671Y-56628569D01*
X128580076Y-56637618D01*
X128632252Y-56683375D01*
X128651671Y-56750000D01*
X128632252Y-56816625D01*
X128580076Y-56862382D01*
X128398352Y-56947121D01*
X128398348Y-56947123D01*
X128393442Y-56949411D01*
X128389009Y-56952514D01*
X128389002Y-56952519D01*
X128224659Y-57067593D01*
X128224654Y-57067596D01*
X128220224Y-57070699D01*
X128216400Y-57074522D01*
X128216394Y-57074528D01*
X128074528Y-57216394D01*
X128074522Y-57216400D01*
X128070699Y-57220224D01*
X128067596Y-57224654D01*
X128067593Y-57224659D01*
X127952519Y-57389002D01*
X127952514Y-57389009D01*
X127949411Y-57393442D01*
X127947123Y-57398348D01*
X127947121Y-57398352D01*
X127862331Y-57580183D01*
X127862326Y-57580194D01*
X127860044Y-57585090D01*
X127805314Y-57789345D01*
X127804842Y-57794734D01*
X127804841Y-57794743D01*
X127787356Y-57994605D01*
X127786884Y-58000000D01*
X127787356Y-58005394D01*
X127787356Y-58005395D01*
X127804841Y-58205256D01*
X127804842Y-58205263D01*
X127805314Y-58210655D01*
X127860044Y-58414910D01*
X127862328Y-58419809D01*
X127862331Y-58419816D01*
X127942721Y-58592212D01*
X127949411Y-58606558D01*
X128070699Y-58779776D01*
X128220224Y-58929301D01*
X128393442Y-59050589D01*
X128560671Y-59128569D01*
X128580076Y-59137618D01*
X128632252Y-59183375D01*
X128651671Y-59250000D01*
X128632252Y-59316625D01*
X128580076Y-59362382D01*
X128398352Y-59447121D01*
X128398348Y-59447123D01*
X128393442Y-59449411D01*
X128389009Y-59452514D01*
X128389002Y-59452519D01*
X128224659Y-59567593D01*
X128224654Y-59567596D01*
X128220224Y-59570699D01*
X128216400Y-59574522D01*
X128216394Y-59574528D01*
X128074528Y-59716394D01*
X128074522Y-59716400D01*
X128070699Y-59720224D01*
X128067596Y-59724654D01*
X128067593Y-59724659D01*
X127952519Y-59889002D01*
X127952514Y-59889009D01*
X127949411Y-59893442D01*
X127947123Y-59898348D01*
X127947121Y-59898352D01*
X127862331Y-60080183D01*
X127862326Y-60080194D01*
X127860044Y-60085090D01*
X127858644Y-60090312D01*
X127858643Y-60090317D01*
X127807433Y-60281437D01*
X127805314Y-60289345D01*
X127804842Y-60294734D01*
X127804841Y-60294743D01*
X127790851Y-60454653D01*
X127786884Y-60500000D01*
X127787356Y-60505395D01*
X127804841Y-60705256D01*
X127804842Y-60705263D01*
X127805314Y-60710655D01*
X127860044Y-60914910D01*
X127862328Y-60919809D01*
X127862331Y-60919816D01*
X127942721Y-61092212D01*
X127949411Y-61106558D01*
X128070699Y-61279776D01*
X128220224Y-61429301D01*
X128393442Y-61550589D01*
X128401428Y-61554312D01*
X128403156Y-61555119D01*
X128453551Y-61598162D01*
X128474579Y-61661012D01*
X128460234Y-61725715D01*
X128414613Y-61773789D01*
X128350749Y-61791500D01*
X128251362Y-61791500D01*
X128248082Y-61791852D01*
X128248075Y-61791853D01*
X128198505Y-61797182D01*
X128198500Y-61797182D01*
X128190799Y-61798011D01*
X128183543Y-61800717D01*
X128183536Y-61800719D01*
X128062105Y-61846011D01*
X128062099Y-61846013D01*
X128053796Y-61849111D01*
X128046698Y-61854423D01*
X128046695Y-61854426D01*
X127943835Y-61931426D01*
X127943831Y-61931429D01*
X127936739Y-61936739D01*
X127931429Y-61943831D01*
X127931426Y-61943835D01*
X127854426Y-62046695D01*
X127854423Y-62046698D01*
X127849111Y-62053796D01*
X127846013Y-62062099D01*
X127846011Y-62062105D01*
X127800719Y-62183536D01*
X127800717Y-62183543D01*
X127798011Y-62190799D01*
X127797182Y-62198500D01*
X127797182Y-62198505D01*
X127791853Y-62248075D01*
X127791500Y-62251362D01*
X127791500Y-63748638D01*
X127791852Y-63751918D01*
X127791853Y-63751924D01*
X127796171Y-63792092D01*
X127798011Y-63809201D01*
X127800717Y-63816458D01*
X127800719Y-63816463D01*
X127846011Y-63937894D01*
X127849111Y-63946204D01*
X127936739Y-64063261D01*
X128053796Y-64150889D01*
X128190799Y-64201989D01*
X128251362Y-64208500D01*
X128254672Y-64208500D01*
X129658457Y-64208500D01*
X129713551Y-64221412D01*
X129757172Y-64257458D01*
X129780235Y-64309132D01*
X129777948Y-64365402D01*
X129775669Y-64371125D01*
X129745740Y-64553683D01*
X129755755Y-64738407D01*
X129757552Y-64744882D01*
X129757553Y-64744883D01*
X129803446Y-64910179D01*
X129803448Y-64910186D01*
X129805246Y-64916659D01*
X129808392Y-64922594D01*
X129808395Y-64922600D01*
X129888750Y-65074164D01*
X129888753Y-65074169D01*
X129891900Y-65080104D01*
X129896248Y-65085224D01*
X129896251Y-65085227D01*
X129983432Y-65187864D01*
X130011663Y-65221100D01*
X130158936Y-65333054D01*
X130326833Y-65410732D01*
X130507503Y-65450500D01*
X130642754Y-65450500D01*
X130646113Y-65450500D01*
X130783910Y-65435514D01*
X130959221Y-65376444D01*
X131117736Y-65281070D01*
X131182226Y-65219981D01*
X131231746Y-65191272D01*
X131288886Y-65187864D01*
X131341468Y-65210483D01*
X131378288Y-65254310D01*
X131391500Y-65310006D01*
X131391500Y-71474837D01*
X131391274Y-71482324D01*
X131388050Y-71535605D01*
X131388050Y-71535612D01*
X131387598Y-71543093D01*
X131388949Y-71550470D01*
X131388950Y-71550471D01*
X131389469Y-71553303D01*
X131391500Y-71575654D01*
X131391500Y-72555168D01*
X131382061Y-72602621D01*
X131355181Y-72642849D01*
X128516804Y-75481224D01*
X128511353Y-75486356D01*
X128465785Y-75526727D01*
X128461527Y-75532894D01*
X128461522Y-75532901D01*
X128431201Y-75576827D01*
X128426765Y-75582855D01*
X128393853Y-75624865D01*
X128393848Y-75624872D01*
X128389225Y-75630774D01*
X128386148Y-75637608D01*
X128386146Y-75637613D01*
X128384963Y-75640243D01*
X128373949Y-75659771D01*
X128372305Y-75662153D01*
X128372302Y-75662158D01*
X128368046Y-75668325D01*
X128365389Y-75675328D01*
X128365387Y-75675334D01*
X128346457Y-75725246D01*
X128343593Y-75732161D01*
X128321685Y-75780839D01*
X128321683Y-75780844D01*
X128318611Y-75787671D01*
X128317261Y-75795033D01*
X128317257Y-75795048D01*
X128316737Y-75797890D01*
X128310715Y-75819493D01*
X128309695Y-75822182D01*
X128309693Y-75822188D01*
X128307035Y-75829199D01*
X128306131Y-75836640D01*
X128306131Y-75836642D01*
X128299696Y-75889632D01*
X128298569Y-75897032D01*
X128288950Y-75949525D01*
X128288949Y-75949530D01*
X128287598Y-75956907D01*
X128288050Y-75964386D01*
X128288050Y-75964394D01*
X128291274Y-76017676D01*
X128291500Y-76025163D01*
X128291500Y-77456241D01*
X128277489Y-77513498D01*
X128238623Y-77557816D01*
X128224659Y-77567593D01*
X128224654Y-77567596D01*
X128220224Y-77570699D01*
X128216400Y-77574522D01*
X128216394Y-77574528D01*
X128074528Y-77716394D01*
X128074522Y-77716400D01*
X128070699Y-77720224D01*
X128067596Y-77724654D01*
X128067593Y-77724659D01*
X128057816Y-77738623D01*
X128013498Y-77777489D01*
X127956241Y-77791500D01*
X127925169Y-77791500D01*
X127917682Y-77791274D01*
X127864396Y-77788050D01*
X127864388Y-77788050D01*
X127856908Y-77787598D01*
X127849532Y-77788949D01*
X127849523Y-77788950D01*
X127797030Y-77798569D01*
X127789631Y-77799696D01*
X127736642Y-77806131D01*
X127736640Y-77806131D01*
X127729199Y-77807035D01*
X127722188Y-77809693D01*
X127722182Y-77809695D01*
X127719493Y-77810715D01*
X127697890Y-77816737D01*
X127695048Y-77817257D01*
X127695033Y-77817261D01*
X127687671Y-77818611D01*
X127680844Y-77821683D01*
X127680839Y-77821685D01*
X127632161Y-77843593D01*
X127625246Y-77846457D01*
X127575334Y-77865387D01*
X127575328Y-77865389D01*
X127568325Y-77868046D01*
X127562158Y-77872302D01*
X127562153Y-77872305D01*
X127559771Y-77873949D01*
X127540243Y-77884963D01*
X127537613Y-77886146D01*
X127537608Y-77886148D01*
X127530774Y-77889225D01*
X127524872Y-77893848D01*
X127524865Y-77893853D01*
X127482855Y-77926765D01*
X127476827Y-77931201D01*
X127432901Y-77961522D01*
X127432894Y-77961527D01*
X127426727Y-77965785D01*
X127421754Y-77971397D01*
X127421754Y-77971398D01*
X127386356Y-78011353D01*
X127381224Y-78016804D01*
X126725181Y-78672848D01*
X126675818Y-78703098D01*
X126618102Y-78707640D01*
X126564615Y-78685485D01*
X126527015Y-78641462D01*
X126513500Y-78585167D01*
X126513500Y-43264060D01*
X126522939Y-43216607D01*
X126549819Y-43176379D01*
X130176379Y-39549819D01*
X130216607Y-39522939D01*
X130264060Y-39513500D01*
X157367500Y-39513500D01*
X157429500Y-39530113D01*
G37*
%TD.AperFunction*%
%TD*%
%TA.AperFunction,Conductor*%
%TO.N,Earth_Clean*%
G36*
X211937500Y-35017113D02*
G01*
X211982887Y-35062500D01*
X211999500Y-35124500D01*
X211999500Y-43000000D01*
X211999500Y-114875500D01*
X211982887Y-114937500D01*
X211937500Y-114982887D01*
X211875500Y-114999500D01*
X122124500Y-114999500D01*
X122062500Y-114982887D01*
X122017113Y-114937500D01*
X122000500Y-114875500D01*
X122000500Y-107000000D01*
X126000000Y-107000000D01*
X130000000Y-111000000D01*
X130012211Y-111000000D01*
X176983674Y-111000000D01*
X177000000Y-111000000D01*
X177000000Y-107124000D01*
X177016613Y-107062000D01*
X177062000Y-107016613D01*
X177124000Y-107000000D01*
X186876000Y-107000000D01*
X186938000Y-107016613D01*
X186983387Y-107062000D01*
X187000000Y-107124000D01*
X187000000Y-111000000D01*
X187016326Y-111000000D01*
X208983674Y-111000000D01*
X209000000Y-111000000D01*
X209000000Y-43999784D01*
X208000000Y-43000000D01*
X204000000Y-39000000D01*
X203987789Y-39000000D01*
X130012211Y-39000000D01*
X130000000Y-39000000D01*
X129991364Y-39008635D01*
X129991361Y-39008638D01*
X126008638Y-42991361D01*
X126008635Y-42991364D01*
X126000000Y-43000000D01*
X126000000Y-107000000D01*
X122000500Y-107000000D01*
X122000500Y-35124500D01*
X122017113Y-35062500D01*
X122062500Y-35017113D01*
X122124500Y-35000500D01*
X211875500Y-35000500D01*
X211937500Y-35017113D01*
G37*
%TD.AperFunction*%
%TD*%
%TA.AperFunction,Conductor*%
%TO.N,+BATT*%
G36*
X203783393Y-39522939D02*
G01*
X203823621Y-39549819D01*
X207636800Y-43362998D01*
X207636940Y-43363139D01*
X208450172Y-44176195D01*
X208477058Y-44216427D01*
X208486500Y-44263886D01*
X208486500Y-71876000D01*
X208469887Y-71938000D01*
X208424500Y-71983387D01*
X208362500Y-72000000D01*
X170500000Y-72000000D01*
X170491364Y-72008635D01*
X170491361Y-72008638D01*
X169948901Y-72551097D01*
X169891350Y-72583700D01*
X169825226Y-72582077D01*
X169761518Y-72562752D01*
X169761511Y-72562750D01*
X169755684Y-72560983D01*
X169749625Y-72560386D01*
X169749619Y-72560385D01*
X169564044Y-72542108D01*
X169557983Y-72541511D01*
X169551922Y-72542108D01*
X169366346Y-72560385D01*
X169366338Y-72560386D01*
X169360282Y-72560983D01*
X169354458Y-72562749D01*
X169354451Y-72562751D01*
X169176006Y-72616882D01*
X169176002Y-72616883D01*
X169170179Y-72618650D01*
X169164813Y-72621517D01*
X169164806Y-72621521D01*
X169000355Y-72709422D01*
X169000351Y-72709424D01*
X168994979Y-72712296D01*
X168990271Y-72716159D01*
X168990266Y-72716163D01*
X168846121Y-72834460D01*
X168846116Y-72834464D01*
X168841415Y-72838323D01*
X168837556Y-72843024D01*
X168837552Y-72843029D01*
X168719255Y-72987174D01*
X168719251Y-72987179D01*
X168715388Y-72991887D01*
X168712516Y-72997259D01*
X168712514Y-72997263D01*
X168624611Y-73161718D01*
X168624608Y-73161724D01*
X168621742Y-73167087D01*
X168621654Y-73167374D01*
X168596389Y-73205185D01*
X168556162Y-73232062D01*
X168508711Y-73241500D01*
X161564296Y-73241500D01*
X161546325Y-73240191D01*
X161529360Y-73237706D01*
X161529358Y-73237705D01*
X161522211Y-73236659D01*
X161515019Y-73237288D01*
X161515013Y-73237288D01*
X161477121Y-73240603D01*
X161472272Y-73241028D01*
X161461467Y-73241500D01*
X161455820Y-73241500D01*
X161452258Y-73241916D01*
X161452246Y-73241917D01*
X161424682Y-73245139D01*
X161421096Y-73245505D01*
X161352768Y-73251483D01*
X161352763Y-73251483D01*
X161345574Y-73252113D01*
X161338721Y-73254382D01*
X161335035Y-73255144D01*
X161334866Y-73255171D01*
X161334708Y-73255216D01*
X161331050Y-73256083D01*
X161323887Y-73256921D01*
X161317108Y-73259388D01*
X161317109Y-73259388D01*
X161252651Y-73282848D01*
X161249249Y-73284030D01*
X161184122Y-73305611D01*
X161184108Y-73305617D01*
X161177262Y-73307886D01*
X161174549Y-73309558D01*
X161115889Y-73320562D01*
X161057374Y-73301408D01*
X161015286Y-73256470D01*
X161000000Y-73196828D01*
X161000000Y-71016326D01*
X161000000Y-71000000D01*
X160983674Y-71000000D01*
X159624000Y-71000000D01*
X159562000Y-70983387D01*
X159516613Y-70938000D01*
X159500000Y-70876000D01*
X159500000Y-60632500D01*
X159516613Y-60570500D01*
X159562000Y-60525113D01*
X159624000Y-60508500D01*
X179325425Y-60508500D01*
X179387425Y-60525113D01*
X179432811Y-60570499D01*
X179482175Y-60656000D01*
X179484334Y-60658900D01*
X179689296Y-60934213D01*
X179689302Y-60934220D01*
X179691449Y-60937104D01*
X179931943Y-61192012D01*
X180200403Y-61417278D01*
X180493200Y-61609853D01*
X180806374Y-61767135D01*
X181135690Y-61886996D01*
X181476694Y-61967816D01*
X181824775Y-62008500D01*
X182171626Y-62008500D01*
X182175225Y-62008500D01*
X182523306Y-61967816D01*
X182864310Y-61886996D01*
X183193626Y-61767135D01*
X183506800Y-61609853D01*
X183799597Y-61417278D01*
X184068057Y-61192012D01*
X184308551Y-60937104D01*
X184517825Y-60656000D01*
X184693050Y-60352501D01*
X184831857Y-60030712D01*
X184932367Y-59694984D01*
X184993222Y-59349857D01*
X185013599Y-59000000D01*
X184993222Y-58650143D01*
X184932367Y-58305016D01*
X184831857Y-57969288D01*
X184693050Y-57647499D01*
X184593393Y-57474887D01*
X184519633Y-57347131D01*
X184519630Y-57347127D01*
X184517825Y-57344000D01*
X184308551Y-57062896D01*
X184068057Y-56807988D01*
X183977877Y-56732318D01*
X183802353Y-56585034D01*
X183802346Y-56585029D01*
X183799597Y-56582722D01*
X183506800Y-56390147D01*
X183503571Y-56388525D01*
X183503567Y-56388523D01*
X183196863Y-56234490D01*
X183196853Y-56234485D01*
X183193626Y-56232865D01*
X183190235Y-56231630D01*
X183190224Y-56231626D01*
X182867697Y-56114236D01*
X182867685Y-56114232D01*
X182864310Y-56113004D01*
X182860819Y-56112176D01*
X182860807Y-56112173D01*
X182526801Y-56033012D01*
X182526795Y-56033011D01*
X182523306Y-56032184D01*
X182519748Y-56031768D01*
X182519736Y-56031766D01*
X182178795Y-55991917D01*
X182178790Y-55991916D01*
X182175225Y-55991500D01*
X181824775Y-55991500D01*
X181821210Y-55991916D01*
X181821204Y-55991917D01*
X181480263Y-56031766D01*
X181480248Y-56031768D01*
X181476694Y-56032184D01*
X181473207Y-56033010D01*
X181473198Y-56033012D01*
X181139192Y-56112173D01*
X181139175Y-56112177D01*
X181135690Y-56113004D01*
X181132319Y-56114230D01*
X181132302Y-56114236D01*
X180809775Y-56231626D01*
X180809758Y-56231633D01*
X180806374Y-56232865D01*
X180803152Y-56234482D01*
X180803136Y-56234490D01*
X180496432Y-56388523D01*
X180496420Y-56388529D01*
X180493200Y-56390147D01*
X180490186Y-56392128D01*
X180490183Y-56392131D01*
X180203405Y-56580747D01*
X180203398Y-56580751D01*
X180200403Y-56582722D01*
X180197660Y-56585022D01*
X180197646Y-56585034D01*
X179934706Y-56805669D01*
X179934700Y-56805674D01*
X179931943Y-56807988D01*
X179929470Y-56810608D01*
X179929467Y-56810612D01*
X179693923Y-57060273D01*
X179693917Y-57060279D01*
X179691449Y-57062896D01*
X179689309Y-57065770D01*
X179689296Y-57065786D01*
X179484334Y-57341099D01*
X179484328Y-57341107D01*
X179482175Y-57344000D01*
X179480369Y-57347127D01*
X179480367Y-57347131D01*
X179432812Y-57429500D01*
X179387425Y-57474887D01*
X179325425Y-57491500D01*
X160632500Y-57491500D01*
X160570500Y-57474887D01*
X160525113Y-57429500D01*
X160508500Y-57367500D01*
X160508500Y-46624000D01*
X160525113Y-46562000D01*
X160570500Y-46516613D01*
X160632500Y-46500000D01*
X169483674Y-46500000D01*
X169500000Y-46500000D01*
X169500000Y-39637500D01*
X169516613Y-39575500D01*
X169562000Y-39530113D01*
X169624000Y-39513500D01*
X203735940Y-39513500D01*
X203783393Y-39522939D01*
G37*
%TD.AperFunction*%
%TD*%
M02*
