%TF.GenerationSoftware,KiCad,Pcbnew,(7.0.0)*%
%TF.CreationDate,2023-05-03T12:28:25+03:00*%
%TF.ProjectId,MotorDriverDualHalfBridge,4d6f746f-7244-4726-9976-65724475616c,rev?*%
%TF.SameCoordinates,Original*%
%TF.FileFunction,Copper,L2,Bot*%
%TF.FilePolarity,Positive*%
%FSLAX46Y46*%
G04 Gerber Fmt 4.6, Leading zero omitted, Abs format (unit mm)*
G04 Created by KiCad (PCBNEW (7.0.0)) date 2023-05-03 12:28:25*
%MOMM*%
%LPD*%
G01*
G04 APERTURE LIST*
%TA.AperFunction,ComponentPad*%
%ADD10C,1.400000*%
%TD*%
%TA.AperFunction,ComponentPad*%
%ADD11R,1.400000X1.400000*%
%TD*%
%TA.AperFunction,ComponentPad*%
%ADD12C,5.000000*%
%TD*%
%TA.AperFunction,ComponentPad*%
%ADD13O,1.600000X1.600000*%
%TD*%
%TA.AperFunction,ComponentPad*%
%ADD14C,1.600000*%
%TD*%
%TA.AperFunction,ComponentPad*%
%ADD15R,1.600000X1.600000*%
%TD*%
%TA.AperFunction,ComponentPad*%
%ADD16C,2.200000*%
%TD*%
%TA.AperFunction,ViaPad*%
%ADD17C,0.800000*%
%TD*%
%TA.AperFunction,ViaPad*%
%ADD18C,1.200000*%
%TD*%
%TA.AperFunction,ViaPad*%
%ADD19C,1.000000*%
%TD*%
%TA.AperFunction,Conductor*%
%ADD20C,1.000000*%
%TD*%
%TA.AperFunction,Conductor*%
%ADD21C,0.500000*%
%TD*%
%TA.AperFunction,Conductor*%
%ADD22C,0.400000*%
%TD*%
%TA.AperFunction,Conductor*%
%ADD23C,2.000000*%
%TD*%
G04 APERTURE END LIST*
D10*
%TO.P,J6,4,Pin_4*%
%TO.N,GND*%
X129000000Y-55500000D03*
%TO.P,J6,3,Pin_3*%
X129000000Y-58000000D03*
%TO.P,J6,2,Pin_2*%
%TO.N,+12V*%
X129000000Y-60500000D03*
D11*
%TO.P,J6,1,Pin_1*%
X128999999Y-62999999D03*
%TD*%
D10*
%TO.P,J7,4,Pin_4*%
%TO.N,GND*%
X129000000Y-78500000D03*
%TO.P,J7,3,Pin_3*%
%TO.N,H_{IN}*%
X129000000Y-81000000D03*
%TO.P,J7,2,Pin_2*%
%TO.N,L_{IN}*%
X129000000Y-83500000D03*
D11*
%TO.P,J7,1,Pin_1*%
%TO.N,+12V*%
X128999999Y-85999999D03*
%TD*%
D12*
%TO.P,H4,1,1*%
%TO.N,Earth_Clean*%
X182000000Y-111000000D03*
%TD*%
D13*
%TO.P,R8,2*%
%TO.N,GND*%
X140899999Y-84299999D03*
D14*
%TO.P,R8,1*%
%TO.N,Net-(R8-Pad1)*%
X140900000Y-94460000D03*
%TD*%
D13*
%TO.P,U3,4*%
%TO.N,+BATT*%
X134959999Y-85419999D03*
%TO.P,U3,3*%
%TO.N,L_{IN}_{_ISO}*%
X137499999Y-85419999D03*
%TO.P,U3,2*%
%TO.N,Net-(R8-Pad1)*%
X137499999Y-93039999D03*
D15*
%TO.P,U3,1*%
%TO.N,L_{IN}*%
X134959999Y-93039999D03*
%TD*%
D16*
%TO.P,J1,16,Pin_1*%
%TO.N,/LOAD*%
X205820000Y-78680000D03*
%TO.P,J1,15,Pin_1*%
X203280000Y-78680000D03*
%TO.P,J1,14,e*%
X200740000Y-78680000D03*
%TO.P,J1,13*%
X198200000Y-78680000D03*
%TO.P,J1,12*%
X205820000Y-81220000D03*
%TO.P,J1,11,11*%
X203280000Y-81220000D03*
%TO.P,J1,10,e*%
X200740000Y-81220000D03*
%TO.P,J1,9*%
X198200000Y-81220000D03*
%TO.P,J1,8*%
X205820000Y-83760000D03*
%TO.P,J1,7*%
X203280000Y-83760000D03*
%TO.P,J1,6,e*%
X200740000Y-83760000D03*
%TO.P,J1,5*%
X198200000Y-83760000D03*
%TO.P,J1,4*%
X205820000Y-86300000D03*
%TO.P,J1,3*%
X203280000Y-86300000D03*
%TO.P,J1,2*%
X200740000Y-86300000D03*
%TO.P,J1,1,Pin_1*%
X198200000Y-86300000D03*
%TD*%
D13*
%TO.P,R6,2*%
%TO.N,GNDPWR*%
X144099999Y-69939999D03*
D14*
%TO.P,R6,1*%
%TO.N,H_{IN}_{_ISO}*%
X144100000Y-80100000D03*
%TD*%
D16*
%TO.P,J4,16,Pin_1*%
%TO.N,+BATT*%
X189820000Y-42680000D03*
%TO.P,J4,15,Pin_1*%
X187280000Y-42680000D03*
%TO.P,J4,14,e*%
X184740000Y-42680000D03*
%TO.P,J4,13*%
X182200000Y-42680000D03*
%TO.P,J4,12*%
X189820000Y-45220000D03*
%TO.P,J4,11,11*%
X187280000Y-45220000D03*
%TO.P,J4,10,e*%
X184740000Y-45220000D03*
%TO.P,J4,9*%
X182200000Y-45220000D03*
%TO.P,J4,8*%
X189820000Y-47760000D03*
%TO.P,J4,7*%
X187280000Y-47760000D03*
%TO.P,J4,6,e*%
X184740000Y-47760000D03*
%TO.P,J4,5*%
X182200000Y-47760000D03*
%TO.P,J4,4*%
X189820000Y-50300000D03*
%TO.P,J4,3*%
X187280000Y-50300000D03*
%TO.P,J4,2*%
X184740000Y-50300000D03*
%TO.P,J4,1,Pin_1*%
X182200000Y-50300000D03*
%TD*%
%TO.P,J5,16,Pin_1*%
%TO.N,GNDPWR*%
X149820000Y-42680000D03*
%TO.P,J5,15,Pin_1*%
X147280000Y-42680000D03*
%TO.P,J5,14,e*%
X144740000Y-42680000D03*
%TO.P,J5,13*%
X142200000Y-42680000D03*
%TO.P,J5,12*%
X149820000Y-45220000D03*
%TO.P,J5,11,11*%
X147280000Y-45220000D03*
%TO.P,J5,10,e*%
X144740000Y-45220000D03*
%TO.P,J5,9*%
X142200000Y-45220000D03*
%TO.P,J5,8*%
X149820000Y-47760000D03*
%TO.P,J5,7*%
X147280000Y-47760000D03*
%TO.P,J5,6,e*%
X144740000Y-47760000D03*
%TO.P,J5,5*%
X142200000Y-47760000D03*
%TO.P,J5,4*%
X149820000Y-50300000D03*
%TO.P,J5,3*%
X147280000Y-50300000D03*
%TO.P,J5,2*%
X144740000Y-50300000D03*
%TO.P,J5,1,Pin_1*%
X142200000Y-50300000D03*
%TD*%
%TO.P,J3,16,Pin_1*%
%TO.N,+BATT*%
X205820000Y-58680000D03*
%TO.P,J3,15,Pin_1*%
X203280000Y-58680000D03*
%TO.P,J3,14,e*%
X200740000Y-58680000D03*
%TO.P,J3,13*%
X198200000Y-58680000D03*
%TO.P,J3,12*%
X205820000Y-61220000D03*
%TO.P,J3,11,11*%
X203280000Y-61220000D03*
%TO.P,J3,10,e*%
X200740000Y-61220000D03*
%TO.P,J3,9*%
X198200000Y-61220000D03*
%TO.P,J3,8*%
X205820000Y-63760000D03*
%TO.P,J3,7*%
X203280000Y-63760000D03*
%TO.P,J3,6,e*%
X200740000Y-63760000D03*
%TO.P,J3,5*%
X198200000Y-63760000D03*
%TO.P,J3,4*%
X205820000Y-66300000D03*
%TO.P,J3,3*%
X203280000Y-66300000D03*
%TO.P,J3,2*%
X200740000Y-66300000D03*
%TO.P,J3,1,Pin_1*%
X198200000Y-66300000D03*
%TD*%
D12*
%TO.P,H3,1,1*%
%TO.N,Earth_Clean*%
X126000000Y-111000000D03*
%TD*%
%TO.P,H1,1,1*%
%TO.N,Earth_Clean*%
X126000000Y-39000000D03*
%TD*%
D13*
%TO.P,R7,2*%
%TO.N,GND*%
X140899999Y-71919999D03*
D14*
%TO.P,R7,1*%
%TO.N,Net-(R7-Pad1)*%
X140900000Y-82080000D03*
%TD*%
D13*
%TO.P,R9,2*%
%TO.N,GNDPWR*%
X144099999Y-96059999D03*
D14*
%TO.P,R9,1*%
%TO.N,L_{IN}_{_ISO}*%
X144100000Y-85900000D03*
%TD*%
D16*
%TO.P,J2,16,Pin_1*%
%TO.N,GNDPWR*%
X205820000Y-98680000D03*
%TO.P,J2,15,Pin_1*%
X203280000Y-98680000D03*
%TO.P,J2,14,e*%
X200740000Y-98680000D03*
%TO.P,J2,13*%
X198200000Y-98680000D03*
%TO.P,J2,12*%
X205820000Y-101220000D03*
%TO.P,J2,11,11*%
X203280000Y-101220000D03*
%TO.P,J2,10,e*%
X200740000Y-101220000D03*
%TO.P,J2,9*%
X198200000Y-101220000D03*
%TO.P,J2,8*%
X205820000Y-103760000D03*
%TO.P,J2,7*%
X203280000Y-103760000D03*
%TO.P,J2,6,e*%
X200740000Y-103760000D03*
%TO.P,J2,5*%
X198200000Y-103760000D03*
%TO.P,J2,4*%
X205820000Y-106300000D03*
%TO.P,J2,3*%
X203280000Y-106300000D03*
%TO.P,J2,2*%
X200740000Y-106300000D03*
%TO.P,J2,1,Pin_1*%
X198200000Y-106300000D03*
%TD*%
D12*
%TO.P,H2,1,1*%
%TO.N,Earth_Clean*%
X208000000Y-39000000D03*
%TD*%
%TO.P,H5,1,1*%
%TO.N,Earth_Clean*%
X182000000Y-59000000D03*
%TD*%
D13*
%TO.P,U2,4*%
%TO.N,+BATT*%
X135224999Y-73099999D03*
%TO.P,U2,3*%
%TO.N,H_{IN}_{_ISO}*%
X137764999Y-73099999D03*
%TO.P,U2,2*%
%TO.N,Net-(R7-Pad1)*%
X137764999Y-80719999D03*
D15*
%TO.P,U2,1*%
%TO.N,H_{IN}*%
X135224999Y-80719999D03*
%TD*%
D17*
%TO.N,GNDPWR*%
X195066526Y-104950000D03*
X195066526Y-97950000D03*
X188066526Y-104950000D03*
X188066526Y-97950000D03*
X181066526Y-104950000D03*
X181066526Y-97950000D03*
X174066526Y-104950000D03*
X174066526Y-97950000D03*
X167066526Y-104950000D03*
X167066526Y-97950000D03*
X160066526Y-104950000D03*
X153066526Y-104950000D03*
X153066526Y-97950000D03*
X153066526Y-90950000D03*
X153066526Y-76950000D03*
X153066526Y-69950000D03*
X153066526Y-62950000D03*
X153066526Y-55950000D03*
X153066526Y-48950000D03*
X153066526Y-41950000D03*
X146066526Y-104950000D03*
X146066526Y-97950000D03*
X146066526Y-90950000D03*
X146066526Y-76950000D03*
X146066526Y-69950000D03*
X146066526Y-62950000D03*
X146066526Y-55950000D03*
X139066526Y-104950000D03*
X139066526Y-97950000D03*
X139066526Y-90950000D03*
X139066526Y-69950000D03*
X139066526Y-48950000D03*
X139066526Y-41950000D03*
X132066526Y-104950000D03*
X132066526Y-97950000D03*
X132066526Y-90950000D03*
X132066526Y-48950000D03*
X132066526Y-41950000D03*
%TO.N,+BATT*%
X208066526Y-59950000D03*
X203066526Y-49950000D03*
X198066526Y-69950000D03*
X193066526Y-59950000D03*
X193066526Y-44950000D03*
X183066526Y-64950000D03*
X178066526Y-54950000D03*
X173066526Y-69950000D03*
X173066526Y-44950000D03*
X163066526Y-64950000D03*
X163066526Y-49950000D03*
%TO.N,/LOAD*%
X204426526Y-90830000D03*
X204426526Y-73050000D03*
X199346526Y-88290000D03*
X199346526Y-75590000D03*
X194266526Y-90830000D03*
X194266526Y-73050000D03*
X191726526Y-85750000D03*
X191726526Y-78130000D03*
X186646526Y-90830000D03*
X186646526Y-83210000D03*
X186646526Y-73050000D03*
X184106526Y-78130000D03*
X181566526Y-88290000D03*
X179026526Y-83210000D03*
X179026526Y-73050000D03*
X176486526Y-78130000D03*
X173946526Y-90830000D03*
X171406526Y-85750000D03*
X168866526Y-80670000D03*
X163786526Y-85750000D03*
X163786526Y-78130000D03*
D18*
%TO.N,+12V*%
X131000000Y-62300000D03*
%TO.N,Earth_Clean*%
X210500000Y-106400000D03*
X210500000Y-98600000D03*
X210500000Y-85600000D03*
X210500000Y-79400000D03*
X124900000Y-52500000D03*
X122900000Y-52500000D03*
X124800000Y-76800000D03*
X122800000Y-76800000D03*
X122800000Y-76800000D03*
X124800000Y-88500000D03*
X124800000Y-88500000D03*
X122900000Y-88500000D03*
D19*
%TO.N,Net-(U1-V_{B})*%
X158000000Y-80000000D03*
X159500000Y-86000000D03*
%TO.N,Net-(U1-HO)*%
X155500000Y-77000000D03*
X169557983Y-73554891D03*
%TO.N,Net-(U1-LO)*%
X158000000Y-93000000D03*
X169300000Y-94000000D03*
%TO.N,L_{IN}_{_ISO}*%
X149700000Y-81000000D03*
D18*
%TO.N,Earth_Clean*%
X123000000Y-65500000D03*
X124500000Y-65500000D03*
D17*
X210500000Y-65000000D03*
X210500000Y-58500000D03*
%TD*%
D20*
%TO.N,+12V*%
X129200000Y-60500000D02*
X129000000Y-60500000D01*
X131000000Y-62300000D02*
X129200000Y-60500000D01*
D21*
%TO.N,L_{IN}*%
X130100000Y-83500000D02*
X129000000Y-83500000D01*
X134960000Y-88360000D02*
X130100000Y-83500000D01*
X134960000Y-93040000D02*
X134960000Y-88360000D01*
D22*
%TO.N,L_{IN}_{_ISO}*%
X137500000Y-85420000D02*
X137980000Y-85900000D01*
X137980000Y-85900000D02*
X144100000Y-85900000D01*
D21*
%TO.N,+12V*%
X127400000Y-76000000D02*
X129000000Y-74400000D01*
X129000000Y-74400000D02*
X129000000Y-63000000D01*
X127400000Y-76900000D02*
X127400000Y-76000000D01*
X126200000Y-78100000D02*
X127400000Y-76900000D01*
X126200000Y-83400000D02*
X126200000Y-78100000D01*
X128800000Y-86000000D02*
X126200000Y-83400000D01*
X129000000Y-86000000D02*
X128800000Y-86000000D01*
D22*
%TO.N,GND*%
X129000000Y-78500000D02*
X129000000Y-76000000D01*
X127900000Y-78500000D02*
X129000000Y-78500000D01*
X129000000Y-76000000D02*
X132100000Y-72900000D01*
X127100000Y-81600000D02*
X127100000Y-79300000D01*
X132100000Y-61100000D02*
X129000000Y-58000000D01*
X140580000Y-71600000D02*
X132200000Y-71600000D01*
X132100000Y-72900000D02*
X132100000Y-71500000D01*
X140900000Y-84300000D02*
X138800000Y-82200000D01*
X127100000Y-79300000D02*
X127900000Y-78500000D01*
X138800000Y-82200000D02*
X127700000Y-82200000D01*
X140900000Y-71920000D02*
X140580000Y-71600000D01*
X140900000Y-71920000D02*
X140480000Y-71500000D01*
X127700000Y-82200000D02*
X127100000Y-81600000D01*
X132200000Y-71600000D02*
X132100000Y-71500000D01*
X132100000Y-71500000D02*
X132100000Y-61100000D01*
D21*
%TO.N,Net-(U1-V_{B})*%
X159500000Y-81500000D02*
X159500000Y-86000000D01*
X158000000Y-80000000D02*
X159500000Y-81500000D01*
%TO.N,H_{IN}*%
X129000000Y-81000000D02*
X134945000Y-81000000D01*
X134945000Y-81000000D02*
X135225000Y-80720000D01*
%TO.N,Net-(U1-HO)*%
X161000000Y-76000000D02*
X160000000Y-77000000D01*
X169112874Y-74000000D02*
X161500000Y-74000000D01*
X161000000Y-74500000D02*
X161000000Y-76000000D01*
X161500000Y-74000000D02*
X161000000Y-74500000D01*
X160000000Y-77000000D02*
X155500000Y-77000000D01*
X169557983Y-73554891D02*
X169112874Y-74000000D01*
%TO.N,Net-(U1-LO)*%
X169300000Y-94000000D02*
X159000000Y-94000000D01*
X159000000Y-94000000D02*
X158000000Y-93000000D01*
D22*
%TO.N,Net-(R7-Pad1)*%
X140900000Y-82080000D02*
X139540000Y-80720000D01*
X139540000Y-80720000D02*
X137765000Y-80720000D01*
%TO.N,H_{IN}_{_ISO}*%
X137765000Y-73100000D02*
X138800000Y-74135000D01*
X140600000Y-80100000D02*
X144100000Y-80100000D01*
X138800000Y-78300000D02*
X140600000Y-80100000D01*
X138800000Y-74135000D02*
X138800000Y-78300000D01*
%TO.N,L_{IN}_{_ISO}*%
X144100000Y-85900000D02*
X148900000Y-85900000D01*
X148900000Y-85900000D02*
X149700000Y-85100000D01*
X149700000Y-85100000D02*
X149700000Y-81000000D01*
D23*
%TO.N,Earth_Clean*%
X159000000Y-59000000D02*
X159000000Y-37000000D01*
X128000000Y-37000000D02*
X126000000Y-39000000D01*
X182000000Y-59000000D02*
X159000000Y-59000000D01*
X159000000Y-37000000D02*
X128000000Y-37000000D01*
%TD*%
%TA.AperFunction,Conductor*%
%TO.N,GND*%
G36*
X142876678Y-53099326D02*
G01*
X142938391Y-53116163D01*
X142983500Y-53161520D01*
X143000000Y-53223324D01*
X143000000Y-59076000D01*
X142983387Y-59138000D01*
X142938000Y-59183387D01*
X142876000Y-59200000D01*
X126824000Y-59200000D01*
X126762000Y-59183387D01*
X126716613Y-59138000D01*
X126700000Y-59076000D01*
X126700000Y-53135608D01*
X126716726Y-53073412D01*
X126762392Y-53027996D01*
X126824676Y-53011610D01*
X142876678Y-53099326D01*
G37*
%TD.AperFunction*%
%TD*%
%TA.AperFunction,Conductor*%
%TO.N,/LOAD*%
G36*
X208424500Y-72516613D02*
G01*
X208469887Y-72562000D01*
X208486500Y-72624000D01*
X208486500Y-91876000D01*
X208469887Y-91938000D01*
X208424500Y-91983387D01*
X208362500Y-92000000D01*
X171000000Y-92000000D01*
X170991364Y-92008635D01*
X170991361Y-92008638D01*
X169914731Y-93085267D01*
X169870729Y-93113638D01*
X169818940Y-93121320D01*
X169768598Y-93106944D01*
X169728043Y-93085267D01*
X169693176Y-93066630D01*
X169693172Y-93066628D01*
X169687804Y-93063759D01*
X169681976Y-93061991D01*
X169503531Y-93007860D01*
X169503526Y-93007859D01*
X169497701Y-93006092D01*
X169491642Y-93005495D01*
X169491636Y-93005494D01*
X169306061Y-92987217D01*
X169300000Y-92986620D01*
X169293939Y-92987217D01*
X169108363Y-93005494D01*
X169108355Y-93005495D01*
X169102299Y-93006092D01*
X169096475Y-93007858D01*
X169096468Y-93007860D01*
X168918023Y-93061991D01*
X168918019Y-93061992D01*
X168912196Y-93063759D01*
X168906830Y-93066626D01*
X168906823Y-93066630D01*
X168742372Y-93154531D01*
X168742368Y-93154533D01*
X168736996Y-93157405D01*
X168732288Y-93161268D01*
X168732283Y-93161272D01*
X168668823Y-93213353D01*
X168631932Y-93234251D01*
X168590158Y-93241500D01*
X161124000Y-93241500D01*
X161062000Y-93224887D01*
X161016613Y-93179500D01*
X161000000Y-93117500D01*
X161000000Y-92016326D01*
X161000000Y-92000000D01*
X160983674Y-92000000D01*
X158636979Y-92000000D01*
X158575099Y-91983456D01*
X158529731Y-91938240D01*
X158512980Y-91876415D01*
X158500417Y-88124415D01*
X158516891Y-88062240D01*
X158562296Y-88016682D01*
X158624416Y-88000000D01*
X160983674Y-88000000D01*
X161000000Y-88000000D01*
X161000000Y-77124042D01*
X161009439Y-77076589D01*
X161036319Y-77036361D01*
X161205289Y-76867391D01*
X161490880Y-76581799D01*
X161504506Y-76570023D01*
X161524058Y-76555469D01*
X161556278Y-76517068D01*
X161563594Y-76509087D01*
X161564209Y-76508471D01*
X161567581Y-76505100D01*
X161587047Y-76480479D01*
X161589295Y-76477721D01*
X161638032Y-76419640D01*
X161641277Y-76413177D01*
X161643315Y-76410079D01*
X161643435Y-76409912D01*
X161643531Y-76409741D01*
X161645484Y-76406573D01*
X161649967Y-76400905D01*
X161682034Y-76332135D01*
X161683549Y-76329004D01*
X161717609Y-76261188D01*
X161719275Y-76254154D01*
X161720541Y-76250677D01*
X161720622Y-76250480D01*
X161720677Y-76250288D01*
X161721845Y-76246760D01*
X161724903Y-76240206D01*
X161740244Y-76165905D01*
X161741021Y-76162401D01*
X161758500Y-76088656D01*
X161758500Y-76081434D01*
X161758932Y-76077740D01*
X161758964Y-76077540D01*
X161758972Y-76077362D01*
X161759298Y-76073631D01*
X161760759Y-76066558D01*
X161758552Y-75990707D01*
X161758500Y-75987101D01*
X161758500Y-74882500D01*
X161775113Y-74820500D01*
X161820500Y-74775113D01*
X161882500Y-74758500D01*
X167376000Y-74758500D01*
X167438000Y-74775113D01*
X167483387Y-74820500D01*
X167500000Y-74882500D01*
X167500000Y-77500000D01*
X168438000Y-77500000D01*
X168493454Y-77513091D01*
X168537200Y-77549600D01*
X170000000Y-79500000D01*
X170014439Y-79500000D01*
X173983674Y-79500000D01*
X174000000Y-79500000D01*
X174000000Y-72624000D01*
X174016613Y-72562000D01*
X174062000Y-72516613D01*
X174124000Y-72500000D01*
X208362500Y-72500000D01*
X208424500Y-72516613D01*
G37*
%TD.AperFunction*%
%TD*%
%TA.AperFunction,Conductor*%
%TO.N,GNDPWR*%
G36*
X157429500Y-39530113D02*
G01*
X157474887Y-39575500D01*
X157491500Y-39637500D01*
X157491500Y-58967108D01*
X157491399Y-58972101D01*
X157488020Y-59055936D01*
X157488020Y-59055943D01*
X157487819Y-59060939D01*
X157488421Y-59065904D01*
X157488422Y-59065908D01*
X157498533Y-59149188D01*
X157499035Y-59154153D01*
X157506190Y-59242768D01*
X157507385Y-59247616D01*
X157511702Y-59265131D01*
X157514401Y-59279859D01*
X157516575Y-59297768D01*
X157516576Y-59297776D01*
X157517177Y-59302720D01*
X157518560Y-59307498D01*
X157518564Y-59307513D01*
X157541906Y-59388101D01*
X157543197Y-59392921D01*
X157563278Y-59474387D01*
X157563281Y-59474396D01*
X157564477Y-59479248D01*
X157566437Y-59483848D01*
X157573504Y-59500436D01*
X157578529Y-59514536D01*
X157583547Y-59531859D01*
X157583550Y-59531867D01*
X157584939Y-59536662D01*
X157587078Y-59541170D01*
X157587080Y-59541175D01*
X157623045Y-59616971D01*
X157625094Y-59621523D01*
X157657987Y-59698723D01*
X157659944Y-59703316D01*
X157662609Y-59707531D01*
X157662612Y-59707536D01*
X157672254Y-59722784D01*
X157679474Y-59735892D01*
X157687206Y-59752187D01*
X157687209Y-59752192D01*
X157689350Y-59756704D01*
X157692187Y-59760815D01*
X157692190Y-59760819D01*
X157739845Y-59829858D01*
X157742599Y-59834024D01*
X157780172Y-59893442D01*
X157790117Y-59909168D01*
X157805395Y-59926413D01*
X157814620Y-59938189D01*
X157827707Y-59957148D01*
X157831161Y-59960744D01*
X157831166Y-59960750D01*
X157864689Y-59995650D01*
X157889287Y-60021259D01*
X157892661Y-60024917D01*
X157948306Y-60087729D01*
X157948314Y-60087737D01*
X157951625Y-60091474D01*
X157955499Y-60094637D01*
X157969473Y-60106047D01*
X157980471Y-60116192D01*
X157996425Y-60132802D01*
X158000421Y-60135805D01*
X158000427Y-60135810D01*
X158067489Y-60186203D01*
X158071387Y-60189256D01*
X158140286Y-60245510D01*
X158144615Y-60248009D01*
X158144616Y-60248010D01*
X158160230Y-60257025D01*
X158172725Y-60265283D01*
X158187138Y-60276114D01*
X158187142Y-60276116D01*
X158191135Y-60279117D01*
X158195553Y-60281435D01*
X158195555Y-60281437D01*
X158269858Y-60320434D01*
X158274232Y-60322844D01*
X158351213Y-60367289D01*
X158372753Y-60375457D01*
X158386406Y-60381602D01*
X158406795Y-60392304D01*
X158491157Y-60420468D01*
X158495750Y-60422105D01*
X158578943Y-60453656D01*
X158601519Y-60458264D01*
X158615978Y-60462139D01*
X158623633Y-60464695D01*
X158633082Y-60467850D01*
X158633084Y-60467850D01*
X158637818Y-60469431D01*
X158642744Y-60470231D01*
X158642746Y-60470232D01*
X158658289Y-60472757D01*
X158725572Y-60483692D01*
X158730412Y-60484578D01*
X158817579Y-60502374D01*
X158840598Y-60503301D01*
X158855497Y-60504806D01*
X158878221Y-60508500D01*
X158878222Y-60508500D01*
X158878046Y-60509580D01*
X158932480Y-60528815D01*
X158974045Y-60576904D01*
X158984988Y-60632500D01*
X158986500Y-60632500D01*
X158986500Y-70876000D01*
X158987028Y-70880016D01*
X158987029Y-70880020D01*
X158991981Y-70917633D01*
X159003997Y-71008905D01*
X159005043Y-71012810D01*
X159005046Y-71012823D01*
X159019558Y-71066980D01*
X159020610Y-71070905D01*
X159022163Y-71074654D01*
X159022165Y-71074660D01*
X159068798Y-71187241D01*
X159071909Y-71194751D01*
X159076855Y-71201196D01*
X159076857Y-71201200D01*
X159121066Y-71258813D01*
X159153514Y-71301099D01*
X159198901Y-71346486D01*
X159305249Y-71428091D01*
X159429095Y-71479390D01*
X159491095Y-71496003D01*
X159624000Y-71513500D01*
X160362500Y-71513500D01*
X160424500Y-71530113D01*
X160469887Y-71575500D01*
X160486500Y-71637500D01*
X160486500Y-73196828D01*
X160486984Y-73200669D01*
X160486985Y-73200678D01*
X160502091Y-73320465D01*
X160502577Y-73324315D01*
X160503540Y-73328072D01*
X160515124Y-73373273D01*
X160517863Y-73383957D01*
X160519288Y-73387563D01*
X160519289Y-73387566D01*
X160562224Y-73496215D01*
X160562225Y-73496218D01*
X160565086Y-73503456D01*
X160640497Y-73607490D01*
X160645194Y-73612505D01*
X160675135Y-73667796D01*
X160674105Y-73730666D01*
X160642369Y-73784948D01*
X160509123Y-73918194D01*
X160495495Y-73929972D01*
X160481735Y-73940216D01*
X160481724Y-73940225D01*
X160475942Y-73944531D01*
X160471307Y-73950053D01*
X160471298Y-73950063D01*
X160443715Y-73982935D01*
X160436419Y-73990898D01*
X160434975Y-73992341D01*
X160434953Y-73992365D01*
X160432420Y-73994899D01*
X160430194Y-73997713D01*
X160430186Y-73997723D01*
X160412982Y-74019480D01*
X160410710Y-74022268D01*
X160366608Y-74074828D01*
X160366601Y-74074837D01*
X160361968Y-74080360D01*
X160358732Y-74086801D01*
X160356664Y-74089946D01*
X160356568Y-74090078D01*
X160356481Y-74090235D01*
X160354508Y-74093432D01*
X160350033Y-74099094D01*
X160346982Y-74105635D01*
X160346981Y-74105638D01*
X160317982Y-74167825D01*
X160316412Y-74171068D01*
X160289274Y-74225106D01*
X160257708Y-74264830D01*
X160212874Y-74288586D01*
X160162278Y-74292395D01*
X160121520Y-74287029D01*
X160121516Y-74287028D01*
X160117500Y-74286500D01*
X158524000Y-74286500D01*
X158519984Y-74287028D01*
X158519979Y-74287029D01*
X158395120Y-74303467D01*
X158395118Y-74303467D01*
X158391095Y-74303997D01*
X158387191Y-74305042D01*
X158387176Y-74305046D01*
X158333019Y-74319558D01*
X158333011Y-74319560D01*
X158329095Y-74320610D01*
X158325349Y-74322161D01*
X158325339Y-74322165D01*
X158212758Y-74368798D01*
X158212754Y-74368800D01*
X158205249Y-74371909D01*
X158198806Y-74376852D01*
X158198799Y-74376857D01*
X158102132Y-74451034D01*
X158102125Y-74451039D01*
X158098901Y-74453514D01*
X158096028Y-74456386D01*
X158096020Y-74456394D01*
X158056394Y-74496020D01*
X158056386Y-74496028D01*
X158053514Y-74498901D01*
X158051039Y-74502125D01*
X158051034Y-74502132D01*
X157976857Y-74598799D01*
X157976852Y-74598806D01*
X157971909Y-74605249D01*
X157968800Y-74612754D01*
X157968798Y-74612758D01*
X157922165Y-74725339D01*
X157922161Y-74725349D01*
X157920610Y-74729095D01*
X157919560Y-74733011D01*
X157919558Y-74733019D01*
X157905046Y-74787176D01*
X157905042Y-74787191D01*
X157903997Y-74791095D01*
X157886500Y-74924000D01*
X157886500Y-74928053D01*
X157886500Y-76117500D01*
X157869887Y-76179500D01*
X157824500Y-76224887D01*
X157762500Y-76241500D01*
X156209842Y-76241500D01*
X156168068Y-76234251D01*
X156131177Y-76213353D01*
X156067716Y-76161272D01*
X156067715Y-76161271D01*
X156063004Y-76157405D01*
X155988347Y-76117500D01*
X155893176Y-76066630D01*
X155893172Y-76066628D01*
X155887804Y-76063759D01*
X155881976Y-76061991D01*
X155703531Y-76007860D01*
X155703526Y-76007859D01*
X155697701Y-76006092D01*
X155691642Y-76005495D01*
X155691636Y-76005494D01*
X155506061Y-75987217D01*
X155500000Y-75986620D01*
X155493939Y-75987217D01*
X155308363Y-76005494D01*
X155308355Y-76005495D01*
X155302299Y-76006092D01*
X155296475Y-76007858D01*
X155296468Y-76007860D01*
X155118023Y-76061991D01*
X155118019Y-76061992D01*
X155112196Y-76063759D01*
X155106830Y-76066626D01*
X155106823Y-76066630D01*
X154942372Y-76154531D01*
X154942368Y-76154533D01*
X154936996Y-76157405D01*
X154932288Y-76161268D01*
X154932283Y-76161272D01*
X154788138Y-76279569D01*
X154788133Y-76279573D01*
X154783432Y-76283432D01*
X154779573Y-76288133D01*
X154779569Y-76288138D01*
X154661272Y-76432283D01*
X154661268Y-76432288D01*
X154657405Y-76436996D01*
X154654533Y-76442368D01*
X154654531Y-76442372D01*
X154566630Y-76606823D01*
X154566626Y-76606830D01*
X154563759Y-76612196D01*
X154561992Y-76618019D01*
X154561991Y-76618023D01*
X154507860Y-76796468D01*
X154507858Y-76796475D01*
X154506092Y-76802299D01*
X154505495Y-76808355D01*
X154505494Y-76808363D01*
X154497557Y-76888955D01*
X154486620Y-77000000D01*
X154487217Y-77006061D01*
X154505494Y-77191636D01*
X154505495Y-77191642D01*
X154506092Y-77197701D01*
X154507859Y-77203526D01*
X154507860Y-77203531D01*
X154561545Y-77380506D01*
X154563759Y-77387804D01*
X154566628Y-77393172D01*
X154566630Y-77393176D01*
X154600339Y-77456241D01*
X154657405Y-77563004D01*
X154661271Y-77567715D01*
X154661272Y-77567716D01*
X154666862Y-77574528D01*
X154783432Y-77716568D01*
X154936996Y-77842595D01*
X155112196Y-77936241D01*
X155302299Y-77993908D01*
X155500000Y-78013380D01*
X155697701Y-77993908D01*
X155887804Y-77936241D01*
X156063004Y-77842595D01*
X156131176Y-77786647D01*
X156168068Y-77765749D01*
X156209842Y-77758500D01*
X159935705Y-77758500D01*
X159953677Y-77759809D01*
X159977789Y-77763341D01*
X160027727Y-77758971D01*
X160038533Y-77758500D01*
X160040571Y-77758500D01*
X160044180Y-77758500D01*
X160075370Y-77754853D01*
X160078851Y-77754498D01*
X160154426Y-77747887D01*
X160161290Y-77745612D01*
X160164924Y-77744862D01*
X160165119Y-77744830D01*
X160165308Y-77744777D01*
X160168930Y-77743918D01*
X160176113Y-77743079D01*
X160247393Y-77717134D01*
X160250709Y-77715981D01*
X160322738Y-77692114D01*
X160322739Y-77692113D01*
X160323550Y-77694561D01*
X160370603Y-77685731D01*
X160429121Y-77704883D01*
X160471213Y-77749821D01*
X160486500Y-77809466D01*
X160486500Y-81293710D01*
X160472210Y-81351500D01*
X160432635Y-81395970D01*
X160376894Y-81416872D01*
X160317836Y-81409387D01*
X160269073Y-81375241D01*
X160243203Y-81324950D01*
X160243079Y-81323887D01*
X160217147Y-81252640D01*
X160215964Y-81249236D01*
X160212083Y-81237523D01*
X160192114Y-81177261D01*
X160188320Y-81171111D01*
X160186752Y-81167748D01*
X160186674Y-81167561D01*
X160186574Y-81167381D01*
X160184907Y-81164062D01*
X160182435Y-81157268D01*
X160178460Y-81151224D01*
X160140747Y-81093883D01*
X160138851Y-81090908D01*
X160099030Y-81026349D01*
X160093918Y-81021237D01*
X160091614Y-81018323D01*
X160091495Y-81018158D01*
X160091374Y-81018026D01*
X160088970Y-81015162D01*
X160085001Y-81009126D01*
X160029825Y-80957070D01*
X160027238Y-80954557D01*
X159038274Y-79965593D01*
X159013860Y-79930929D01*
X159002552Y-79890066D01*
X159000249Y-79866680D01*
X158993908Y-79802299D01*
X158936241Y-79612196D01*
X158842595Y-79436996D01*
X158716568Y-79283432D01*
X158563004Y-79157405D01*
X158536781Y-79143388D01*
X158393176Y-79066630D01*
X158393172Y-79066628D01*
X158387804Y-79063759D01*
X158381976Y-79061991D01*
X158203531Y-79007860D01*
X158203526Y-79007859D01*
X158197701Y-79006092D01*
X158191642Y-79005495D01*
X158191636Y-79005494D01*
X158006061Y-78987217D01*
X158000000Y-78986620D01*
X157993939Y-78987217D01*
X157808363Y-79005494D01*
X157808355Y-79005495D01*
X157802299Y-79006092D01*
X157796475Y-79007858D01*
X157796468Y-79007860D01*
X157618023Y-79061991D01*
X157618019Y-79061992D01*
X157612196Y-79063759D01*
X157606830Y-79066626D01*
X157606823Y-79066630D01*
X157442372Y-79154531D01*
X157442368Y-79154533D01*
X157436996Y-79157405D01*
X157432288Y-79161268D01*
X157432283Y-79161272D01*
X157288138Y-79279569D01*
X157288133Y-79279573D01*
X157283432Y-79283432D01*
X157279573Y-79288133D01*
X157279569Y-79288138D01*
X157161272Y-79432283D01*
X157161268Y-79432288D01*
X157157405Y-79436996D01*
X157154533Y-79442368D01*
X157154531Y-79442372D01*
X157066630Y-79606823D01*
X157066626Y-79606830D01*
X157063759Y-79612196D01*
X157061992Y-79618019D01*
X157061991Y-79618023D01*
X157007860Y-79796468D01*
X157007858Y-79796475D01*
X157006092Y-79802299D01*
X157005495Y-79808355D01*
X157005494Y-79808363D01*
X156990695Y-79958623D01*
X156986620Y-80000000D01*
X156987217Y-80006061D01*
X157005494Y-80191636D01*
X157005495Y-80191642D01*
X157006092Y-80197701D01*
X157007859Y-80203526D01*
X157007860Y-80203531D01*
X157039115Y-80306564D01*
X157063759Y-80387804D01*
X157066628Y-80393172D01*
X157066630Y-80393176D01*
X157092926Y-80442372D01*
X157157405Y-80563004D01*
X157283432Y-80716568D01*
X157436996Y-80842595D01*
X157612196Y-80936241D01*
X157802299Y-80993908D01*
X157890067Y-81002552D01*
X157930929Y-81013860D01*
X157965593Y-81038274D01*
X158705181Y-81777862D01*
X158732061Y-81818090D01*
X158741500Y-81865543D01*
X158741500Y-85290158D01*
X158734251Y-85331932D01*
X158713353Y-85368823D01*
X158661272Y-85432283D01*
X158661268Y-85432288D01*
X158657405Y-85436996D01*
X158654533Y-85442368D01*
X158654531Y-85442372D01*
X158566630Y-85606823D01*
X158566626Y-85606830D01*
X158563759Y-85612196D01*
X158561992Y-85618019D01*
X158561991Y-85618023D01*
X158507860Y-85796468D01*
X158507858Y-85796475D01*
X158506092Y-85802299D01*
X158505495Y-85808355D01*
X158505494Y-85808363D01*
X158490357Y-85962058D01*
X158486620Y-86000000D01*
X158487217Y-86006061D01*
X158505494Y-86191636D01*
X158505495Y-86191642D01*
X158506092Y-86197701D01*
X158507859Y-86203526D01*
X158507860Y-86203531D01*
X158561991Y-86381976D01*
X158563759Y-86387804D01*
X158566628Y-86393172D01*
X158566630Y-86393176D01*
X158588566Y-86434215D01*
X158657405Y-86563004D01*
X158661271Y-86567715D01*
X158661272Y-86567716D01*
X158675695Y-86585291D01*
X158783432Y-86716568D01*
X158936996Y-86842595D01*
X159112196Y-86936241D01*
X159302299Y-86993908D01*
X159500000Y-87013380D01*
X159697701Y-86993908D01*
X159887804Y-86936241D01*
X160063004Y-86842595D01*
X160216568Y-86716568D01*
X160266646Y-86655547D01*
X160315048Y-86619651D01*
X160374654Y-86610809D01*
X160431391Y-86631110D01*
X160471858Y-86675759D01*
X160486500Y-86734212D01*
X160486500Y-87362500D01*
X160469887Y-87424500D01*
X160424500Y-87469887D01*
X160362500Y-87486500D01*
X158624416Y-87486500D01*
X158620388Y-87487031D01*
X158620379Y-87487032D01*
X158495269Y-87503539D01*
X158491237Y-87504071D01*
X158487312Y-87505124D01*
X158487307Y-87505126D01*
X158433043Y-87519698D01*
X158433033Y-87519701D01*
X158429117Y-87520753D01*
X158425367Y-87522309D01*
X158425358Y-87522313D01*
X158312574Y-87569140D01*
X158312569Y-87569142D01*
X158305049Y-87572265D01*
X158298597Y-87577229D01*
X158298592Y-87577233D01*
X158201808Y-87651714D01*
X158201803Y-87651717D01*
X158198586Y-87654194D01*
X158195731Y-87657058D01*
X158195718Y-87657070D01*
X158156044Y-87696878D01*
X158156034Y-87696888D01*
X158153181Y-87699752D01*
X158150720Y-87702972D01*
X158150715Y-87702978D01*
X158076557Y-87800016D01*
X158076554Y-87800019D01*
X158071614Y-87806485D01*
X158068518Y-87814010D01*
X158068517Y-87814014D01*
X158022065Y-87926959D01*
X158022061Y-87926969D01*
X158020519Y-87930720D01*
X158019477Y-87934649D01*
X158019477Y-87934652D01*
X158005085Y-87988968D01*
X158005083Y-87988975D01*
X158004045Y-87992895D01*
X158003528Y-87996915D01*
X158003526Y-87996927D01*
X157987439Y-88122092D01*
X157987438Y-88122099D01*
X157986920Y-88126134D01*
X157986933Y-88130198D01*
X157986933Y-88130208D01*
X157999468Y-91873870D01*
X157984958Y-91932494D01*
X157944475Y-91977310D01*
X157887624Y-91997688D01*
X157808363Y-92005494D01*
X157808355Y-92005495D01*
X157802299Y-92006092D01*
X157796475Y-92007858D01*
X157796468Y-92007860D01*
X157618023Y-92061991D01*
X157618019Y-92061992D01*
X157612196Y-92063759D01*
X157606830Y-92066626D01*
X157606823Y-92066630D01*
X157442372Y-92154531D01*
X157442368Y-92154533D01*
X157436996Y-92157405D01*
X157432288Y-92161268D01*
X157432283Y-92161272D01*
X157288138Y-92279569D01*
X157288133Y-92279573D01*
X157283432Y-92283432D01*
X157279573Y-92288133D01*
X157279569Y-92288138D01*
X157161272Y-92432283D01*
X157161268Y-92432288D01*
X157157405Y-92436996D01*
X157154533Y-92442368D01*
X157154531Y-92442372D01*
X157066630Y-92606823D01*
X157066626Y-92606830D01*
X157063759Y-92612196D01*
X157061992Y-92618019D01*
X157061991Y-92618023D01*
X157007860Y-92796468D01*
X157007858Y-92796475D01*
X157006092Y-92802299D01*
X157005495Y-92808355D01*
X157005494Y-92808363D01*
X156993423Y-92930929D01*
X156986620Y-93000000D01*
X156987217Y-93006061D01*
X157005494Y-93191636D01*
X157005495Y-93191642D01*
X157006092Y-93197701D01*
X157007859Y-93203526D01*
X157007860Y-93203531D01*
X157027443Y-93268087D01*
X157063759Y-93387804D01*
X157066628Y-93393172D01*
X157066630Y-93393176D01*
X157100604Y-93456737D01*
X157157405Y-93563004D01*
X157283432Y-93716568D01*
X157436996Y-93842595D01*
X157612196Y-93936241D01*
X157802299Y-93993908D01*
X157890067Y-94002552D01*
X157930929Y-94013860D01*
X157965593Y-94038274D01*
X158418195Y-94490876D01*
X158429973Y-94504503D01*
X158444531Y-94524058D01*
X158450067Y-94528703D01*
X158482932Y-94556280D01*
X158490908Y-94563589D01*
X158494900Y-94567581D01*
X158497731Y-94569819D01*
X158497735Y-94569823D01*
X158519469Y-94587008D01*
X158522267Y-94589287D01*
X158574822Y-94633386D01*
X158574827Y-94633389D01*
X158580360Y-94638032D01*
X158586818Y-94641275D01*
X158589935Y-94643325D01*
X158590087Y-94643435D01*
X158590261Y-94643532D01*
X158593424Y-94645483D01*
X158599095Y-94649967D01*
X158605644Y-94653021D01*
X158605646Y-94653022D01*
X158667830Y-94682019D01*
X158671077Y-94683591D01*
X158732348Y-94714363D01*
X158732350Y-94714363D01*
X158738812Y-94717609D01*
X158745850Y-94719276D01*
X158749322Y-94720540D01*
X158749522Y-94720623D01*
X158749702Y-94720674D01*
X158753240Y-94721846D01*
X158759794Y-94724903D01*
X158834100Y-94740245D01*
X158837572Y-94741015D01*
X158911344Y-94758500D01*
X158918576Y-94758500D01*
X158922255Y-94758930D01*
X158922468Y-94758964D01*
X158922638Y-94758972D01*
X158926369Y-94759298D01*
X158933442Y-94760759D01*
X159009292Y-94758552D01*
X159012899Y-94758500D01*
X168590158Y-94758500D01*
X168631932Y-94765749D01*
X168668823Y-94786647D01*
X168736996Y-94842595D01*
X168912196Y-94936241D01*
X169102299Y-94993908D01*
X169300000Y-95013380D01*
X169497701Y-94993908D01*
X169687804Y-94936241D01*
X169863004Y-94842595D01*
X170016568Y-94716568D01*
X170142595Y-94563004D01*
X170236241Y-94387804D01*
X170293908Y-94197701D01*
X170313380Y-94000000D01*
X170293908Y-93802299D01*
X170236241Y-93612196D01*
X170233368Y-93606821D01*
X170231039Y-93601198D01*
X170232976Y-93600395D01*
X170221386Y-93557021D01*
X170232650Y-93501471D01*
X170267455Y-93456739D01*
X170277830Y-93448367D01*
X171176379Y-92549819D01*
X171216608Y-92522939D01*
X171264061Y-92513500D01*
X208362500Y-92513500D01*
X208424500Y-92530113D01*
X208469887Y-92575500D01*
X208486500Y-92637500D01*
X208486500Y-110362500D01*
X208469887Y-110424500D01*
X208424500Y-110469887D01*
X208362500Y-110486500D01*
X187637500Y-110486500D01*
X187575500Y-110469887D01*
X187530113Y-110424500D01*
X187513500Y-110362500D01*
X187513500Y-107128053D01*
X187513500Y-107124000D01*
X187496003Y-106991095D01*
X187479390Y-106929095D01*
X187428091Y-106805249D01*
X187346486Y-106698901D01*
X187301099Y-106653514D01*
X187291448Y-106646108D01*
X187201200Y-106576857D01*
X187201196Y-106576855D01*
X187194751Y-106571909D01*
X187187242Y-106568798D01*
X187187241Y-106568798D01*
X187074660Y-106522165D01*
X187074654Y-106522163D01*
X187070905Y-106520610D01*
X187066984Y-106519559D01*
X187066980Y-106519558D01*
X187012823Y-106505046D01*
X187012810Y-106505043D01*
X187008905Y-106503997D01*
X186993025Y-106501906D01*
X186880020Y-106487029D01*
X186880016Y-106487028D01*
X186876000Y-106486500D01*
X177124000Y-106486500D01*
X177119984Y-106487028D01*
X177119979Y-106487029D01*
X176995120Y-106503467D01*
X176995118Y-106503467D01*
X176991095Y-106503997D01*
X176987191Y-106505042D01*
X176987176Y-106505046D01*
X176933019Y-106519558D01*
X176933011Y-106519560D01*
X176929095Y-106520610D01*
X176925349Y-106522161D01*
X176925339Y-106522165D01*
X176812758Y-106568798D01*
X176812754Y-106568800D01*
X176805249Y-106571909D01*
X176798806Y-106576852D01*
X176798799Y-106576857D01*
X176702132Y-106651034D01*
X176702125Y-106651039D01*
X176698901Y-106653514D01*
X176696028Y-106656386D01*
X176696020Y-106656394D01*
X176656394Y-106696020D01*
X176656386Y-106696028D01*
X176653514Y-106698901D01*
X176651039Y-106702125D01*
X176651034Y-106702132D01*
X176576857Y-106798799D01*
X176576852Y-106798806D01*
X176571909Y-106805249D01*
X176568800Y-106812754D01*
X176568798Y-106812758D01*
X176522165Y-106925339D01*
X176522161Y-106925349D01*
X176520610Y-106929095D01*
X176519560Y-106933011D01*
X176519558Y-106933019D01*
X176505046Y-106987176D01*
X176505042Y-106987191D01*
X176503997Y-106991095D01*
X176486500Y-107124000D01*
X176486500Y-107128053D01*
X176486500Y-110362500D01*
X176469887Y-110424500D01*
X176424500Y-110469887D01*
X176362500Y-110486500D01*
X130264060Y-110486500D01*
X130216607Y-110477061D01*
X130176379Y-110450181D01*
X126549819Y-106823621D01*
X126522939Y-106783393D01*
X126513500Y-106735940D01*
X126513500Y-94460000D01*
X139586502Y-94460000D01*
X139586974Y-94465395D01*
X139605984Y-94682688D01*
X139605985Y-94682695D01*
X139606457Y-94688087D01*
X139607856Y-94693308D01*
X139607858Y-94693319D01*
X139664316Y-94904021D01*
X139664318Y-94904028D01*
X139665716Y-94909243D01*
X139668000Y-94914143D01*
X139668002Y-94914146D01*
X139760185Y-95111834D01*
X139762477Y-95116749D01*
X139765584Y-95121186D01*
X139890696Y-95299865D01*
X139890699Y-95299869D01*
X139893802Y-95304300D01*
X140055700Y-95466198D01*
X140243251Y-95597523D01*
X140450757Y-95694284D01*
X140455977Y-95695682D01*
X140455978Y-95695683D01*
X140666680Y-95752141D01*
X140666682Y-95752141D01*
X140671913Y-95753543D01*
X140900000Y-95773498D01*
X141128087Y-95753543D01*
X141349243Y-95694284D01*
X141556749Y-95597523D01*
X141744300Y-95466198D01*
X141906198Y-95304300D01*
X142037523Y-95116749D01*
X142134284Y-94909243D01*
X142193543Y-94688087D01*
X142213498Y-94460000D01*
X142193543Y-94231913D01*
X142152273Y-94077894D01*
X142135683Y-94015978D01*
X142135682Y-94015977D01*
X142134284Y-94010757D01*
X142037523Y-93803251D01*
X141906198Y-93615700D01*
X141744300Y-93453802D01*
X141739869Y-93450699D01*
X141739865Y-93450696D01*
X141561186Y-93325584D01*
X141561187Y-93325584D01*
X141556749Y-93322477D01*
X141440109Y-93268087D01*
X141354146Y-93228002D01*
X141354143Y-93228000D01*
X141349243Y-93225716D01*
X141344028Y-93224318D01*
X141344021Y-93224316D01*
X141133319Y-93167858D01*
X141133308Y-93167856D01*
X141128087Y-93166457D01*
X141122695Y-93165985D01*
X141122688Y-93165984D01*
X140905395Y-93146974D01*
X140900000Y-93146502D01*
X140894605Y-93146974D01*
X140677311Y-93165984D01*
X140677302Y-93165985D01*
X140671913Y-93166457D01*
X140666692Y-93167855D01*
X140666680Y-93167858D01*
X140455978Y-93224316D01*
X140455967Y-93224319D01*
X140450757Y-93225716D01*
X140445860Y-93227999D01*
X140445853Y-93228002D01*
X140248165Y-93320185D01*
X140248159Y-93320188D01*
X140243251Y-93322477D01*
X140238817Y-93325581D01*
X140238813Y-93325584D01*
X140060134Y-93450696D01*
X140060124Y-93450703D01*
X140055700Y-93453802D01*
X140051874Y-93457627D01*
X140051868Y-93457633D01*
X139897633Y-93611868D01*
X139897627Y-93611874D01*
X139893802Y-93615700D01*
X139890703Y-93620124D01*
X139890696Y-93620134D01*
X139765584Y-93798813D01*
X139765581Y-93798817D01*
X139762477Y-93803251D01*
X139760188Y-93808159D01*
X139760185Y-93808165D01*
X139668002Y-94005853D01*
X139667999Y-94005860D01*
X139665716Y-94010757D01*
X139664319Y-94015967D01*
X139664316Y-94015978D01*
X139607858Y-94226680D01*
X139607855Y-94226692D01*
X139606457Y-94231913D01*
X139605985Y-94237302D01*
X139605984Y-94237311D01*
X139593328Y-94381976D01*
X139586502Y-94460000D01*
X126513500Y-94460000D01*
X126513500Y-85085543D01*
X126527015Y-85029248D01*
X126564615Y-84985225D01*
X126618102Y-84963070D01*
X126675818Y-84967612D01*
X126725181Y-84997862D01*
X127755181Y-86027862D01*
X127782061Y-86068090D01*
X127791500Y-86115543D01*
X127791500Y-86748638D01*
X127791852Y-86751918D01*
X127791853Y-86751924D01*
X127796426Y-86794466D01*
X127798011Y-86809201D01*
X127800717Y-86816458D01*
X127800719Y-86816463D01*
X127846011Y-86937894D01*
X127849111Y-86946204D01*
X127854425Y-86953303D01*
X127854426Y-86953304D01*
X127898951Y-87012783D01*
X127936739Y-87063261D01*
X128053796Y-87150889D01*
X128190799Y-87201989D01*
X128251362Y-87208500D01*
X128254672Y-87208500D01*
X129658457Y-87208500D01*
X129713551Y-87221412D01*
X129757172Y-87257458D01*
X129780235Y-87309132D01*
X129777948Y-87365402D01*
X129775669Y-87371125D01*
X129774580Y-87377763D01*
X129774580Y-87377766D01*
X129750883Y-87522313D01*
X129745740Y-87553683D01*
X129755755Y-87738407D01*
X129757552Y-87744882D01*
X129757553Y-87744883D01*
X129803446Y-87910179D01*
X129803448Y-87910186D01*
X129805246Y-87916659D01*
X129808392Y-87922594D01*
X129808395Y-87922600D01*
X129888750Y-88074164D01*
X129888753Y-88074169D01*
X129891900Y-88080104D01*
X129896248Y-88085224D01*
X129896251Y-88085227D01*
X129958465Y-88158471D01*
X130011663Y-88221100D01*
X130158936Y-88333054D01*
X130326833Y-88410732D01*
X130507503Y-88450500D01*
X130642754Y-88450500D01*
X130646113Y-88450500D01*
X130783910Y-88435514D01*
X130959221Y-88376444D01*
X131117736Y-88281070D01*
X131252041Y-88153849D01*
X131355858Y-88000730D01*
X131424331Y-87828875D01*
X131454260Y-87646317D01*
X131444245Y-87461593D01*
X131394754Y-87283341D01*
X131357475Y-87213026D01*
X131311249Y-87125835D01*
X131311247Y-87125832D01*
X131308100Y-87119896D01*
X131188337Y-86978900D01*
X131041064Y-86866946D01*
X130873167Y-86789268D01*
X130851178Y-86784428D01*
X130699062Y-86750945D01*
X130699061Y-86750944D01*
X130692497Y-86749500D01*
X130553887Y-86749500D01*
X130550552Y-86749862D01*
X130550546Y-86749863D01*
X130422772Y-86763759D01*
X130422769Y-86763759D01*
X130416090Y-86764486D01*
X130409726Y-86766630D01*
X130409718Y-86766632D01*
X130372093Y-86779310D01*
X130314098Y-86784428D01*
X130260159Y-86762512D01*
X130222168Y-86718395D01*
X130208500Y-86661801D01*
X130208500Y-85254672D01*
X130208500Y-85251362D01*
X130201989Y-85190799D01*
X130150889Y-85053796D01*
X130063261Y-84936739D01*
X129946204Y-84849111D01*
X129937896Y-84846012D01*
X129937894Y-84846011D01*
X129816463Y-84800719D01*
X129816458Y-84800717D01*
X129809201Y-84798011D01*
X129801497Y-84797182D01*
X129801494Y-84797182D01*
X129751924Y-84791853D01*
X129751918Y-84791852D01*
X129748638Y-84791500D01*
X129745328Y-84791500D01*
X129649251Y-84791500D01*
X129585387Y-84773789D01*
X129539766Y-84725715D01*
X129525421Y-84661012D01*
X129546449Y-84598162D01*
X129596844Y-84555119D01*
X129597929Y-84554612D01*
X129606558Y-84550589D01*
X129779776Y-84429301D01*
X129783607Y-84425469D01*
X129787751Y-84421993D01*
X129789102Y-84423603D01*
X129836104Y-84396466D01*
X129900292Y-84396466D01*
X129955879Y-84428560D01*
X134165181Y-88637862D01*
X134192061Y-88678090D01*
X134201500Y-88725543D01*
X134201500Y-91610425D01*
X134187032Y-91668552D01*
X134147003Y-91713115D01*
X134090756Y-91733714D01*
X134058512Y-91737180D01*
X134058498Y-91737183D01*
X134050799Y-91738011D01*
X134043543Y-91740717D01*
X134043536Y-91740719D01*
X133922105Y-91786011D01*
X133922099Y-91786013D01*
X133913796Y-91789111D01*
X133906698Y-91794423D01*
X133906695Y-91794426D01*
X133803835Y-91871426D01*
X133803831Y-91871429D01*
X133796739Y-91876739D01*
X133791429Y-91883831D01*
X133791426Y-91883835D01*
X133714426Y-91986695D01*
X133714423Y-91986698D01*
X133709111Y-91993796D01*
X133706013Y-92002099D01*
X133706011Y-92002105D01*
X133660719Y-92123536D01*
X133660717Y-92123543D01*
X133658011Y-92130799D01*
X133657182Y-92138500D01*
X133657182Y-92138505D01*
X133651853Y-92188075D01*
X133651500Y-92191362D01*
X133651500Y-93888638D01*
X133651852Y-93891918D01*
X133651853Y-93891924D01*
X133656807Y-93938008D01*
X133658011Y-93949201D01*
X133660717Y-93956458D01*
X133660719Y-93956463D01*
X133692760Y-94042366D01*
X133709111Y-94086204D01*
X133714425Y-94093303D01*
X133714426Y-94093304D01*
X133788036Y-94191636D01*
X133796739Y-94203261D01*
X133913796Y-94290889D01*
X134050799Y-94341989D01*
X134111362Y-94348500D01*
X135805328Y-94348500D01*
X135808638Y-94348500D01*
X135869201Y-94341989D01*
X136006204Y-94290889D01*
X136123261Y-94203261D01*
X136210889Y-94086204D01*
X136261989Y-93949201D01*
X136263568Y-93934505D01*
X136283948Y-93878581D01*
X136328038Y-93838596D01*
X136385681Y-93823763D01*
X136443595Y-93837498D01*
X136488437Y-93876638D01*
X136489797Y-93878581D01*
X136493802Y-93884300D01*
X136655700Y-94046198D01*
X136843251Y-94177523D01*
X137050757Y-94274284D01*
X137055977Y-94275682D01*
X137055978Y-94275683D01*
X137266680Y-94332141D01*
X137266682Y-94332141D01*
X137271913Y-94333543D01*
X137500000Y-94353498D01*
X137728087Y-94333543D01*
X137949243Y-94274284D01*
X138156749Y-94177523D01*
X138344300Y-94046198D01*
X138506198Y-93884300D01*
X138637523Y-93696749D01*
X138734284Y-93489243D01*
X138793543Y-93268087D01*
X138813498Y-93040000D01*
X138793543Y-92811913D01*
X138789404Y-92796468D01*
X138735683Y-92595978D01*
X138735682Y-92595977D01*
X138734284Y-92590757D01*
X138637523Y-92383251D01*
X138506198Y-92195700D01*
X138344300Y-92033802D01*
X138339869Y-92030699D01*
X138339865Y-92030696D01*
X138161186Y-91905584D01*
X138161187Y-91905584D01*
X138156749Y-91902477D01*
X138104545Y-91878134D01*
X137954146Y-91808002D01*
X137954143Y-91808000D01*
X137949243Y-91805716D01*
X137944028Y-91804318D01*
X137944021Y-91804316D01*
X137733319Y-91747858D01*
X137733308Y-91747856D01*
X137728087Y-91746457D01*
X137722695Y-91745985D01*
X137722688Y-91745984D01*
X137505395Y-91726974D01*
X137500000Y-91726502D01*
X137494605Y-91726974D01*
X137277311Y-91745984D01*
X137277302Y-91745985D01*
X137271913Y-91746457D01*
X137266692Y-91747855D01*
X137266680Y-91747858D01*
X137055978Y-91804316D01*
X137055967Y-91804319D01*
X137050757Y-91805716D01*
X137045860Y-91807999D01*
X137045853Y-91808002D01*
X136848165Y-91900185D01*
X136848159Y-91900188D01*
X136843251Y-91902477D01*
X136838817Y-91905581D01*
X136838813Y-91905584D01*
X136660134Y-92030696D01*
X136660124Y-92030703D01*
X136655700Y-92033802D01*
X136651874Y-92037627D01*
X136651868Y-92037633D01*
X136497633Y-92191868D01*
X136497627Y-92191874D01*
X136493802Y-92195700D01*
X136490701Y-92200128D01*
X136490694Y-92200137D01*
X136488433Y-92203367D01*
X136443590Y-92242504D01*
X136385677Y-92256236D01*
X136328036Y-92241402D01*
X136283947Y-92201417D01*
X136263569Y-92145495D01*
X136263492Y-92144780D01*
X136261989Y-92130799D01*
X136210889Y-91993796D01*
X136123261Y-91876739D01*
X136006204Y-91789111D01*
X135997896Y-91786012D01*
X135997894Y-91786011D01*
X135876463Y-91740719D01*
X135876458Y-91740717D01*
X135869201Y-91738011D01*
X135861500Y-91737183D01*
X135861487Y-91737180D01*
X135829244Y-91733714D01*
X135772997Y-91713115D01*
X135732968Y-91668552D01*
X135718500Y-91610425D01*
X135718500Y-88424296D01*
X135719809Y-88406325D01*
X135720308Y-88402913D01*
X135723341Y-88382211D01*
X135718971Y-88332272D01*
X135718500Y-88321467D01*
X135718500Y-88319429D01*
X135718500Y-88315820D01*
X135714862Y-88284700D01*
X135714495Y-88281109D01*
X135709245Y-88221100D01*
X135707887Y-88205574D01*
X135705614Y-88198714D01*
X135704860Y-88195062D01*
X135704830Y-88194875D01*
X135704778Y-88194692D01*
X135703917Y-88191062D01*
X135703079Y-88183887D01*
X135677127Y-88112587D01*
X135675952Y-88109203D01*
X135668007Y-88085227D01*
X135652114Y-88037262D01*
X135648322Y-88031115D01*
X135646750Y-88027743D01*
X135646673Y-88027558D01*
X135646580Y-88027391D01*
X135644905Y-88024056D01*
X135642435Y-88017268D01*
X135626404Y-87992895D01*
X135600754Y-87953896D01*
X135598815Y-87950852D01*
X135562822Y-87892497D01*
X135559030Y-87886349D01*
X135553919Y-87881238D01*
X135551615Y-87878324D01*
X135551496Y-87878159D01*
X135551374Y-87878026D01*
X135548970Y-87875162D01*
X135545001Y-87869126D01*
X135489825Y-87817070D01*
X135487238Y-87814557D01*
X134586923Y-86914242D01*
X134554829Y-86858654D01*
X134554830Y-86794466D01*
X134586924Y-86738878D01*
X134642513Y-86706786D01*
X134706699Y-86706786D01*
X134731913Y-86713543D01*
X134960000Y-86733498D01*
X135188087Y-86713543D01*
X135409243Y-86654284D01*
X135616749Y-86557523D01*
X135804300Y-86426198D01*
X135966198Y-86264300D01*
X136097523Y-86076749D01*
X136117619Y-86033650D01*
X136163374Y-85981478D01*
X136230000Y-85962058D01*
X136296626Y-85981478D01*
X136342380Y-86033650D01*
X136362477Y-86076749D01*
X136365584Y-86081186D01*
X136490696Y-86259865D01*
X136490699Y-86259869D01*
X136493802Y-86264300D01*
X136655700Y-86426198D01*
X136843251Y-86557523D01*
X137050757Y-86654284D01*
X137055977Y-86655682D01*
X137055978Y-86655683D01*
X137266680Y-86712141D01*
X137266682Y-86712141D01*
X137271913Y-86713543D01*
X137500000Y-86733498D01*
X137728087Y-86713543D01*
X137949243Y-86654284D01*
X138022512Y-86620118D01*
X138074917Y-86608500D01*
X142934164Y-86608500D01*
X142991421Y-86622511D01*
X143035738Y-86661376D01*
X143093802Y-86744300D01*
X143255700Y-86906198D01*
X143443251Y-87037523D01*
X143650757Y-87134284D01*
X143655977Y-87135682D01*
X143655978Y-87135683D01*
X143866680Y-87192141D01*
X143866682Y-87192141D01*
X143871913Y-87193543D01*
X144100000Y-87213498D01*
X144328087Y-87193543D01*
X144549243Y-87134284D01*
X144756749Y-87037523D01*
X144944300Y-86906198D01*
X145106198Y-86744300D01*
X145164261Y-86661376D01*
X145208579Y-86622511D01*
X145265836Y-86608500D01*
X148874837Y-86608500D01*
X148882324Y-86608726D01*
X148943093Y-86612402D01*
X149002994Y-86601424D01*
X149010369Y-86600302D01*
X149070801Y-86592965D01*
X149079275Y-86589750D01*
X149080494Y-86589289D01*
X149102119Y-86583259D01*
X149112329Y-86581389D01*
X149167845Y-86556402D01*
X149174753Y-86553541D01*
X149181546Y-86550964D01*
X149231675Y-86531954D01*
X149240211Y-86526061D01*
X149259762Y-86515033D01*
X149269226Y-86510775D01*
X149276038Y-86505437D01*
X149317157Y-86473223D01*
X149323165Y-86468801D01*
X149373273Y-86434215D01*
X149413658Y-86388628D01*
X149418760Y-86383208D01*
X150183208Y-85618760D01*
X150188628Y-85613658D01*
X150234215Y-85573273D01*
X150268801Y-85523165D01*
X150273223Y-85517157D01*
X150306147Y-85475133D01*
X150306146Y-85475133D01*
X150310775Y-85469226D01*
X150315033Y-85459762D01*
X150326061Y-85440211D01*
X150331954Y-85431675D01*
X150353541Y-85374753D01*
X150356402Y-85367845D01*
X150381389Y-85312329D01*
X150383259Y-85302119D01*
X150389289Y-85280494D01*
X150390305Y-85277814D01*
X150392965Y-85270801D01*
X150400301Y-85210377D01*
X150401428Y-85202974D01*
X150404990Y-85183536D01*
X150412402Y-85143092D01*
X150408726Y-85082318D01*
X150408500Y-85074831D01*
X150408500Y-81770767D01*
X150415749Y-81728993D01*
X150436647Y-81692102D01*
X150458245Y-81665785D01*
X150542595Y-81563004D01*
X150636241Y-81387804D01*
X150693908Y-81197701D01*
X150713380Y-81000000D01*
X150693908Y-80802299D01*
X150636241Y-80612196D01*
X150542595Y-80436996D01*
X150416568Y-80283432D01*
X150263004Y-80157405D01*
X150165700Y-80105395D01*
X150093176Y-80066630D01*
X150093172Y-80066628D01*
X150087804Y-80063759D01*
X150081976Y-80061991D01*
X149903531Y-80007860D01*
X149903526Y-80007859D01*
X149897701Y-80006092D01*
X149891642Y-80005495D01*
X149891636Y-80005494D01*
X149706061Y-79987217D01*
X149700000Y-79986620D01*
X149693939Y-79987217D01*
X149508363Y-80005494D01*
X149508355Y-80005495D01*
X149502299Y-80006092D01*
X149496475Y-80007858D01*
X149496468Y-80007860D01*
X149318023Y-80061991D01*
X149318019Y-80061992D01*
X149312196Y-80063759D01*
X149306830Y-80066626D01*
X149306823Y-80066630D01*
X149142372Y-80154531D01*
X149142368Y-80154533D01*
X149136996Y-80157405D01*
X149132288Y-80161268D01*
X149132283Y-80161272D01*
X148988138Y-80279569D01*
X148988133Y-80279573D01*
X148983432Y-80283432D01*
X148979573Y-80288133D01*
X148979569Y-80288138D01*
X148861272Y-80432283D01*
X148861268Y-80432288D01*
X148857405Y-80436996D01*
X148854533Y-80442368D01*
X148854531Y-80442372D01*
X148766630Y-80606823D01*
X148766626Y-80606830D01*
X148763759Y-80612196D01*
X148761992Y-80618019D01*
X148761991Y-80618023D01*
X148707860Y-80796468D01*
X148707858Y-80796475D01*
X148706092Y-80802299D01*
X148705495Y-80808355D01*
X148705494Y-80808363D01*
X148692106Y-80944300D01*
X148686620Y-81000000D01*
X148687217Y-81006061D01*
X148705494Y-81191636D01*
X148705495Y-81191642D01*
X148706092Y-81197701D01*
X148707859Y-81203526D01*
X148707860Y-81203531D01*
X148761991Y-81381976D01*
X148763759Y-81387804D01*
X148766628Y-81393172D01*
X148766630Y-81393176D01*
X148835601Y-81522211D01*
X148857405Y-81563004D01*
X148861271Y-81567715D01*
X148861272Y-81567716D01*
X148963353Y-81692102D01*
X148984251Y-81728993D01*
X148991500Y-81770767D01*
X148991500Y-84755168D01*
X148982061Y-84802621D01*
X148955181Y-84842849D01*
X148642849Y-85155181D01*
X148602621Y-85182061D01*
X148555168Y-85191500D01*
X145265836Y-85191500D01*
X145208579Y-85177489D01*
X145164261Y-85138623D01*
X145122220Y-85078582D01*
X145106198Y-85055700D01*
X144944300Y-84893802D01*
X144939869Y-84890699D01*
X144939865Y-84890696D01*
X144764872Y-84768165D01*
X144756749Y-84762477D01*
X144751834Y-84760185D01*
X144554146Y-84668002D01*
X144554143Y-84668000D01*
X144549243Y-84665716D01*
X144544028Y-84664318D01*
X144544021Y-84664316D01*
X144333319Y-84607858D01*
X144333308Y-84607856D01*
X144328087Y-84606457D01*
X144322695Y-84605985D01*
X144322688Y-84605984D01*
X144105395Y-84586974D01*
X144100000Y-84586502D01*
X144094605Y-84586974D01*
X143877311Y-84605984D01*
X143877302Y-84605985D01*
X143871913Y-84606457D01*
X143866692Y-84607855D01*
X143866680Y-84607858D01*
X143655978Y-84664316D01*
X143655967Y-84664319D01*
X143650757Y-84665716D01*
X143645860Y-84667999D01*
X143645853Y-84668002D01*
X143448165Y-84760185D01*
X143448159Y-84760188D01*
X143443251Y-84762477D01*
X143438817Y-84765581D01*
X143438813Y-84765584D01*
X143260134Y-84890696D01*
X143260124Y-84890703D01*
X143255700Y-84893802D01*
X143251874Y-84897627D01*
X143251868Y-84897633D01*
X143097631Y-85051870D01*
X143097625Y-85051876D01*
X143093802Y-85055700D01*
X143090699Y-85060130D01*
X143090696Y-85060135D01*
X143035739Y-85138623D01*
X142991421Y-85177489D01*
X142934164Y-85191500D01*
X142111351Y-85191500D01*
X142047023Y-85173509D01*
X142001362Y-85124757D01*
X141987616Y-85059390D01*
X142009776Y-84996377D01*
X142034412Y-84961192D01*
X142034412Y-84961191D01*
X142037523Y-84956749D01*
X142134284Y-84749243D01*
X142193543Y-84528087D01*
X142213498Y-84300000D01*
X142193543Y-84071913D01*
X142187850Y-84050668D01*
X142135683Y-83855978D01*
X142135682Y-83855977D01*
X142134284Y-83850757D01*
X142037523Y-83643251D01*
X141906198Y-83455700D01*
X141744300Y-83293802D01*
X141739864Y-83290696D01*
X141735717Y-83287216D01*
X141736490Y-83286294D01*
X141702255Y-83247261D01*
X141688242Y-83190000D01*
X141702255Y-83132739D01*
X141736490Y-83093705D01*
X141735717Y-83092784D01*
X141739862Y-83089305D01*
X141744300Y-83086198D01*
X141906198Y-82924300D01*
X142037523Y-82736749D01*
X142134284Y-82529243D01*
X142193543Y-82308087D01*
X142213498Y-82080000D01*
X142193543Y-81851913D01*
X142160606Y-81728993D01*
X142135683Y-81635978D01*
X142135682Y-81635977D01*
X142134284Y-81630757D01*
X142037523Y-81423251D01*
X141906198Y-81235700D01*
X141744300Y-81073802D01*
X141739869Y-81070699D01*
X141739865Y-81070696D01*
X141687564Y-81034075D01*
X141647238Y-80986858D01*
X141634858Y-80926010D01*
X141653530Y-80866790D01*
X141698572Y-80824047D01*
X141758688Y-80808500D01*
X142934164Y-80808500D01*
X142991421Y-80822511D01*
X143035738Y-80861376D01*
X143093802Y-80944300D01*
X143255700Y-81106198D01*
X143443251Y-81237523D01*
X143650757Y-81334284D01*
X143655977Y-81335682D01*
X143655978Y-81335683D01*
X143866680Y-81392141D01*
X143866682Y-81392141D01*
X143871913Y-81393543D01*
X144100000Y-81413498D01*
X144328087Y-81393543D01*
X144549243Y-81334284D01*
X144756749Y-81237523D01*
X144944300Y-81106198D01*
X145106198Y-80944300D01*
X145237523Y-80756749D01*
X145334284Y-80549243D01*
X145393543Y-80328087D01*
X145413498Y-80100000D01*
X145393543Y-79871913D01*
X145377167Y-79810799D01*
X145335683Y-79655978D01*
X145335682Y-79655977D01*
X145334284Y-79650757D01*
X145237523Y-79443251D01*
X145141085Y-79305523D01*
X145109303Y-79260134D01*
X145109301Y-79260132D01*
X145106198Y-79255700D01*
X144944300Y-79093802D01*
X144939869Y-79090699D01*
X144939865Y-79090696D01*
X144772361Y-78973409D01*
X144756749Y-78962477D01*
X144643529Y-78909682D01*
X144554146Y-78868002D01*
X144554143Y-78868000D01*
X144549243Y-78865716D01*
X144544028Y-78864318D01*
X144544021Y-78864316D01*
X144333319Y-78807858D01*
X144333308Y-78807856D01*
X144328087Y-78806457D01*
X144322695Y-78805985D01*
X144322688Y-78805984D01*
X144105395Y-78786974D01*
X144100000Y-78786502D01*
X144094605Y-78786974D01*
X143877311Y-78805984D01*
X143877302Y-78805985D01*
X143871913Y-78806457D01*
X143866692Y-78807855D01*
X143866680Y-78807858D01*
X143655978Y-78864316D01*
X143655967Y-78864319D01*
X143650757Y-78865716D01*
X143645860Y-78867999D01*
X143645853Y-78868002D01*
X143448165Y-78960185D01*
X143448159Y-78960188D01*
X143443251Y-78962477D01*
X143438817Y-78965581D01*
X143438813Y-78965584D01*
X143260134Y-79090696D01*
X143260124Y-79090703D01*
X143255700Y-79093802D01*
X143251874Y-79097627D01*
X143251868Y-79097633D01*
X143097631Y-79251870D01*
X143097625Y-79251876D01*
X143093802Y-79255700D01*
X143090699Y-79260130D01*
X143090696Y-79260135D01*
X143035739Y-79338623D01*
X142991421Y-79377489D01*
X142934164Y-79391500D01*
X140944833Y-79391500D01*
X140897380Y-79382061D01*
X140857152Y-79355181D01*
X139544819Y-78042849D01*
X139517939Y-78002621D01*
X139508500Y-77955168D01*
X139508500Y-74160163D01*
X139508726Y-74152676D01*
X139511350Y-74109303D01*
X139512402Y-74091907D01*
X139501423Y-74032000D01*
X139500301Y-74024620D01*
X139500015Y-74022268D01*
X139492965Y-73964199D01*
X139489285Y-73954497D01*
X139483260Y-73932880D01*
X139482741Y-73930049D01*
X139481389Y-73922671D01*
X139456403Y-73867155D01*
X139453536Y-73860233D01*
X139434613Y-73810337D01*
X139431954Y-73803325D01*
X139426055Y-73794780D01*
X139415035Y-73775239D01*
X139410775Y-73765774D01*
X139373229Y-73717851D01*
X139368793Y-73711822D01*
X139338474Y-73667897D01*
X139338473Y-73667896D01*
X139334215Y-73661727D01*
X139288630Y-73621342D01*
X139283193Y-73616223D01*
X139094263Y-73427293D01*
X139063673Y-73376868D01*
X139060506Y-73328258D01*
X139058543Y-73328087D01*
X139078026Y-73105395D01*
X139078498Y-73100000D01*
X139058543Y-72871913D01*
X139030734Y-72768131D01*
X139000683Y-72655978D01*
X139000682Y-72655977D01*
X138999284Y-72650757D01*
X138921946Y-72484904D01*
X138910594Y-72424390D01*
X138929748Y-72365875D01*
X138974685Y-72323786D01*
X139034328Y-72308500D01*
X139558395Y-72308500D01*
X139625020Y-72327920D01*
X139670776Y-72380095D01*
X139762477Y-72576749D01*
X139765584Y-72581186D01*
X139890696Y-72759865D01*
X139890699Y-72759869D01*
X139893802Y-72764300D01*
X140055700Y-72926198D01*
X140060132Y-72929301D01*
X140060134Y-72929303D01*
X140079828Y-72943093D01*
X140243251Y-73057523D01*
X140450757Y-73154284D01*
X140455977Y-73155682D01*
X140455978Y-73155683D01*
X140666680Y-73212141D01*
X140666682Y-73212141D01*
X140671913Y-73213543D01*
X140900000Y-73233498D01*
X141128087Y-73213543D01*
X141349243Y-73154284D01*
X141556749Y-73057523D01*
X141744300Y-72926198D01*
X141906198Y-72764300D01*
X142037523Y-72576749D01*
X142134284Y-72369243D01*
X142193543Y-72148087D01*
X142213498Y-71920000D01*
X142193543Y-71691913D01*
X142155643Y-71550471D01*
X142135683Y-71475978D01*
X142135682Y-71475977D01*
X142134284Y-71470757D01*
X142037523Y-71263251D01*
X141906198Y-71075700D01*
X141744300Y-70913802D01*
X141739869Y-70910699D01*
X141739865Y-70910696D01*
X141561186Y-70785584D01*
X141561187Y-70785584D01*
X141556749Y-70782477D01*
X141524631Y-70767500D01*
X141354146Y-70688002D01*
X141354143Y-70688000D01*
X141349243Y-70685716D01*
X141344028Y-70684318D01*
X141344021Y-70684316D01*
X141133319Y-70627858D01*
X141133308Y-70627856D01*
X141128087Y-70626457D01*
X141122695Y-70625985D01*
X141122688Y-70625984D01*
X140905395Y-70606974D01*
X140900000Y-70606502D01*
X140894605Y-70606974D01*
X140677311Y-70625984D01*
X140677302Y-70625985D01*
X140671913Y-70626457D01*
X140666692Y-70627855D01*
X140666680Y-70627858D01*
X140455978Y-70684316D01*
X140455967Y-70684319D01*
X140450757Y-70685716D01*
X140445860Y-70687999D01*
X140445853Y-70688002D01*
X140248158Y-70780188D01*
X140248150Y-70780192D01*
X140243251Y-70782477D01*
X140238827Y-70785574D01*
X140238816Y-70785581D01*
X140119576Y-70869075D01*
X140085740Y-70885761D01*
X140048453Y-70891500D01*
X132932500Y-70891500D01*
X132870500Y-70874887D01*
X132825113Y-70829500D01*
X132808500Y-70767500D01*
X132808500Y-61125163D01*
X132808726Y-61117676D01*
X132811949Y-61064394D01*
X132812402Y-61056907D01*
X132801423Y-60997000D01*
X132800301Y-60989620D01*
X132793869Y-60936642D01*
X132793868Y-60936639D01*
X132792965Y-60929199D01*
X132789285Y-60919497D01*
X132783260Y-60897880D01*
X132782741Y-60895049D01*
X132781389Y-60887671D01*
X132756403Y-60832155D01*
X132753536Y-60825233D01*
X132734613Y-60775337D01*
X132731954Y-60768325D01*
X132726055Y-60759780D01*
X132715035Y-60740239D01*
X132710775Y-60730774D01*
X132673229Y-60682851D01*
X132668793Y-60676822D01*
X132638474Y-60632897D01*
X132638473Y-60632896D01*
X132634215Y-60626727D01*
X132588630Y-60586342D01*
X132583193Y-60581223D01*
X131927151Y-59925181D01*
X131896901Y-59875818D01*
X131892359Y-59818102D01*
X131914514Y-59764615D01*
X131958537Y-59727015D01*
X132014832Y-59713500D01*
X142871947Y-59713500D01*
X142876000Y-59713500D01*
X143008905Y-59696003D01*
X143070905Y-59679390D01*
X143194751Y-59628091D01*
X143301099Y-59546486D01*
X143346486Y-59501099D01*
X143428091Y-59394751D01*
X143479390Y-59270905D01*
X143496003Y-59208905D01*
X143513500Y-59076000D01*
X143513500Y-53223324D01*
X143496124Y-53090872D01*
X143479624Y-53029068D01*
X143428672Y-52905583D01*
X143347593Y-52799417D01*
X143302484Y-52754060D01*
X143299282Y-52751587D01*
X143299279Y-52751584D01*
X143203171Y-52677349D01*
X143196760Y-52672397D01*
X143189288Y-52669266D01*
X143077275Y-52622330D01*
X143077265Y-52622326D01*
X143073548Y-52620769D01*
X143069652Y-52619706D01*
X143015737Y-52604996D01*
X143015728Y-52604994D01*
X143011835Y-52603932D01*
X143007837Y-52603385D01*
X143007826Y-52603383D01*
X142883494Y-52586382D01*
X142883488Y-52586381D01*
X142879484Y-52585834D01*
X142875446Y-52585811D01*
X142875433Y-52585811D01*
X126831548Y-52498140D01*
X126831544Y-52498140D01*
X126827482Y-52498118D01*
X126823453Y-52498627D01*
X126823451Y-52498628D01*
X126698073Y-52514495D01*
X126698059Y-52514497D01*
X126694027Y-52515008D01*
X126690091Y-52516043D01*
X126690083Y-52516045D01*
X126669047Y-52521580D01*
X126612893Y-52523194D01*
X126561790Y-52499864D01*
X126526225Y-52456377D01*
X126513500Y-52401660D01*
X126513500Y-43264060D01*
X126522939Y-43216607D01*
X126549819Y-43176379D01*
X130176379Y-39549819D01*
X130216607Y-39522939D01*
X130264060Y-39513500D01*
X157367500Y-39513500D01*
X157429500Y-39530113D01*
G37*
%TD.AperFunction*%
%TD*%
%TA.AperFunction,Conductor*%
%TO.N,Earth_Clean*%
G36*
X211937500Y-35017113D02*
G01*
X211982887Y-35062500D01*
X211999500Y-35124500D01*
X211999500Y-43000000D01*
X211999500Y-114875500D01*
X211982887Y-114937500D01*
X211937500Y-114982887D01*
X211875500Y-114999500D01*
X122124500Y-114999500D01*
X122062500Y-114982887D01*
X122017113Y-114937500D01*
X122000500Y-114875500D01*
X122000500Y-83377789D01*
X125436659Y-83377789D01*
X125437288Y-83384980D01*
X125437288Y-83384986D01*
X125441028Y-83427725D01*
X125441500Y-83438533D01*
X125441500Y-83444180D01*
X125441916Y-83447739D01*
X125441917Y-83447756D01*
X125445139Y-83475321D01*
X125445505Y-83478905D01*
X125451484Y-83547238D01*
X125452113Y-83554426D01*
X125454381Y-83561273D01*
X125455143Y-83564962D01*
X125455168Y-83565121D01*
X125455220Y-83565302D01*
X125456081Y-83568937D01*
X125456921Y-83576113D01*
X125459391Y-83582900D01*
X125459392Y-83582903D01*
X125482854Y-83647367D01*
X125484038Y-83650771D01*
X125507886Y-83722738D01*
X125511675Y-83728881D01*
X125513255Y-83732269D01*
X125513328Y-83732446D01*
X125513417Y-83732605D01*
X125515095Y-83735946D01*
X125517565Y-83742732D01*
X125549448Y-83791207D01*
X125559245Y-83806103D01*
X125561178Y-83809138D01*
X125600970Y-83873651D01*
X125606080Y-83878761D01*
X125608385Y-83881676D01*
X125608502Y-83881838D01*
X125608621Y-83881968D01*
X125611027Y-83884836D01*
X125614999Y-83890874D01*
X125620254Y-83895831D01*
X125620255Y-83895833D01*
X125670173Y-83942928D01*
X125672760Y-83945441D01*
X125963681Y-84236362D01*
X125990561Y-84276590D01*
X126000000Y-84324043D01*
X126000000Y-107000000D01*
X130000000Y-111000000D01*
X130012211Y-111000000D01*
X176983674Y-111000000D01*
X177000000Y-111000000D01*
X177000000Y-107124000D01*
X177016613Y-107062000D01*
X177062000Y-107016613D01*
X177124000Y-107000000D01*
X186876000Y-107000000D01*
X186938000Y-107016613D01*
X186983387Y-107062000D01*
X187000000Y-107124000D01*
X187000000Y-111000000D01*
X187016326Y-111000000D01*
X208983674Y-111000000D01*
X209000000Y-111000000D01*
X209000000Y-43999784D01*
X208000000Y-43000000D01*
X204000000Y-39000000D01*
X203987789Y-39000000D01*
X130012211Y-39000000D01*
X130000000Y-39000000D01*
X129991364Y-39008635D01*
X129991361Y-39008638D01*
X126008638Y-42991361D01*
X126008635Y-42991364D01*
X126000000Y-43000000D01*
X126000000Y-43012211D01*
X126000000Y-77175956D01*
X125990561Y-77223409D01*
X125963681Y-77263637D01*
X125709123Y-77518194D01*
X125695495Y-77529972D01*
X125681735Y-77540216D01*
X125681724Y-77540225D01*
X125675942Y-77544531D01*
X125671307Y-77550053D01*
X125671298Y-77550063D01*
X125643715Y-77582935D01*
X125636419Y-77590898D01*
X125634975Y-77592341D01*
X125634953Y-77592365D01*
X125632420Y-77594899D01*
X125630194Y-77597713D01*
X125630186Y-77597723D01*
X125612982Y-77619480D01*
X125610710Y-77622268D01*
X125566608Y-77674828D01*
X125566601Y-77674837D01*
X125561968Y-77680360D01*
X125558732Y-77686801D01*
X125556664Y-77689946D01*
X125556568Y-77690078D01*
X125556481Y-77690235D01*
X125554508Y-77693432D01*
X125550033Y-77699094D01*
X125546982Y-77705635D01*
X125546981Y-77705638D01*
X125517982Y-77767825D01*
X125516427Y-77771037D01*
X125482391Y-77838812D01*
X125480727Y-77845828D01*
X125479446Y-77849350D01*
X125479376Y-77849518D01*
X125479328Y-77849689D01*
X125478147Y-77853252D01*
X125475097Y-77859794D01*
X125473638Y-77866857D01*
X125473636Y-77866865D01*
X125459759Y-77934072D01*
X125458979Y-77937592D01*
X125441500Y-78011344D01*
X125441500Y-78018557D01*
X125441067Y-78022261D01*
X125441036Y-78022453D01*
X125441028Y-78022638D01*
X125440701Y-78026370D01*
X125439241Y-78033442D01*
X125439450Y-78040649D01*
X125439450Y-78040658D01*
X125441448Y-78109293D01*
X125441500Y-78112899D01*
X125441500Y-83335705D01*
X125440190Y-83353677D01*
X125436659Y-83377789D01*
X122000500Y-83377789D01*
X122000500Y-35124500D01*
X122017113Y-35062500D01*
X122062500Y-35017113D01*
X122124500Y-35000500D01*
X211875500Y-35000500D01*
X211937500Y-35017113D01*
G37*
%TD.AperFunction*%
%TD*%
%TA.AperFunction,Conductor*%
%TO.N,+BATT*%
G36*
X203783393Y-39522939D02*
G01*
X203823621Y-39549819D01*
X207636800Y-43362998D01*
X207636940Y-43363139D01*
X208450172Y-44176195D01*
X208477058Y-44216427D01*
X208486500Y-44263886D01*
X208486500Y-71862500D01*
X208469887Y-71924500D01*
X208424500Y-71969887D01*
X208362500Y-71986500D01*
X174124000Y-71986500D01*
X174119984Y-71987028D01*
X174119979Y-71987029D01*
X174029515Y-71998939D01*
X174013330Y-72000000D01*
X170500000Y-72000000D01*
X170491364Y-72008635D01*
X170491361Y-72008638D01*
X169948901Y-72551097D01*
X169891350Y-72583700D01*
X169825226Y-72582077D01*
X169761518Y-72562752D01*
X169761511Y-72562750D01*
X169755684Y-72560983D01*
X169749625Y-72560386D01*
X169749619Y-72560385D01*
X169564044Y-72542108D01*
X169557983Y-72541511D01*
X169551922Y-72542108D01*
X169366346Y-72560385D01*
X169366338Y-72560386D01*
X169360282Y-72560983D01*
X169354458Y-72562749D01*
X169354451Y-72562751D01*
X169176006Y-72616882D01*
X169176002Y-72616883D01*
X169170179Y-72618650D01*
X169164813Y-72621517D01*
X169164806Y-72621521D01*
X169000355Y-72709422D01*
X169000351Y-72709424D01*
X168994979Y-72712296D01*
X168990271Y-72716159D01*
X168990266Y-72716163D01*
X168846121Y-72834460D01*
X168846116Y-72834464D01*
X168841415Y-72838323D01*
X168837556Y-72843024D01*
X168837552Y-72843029D01*
X168719255Y-72987174D01*
X168719251Y-72987179D01*
X168715388Y-72991887D01*
X168712516Y-72997259D01*
X168712514Y-72997263D01*
X168624611Y-73161718D01*
X168624608Y-73161724D01*
X168621742Y-73167087D01*
X168621654Y-73167374D01*
X168596389Y-73205185D01*
X168556162Y-73232062D01*
X168508711Y-73241500D01*
X161564296Y-73241500D01*
X161546325Y-73240191D01*
X161529360Y-73237706D01*
X161529358Y-73237705D01*
X161522211Y-73236659D01*
X161515019Y-73237288D01*
X161515013Y-73237288D01*
X161477121Y-73240603D01*
X161472272Y-73241028D01*
X161461467Y-73241500D01*
X161455820Y-73241500D01*
X161452258Y-73241916D01*
X161452246Y-73241917D01*
X161424682Y-73245139D01*
X161421096Y-73245505D01*
X161352768Y-73251483D01*
X161352763Y-73251483D01*
X161345574Y-73252113D01*
X161338721Y-73254382D01*
X161335035Y-73255144D01*
X161334866Y-73255171D01*
X161334708Y-73255216D01*
X161331050Y-73256083D01*
X161323887Y-73256921D01*
X161317108Y-73259388D01*
X161317109Y-73259388D01*
X161252651Y-73282848D01*
X161249249Y-73284030D01*
X161184122Y-73305611D01*
X161184108Y-73305617D01*
X161177262Y-73307886D01*
X161174549Y-73309558D01*
X161115889Y-73320562D01*
X161057374Y-73301408D01*
X161015286Y-73256470D01*
X161000000Y-73196828D01*
X161000000Y-71016326D01*
X161000000Y-71000000D01*
X160983674Y-71000000D01*
X159624000Y-71000000D01*
X159562000Y-70983387D01*
X159516613Y-70938000D01*
X159500000Y-70876000D01*
X159500000Y-60632500D01*
X159516613Y-60570500D01*
X159562000Y-60525113D01*
X159624000Y-60508500D01*
X179325425Y-60508500D01*
X179387425Y-60525113D01*
X179432811Y-60570499D01*
X179482175Y-60656000D01*
X179484334Y-60658900D01*
X179689296Y-60934213D01*
X179689302Y-60934220D01*
X179691449Y-60937104D01*
X179931943Y-61192012D01*
X180200403Y-61417278D01*
X180493200Y-61609853D01*
X180806374Y-61767135D01*
X181135690Y-61886996D01*
X181476694Y-61967816D01*
X181824775Y-62008500D01*
X182171626Y-62008500D01*
X182175225Y-62008500D01*
X182523306Y-61967816D01*
X182864310Y-61886996D01*
X183193626Y-61767135D01*
X183506800Y-61609853D01*
X183799597Y-61417278D01*
X184068057Y-61192012D01*
X184308551Y-60937104D01*
X184517825Y-60656000D01*
X184693050Y-60352501D01*
X184831857Y-60030712D01*
X184932367Y-59694984D01*
X184993222Y-59349857D01*
X185013599Y-59000000D01*
X184993222Y-58650143D01*
X184932367Y-58305016D01*
X184831857Y-57969288D01*
X184693050Y-57647499D01*
X184593393Y-57474887D01*
X184519633Y-57347131D01*
X184519630Y-57347127D01*
X184517825Y-57344000D01*
X184308551Y-57062896D01*
X184068057Y-56807988D01*
X183977877Y-56732318D01*
X183802353Y-56585034D01*
X183802346Y-56585029D01*
X183799597Y-56582722D01*
X183506800Y-56390147D01*
X183503571Y-56388525D01*
X183503567Y-56388523D01*
X183196863Y-56234490D01*
X183196853Y-56234485D01*
X183193626Y-56232865D01*
X183190235Y-56231630D01*
X183190224Y-56231626D01*
X182867697Y-56114236D01*
X182867685Y-56114232D01*
X182864310Y-56113004D01*
X182860819Y-56112176D01*
X182860807Y-56112173D01*
X182526801Y-56033012D01*
X182526795Y-56033011D01*
X182523306Y-56032184D01*
X182519748Y-56031768D01*
X182519736Y-56031766D01*
X182178795Y-55991917D01*
X182178790Y-55991916D01*
X182175225Y-55991500D01*
X181824775Y-55991500D01*
X181821210Y-55991916D01*
X181821204Y-55991917D01*
X181480263Y-56031766D01*
X181480248Y-56031768D01*
X181476694Y-56032184D01*
X181473207Y-56033010D01*
X181473198Y-56033012D01*
X181139192Y-56112173D01*
X181139175Y-56112177D01*
X181135690Y-56113004D01*
X181132319Y-56114230D01*
X181132302Y-56114236D01*
X180809775Y-56231626D01*
X180809758Y-56231633D01*
X180806374Y-56232865D01*
X180803152Y-56234482D01*
X180803136Y-56234490D01*
X180496432Y-56388523D01*
X180496420Y-56388529D01*
X180493200Y-56390147D01*
X180490186Y-56392128D01*
X180490183Y-56392131D01*
X180203405Y-56580747D01*
X180203398Y-56580751D01*
X180200403Y-56582722D01*
X180197660Y-56585022D01*
X180197646Y-56585034D01*
X179934706Y-56805669D01*
X179934700Y-56805674D01*
X179931943Y-56807988D01*
X179929470Y-56810608D01*
X179929467Y-56810612D01*
X179693923Y-57060273D01*
X179693917Y-57060279D01*
X179691449Y-57062896D01*
X179689309Y-57065770D01*
X179689296Y-57065786D01*
X179484334Y-57341099D01*
X179484328Y-57341107D01*
X179482175Y-57344000D01*
X179480369Y-57347127D01*
X179480367Y-57347131D01*
X179432812Y-57429500D01*
X179387425Y-57474887D01*
X179325425Y-57491500D01*
X160632500Y-57491500D01*
X160570500Y-57474887D01*
X160525113Y-57429500D01*
X160508500Y-57367500D01*
X160508500Y-46624000D01*
X160525113Y-46562000D01*
X160570500Y-46516613D01*
X160632500Y-46500000D01*
X169483674Y-46500000D01*
X169500000Y-46500000D01*
X169500000Y-39637500D01*
X169516613Y-39575500D01*
X169562000Y-39530113D01*
X169624000Y-39513500D01*
X203735940Y-39513500D01*
X203783393Y-39522939D01*
G37*
%TD.AperFunction*%
%TD*%
M02*
